<svg width="21" height="21" viewBox="0 0 21 21" fill="none" xmlns="http://www.w3.org/2000/svg">
<path d="M14.3972 5.30537C13.7184 3.71627 12.5118 2.41029 10.9812 1.60822C9.45064 0.806158 7.69006 0.557212 5.99712 0.903473C4.30418 1.24973 2.78274 2.16996 1.69001 3.50857C0.597275 4.84719 0.000297982 6.52207 0 8.25006V14.4376C0 14.7857 0.138281 15.1195 0.384422 15.3656C0.630564 15.6118 0.964403 15.7501 1.3125 15.7501H6.62531C7.21058 17.0866 8.17231 18.2238 9.3931 19.0229C10.6139 19.822 12.0409 20.2484 13.5 20.2501H19.6875C20.0356 20.2501 20.3694 20.1118 20.6156 19.8656C20.8617 19.6195 21 19.2857 21 18.9376V12.7501C20.9996 10.9166 20.3277 9.1467 19.1111 7.77497C17.8945 6.40325 16.2175 5.52471 14.3972 5.30537ZM1.5 8.25006C1.5 7.06337 1.85189 5.90333 2.51118 4.91664C3.17047 3.92994 4.10754 3.16091 5.2039 2.70678C6.30026 2.25266 7.50666 2.13384 8.67054 2.36535C9.83443 2.59686 10.9035 3.1683 11.7426 4.00742C12.5818 4.84653 13.1532 5.91563 13.3847 7.07952C13.6162 8.2434 13.4974 9.4498 13.0433 10.5462C12.5892 11.6425 11.8201 12.5796 10.8334 13.2389C9.84673 13.8982 8.68669 14.2501 7.5 14.2501H1.5V8.25006ZM19.5 18.7501H13.5C12.439 18.7488 11.3973 18.467 10.4805 17.933C9.56371 17.399 8.80452 16.632 8.28 15.7097C9.30723 15.6032 10.3013 15.2854 11.1999 14.7763C12.0985 14.2673 12.8822 13.578 13.5018 12.7518C14.1213 11.9255 14.5634 10.9801 14.8003 9.97488C15.0371 8.96966 15.0636 7.92633 14.8781 6.91037C16.1937 7.22084 17.3659 7.96644 18.2048 9.02634C19.0436 10.0862 19.5 11.3984 19.5 12.7501V18.7501Z" fill="#9E9E9E"/>
</svg>
