<svg width="19" height="19" viewBox="0 0 19 19" fill="none" xmlns="http://www.w3.org/2000/svg">
<path d="M18.5 8.84294V17.5101C18.5 17.9079 18.342 18.2895 18.0607 18.5708C17.7794 18.8521 17.3978 19.0101 17 19.0101H13.25C12.8522 19.0101 12.4706 18.8521 12.1893 18.5708C11.908 18.2895 11.75 17.9079 11.75 17.5101V13.7601C11.75 13.5612 11.671 13.3704 11.5303 13.2298C11.3897 13.0891 11.1989 13.0101 11 13.0101H8C7.80109 13.0101 7.61032 13.0891 7.46967 13.2298C7.32902 13.3704 7.25 13.5612 7.25 13.7601V17.5101C7.25 17.9079 7.09196 18.2895 6.81066 18.5708C6.52936 18.8521 6.14782 19.0101 5.75 19.0101H2C1.60218 19.0101 1.22064 18.8521 0.93934 18.5708C0.658035 18.2895 0.5 17.9079 0.5 17.5101V8.84294C0.499968 8.63534 0.543031 8.42999 0.626461 8.23989C0.709891 8.04979 0.831873 7.87908 0.984687 7.73856L8.48469 0.662312L8.495 0.651999C8.77113 0.400874 9.13097 0.261719 9.50422 0.261719C9.87747 0.261719 10.2373 0.400874 10.5134 0.651999C10.5166 0.655668 10.5201 0.659113 10.5237 0.662312L18.0237 7.73856C18.175 7.87982 18.2954 8.05087 18.3774 8.24093C18.4594 8.43099 18.5011 8.63596 18.5 8.84294Z" fill="#292861"/>
</svg>
