<svg width="19" height="20" viewBox="0 0 19 20" fill="none" xmlns="http://www.w3.org/2000/svg">
<path d="M18.0153 8.22843L10.5153 1.15218C10.5116 1.14898 10.5082 1.14554 10.505 1.14187C10.2289 0.890742 9.86903 0.751587 9.49578 0.751587C9.12253 0.751587 8.7627 0.890742 8.48656 1.14187L8.47625 1.15218L0.984687 8.22843C0.831873 8.36895 0.709891 8.53966 0.626461 8.72976C0.543031 8.91986 0.499968 9.12521 0.5 9.33281V18C0.5 18.3978 0.658035 18.7793 0.93934 19.0607C1.22064 19.342 1.60218 19.5 2 19.5H6.5C6.89782 19.5 7.27936 19.342 7.56066 19.0607C7.84196 18.7793 8 18.3978 8 18V13.5H11V18C11 18.3978 11.158 18.7793 11.4393 19.0607C11.7206 19.342 12.1022 19.5 12.5 19.5H17C17.3978 19.5 17.7794 19.342 18.0607 19.0607C18.342 18.7793 18.5 18.3978 18.5 18V9.33281C18.5 9.12521 18.457 8.91986 18.3735 8.72976C18.2901 8.53966 18.1681 8.36895 18.0153 8.22843ZM17 18H12.5V13.5C12.5 13.1022 12.342 12.7206 12.0607 12.4393C11.7794 12.158 11.3978 12 11 12H8C7.60218 12 7.22064 12.158 6.93934 12.4393C6.65804 12.7206 6.5 13.1022 6.5 13.5V18H2V9.33281L2.01031 9.32343L9.5 2.24999L16.9906 9.32156L17.0009 9.33093L17 18Z" fill="#9E9E9E"/>
</svg>
