<svg width="20" height="20" viewBox="0 0 20 20" fill="none" xmlns="http://www.w3.org/2000/svg">
<g id="apple">
<path id="apple_2" d="M10.8374 5.75729C10.5036 5.75862 10.1805 5.63909 9.92791 5.42077C9.76669 5.28547 9.64098 5.11282 9.56173 4.91785C9.48247 4.72287 9.45206 4.51148 9.47315 4.30207C9.59355 3.38035 9.97545 2.5124 10.5737 1.80092C11.1467 1.12068 11.8862 0.60051 12.7201 0.291129C12.9385 0.210295 13.1742 0.187913 13.404 0.226199C13.6337 0.264486 13.8494 0.362112 14.0298 0.509412C14.2218 0.660029 14.3702 0.859075 14.4597 1.08607C14.5492 1.31306 14.5766 1.55981 14.5391 1.80092C14.4093 2.66385 14.0584 3.4785 13.5205 4.16565C12.9252 4.92596 12.1033 5.47705 11.1739 5.7391C11.0632 5.76096 10.9499 5.76708 10.8374 5.75729ZM13.2021 1.57354C12.5887 1.81106 12.0468 2.2026 11.6287 2.71043C11.2024 3.21131 10.9279 3.82342 10.8374 4.47488C11.4728 4.25021 12.0333 3.85347 12.4563 3.3289C12.8566 2.82051 13.1141 2.21457 13.2021 1.57354ZM7.5268 19.7638C5.95334 19.7638 4.79826 18.3358 4.04337 17.108C2.00606 13.9793 1.58769 10.0502 3.0611 7.76731C3.49205 7.0512 4.09232 6.45191 4.80915 6.02214C5.52597 5.59236 6.33739 5.34525 7.17209 5.30254C7.8624 5.32254 8.54339 5.46736 9.18211 5.73001C9.57358 5.90196 9.9923 6.00356 10.419 6.03015C10.8981 6.00058 11.3686 5.88987 11.8106 5.70272C12.4728 5.4265 13.185 5.29025 13.9025 5.30254C14.8483 5.38659 15.7476 5.75075 16.4855 6.34848C16.6729 6.49334 16.8262 6.67757 16.9346 6.88815C17.0431 7.09873 17.104 7.33054 17.113 7.56722C17.125 7.79254 17.0872 8.01772 17.0023 8.22678C16.9174 8.43584 16.7875 8.62365 16.6219 8.77687C16.2913 9.09422 16.0376 9.48286 15.8799 9.91315C15.7223 10.3434 15.665 10.804 15.7124 11.2598C15.7493 11.7318 15.8919 12.1893 16.1297 12.5987C16.3674 13.008 16.6942 13.3586 17.0858 13.6246C17.4108 13.8313 17.6493 14.1496 17.7564 14.5196C17.8636 14.8897 17.8321 15.2861 17.6678 15.6346C17.4383 16.1065 17.1769 16.5623 16.8857 16.9989C15.9762 18.3722 14.8756 19.7729 13.3477 19.7911C12.8074 19.7986 12.2756 19.657 11.8106 19.3818C11.3811 19.18 10.9117 19.0775 10.4372 19.0816C9.94402 19.0773 9.45713 19.1928 9.0184 19.4182C8.55538 19.6493 8.04429 19.7677 7.5268 19.7638ZM7.17209 6.6668C6.56252 6.70186 5.97088 6.88606 5.44914 7.20323C4.9274 7.52039 4.49152 7.96082 4.17979 8.48583C3.17933 10.032 3.18843 13.3153 5.15297 16.3349C5.77144 17.2444 6.59 18.3631 7.50861 18.3722C7.83857 18.3853 8.16665 18.3166 8.46359 18.1721C9.07451 17.8608 9.7516 17.7017 10.4372 17.7083C11.1142 17.701 11.7826 17.8603 12.3836 18.1721C12.6673 18.3153 12.9763 18.4018 13.2931 18.4268C14.2026 18.4268 15.0485 17.2626 15.7033 16.2531C15.9672 15.8651 16.2013 15.4577 16.4036 15.0343C16.4144 15.0116 16.4206 14.987 16.4219 14.9619C16.4231 14.9369 16.4194 14.9118 16.411 14.8881C16.4025 14.8645 16.3895 14.8427 16.3726 14.8241C16.3558 14.8055 16.3354 14.7904 16.3127 14.7796C15.7428 14.4023 15.2654 13.9013 14.9158 13.3139C14.5662 12.7266 14.3535 12.068 14.2936 11.3872C14.2247 10.7166 14.312 10.0392 14.5487 9.40801C14.7853 8.77683 15.165 8.20903 15.6578 7.74912C15.679 7.73184 15.6951 7.70928 15.7047 7.68372C15.7143 7.65816 15.717 7.63052 15.7124 7.6036C15.7125 7.56567 15.7045 7.52816 15.6888 7.49363C15.6731 7.4591 15.6501 7.42836 15.6214 7.40351C15.0996 6.98496 14.4679 6.726 13.8024 6.65771C13.2703 6.66225 12.7445 6.77359 12.2563 6.98513C11.6773 7.22178 11.062 7.35715 10.4372 7.38532C9.85177 7.36261 9.27539 7.23315 8.73645 7.00332C8.24018 6.79573 7.70982 6.68164 7.17209 6.6668Z" fill="black"/>
</g>
</svg>
