<svg width="24" height="24" viewBox="0 0 24 24" fill="none" xmlns="http://www.w3.org/2000/svg">
<g clip-path="url(#clip0_4411_16721)">
<rect width="24" height="24" fill="#B5E2DC"/>
<path d="M18.7221 22.1043C18.6661 22.1443 18.6021 22.1843 18.5461 22.2243C18.4821 22.2643 18.4261 22.3043 18.3621 22.3363C18.3061 22.3683 18.2581 22.4003 18.2021 22.4323C18.1941 22.4403 18.1861 22.4403 18.1781 22.4483C17.9941 22.5603 17.8021 22.6643 17.6101 22.7603C17.5541 22.7923 17.4901 22.8243 17.4341 22.8483C17.4341 22.8483 17.4261 22.8563 17.4181 22.8563C17.3541 22.8883 17.2901 22.9203 17.2261 22.9523C17.0981 23.0163 16.9621 23.0723 16.8341 23.1283C16.7701 23.1603 16.6981 23.1843 16.6341 23.2083C16.5701 23.2323 16.4981 23.2643 16.4341 23.2883C16.3701 23.3123 16.2981 23.3443 16.2341 23.3683C16.2341 23.3683 16.2341 23.3683 16.2261 23.3683C16.1621 23.3923 16.0901 23.4163 16.0261 23.4403C15.8821 23.4883 15.7301 23.5363 15.5861 23.5843C15.5381 23.6003 15.4821 23.6163 15.4341 23.6323C15.2821 23.6803 15.1301 23.7203 14.9781 23.7523C14.9221 23.7683 14.8661 23.7763 14.8021 23.7923C14.6581 23.8243 14.5061 23.8563 14.3621 23.8883C14.3301 23.8963 14.3061 23.8963 14.2741 23.9043C14.2261 23.9123 14.1701 23.9203 14.1221 23.9283C14.0501 23.9363 13.9861 23.9523 13.9141 23.9603C13.8821 23.9683 13.8501 23.9683 13.8181 23.9763C13.7781 23.9843 13.7301 23.9923 13.6821 23.9923C13.5541 24.0083 13.4181 24.0243 13.2901 24.0403C13.2501 24.0483 13.2021 24.0483 13.1621 24.0563H13.1541C13.0981 24.0643 13.0421 24.0643 12.9861 24.0723C12.9301 24.0803 12.8741 24.0803 12.8181 24.0803C12.7861 24.0803 12.7461 24.0883 12.7141 24.0883C12.6501 24.0883 12.5941 24.0963 12.5381 24.0963C12.4581 24.0963 12.3861 24.1043 12.3061 24.1043C12.2261 24.1043 12.1541 24.1043 12.0741 24.1043C12.0181 24.1043 11.9621 24.1043 11.9061 24.1043C8.53808 24.0563 5.49808 22.6243 3.33808 20.3523C3.33808 20.3523 3.33808 20.3443 3.33008 20.3443C3.57808 19.8563 4.49808 18.9763 5.45808 18.2483C6.67408 17.3283 8.39408 16.7603 8.39408 16.7603C8.39408 16.7603 9.52207 16.5763 13.7061 17.4483C16.8981 18.1203 18.2581 20.8483 18.7221 22.1043Z" fill="#F7D3B5"/>
<path d="M14.5941 19.6648C14.4261 20.4888 13.3381 20.9768 11.5061 20.2408C9.25814 19.3288 8.39414 16.7608 8.39414 16.7608C8.27414 14.9208 7.99414 13.3448 7.99414 13.3448C10.5941 13.1208 13.6661 16.1608 13.6661 16.1608L14.0181 17.6648C14.0501 17.7928 14.1141 17.9048 14.2101 17.9848C14.3781 18.2728 14.7061 19.1368 14.5941 19.6648Z" fill="#F7D3B5"/>
<path d="M14.2097 17.9925C12.6817 17.9125 11.5537 17.6885 10.3457 15.5205C11.3697 16.4245 12.5777 16.7685 13.8497 16.9285L14.0177 17.6645C14.0497 17.8005 14.1137 17.9125 14.2097 17.9925Z" fill="#EFBDA5"/>
<path d="M17.3709 8.35257C17.5149 9.02457 17.5869 9.56857 17.1949 11.3606C16.8029 13.1526 17.5549 14.9446 15.6669 16.5846C14.3949 17.6886 12.1709 17.8966 10.3949 16.6886C9.79493 16.2806 9.24293 15.7126 8.79493 14.9686C8.44293 14.3846 8.03493 13.8326 7.57894 13.3286C6.94694 12.6406 6.18694 11.2566 6.56294 8.80857C7.17094 4.82457 11.1149 4.36857 13.4429 4.80857C15.7709 5.24857 16.9789 6.57657 17.3709 8.35257Z" fill="#F7D3B5"/>
<path d="M9.71323 11.4806C9.71323 11.4806 9.46523 10.2806 8.29723 10.4246C7.28923 10.5526 6.93723 12.9686 9.22523 13.6406" fill="#F7D3B5"/>
<path fill-rule="evenodd" clip-rule="evenodd" d="M8.76973 11.2454C8.90474 11.3009 8.9806 11.4167 9.01498 11.5567C9.04828 11.6923 9.0463 11.8615 9.0218 12.0543C9.0106 12.1713 9.05659 12.2655 9.11175 12.3352C9.13936 12.3702 9.16802 12.3972 9.18966 12.4154C9.20039 12.4244 9.20914 12.431 9.21481 12.4351C9.21763 12.4371 9.21967 12.4385 9.22078 12.4393C9.22124 12.4396 9.22154 12.4398 9.22167 12.4399C9.27915 12.477 9.29589 12.5537 9.259 12.6114C9.22201 12.6693 9.14508 12.6862 9.08717 12.6493L9.152 12.5478C9.08717 12.6492 9.08713 12.6492 9.08708 12.6492L9.08699 12.6491L9.08677 12.649L9.08627 12.6487C9.0859 12.6484 9.08545 12.6481 9.08494 12.6478C9.08392 12.6471 9.08263 12.6463 9.08108 12.6452C9.07798 12.6431 9.07387 12.6403 9.06888 12.6367C9.05893 12.6294 9.04542 12.6192 9.02965 12.6059C8.99829 12.5796 8.95695 12.5406 8.91656 12.4896C8.83596 12.3876 8.75412 12.2304 8.77436 12.028C8.77447 12.0269 8.7746 12.0258 8.77474 12.0246C8.79802 11.8423 8.79593 11.7081 8.77333 11.6161C8.75175 11.5282 8.71575 11.4922 8.67505 11.4756L8.67416 11.4752C8.58496 11.4379 8.52841 11.4416 8.49337 11.4531C8.45714 11.4651 8.42573 11.4917 8.39882 11.5322C8.37158 11.5733 8.35309 11.6228 8.34257 11.6671C8.3374 11.6888 8.33461 11.7073 8.33346 11.7205C8.33296 11.7261 8.33285 11.7297 8.33283 11.7316C8.34366 11.7951 8.30386 11.8572 8.24033 11.8731C8.17367 11.8898 8.10612 11.8492 8.08945 11.7826C8.08206 11.753 8.08369 11.7202 8.08557 11.6988C8.08789 11.6724 8.09279 11.6419 8.10049 11.6095C8.11572 11.5455 8.14374 11.4666 8.19149 11.3946C8.23959 11.3221 8.31167 11.2512 8.41519 11.2169C8.51979 11.1823 8.63909 11.1909 8.76973 11.2454Z" fill="#423232"/>
<path d="M15.2589 13.3203C15.2589 13.3203 15.5629 13.3363 15.8509 12.9923C16.0109 12.8003 16.1469 12.5603 16.0589 12.4883C15.9709 12.4083 14.5229 12.6323 14.4269 12.8243C14.3309 13.0163 14.8909 13.3203 15.2589 13.3203Z" fill="#EFBDA5"/>
<path fill-rule="evenodd" clip-rule="evenodd" d="M15.6216 10.63C15.6216 10.63 15.6216 10.63 15.6216 10.63C15.6216 10.63 15.6216 10.63 15.6216 10.63C15.62 10.5613 15.5632 10.5069 15.4945 10.5083C15.4259 10.5098 15.3713 10.5666 15.3728 10.6353L15.4972 10.6327C15.3728 10.6353 15.3728 10.6354 15.3728 10.6354L15.3728 10.6355L15.3728 10.6358L15.3728 10.6365C15.3728 10.6371 15.3728 10.6378 15.3729 10.6388C15.3729 10.6406 15.373 10.6432 15.3732 10.6465C15.3734 10.6532 15.3739 10.6626 15.3746 10.6747C15.3761 10.6989 15.3788 10.7338 15.3836 10.7781C15.3931 10.8665 15.4111 10.9925 15.4446 11.1454C15.5117 11.451 15.6417 11.8655 15.8933 12.3027M15.6216 10.63C15.6216 10.63 15.6216 10.63 15.6216 10.63L15.6216 10.63L15.6216 10.6311C15.6216 10.6321 15.6217 10.6339 15.6218 10.6364C15.622 10.6413 15.6223 10.649 15.623 10.6593C15.6243 10.68 15.6266 10.7111 15.631 10.7514C15.6397 10.8319 15.6563 10.9489 15.6877 11.092C15.7506 11.3785 15.8727 11.768 16.109 12.1787L16.1091 12.1787C16.2468 12.4185 16.2032 12.7182 16.0404 12.9602C15.8757 13.205 15.5838 13.4031 15.1952 13.4598C15.1272 13.4698 15.064 13.4227 15.0541 13.3547C15.0441 13.2867 15.0912 13.2235 15.1592 13.2136C15.4825 13.1664 15.7107 13.0045 15.8339 12.8213C15.9591 12.6353 15.9715 12.439 15.8933 12.3028" fill="#423232"/>
<path opacity="0.42" d="M11.1619 13.7287C11.617 13.7287 11.9859 13.4242 11.9859 13.0487C11.9859 12.6731 11.617 12.3687 11.1619 12.3687C10.7068 12.3687 10.3379 12.6731 10.3379 13.0487C10.3379 13.4242 10.7068 13.7287 11.1619 13.7287Z" fill="#ED938A"/>
<path opacity="0.42" d="M17.0662 12.3848C17.0422 12.8328 17.0502 13.2728 17.0182 13.7128C16.6662 13.6328 16.4102 13.3688 16.4102 13.0568C16.4102 12.7208 16.6902 12.4488 17.0662 12.3848Z" fill="#ED938A"/>
<path d="M19.5287 20.6142C18.3927 19.1502 16.6327 18.5422 15.6647 18.1822C15.5847 17.7822 15.4327 17.3422 15.1927 16.9182C14.8247 17.1422 14.4007 17.3102 13.9607 17.3982L14.0247 17.6622C14.0567 17.7902 14.2167 18.3822 13.9687 19.1422C13.7607 19.7822 12.9207 20.0702 11.4967 19.4222C8.7207 18.1662 8.4007 16.7502 8.4007 16.7502C8.3527 15.9822 8.2727 15.2622 8.2007 14.6782C7.3367 14.8702 6.3367 15.2622 5.7927 16.0862C5.1207 17.0942 4.8727 18.1182 4.9367 18.9342C3.7687 19.6782 1.9607 20.8062 1.3687 22.8222C0.600703 25.4462 0.728703 27.0542 0.728703 27.0542H21.4007C21.3767 27.0622 21.0727 22.6062 19.5287 20.6142Z" fill="#6060D8"/>
<path fill-rule="evenodd" clip-rule="evenodd" d="M7.13836 17.8697C7.2049 17.8526 7.27273 17.8926 7.28986 17.9592L7.16937 17.9902C7.28986 17.9592 7.28985 17.9591 7.28984 17.9591L7.28983 17.959C7.28983 17.959 7.28983 17.959 7.28984 17.9591L7.29 17.9597C7.29017 17.9603 7.29046 17.9614 7.29088 17.9629C7.29171 17.966 7.29304 17.9708 7.29492 17.9773C7.29867 17.9903 7.30459 18.0101 7.31294 18.0361C7.32965 18.088 7.35611 18.1645 7.39455 18.2608C7.47145 18.4535 7.59619 18.7251 7.7866 19.0374C8.16731 19.6618 8.8102 20.4483 9.85849 21.0922C9.91704 21.1281 9.93535 21.2047 9.89939 21.2633C9.86342 21.3218 9.7868 21.3402 9.72825 21.3042C8.64054 20.6361 7.97143 19.8185 7.57414 19.1669C7.37555 18.8412 7.24479 18.5569 7.16344 18.353C7.12276 18.2511 7.0944 18.1692 7.07608 18.1123C7.06692 18.0839 7.06026 18.0616 7.05582 18.0462C7.0536 18.0386 7.05194 18.0326 7.05079 18.0284C7.05022 18.0263 7.04978 18.0246 7.04946 18.0234L7.04908 18.0219L7.04896 18.0215L7.04891 18.0213C7.04889 18.0212 7.04888 18.0212 7.16937 17.9902L7.04888 18.0212C7.03175 17.9546 7.07181 17.8868 7.13836 17.8697Z" fill="#423232"/>
<path fill-rule="evenodd" clip-rule="evenodd" d="M15.6278 18.0608C15.6947 18.0454 15.7615 18.0871 15.777 18.154L15.6558 18.1821C15.777 18.154 15.777 18.1541 15.777 18.1541L15.7771 18.1543L15.7772 18.1548L15.7775 18.1564C15.7779 18.1577 15.7783 18.1597 15.7789 18.1622C15.78 18.1673 15.7816 18.1747 15.7836 18.1842C15.7876 18.2033 15.7933 18.2311 15.8 18.2667C15.8135 18.3379 15.8312 18.4403 15.8484 18.5666C15.8829 18.8189 15.9158 19.1677 15.9092 19.5532C15.896 20.3172 15.7269 21.2582 15.0675 21.8581C15.0167 21.9043 14.938 21.9006 14.8918 21.8498C14.8455 21.799 14.8492 21.7203 14.9001 21.674C15.4806 21.1459 15.6475 20.295 15.6604 19.5489C15.6668 19.1794 15.6352 18.8438 15.6019 18.6003C15.5853 18.4787 15.5683 18.3804 15.5555 18.3129C15.5491 18.2791 15.5438 18.2531 15.5401 18.2356C15.5383 18.2269 15.5369 18.2203 15.5359 18.216C15.5354 18.2139 15.5351 18.2123 15.5349 18.2113L15.5346 18.2103L15.5346 18.2101L15.5346 18.2101L15.5346 18.2101C15.5191 18.1431 15.5608 18.0763 15.6278 18.0608Z" fill="#423232"/>
<path fill-rule="evenodd" clip-rule="evenodd" d="M11.8413 21.2724C11.9063 21.2946 11.941 21.3653 11.9188 21.4303L11.9188 21.4303L11.9186 21.431L11.9178 21.4333C11.9171 21.4354 11.916 21.4387 11.9145 21.4431C11.9116 21.4518 11.9073 21.4649 11.9019 21.4819C11.891 21.5159 11.8755 21.5657 11.8572 21.6282C11.8206 21.7533 11.7728 21.9287 11.7286 22.1298C11.6393 22.5357 11.5674 23.0321 11.6204 23.4296C11.6295 23.4977 11.5816 23.5603 11.5135 23.5694C11.4454 23.5785 11.3828 23.5306 11.3737 23.4625C11.3147 23.0201 11.3949 22.4885 11.4855 22.0763C11.5313 21.8685 11.5806 21.6874 11.6184 21.5582C11.6373 21.4936 11.6535 21.4418 11.6649 21.4061C11.6706 21.3882 11.6752 21.3743 11.6783 21.3648C11.6799 21.36 11.6811 21.3564 11.682 21.3539L11.6829 21.351L11.6833 21.3499C11.6833 21.3498 11.6833 21.3498 11.8011 21.3901L11.6833 21.3498C11.7056 21.2848 11.7763 21.2501 11.8413 21.2724Z" fill="#423232"/>
<path fill-rule="evenodd" clip-rule="evenodd" d="M14.3011 21.2052C14.3635 21.1766 14.4374 21.204 14.466 21.2664L14.353 21.3183C14.466 21.2664 14.4661 21.2664 14.4661 21.2665L14.4662 21.2667L14.4664 21.2672L14.4672 21.269C14.4679 21.2705 14.4689 21.2727 14.4701 21.2755C14.4727 21.2811 14.4763 21.2894 14.481 21.3002C14.4903 21.3217 14.5037 21.3534 14.5205 21.3946C14.554 21.477 14.6007 21.5978 14.6545 21.7525C14.762 22.0617 14.8975 22.5069 15.0108 23.053C15.0247 23.1203 14.9815 23.1862 14.9142 23.2001C14.8469 23.2141 14.7811 23.1708 14.7671 23.1036C14.6564 22.5696 14.524 22.1349 14.4194 21.8341C14.3672 21.6838 14.322 21.567 14.2899 21.4882C14.2739 21.4488 14.2612 21.4189 14.2526 21.3991C14.2483 21.3892 14.2451 21.3817 14.2429 21.3769C14.2418 21.3745 14.241 21.3727 14.2405 21.3716L14.24 21.3704L14.2399 21.3702L14.2399 21.3702C14.2112 21.3077 14.2386 21.2339 14.3011 21.2052Z" fill="#423232"/>
<path fill-rule="evenodd" clip-rule="evenodd" d="M5.04211 18.9125C5.02565 18.8458 4.95833 18.8051 4.89166 18.8215C4.82492 18.8379 4.78411 18.9053 4.80049 18.972L4.92132 18.9423C4.80049 18.972 4.80051 18.9721 4.80054 18.9722L4.8006 18.9724L4.80077 18.9731C4.8009 18.9736 4.80108 18.9743 4.8013 18.9752C4.80173 18.9769 4.80235 18.9792 4.80314 18.9822C4.80473 18.9881 4.80705 18.9966 4.81019 19.0073C4.81647 19.0289 4.826 19.0598 4.83944 19.099C4.8663 19.1774 4.90879 19.2889 4.97206 19.4246C5.09857 19.696 5.30833 20.0643 5.64258 20.457C6.31248 21.244 7.47712 22.1227 9.45682 22.5203C9.52419 22.5338 9.58977 22.4902 9.6033 22.4228C9.61683 22.3554 9.57318 22.2899 9.50582 22.2763C7.58152 21.8899 6.46616 21.0406 5.83207 20.2957C5.51431 19.9224 5.31607 19.5736 5.19759 19.3195C5.13835 19.1924 5.09909 19.0891 5.07483 19.0183C5.06271 18.9829 5.05433 18.9557 5.04909 18.9377C5.04647 18.9287 5.04464 18.922 5.04351 18.9178C5.04294 18.9157 5.04255 18.9142 5.04233 18.9133L5.04212 18.9125C5.04211 18.9125 5.04211 18.9125 5.04211 18.9125C5.04211 18.9125 5.04211 18.9125 5.04211 18.9125Z" fill="#423232"/>
<path d="M11.5694 23.6299L11.2174 23.5979C11.0894 23.5819 10.9934 23.4619 11.0174 23.3339L11.1374 22.7339C11.1694 22.5659 11.3294 22.4459 11.4974 22.4699C11.6654 22.4859 11.8014 22.6299 11.8014 22.8059L11.8094 23.4219C11.8094 23.5419 11.6974 23.6459 11.5694 23.6299Z" fill="white"/>
<path d="M15.2405 23.2618L14.9045 23.3818C14.7765 23.4298 14.6405 23.3498 14.6165 23.2218L14.4725 22.6298C14.4325 22.4618 14.5205 22.2938 14.6885 22.2298C14.8485 22.1738 15.0325 22.2458 15.1045 22.3978L15.3685 22.9498C15.4245 23.0698 15.3685 23.2138 15.2405 23.2618Z" fill="white"/>
<path fill-rule="evenodd" clip-rule="evenodd" d="M18.7471 22.9556C18.8148 22.9435 18.8794 22.9886 18.8915 23.0562L18.769 23.0781C18.8915 23.0562 18.8915 23.0562 18.8915 23.0563L18.8918 23.0582L18.8928 23.0638C18.8937 23.0687 18.8949 23.076 18.8966 23.0855C18.8998 23.1045 18.9046 23.1324 18.9106 23.1684C18.9226 23.2405 18.9395 23.345 18.9592 23.4749C18.9987 23.7346 19.0494 24.0963 19.0946 24.5043C19.1847 25.3173 19.2543 26.3255 19.1645 27.0768C19.1563 27.145 19.0944 27.1937 19.0262 27.1856C18.958 27.1774 18.9093 27.1155 18.9174 27.0473C19.0036 26.3266 18.9372 25.3428 18.8473 24.5318C18.8025 24.1278 18.7523 23.7695 18.7132 23.5122C18.6937 23.3836 18.677 23.2803 18.6651 23.2093C18.6592 23.1738 18.6546 23.1463 18.6514 23.1278C18.6498 23.1185 18.6485 23.1115 18.6477 23.1068L18.6468 23.1016L18.6465 23.0999C18.6465 23.0999 18.6465 23.0999 18.7182 23.0871L18.6465 23.0999C18.6344 23.0323 18.6795 22.9676 18.7471 22.9556Z" fill="#544D4D"/>
<path d="M12.6279 11.4355C12.4359 11.4275 12.2919 11.2675 12.3079 11.0755L12.3159 10.8515C12.3239 10.6595 12.4839 10.5155 12.6759 10.5315C12.8679 10.5395 13.0119 10.6995 12.9959 10.8915L12.9879 11.1155C12.9799 11.2995 12.8199 11.4435 12.6279 11.4355Z" fill="#423232"/>
<path d="M15.9957 11.5559C15.8197 11.5479 15.6837 11.3959 15.6917 11.2199L15.6997 11.0119C15.7077 10.8359 15.8597 10.6999 16.0357 10.7079C16.2117 10.7159 16.3477 10.8679 16.3397 11.0439L16.3317 11.2519C16.3237 11.4279 16.1717 11.5639 15.9957 11.5559Z" fill="#423232"/>
<path fill-rule="evenodd" clip-rule="evenodd" d="M12.855 10.4967C13.0642 10.5294 13.2264 10.6311 13.3343 10.7211C13.3886 10.7665 13.4304 10.8099 13.4589 10.8424C13.4732 10.8587 13.4843 10.8724 13.492 10.8823C13.4959 10.8873 13.499 10.8914 13.5012 10.8944C13.5023 10.8959 13.5032 10.8971 13.5039 10.8981L13.5047 10.8993L13.5051 10.8997L13.5052 10.8999L13.5053 10.9C13.5053 10.9 13.5053 10.9001 13.4076 10.9687L13.5053 10.9001C13.5448 10.9563 13.5313 11.0339 13.475 11.0734C13.4189 11.1128 13.3415 11.0994 13.302 11.0435C13.302 11.0435 13.3019 11.0435 13.3019 11.0435C13.3018 11.0433 13.3015 11.0429 13.301 11.0422C13.3 11.0408 13.2982 11.0385 13.2957 11.0353C13.2907 11.0288 13.2827 11.0189 13.2719 11.0066C13.2502 10.9818 13.2175 10.9478 13.1748 10.9121C13.0887 10.8402 12.967 10.766 12.8164 10.7426L12.8156 10.7424C12.6925 10.7225 12.5597 10.7425 12.4535 10.7858C12.4008 10.8073 12.3583 10.8331 12.3285 10.8589C12.2977 10.8854 12.2864 10.9066 12.2831 10.9178C12.2643 10.9839 12.1954 11.0221 12.1293 11.0032C12.0633 10.9844 12.025 10.9155 12.0439 10.8494C12.0647 10.7767 12.1123 10.7168 12.1658 10.6706C12.2202 10.6236 12.2872 10.5849 12.3595 10.5554C12.5033 10.4968 12.6822 10.4688 12.855 10.4967Z" fill="#423232"/>
<path fill-rule="evenodd" clip-rule="evenodd" d="M15.8875 11.0463C15.886 11.1137 15.8309 11.1679 15.7631 11.1679C15.6944 11.1679 15.6387 11.1122 15.6387 11.0435L15.761 11.0435C15.6387 11.0435 15.6387 11.0434 15.6387 11.0433L15.6387 11.0431L15.6387 11.0428L15.6387 11.0419C15.6387 11.0413 15.6387 11.0406 15.6387 11.0399C15.6388 11.0384 15.6388 11.0367 15.6389 11.0347C15.6391 11.0307 15.6394 11.0257 15.64 11.0198C15.6412 11.0081 15.6435 10.9926 15.6478 10.9745C15.6564 10.9386 15.6736 10.8909 15.7081 10.8429C15.7816 10.7406 15.9147 10.6631 16.1311 10.6631C16.3252 10.6631 16.4631 10.7535 16.5491 10.8395C16.5918 10.8823 16.6228 10.9248 16.6432 10.9568C16.6535 10.9729 16.6613 10.9867 16.6667 10.9968C16.6694 11.0019 16.6716 11.0061 16.6732 11.0093C16.6739 11.0109 16.6746 11.0123 16.6751 11.0134C16.6754 11.0139 16.6756 11.0144 16.6758 11.0148L16.676 11.0153L16.6761 11.0156L16.6762 11.0157C16.6762 11.0157 16.6762 11.0158 16.5631 11.0675L16.6762 11.0158C16.7048 11.0783 16.6773 11.1521 16.6148 11.1807C16.5526 11.2091 16.4791 11.1819 16.4503 11.1199C16.4502 11.1198 16.4501 11.1197 16.45 11.1194C16.4496 11.1185 16.4487 11.1167 16.4473 11.1141C16.4445 11.109 16.4399 11.1008 16.4335 11.0907C16.4204 11.0702 16.4003 11.0427 16.3731 11.0155C16.3191 10.9615 16.241 10.9119 16.1311 10.9119C15.9795 10.9119 15.9286 10.9624 15.9101 10.9881C15.8986 11.0042 15.8927 11.0204 15.8898 11.0325C15.8884 11.0384 15.8878 11.0429 15.8876 11.0452C15.8875 11.0457 15.8875 11.046 15.8875 11.0463ZM16.45 11.1195C16.45 11.1194 16.45 11.1194 16.45 11.1193L16.45 11.1194L16.45 11.1195Z" fill="#423232"/>
<path d="M13.7318 9.68387C13.8998 9.73987 14.0678 9.58787 14.0358 9.40387C14.0198 9.30787 13.9798 9.21187 13.8998 9.13987C13.6598 8.92387 12.6678 8.73187 12.0678 9.01187C11.5398 9.26787 12.9638 9.42787 13.7318 9.68387Z" fill="#423232"/>
<path d="M16.1239 9.81156C15.9879 9.85956 15.8439 9.71556 15.8679 9.54756C15.8759 9.45956 15.9079 9.37156 15.9719 9.30756C16.1639 9.11556 16.8199 8.96356 17.2359 9.25956C17.5959 9.50756 16.7479 9.57956 16.1239 9.81156Z" fill="#423232"/>
<path d="M14.8466 14.2674C14.8549 14.4001 14.7553 14.6323 14.5729 14.7982C13.6356 14.2259 13.2126 14.5245 13.2126 14.5245C12.8808 14.0185 12.9554 13.3301 13.76 13.8527C14.324 14.2093 14.6641 14.2674 14.8466 14.2674Z" fill="#423232"/>
<path d="M14.5732 14.7984C14.3741 14.9725 14.0755 15.0804 13.6691 14.9145C13.4783 14.8398 13.329 14.6905 13.2129 14.5246C13.2129 14.5246 13.6359 14.226 14.5732 14.7984Z" fill="#FE9DAB"/>
<path fill-rule="evenodd" clip-rule="evenodd" d="M13.1437 13.5684C13.3213 13.5035 13.5542 13.5729 13.8267 13.7482C14.2636 14.0273 14.5569 14.1138 14.7323 14.1348C14.8198 14.1453 14.8785 14.1395 14.9118 14.1331C14.9286 14.1299 14.9393 14.1265 14.9445 14.1246C14.946 14.1241 14.9471 14.1236 14.9476 14.1234C15.0073 14.0933 15.0805 14.1157 15.1128 14.1747C15.1458 14.235 15.1237 14.3106 15.0635 14.3436L15.0059 14.2385C15.0634 14.3436 15.0633 14.3437 15.0632 14.3437L15.0629 14.3439L15.0624 14.3442C15.0622 14.3443 15.062 14.3444 15.0618 14.3445C15.0616 14.3446 15.0614 14.3447 15.0612 14.3448C15.0603 14.3453 15.0594 14.3458 15.0583 14.3463C15.0563 14.3473 15.0538 14.3485 15.051 14.3498C15.0453 14.3523 15.0382 14.3553 15.0295 14.3585C15.0122 14.3648 14.989 14.3717 14.9595 14.3774C14.9459 14.4435 14.9204 14.5138 14.8863 14.5819C14.8305 14.6935 14.7459 14.8103 14.6322 14.9068C14.3988 15.1049 14.0512 15.2097 13.6129 15.0298C13.3953 14.9413 13.2222 14.7737 13.1025 14.5905C12.9831 14.408 12.9096 14.1991 12.9012 14.0163C12.893 13.8392 12.9483 13.6398 13.1437 13.5684ZM14.7009 14.3816C14.4783 14.3546 14.1501 14.2501 13.6925 13.9578L13.6922 13.9576C13.4297 13.7887 13.2884 13.7804 13.2291 13.8021C13.1876 13.8172 13.1434 13.8687 13.1497 14.0048C13.1558 14.1351 13.2109 14.3015 13.3108 14.4544C13.4103 14.6066 13.5472 14.7345 13.7068 14.7994L13.7072 14.7995C14.0568 14.943 14.3064 14.857 14.4711 14.7171C14.5565 14.6447 14.6212 14.5556 14.6638 14.4705C14.6798 14.4386 14.692 14.4087 14.7009 14.3816ZM14.9444 14.1251L14.9444 14.1251L14.9444 14.1251C14.9444 14.1251 14.9444 14.1251 14.9444 14.1251Z" fill="#423232"/>
<path fill-rule="evenodd" clip-rule="evenodd" d="M13.2822 14.6275C13.2263 14.6655 13.1499 14.6518 13.1107 14.5963C13.071 14.5402 13.0844 14.4625 13.1406 14.4229L13.212 14.5241C13.1406 14.4229 13.1407 14.4228 13.1408 14.4228L13.141 14.4226L13.1414 14.4223L13.1424 14.4216C13.1432 14.4211 13.144 14.4205 13.145 14.4199C13.1469 14.4186 13.1493 14.4171 13.1521 14.4154C13.1577 14.4119 13.1652 14.4076 13.1744 14.4027C13.1929 14.393 13.2187 14.3811 13.2519 14.3694C13.3184 14.3461 13.4139 14.3241 13.5393 14.3224C13.7905 14.3189 14.1534 14.3965 14.6375 14.6921C14.6961 14.7279 14.7146 14.8045 14.6788 14.8631C14.643 14.9217 14.5664 14.9403 14.5078 14.9045C14.0545 14.6277 13.7373 14.5685 13.5427 14.5712C13.4451 14.5726 13.3763 14.5895 13.3342 14.6042C13.3131 14.6116 13.2985 14.6186 13.2902 14.6229C13.2861 14.6251 13.2835 14.6267 13.2825 14.6273C13.2824 14.6274 13.2823 14.6274 13.2822 14.6275Z" fill="#423232"/>
<path d="M17.9857 6.42148C17.4177 8.47748 15.7697 8.13348 14.2257 7.57348C12.1697 6.82148 10.3617 7.42948 10.3537 9.28548C10.3377 12.0055 9.65775 11.1815 9.58575 11.0775C9.40975 10.7415 9.03375 10.3255 8.32175 10.4135C7.38575 10.5335 7.01775 12.5975 8.76175 13.4455C9.06575 14.9895 8.23375 14.8455 8.23375 14.8455C7.95375 13.7095 5.60175 11.2935 5.59375 9.70148C5.59375 7.55748 6.67375 6.94948 6.67375 6.94948C6.70575 5.45349 8.26575 3.80549 10.8897 3.86149C13.5137 3.90949 15.1217 3.83749 15.6337 3.22149C16.1457 2.58949 18.5537 4.36549 17.9857 6.42148Z" fill="#423232"/>
<path d="M18.0508 8.8931C17.9708 9.4131 17.7468 9.8131 17.4348 10.1091C17.5548 9.2371 17.4908 8.8211 17.3868 8.3331C17.1628 7.3331 16.6828 6.4691 15.8828 5.8291C16.2828 5.7971 16.6908 5.8851 17.0588 6.1171C17.0588 6.1091 18.3788 6.6451 18.0508 8.8931Z" fill="#423232"/>
<path d="M8.80942 11.7432C8.80942 11.7432 8.16941 11.6472 8.21741 12.5432C8.24141 12.9992 8.24141 13.2472 8.23341 13.3752C8.22541 13.4632 8.28142 13.5432 8.36141 13.5752C8.45741 13.6152 8.56142 13.5752 8.60942 13.4792C8.68142 13.3512 8.76141 13.1752 8.76141 13.0312C8.76141 12.7912 9.01741 12.5752 9.01741 12.5752C9.01741 12.5752 8.78542 12.3752 8.80942 11.7432Z" fill="white"/>
<path d="M10.7452 27.1674C10.6812 27.0954 8.16922 22.7994 8.54522 21.1834C8.80122 20.0714 8.46522 18.7914 8.16922 17.6634C8.04922 17.1994 7.93722 16.7674 7.87322 16.3834C7.76122 15.7194 7.84122 15.0874 8.11322 14.5034C8.40922 13.8474 8.36122 13.2794 8.36122 13.2714L8.52122 13.2554C8.52122 13.2794 8.56922 13.8794 8.25722 14.5674C8.00122 15.1194 7.92922 15.7274 8.03322 16.3594C8.09722 16.7354 8.20922 17.1674 8.32922 17.6314C8.63322 18.7754 8.96922 20.0794 8.70522 21.2314C8.35322 22.7674 10.8572 27.0634 10.8732 27.0794L10.7452 27.1674Z" fill="white"/>
<path d="M8.24099 13.0075C8.24899 13.1835 8.24099 13.3035 8.24099 13.3755C8.23299 13.4635 8.28899 13.5435 8.36899 13.5755C8.46499 13.6155 8.56899 13.5755 8.61699 13.4795C8.68899 13.3515 8.76899 13.1755 8.76899 13.0315C8.76899 13.0235 8.76899 13.0075 8.76899 12.9995C8.60099 13.0635 8.40899 13.1115 8.24099 13.0075Z" fill="#E5E5E5"/>
<path d="M15.7691 18.3272C15.7131 18.6952 15.7051 19.2792 15.6891 19.9592C15.6651 21.2712 14.8891 26.3832 14.5131 27.1912L14.3691 27.1272C14.7291 26.3432 15.5051 21.2552 15.5291 19.9592C15.5451 19.2792 15.5531 18.6872 15.6091 18.3032C15.7291 17.4952 15.6411 16.8872 15.5931 16.6312C15.6171 16.6072 15.6411 16.5912 15.6651 16.5672C15.6891 16.5512 15.7051 16.5272 15.7291 16.5112C15.7771 16.7192 15.9131 17.3832 15.7691 18.3272Z" fill="white"/>
</g>
<defs>
<clipPath id="clip0_4411_16721">
<rect width="24" height="24" fill="white"/>
</clipPath>
</defs>
</svg>
