<svg width="15" height="19" viewBox="0 0 15 19" fill="none" xmlns="http://www.w3.org/2000/svg">
<path d="M4.49542 13.8333H4.50291M10.3288 13.8333H10.3362M5.33333 3.25H9.5M11.5 17.4167H3.33334C1.91667 17.4167 0.75 16.2583 0.75 14.8333V3.33334C0.75 1.91667 1.90834 0.75 3.33334 0.75H11.5C12.9167 0.75 14.0833 1.90834 14.0833 3.33334V14.8333C14.0833 16.2583 12.925 17.4167 11.5 17.4167ZM12.8333 9.91667H2C1.30833 9.91667 0.75 9.35833 0.75 8.66667V7C0.75 6.30833 1.30833 5.75 2 5.75H12.8333C13.525 5.75 14.0833 6.30833 14.0833 7V8.66667C14.0833 9.35833 13.525 9.91667 12.8333 9.91667Z" stroke="#6B7280" stroke-width="1.5" stroke-linecap="round" stroke-linejoin="round"/>
</svg>
