<svg width="12" height="13" viewBox="0 0 12 13" fill="none" xmlns="http://www.w3.org/2000/svg">
<path d="M1.14625 5.85375C1.05243 5.75993 0.999722 5.63268 0.999722 5.5C0.999722 5.36732 1.05243 5.24007 1.14625 5.14625C1.24007 5.05243 1.36732 4.99972 1.5 4.99972C1.63268 4.99972 1.75993 5.05243 1.85375 5.14625L5.5 8.79313V0.5C5.5 0.367392 5.55268 0.240215 5.64645 0.146447C5.74021 0.0526784 5.86739 0 6 0C6.13261 0 6.25979 0.0526784 6.35355 0.146447C6.44732 0.240215 6.5 0.367392 6.5 0.5V8.79313L10.1462 5.14625C10.1927 5.09979 10.2479 5.06294 10.3086 5.0378C10.3692 5.01266 10.4343 4.99972 10.5 4.99972C10.5657 4.99972 10.6308 5.01266 10.6914 5.0378C10.7521 5.06294 10.8073 5.09979 10.8538 5.14625C10.9002 5.1927 10.9371 5.24786 10.9622 5.30855C10.9873 5.36925 11.0003 5.4343 11.0003 5.5C11.0003 5.5657 10.9873 5.63075 10.9622 5.69145C10.9371 5.75214 10.9002 5.8073 10.8538 5.85375L6.35375 10.3538C6.30731 10.4002 6.25217 10.4371 6.19147 10.4623C6.13077 10.4874 6.06571 10.5004 6 10.5004C5.93429 10.5004 5.86923 10.4874 5.80853 10.4623C5.74783 10.4371 5.69269 10.4002 5.64625 10.3538L1.14625 5.85375ZM11.5 11.5H0.5C0.367392 11.5 0.240215 11.5527 0.146447 11.6464C0.0526785 11.7402 0 11.8674 0 12C0 12.1326 0.0526785 12.2598 0.146447 12.3536C0.240215 12.4473 0.367392 12.5 0.5 12.5H11.5C11.6326 12.5 11.7598 12.4473 11.8536 12.3536C11.9473 12.2598 12 12.1326 12 12C12 11.8674 11.9473 11.7402 11.8536 11.6464C11.7598 11.5527 11.6326 11.5 11.5 11.5Z" fill="white"/>
</svg>
