<svg width="16" height="14" viewBox="0 0 16 14" fill="none" xmlns="http://www.w3.org/2000/svg">
<path d="M8.00065 2.65996V12.66M5.16732 4.65996H3.66732M5.66732 6.65996H3.66732M14.6673 10.16V2.1133C14.6673 1.3133 14.014 0.719963 13.2207 0.78663H13.1807C11.7807 0.90663 9.65398 1.61996 8.46732 2.36663L8.35398 2.43996C8.16065 2.55996 7.84065 2.55996 7.64732 2.43996L7.48065 2.33996C6.29398 1.59996 4.17398 0.893296 2.77398 0.779963C1.98065 0.713296 1.33398 1.3133 1.33398 2.10663V10.16C1.33398 10.8 1.85398 11.4 2.49398 11.48L2.68732 11.5066C4.13398 11.7 6.36732 12.4333 7.64732 13.1333L7.67398 13.1466C7.85398 13.2466 8.14065 13.2466 8.31398 13.1466C9.59398 12.44 11.834 11.7 13.2873 11.5066L13.5073 11.48C14.1473 11.4 14.6673 10.8 14.6673 10.16Z" stroke="white" stroke-width="1.5" stroke-linecap="round" stroke-linejoin="round"/>
</svg>
