<svg width="24" height="24" viewBox="0 0 24 24" fill="none" xmlns="http://www.w3.org/2000/svg">
<g id="Brifecase Timer">
<path id="icon" d="M12.2508 12.95V13.88C12.2508 14.23 12.0708 14.56 11.7608 14.74L11.0008 15.2M8.0008 6V5.2C8.0008 3.43 8.0008 2 11.2008 2H12.8008C16.0008 2 16.0008 3.43 16.0008 5.2V6M21.6508 11C19.9208 12.26 18.0008 13.14 16.0108 13.64M2.6208 11.27C4.2908 12.41 6.1108 13.22 8.0008 13.68M16.0008 14.2C16.0008 16.4091 14.2099 18.2 12.0008 18.2C9.79166 18.2 8.0008 16.4091 8.0008 14.2C8.0008 11.9909 9.79166 10.2 12.0008 10.2C14.2099 10.2 16.0008 11.9909 16.0008 14.2ZM8.0008 22H16.0008C20.0208 22 20.7408 20.39 20.9508 18.43L21.7008 10.43C21.9708 7.99 21.2708 6 17.0008 6H7.0008C2.7308 6 2.0308 7.99 2.3008 10.43L3.0508 18.43C3.2608 20.39 3.9808 22 8.0008 22Z" stroke="#757575" stroke-width="1.5" stroke-miterlimit="10" stroke-linecap="round" stroke-linejoin="round"/>
</g>
</svg>
