<svg width="19" height="19" viewBox="0 0 19 19" fill="none" xmlns="http://www.w3.org/2000/svg">
<path d="M4.66668 14.0833H2.54169C1.35002 14.0833 0.75 13.4833 0.75 12.2916V2.54169C0.75 1.35002 1.35002 0.75 2.54169 0.75H6.12501C7.31668 0.75 7.91665 1.35002 7.91665 2.54169V4.08333M10.25 4.08333V2.54169C10.25 1.35002 10.85 0.75 12.0417 0.75H15.625C16.8166 0.75 17.4167 1.35002 17.4167 2.54169V12.2916C17.4167 13.4833 16.8166 14.0833 15.625 14.0833H13.5583M7.41667 8.25H10.75M7.41667 10.75H10.75M9.08333 17.4167V14.9167M13.5583 6.09999V15.4C13.5583 16.7417 12.8917 17.4167 11.55 17.4167H6.68333C5.34166 17.4167 4.66668 16.7417 4.66668 15.4V6.09999C4.66668 4.75832 5.34166 4.08333 6.68333 4.08333H11.55C12.8917 4.08333 13.5583 4.75832 13.5583 6.09999Z" stroke="#6B7280" stroke-width="1.5" stroke-miterlimit="10" stroke-linecap="round" stroke-linejoin="round"/>
</svg>
