<svg width="17" height="16" viewBox="0 0 17 16" fill="none" xmlns="http://www.w3.org/2000/svg">
<g id="Call">
<path id="icon" d="M15.1454 12.22C15.1454 12.46 15.092 12.7067 14.9787 12.9467C14.8654 13.1867 14.7187 13.4133 14.5254 13.6267C14.1987 13.9867 13.8387 14.2467 13.432 14.4133C13.032 14.58 12.5987 14.6667 12.132 14.6667C11.452 14.6667 10.7254 14.5067 9.9587 14.18C9.19203 13.8533 8.42536 13.4133 7.66536 12.86C6.8987 12.3 6.17203 11.68 5.4787 10.9933C4.79203 10.3 4.17203 9.57334 3.6187 8.81334C3.07203 8.05334 2.63203 7.29334 2.31203 6.54001C1.99203 5.78001 1.83203 5.05334 1.83203 4.36001C1.83203 3.90668 1.91203 3.47334 2.07203 3.07334C2.23203 2.66668 2.48536 2.29334 2.8387 1.96001C3.26536 1.54001 3.73203 1.33334 4.22536 1.33334C4.41203 1.33334 4.5987 1.37334 4.76536 1.45334C4.9387 1.53334 5.09203 1.65334 5.21203 1.82668L6.7587 4.00668C6.8787 4.17334 6.96536 4.32668 7.02536 4.47334C7.08536 4.61334 7.1187 4.75334 7.1187 4.88001C7.1187 5.04001 7.07203 5.20001 6.9787 5.35334C6.89203 5.50668 6.76536 5.66668 6.60536 5.82668L6.0987 6.35334C6.02536 6.42668 5.99203 6.51334 5.99203 6.62001C5.99203 6.67334 5.9987 6.72001 6.01203 6.77334C6.03203 6.82668 6.05203 6.86668 6.06536 6.90668C6.18536 7.12668 6.39203 7.41334 6.68536 7.76001C6.98536 8.10668 7.30536 8.46001 7.65203 8.81334C8.01203 9.16668 8.3587 9.49334 8.71203 9.79334C9.0587 10.0867 9.34536 10.2867 9.57203 10.4067C9.60536 10.42 9.64536 10.44 9.69203 10.46C9.74536 10.48 9.7987 10.4867 9.8587 10.4867C9.97203 10.4867 10.0587 10.4467 10.132 10.3733L10.6387 9.87334C10.8054 9.70668 10.9654 9.58001 11.1187 9.50001C11.272 9.40668 11.4254 9.36001 11.592 9.36001C11.7187 9.36001 11.852 9.38668 11.9987 9.44668C12.1454 9.50668 12.2987 9.59334 12.4654 9.70668L14.672 11.2733C14.8454 11.3933 14.9654 11.5333 15.0387 11.7C15.1054 11.8667 15.1454 12.0333 15.1454 12.22Z" stroke="white" stroke-width="1.5" stroke-miterlimit="10"/>
</g>
</svg>
