<svg width="105" height="36" viewBox="0 0 105 36" fill="none" xmlns="http://www.w3.org/2000/svg">
<rect width="105" height="36" rx="6" fill="#355BF5"/>
<path d="M44.0562 16.144C44.0562 16.568 43.9562 16.968 43.7562 17.344C43.5562 17.72 43.2362 18.028 42.7962 18.268C42.3562 18.5 41.7922 18.616 41.1042 18.616H39.5922V22H38.2242V13.66H41.1042C41.7442 13.66 42.2842 13.772 42.7242 13.996C43.1722 14.212 43.5042 14.508 43.7202 14.884C43.9442 15.26 44.0562 15.68 44.0562 16.144ZM41.1042 17.5C41.6242 17.5 42.0122 17.384 42.2682 17.152C42.5242 16.912 42.6522 16.576 42.6522 16.144C42.6522 15.232 42.1362 14.776 41.1042 14.776H39.5922V17.5H41.1042ZM46.0569 14.512C45.8089 14.512 45.6009 14.428 45.4329 14.26C45.2649 14.092 45.1809 13.884 45.1809 13.636C45.1809 13.388 45.2649 13.18 45.4329 13.012C45.6009 12.844 45.8089 12.76 46.0569 12.76C46.2969 12.76 46.5009 12.844 46.6689 13.012C46.8369 13.18 46.9209 13.388 46.9209 13.636C46.9209 13.884 46.8369 14.092 46.6689 14.26C46.5009 14.428 46.2969 14.512 46.0569 14.512ZM46.7289 15.388V22H45.3609V15.388H46.7289ZM51.861 15.28C52.381 15.28 52.845 15.388 53.253 15.604C53.669 15.82 53.993 16.14 54.225 16.564C54.457 16.988 54.573 17.5 54.573 18.1V22H53.217V18.304C53.217 17.712 53.069 17.26 52.773 16.948C52.477 16.628 52.073 16.468 51.561 16.468C51.049 16.468 50.641 16.628 50.337 16.948C50.041 17.26 49.893 17.712 49.893 18.304V22H48.525V15.388H49.893V16.144C50.117 15.872 50.401 15.66 50.745 15.508C51.097 15.356 51.469 15.28 51.861 15.28ZM57.914 16.504V20.164C57.914 20.412 57.97 20.592 58.082 20.704C58.202 20.808 58.402 20.86 58.682 20.86H59.522V22H58.442C57.826 22 57.354 21.856 57.026 21.568C56.698 21.28 56.534 20.812 56.534 20.164V16.504H55.754V15.388H56.534V13.744H57.914V15.388H59.522V16.504H57.914ZM66.7708 15.388V22H65.4028V21.22C65.1868 21.492 64.9028 21.708 64.5508 21.868C64.2068 22.02 63.8388 22.096 63.4468 22.096C62.9268 22.096 62.4588 21.988 62.0428 21.772C61.6348 21.556 61.3108 21.236 61.0708 20.812C60.8388 20.388 60.7228 19.876 60.7228 19.276V15.388H62.0788V19.072C62.0788 19.664 62.2268 20.12 62.5228 20.44C62.8188 20.752 63.2228 20.908 63.7348 20.908C64.2468 20.908 64.6508 20.752 64.9468 20.44C65.2508 20.12 65.4028 19.664 65.4028 19.072V15.388H66.7708Z" fill="white"/>
</svg>
