<svg width="44" height="42" viewBox="0 0 44 42" fill="none" xmlns="http://www.w3.org/2000/svg">
<rect width="44" height="42" rx="6" fill="#355BF5"/>
<path d="M14.9635 20.12C14.9635 20.4733 14.8802 20.8067 14.7135 21.12C14.5468 21.4333 14.2802 21.69 13.9135 21.89C13.5468 22.0833 13.0768 22.18 12.5035 22.18H11.2435V25H10.1035V18.05H12.5035C13.0368 18.05 13.4868 18.1433 13.8535 18.33C14.2268 18.51 14.5035 18.7567 14.6835 19.07C14.8702 19.3833 14.9635 19.7333 14.9635 20.12ZM12.5035 21.25C12.9368 21.25 13.2602 21.1533 13.4735 20.96C13.6868 20.76 13.7935 20.48 13.7935 20.12C13.7935 19.36 13.3635 18.98 12.5035 18.98H11.2435V21.25H12.5035ZM16.6308 18.76C16.4241 18.76 16.2508 18.69 16.1108 18.55C15.9708 18.41 15.9008 18.2367 15.9008 18.03C15.9008 17.8233 15.9708 17.65 16.1108 17.51C16.2508 17.37 16.4241 17.3 16.6308 17.3C16.8308 17.3 17.0008 17.37 17.1408 17.51C17.2808 17.65 17.3508 17.8233 17.3508 18.03C17.3508 18.2367 17.2808 18.41 17.1408 18.55C17.0008 18.69 16.8308 18.76 16.6308 18.76ZM17.1908 19.49V25H16.0508V19.49H17.1908ZM21.4675 19.4C21.9008 19.4 22.2875 19.49 22.6275 19.67C22.9742 19.85 23.2442 20.1167 23.4375 20.47C23.6308 20.8233 23.7275 21.25 23.7275 21.75V25H22.5975V21.92C22.5975 21.4267 22.4742 21.05 22.2275 20.79C21.9808 20.5233 21.6442 20.39 21.2175 20.39C20.7908 20.39 20.4508 20.5233 20.1975 20.79C19.9508 21.05 19.8275 21.4267 19.8275 21.92V25H18.6875V19.49H19.8275V20.12C20.0142 19.8933 20.2508 19.7167 20.5375 19.59C20.8308 19.4633 21.1408 19.4 21.4675 19.4ZM26.5116 20.42V23.47C26.5116 23.6767 26.5583 23.8267 26.6516 23.92C26.7516 24.0067 26.9183 24.05 27.1516 24.05H27.8516V25H26.9516C26.4383 25 26.045 24.88 25.7716 24.64C25.4983 24.4 25.3616 24.01 25.3616 23.47V20.42H24.7116V19.49H25.3616V18.12H26.5116V19.49H27.8516V20.42H26.5116ZM33.8923 19.49V25H32.7523V24.35C32.5723 24.5767 32.3357 24.7567 32.0423 24.89C31.7557 25.0167 31.449 25.08 31.1223 25.08C30.689 25.08 30.299 24.99 29.9523 24.81C29.6123 24.63 29.3423 24.3633 29.1423 24.01C28.949 23.6567 28.8523 23.23 28.8523 22.73V19.49H29.9823V22.56C29.9823 23.0533 30.1057 23.4333 30.3523 23.7C30.599 23.96 30.9357 24.09 31.3623 24.09C31.789 24.09 32.1257 23.96 32.3723 23.7C32.6257 23.4333 32.7523 23.0533 32.7523 22.56V19.49H33.8923Z" fill="white"/>
</svg>
