<svg width="20" height="20" viewBox="0 0 20 20" fill="none" xmlns="http://www.w3.org/2000/svg">
<g id="Dislike">
<path id="icon" d="M11.1834 2.70837L10.6531 3.2387L10.6867 3.27232L10.7243 3.30142L11.1834 2.70837ZM4.1001 3.95837L4.81259 4.19261L4.8211 4.16672L4.82771 4.14028L4.1001 3.95837ZM2.1001 10.0417L2.80641 10.294L2.80961 10.285L2.81258 10.2759L2.1001 10.0417ZM7.8501 13.2084L8.59118 13.3242L8.59257 13.3144L7.8501 13.2084ZM7.43344 15.875L8.16558 16.0377L8.17076 16.0144L8.17445 15.9908L7.43344 15.875ZM8.51677 17.7084L8.78011 17.0061L8.76711 17.0013L8.75394 16.9969L8.51677 17.7084ZM10.3501 17.125L9.72763 16.7067L9.72607 16.709L10.3501 17.125ZM14.2259 4.11533L11.6426 2.11533L10.7243 3.30142L13.3076 5.30142L14.2259 4.11533ZM11.7138 2.17804C11.4137 1.87802 10.9979 1.70869 10.6603 1.61223C10.3043 1.51052 9.92254 1.45837 9.6001 1.45837V2.95837C9.77767 2.95837 10.0209 2.98956 10.2482 3.05452C10.4939 3.12472 10.6198 3.20539 10.6531 3.2387L11.7138 2.17804ZM9.6001 1.45837H6.43344V2.95837H9.6001V1.45837ZM6.43344 1.45837C5.75367 1.45837 5.08063 1.70945 4.54264 2.1031C4.00411 2.49715 3.54824 3.07351 3.3725 3.77647L4.82771 4.14028C4.90197 3.84324 5.11276 3.5446 5.4284 3.31365C5.74458 3.0823 6.1132 2.95837 6.43344 2.95837V1.45837ZM3.38762 3.72413L1.38762 9.80747L2.81258 10.2759L4.81259 4.19261L3.38762 3.72413ZM1.3938 9.78945C1.11144 10.58 1.20666 11.3882 1.66298 12.0074C2.11576 12.6219 2.85552 12.9584 3.68344 12.9584V11.4584C3.26135 11.4584 3.00111 11.2948 2.87056 11.1176C2.74354 10.9453 2.6721 10.67 2.80641 10.294L1.3938 9.78945ZM3.68344 12.9584H7.01677V11.4584H3.68344V12.9584ZM7.01677 12.9584C7.05662 12.9584 7.07923 12.9738 7.08981 12.9858C7.09524 12.992 7.10096 13.0009 7.1051 13.0151C7.10914 13.029 7.11415 13.0567 7.10764 13.1023L8.59257 13.3144C8.74228 12.2664 7.96012 11.4584 7.01677 11.4584V12.9584ZM7.10909 13.0926L6.69243 15.7593L8.17445 15.9908L8.59111 13.3242L7.10909 13.0926ZM6.7013 15.7123C6.4453 16.8643 7.19163 18.0572 8.2796 18.4199L8.75394 16.9969C8.34191 16.8595 8.08824 16.3858 8.16558 16.0377L6.7013 15.7123ZM8.25343 18.4106C8.78379 18.6095 9.34204 18.5654 9.80225 18.4072C10.2574 18.2508 10.6984 17.9547 10.9741 17.5411L9.72607 16.709C9.66851 16.7953 9.52613 16.916 9.31463 16.9887C9.10817 17.0597 8.91642 17.0572 8.78011 17.0061L8.25343 18.4106ZM10.9726 17.5434L14.3892 12.4601L13.1443 11.6233L9.72764 16.7067L10.9726 17.5434ZM17.2668 4.70837V12.875H18.7668V4.70837H17.2668ZM17.2668 12.875C17.2668 13.3739 17.1568 13.512 17.1122 13.5531C17.0529 13.6078 16.876 13.7084 16.3501 13.7084V15.2084C16.9909 15.2084 17.6473 15.1006 18.1296 14.6553C18.6268 14.1964 18.7668 13.5429 18.7668 12.875H17.2668ZM16.3501 13.7084H15.5168V15.2084H16.3501V13.7084ZM15.5168 13.7084C14.9909 13.7084 14.8139 13.6078 14.7546 13.5531C14.7101 13.512 14.6001 13.3739 14.6001 12.875H13.1001C13.1001 13.5429 13.2401 14.1964 13.7372 14.6553C14.2196 15.1006 14.876 15.2084 15.5168 15.2084V13.7084ZM14.6001 12.875V4.70837H13.1001V12.875H14.6001ZM14.6001 4.70837C14.6001 4.20955 14.7101 4.07143 14.7546 4.03031C14.8139 3.97558 14.9909 3.87504 15.5168 3.87504V2.37504C14.876 2.37504 14.2196 2.48283 13.7372 2.9281C13.2401 3.38698 13.1001 4.04053 13.1001 4.70837H14.6001ZM15.5168 3.87504H16.3501V2.37504H15.5168V3.87504ZM16.3501 3.87504C16.876 3.87504 17.0529 3.97558 17.1122 4.03031C17.1568 4.07143 17.2668 4.20955 17.2668 4.70837H18.7668C18.7668 4.04053 18.6268 3.38698 18.1296 2.9281C17.6473 2.48283 16.9909 2.37504 16.3501 2.37504V3.87504Z" fill="#1F1F1F"/>
</g>
</svg>
