<svg width="16" height="16" viewBox="0 0 16 16" fill="none" xmlns="http://www.w3.org/2000/svg">
<path d="M1.16602 8.27337V5.22674C1.16602 4.4334 1.65268 3.72671 2.39268 3.44671L7.68602 1.44671C8.51268 1.13337 9.39935 1.74673 9.39935 2.63339V5.16672M4.16602 8.00004H8.83268M11.526 9.03337C11.246 9.3067 11.086 9.70004 11.126 10.12C11.186 10.84 11.846 11.3667 12.566 11.3667H13.8327V12.16C13.8327 13.54 12.706 14.6667 11.326 14.6667H3.67268C2.29268 14.6667 1.16602 13.54 1.16602 12.16V7.67338C1.16602 6.29338 2.29268 5.16671 3.67268 5.16671H11.326C12.706 5.16671 13.8327 6.29338 13.8327 7.67338V8.63338H12.486C12.1127 8.63338 11.7727 8.78003 11.526 9.03337ZM14.5386 9.31348V10.6868C14.5386 11.0535 14.2452 11.3535 13.8719 11.3668H12.5652C11.8452 11.3668 11.1852 10.8402 11.1252 10.1202C11.0852 9.70016 11.2452 9.30682 11.5252 9.03349C11.7719 8.78015 12.1119 8.6335 12.4852 8.6335H13.8719C14.2452 8.64684 14.5386 8.94681 14.5386 9.31348Z" stroke="white" stroke-width="1.5" stroke-linecap="round" stroke-linejoin="round"/>
</svg>
