<svg width="16" height="16" viewBox="0 0 16 16" fill="none" xmlns="http://www.w3.org/2000/svg">
<g id="Eye Slash">
<path id="icon" d="M9.68634 6.31301L6.31301 9.68634M9.68634 6.31301C9.25301 5.87967 8.65967 5.61301 7.99967 5.61301C6.67967 5.61301 5.61301 6.67967 5.61301 7.99967C5.61301 8.65967 5.87967 9.25301 6.31301 9.68634M9.68634 6.31301L14.6663 1.33301M6.31301 9.68634L1.33301 14.6663M11.8797 3.84634C10.713 2.96634 9.37967 2.48634 7.99967 2.48634C5.64634 2.48634 3.45301 3.87301 1.92634 6.27301C1.32634 7.21301 1.32634 8.79301 1.92634 9.73301C2.45301 10.5597 3.06634 11.273 3.73301 11.8463M5.61301 13.0197C6.37301 13.3397 7.17967 13.513 7.99967 13.513C10.353 13.513 12.5463 12.1263 14.073 9.72634C14.673 8.78634 14.673 7.20634 14.073 6.26634C13.853 5.91967 13.613 5.59301 13.3663 5.28634M10.3397 8.46634C10.1663 9.40634 9.39967 10.173 8.45967 10.3463" stroke="#9E9E9E" stroke-width="1.5" stroke-linecap="round" stroke-linejoin="round"/>
</g>
</svg>
