<svg width="19" height="20" viewBox="0 0 19 20" fill="none" xmlns="http://www.w3.org/2000/svg">
<g id="Group">
<path id="Vector" d="M18.6659 10.2057C18.6659 9.60224 18.6113 9.02932 18.5176 8.47168H9.69824V11.9168H14.7479C14.5216 13.0474 13.8582 14.0022 12.8748 14.6515V16.9432H15.8874C17.6513 15.3467 18.6659 12.9939 18.6659 10.2057Z" fill="#4285F4"/>
<path id="Vector_2" d="M9.69872 19.1664C12.2275 19.1664 14.3425 18.3414 15.8879 16.9435L12.8752 14.6518C12.0323 15.2018 10.9631 15.5379 9.69872 15.5379C7.25584 15.5379 5.18758 13.9261 4.44613 11.749H1.33984V14.1094C2.87738 17.1039 6.0383 19.1664 9.69872 19.1664Z" fill="#34A853"/>
<path id="Vector_3" d="M4.44611 11.7487C4.25099 11.1987 4.14952 10.6105 4.14952 9.99937C4.14952 9.38826 4.25879 8.80006 4.44611 8.25006V5.88965H1.33982C0.69983 7.12715 0.333008 8.51742 0.333008 9.99937C0.333008 11.4813 0.69983 12.8716 1.33982 14.1091L4.44611 11.7487Z" fill="#FBBC05"/>
<path id="Vector_4" d="M9.69872 4.46148C11.0802 4.46148 12.3133 4.92745 13.2889 5.83648L15.9581 3.22398C14.3425 1.74204 12.2275 0.833008 9.69872 0.833008C6.0383 0.833008 2.87738 2.89551 1.33984 5.88995L4.44613 8.25037C5.18758 6.07329 7.25584 4.46148 9.69872 4.46148Z" fill="#EA4335"/>
</g>
</svg>
