<svg width="13" height="13" viewBox="0 0 13 13" fill="none" xmlns="http://www.w3.org/2000/svg">
<path d="M6.5 0C5.21442 0 3.95772 0.381218 2.8888 1.09545C1.81988 1.80968 0.986756 2.82484 0.494786 4.01256C0.00281635 5.20028 -0.125905 6.50721 0.124899 7.76809C0.375703 9.02896 0.994767 10.1872 1.90381 11.0962C2.81285 12.0052 3.97104 12.6243 5.23192 12.8751C6.49279 13.1259 7.79973 12.9972 8.98744 12.5052C10.1752 12.0132 11.1903 11.1801 11.9046 10.1112C12.6188 9.04229 13 7.78558 13 6.5C12.9982 4.77665 12.3128 3.12441 11.0942 1.90582C9.87559 0.687224 8.22335 0.00181989 6.5 0ZM6 3.5C6 3.36739 6.05268 3.24021 6.14645 3.14645C6.24022 3.05268 6.36739 3 6.5 3C6.63261 3 6.75979 3.05268 6.85356 3.14645C6.94732 3.24021 7 3.36739 7 3.5V7C7 7.13261 6.94732 7.25979 6.85356 7.35355C6.75979 7.44732 6.63261 7.5 6.5 7.5C6.36739 7.5 6.24022 7.44732 6.14645 7.35355C6.05268 7.25979 6 7.13261 6 7V3.5ZM6.5 10C6.35167 10 6.20666 9.95601 6.08333 9.8736C5.95999 9.79119 5.86386 9.67406 5.80709 9.53701C5.75033 9.39997 5.73547 9.24917 5.76441 9.10368C5.79335 8.9582 5.86478 8.82456 5.96967 8.71967C6.07456 8.61478 6.2082 8.54335 6.35368 8.51441C6.49917 8.48547 6.64997 8.50033 6.78701 8.55709C6.92406 8.61386 7.04119 8.70999 7.1236 8.83332C7.20602 8.95666 7.25 9.10166 7.25 9.25C7.25 9.44891 7.17098 9.63968 7.03033 9.78033C6.88968 9.92098 6.69892 10 6.5 10Z" fill="#131415"/>
</svg>
