<svg width="20" height="20" viewBox="0 0 20 20" fill="none" xmlns="http://www.w3.org/2000/svg">
<g id="Like">
<path id="icon" d="M8.81771 17.2917L9.34804 16.7613L9.31443 16.7277L9.27684 16.6986L8.81771 17.2917ZM15.901 16.0417L15.1886 15.8074L15.18 15.8333L15.1734 15.8598L15.901 16.0417ZM17.901 9.95835L17.1947 9.7061L17.1915 9.71506L17.1886 9.72411L17.901 9.95835ZM12.151 6.79168L11.41 6.67589L11.4086 6.68561L12.151 6.79168ZM12.5677 4.12501L11.8356 3.96232L11.8304 3.98563L11.8267 4.00923L12.5677 4.12501ZM11.4844 2.29168L11.221 2.99393L11.234 2.9988L11.2472 3.00319L11.4844 2.29168ZM9.65104 2.87501L10.2735 3.29339L10.2751 3.29104L9.65104 2.87501ZM5.77525 15.8847L8.35858 17.8847L9.27684 16.6986L6.6935 14.6986L5.77525 15.8847ZM8.28738 17.822C8.5874 18.122 9.00322 18.2914 9.34083 18.3878C9.69681 18.4895 10.0786 18.5417 10.401 18.5417V17.0417C10.2235 17.0417 9.98027 17.0105 9.75292 16.9455C9.5072 16.8753 9.38135 16.7947 9.34804 16.7613L8.28738 17.822ZM10.401 18.5417H13.5677V17.0417H10.401V18.5417ZM13.5677 18.5417C14.2475 18.5417 14.9205 18.2906 15.4585 17.897C15.997 17.5029 16.4529 16.9265 16.6286 16.2236L15.1734 15.8598C15.0992 16.1568 14.8884 16.4555 14.5727 16.6864C14.2566 16.9178 13.8879 17.0417 13.5677 17.0417V18.5417ZM16.6135 16.2759L18.6135 10.1926L17.1886 9.72411L15.1886 15.8074L16.6135 16.2759ZM18.6073 10.2106C18.8897 9.42001 18.7945 8.6119 18.3382 7.99261C17.8854 7.37812 17.1456 7.04168 16.3177 7.04168V8.54168C16.7398 8.54168 17 8.70524 17.1306 8.88241C17.2576 9.05479 17.3291 9.33002 17.1947 9.7061L18.6073 10.2106ZM16.3177 7.04168H12.9844V8.54168H16.3177V7.04168ZM12.9844 7.04168C12.9445 7.04168 12.9219 7.02621 12.9113 7.01421C12.9059 7.00806 12.9002 6.99919 12.896 6.98492C12.892 6.97101 12.887 6.94331 12.8935 6.89775L11.4086 6.68561C11.2589 7.73361 12.041 8.54168 12.9844 8.54168V7.04168ZM12.8921 6.90746L13.3087 4.2408L11.8267 4.00923L11.41 6.6759L12.8921 6.90746ZM13.2998 4.28771C13.5558 3.13573 12.8095 1.94282 11.7215 1.58017L11.2472 3.00319C11.6592 3.14054 11.9129 3.6143 11.8356 3.96232L13.2998 4.28771ZM11.7477 1.58943C11.2174 1.39055 10.6591 1.43464 10.1989 1.59283C9.74374 1.74929 9.30279 2.04532 9.027 2.45899L10.2751 3.29104C10.3326 3.20471 10.475 3.08407 10.6865 3.01136C10.893 2.94039 11.0847 2.94281 11.221 2.99393L11.7477 1.58943ZM9.02858 2.45664L5.61191 7.53997L6.85684 8.37672L10.2735 3.29339L9.02858 2.45664ZM2.73438 15.2917V7.12501H1.23438V15.2917H2.73438ZM2.73438 7.12501C2.73438 6.62619 2.84437 6.48807 2.88892 6.44695C2.94821 6.39222 3.12519 6.29168 3.65104 6.29168V4.79168C3.01022 4.79168 2.35388 4.89947 1.8715 5.34474C1.37438 5.80362 1.23438 6.45717 1.23438 7.12501H2.73438ZM3.65104 6.29168H4.48438V4.79168H3.65104V6.29168ZM4.48438 6.29168C5.01022 6.29168 5.18721 6.39222 5.2465 6.44695C5.29105 6.48807 5.40104 6.62619 5.40104 7.12501H6.90104C6.90104 6.45717 6.76104 5.80362 6.26392 5.34474C5.78154 4.89947 5.12519 4.79168 4.48438 4.79168V6.29168ZM5.40104 7.12501V15.2917H6.90104V7.12501H5.40104ZM5.40104 15.2917C5.40104 15.7905 5.29105 15.9286 5.2465 15.9697C5.18721 16.0245 5.01022 16.125 4.48438 16.125V17.625C5.12519 17.625 5.78154 17.5172 6.26392 17.072C6.76104 16.6131 6.90104 15.9595 6.90104 15.2917H5.40104ZM4.48438 16.125H3.65104V17.625H4.48438V16.125ZM3.65104 16.125C3.12519 16.125 2.94821 16.0245 2.88892 15.9697C2.84437 15.9286 2.73438 15.7905 2.73438 15.2917H1.23438C1.23438 15.9595 1.37438 16.6131 1.8715 17.072C2.35388 17.5172 3.01022 17.625 3.65104 17.625V16.125Z" fill="#1F1F1F"/>
</g>
</svg>
