<svg width="15" height="9" viewBox="0 0 15 9" fill="none" xmlns="http://www.w3.org/2000/svg">
<path d="M7.5 2C7.00555 2 6.5222 2.14662 6.11107 2.42133C5.69995 2.69603 5.37952 3.08648 5.1903 3.54329C5.00108 4.00011 4.95157 4.50277 5.04804 4.98773C5.1445 5.47268 5.3826 5.91814 5.73223 6.26777C6.08186 6.6174 6.52732 6.8555 7.01227 6.95196C7.49723 7.04843 7.99989 6.99892 8.45671 6.8097C8.91352 6.62048 9.30397 6.30005 9.57867 5.88893C9.85338 5.4778 10 4.99445 10 4.5C10 3.83696 9.73661 3.20107 9.26777 2.73223C8.79893 2.26339 8.16304 2 7.5 2ZM7.5 6C7.20333 6 6.91332 5.91203 6.66664 5.7472C6.41997 5.58238 6.22771 5.34811 6.11418 5.07403C6.00065 4.79994 5.97094 4.49834 6.02882 4.20736C6.0867 3.91639 6.22956 3.64912 6.43934 3.43934C6.64912 3.22956 6.91639 3.0867 7.20736 3.02882C7.49834 2.97094 7.79994 3.00065 8.07403 3.11418C8.34811 3.22771 8.58238 3.41997 8.7472 3.66664C8.91203 3.91332 9 4.20333 9 4.5C9 4.89782 8.84196 5.27936 8.56066 5.56066C8.27936 5.84196 7.89782 6 7.5 6ZM14.5 0H0.5C0.367392 0 0.240215 0.0526785 0.146447 0.146447C0.0526784 0.240215 0 0.367392 0 0.5V8.5C0 8.63261 0.0526784 8.75979 0.146447 8.85355C0.240215 8.94732 0.367392 9 0.5 9H14.5C14.6326 9 14.7598 8.94732 14.8536 8.85355C14.9473 8.75979 15 8.63261 15 8.5V0.5C15 0.367392 14.9473 0.240215 14.8536 0.146447C14.7598 0.0526785 14.6326 0 14.5 0ZM11.6031 8H3.39687C3.229 7.43225 2.92175 6.91553 2.50311 6.49689C2.08447 6.07825 1.56775 5.771 1 5.60312V3.39687C1.56775 3.229 2.08447 2.92175 2.50311 2.50311C2.92175 2.08447 3.229 1.56775 3.39687 1H11.6031C11.771 1.56775 12.0782 2.08447 12.4969 2.50311C12.9155 2.92175 13.4323 3.229 14 3.39687V5.60312C13.4323 5.771 12.9155 6.07825 12.4969 6.49689C12.0782 6.91553 11.771 7.43225 11.6031 8ZM14 2.33563C13.4002 2.0778 12.9222 1.59976 12.6644 1H14V2.33563ZM2.33562 1C2.0778 1.59976 1.59976 2.0778 1 2.33563V1H2.33562ZM1 6.66438C1.59976 6.9222 2.0778 7.40024 2.33562 8H1V6.66438ZM12.6644 8C12.9222 7.40024 13.4002 6.9222 14 6.66438V8H12.6644Z" fill="#6B7280"/>
</svg>
