<svg width="11" height="14" viewBox="0 0 11 14" fill="none" xmlns="http://www.w3.org/2000/svg">
<path d="M5.5 3C5.00555 3 4.5222 3.14662 4.11107 3.42133C3.69995 3.69603 3.37952 4.08648 3.1903 4.54329C3.00108 5.00011 2.95157 5.50277 3.04804 5.98773C3.1445 6.47268 3.3826 6.91814 3.73223 7.26777C4.08186 7.6174 4.52732 7.8555 5.01227 7.95196C5.49723 8.04843 5.99989 7.99892 6.45671 7.8097C6.91352 7.62048 7.30397 7.30005 7.57867 6.88893C7.85338 6.4778 8 5.99445 8 5.5C8 4.83696 7.73661 4.20107 7.26777 3.73223C6.79893 3.26339 6.16304 3 5.5 3ZM5.5 7C5.20333 7 4.91332 6.91203 4.66664 6.7472C4.41997 6.58238 4.22771 6.34811 4.11418 6.07403C4.00065 5.79994 3.97094 5.49834 4.02882 5.20736C4.0867 4.91639 4.22956 4.64912 4.43934 4.43934C4.64912 4.22956 4.91639 4.0867 5.20736 4.02882C5.49834 3.97094 5.79994 4.00065 6.07403 4.11418C6.34811 4.22771 6.58238 4.41997 6.7472 4.66664C6.91203 4.91332 7 5.20333 7 5.5C7 5.89782 6.84196 6.27936 6.56066 6.56066C6.27936 6.84196 5.89782 7 5.5 7ZM5.5 0C4.04182 0.00165421 2.64383 0.581648 1.61274 1.61274C0.581648 2.64383 0.00165421 4.04182 0 5.5C0 7.4625 0.906875 9.5425 2.625 11.5156C3.39701 12.4072 4.26591 13.2101 5.21562 13.9094C5.29969 13.9683 5.39985 13.9999 5.5025 13.9999C5.60515 13.9999 5.70531 13.9683 5.78938 13.9094C6.73734 13.2098 7.60455 12.4069 8.375 11.5156C10.0906 9.5425 11 7.4625 11 5.5C10.9983 4.04182 10.4184 2.64383 9.38726 1.61274C8.35617 0.581648 6.95818 0.00165421 5.5 0ZM5.5 12.875C4.46687 12.0625 1 9.07812 1 5.5C1 4.30653 1.47411 3.16193 2.31802 2.31802C3.16193 1.47411 4.30653 1 5.5 1C6.69347 1 7.83807 1.47411 8.68198 2.31802C9.52589 3.16193 10 4.30653 10 5.5C10 9.07687 6.53313 12.0625 5.5 12.875Z" fill="#6B7280"/>
</svg>
