<svg width="24" height="24" viewBox="0 0 24 24" fill="none" xmlns="http://www.w3.org/2000/svg">
<g id="Notification Bing">
<path id="icon" d="M12.7509 6.44C12.7509 6.02579 12.4151 5.69 12.0009 5.69C11.5867 5.69 11.2509 6.02579 11.2509 6.44H12.7509ZM11.2509 9.77C11.2509 10.1842 11.5867 10.52 12.0009 10.52C12.4151 10.52 12.7509 10.1842 12.7509 9.77H11.2509ZM4.73087 13.04L4.08873 12.6525L4.08749 12.6546L4.73087 13.04ZM3.46087 15.16L2.81748 14.7746L2.81646 14.7763L3.46087 15.16ZM4.66087 18.41L4.4237 19.1215L4.42415 19.1217L4.66087 18.41ZM19.3909 18.41L19.6276 19.1217L19.628 19.1215L19.3909 18.41ZM20.5909 15.16L21.2345 14.7749L21.2343 14.7746L20.5909 15.16ZM19.3209 13.04L19.9643 12.6546L19.963 12.6525L19.3209 13.04ZM18.6909 8.66H19.4409L19.4409 8.65795L18.6909 8.66ZM11.2509 6.44V9.77H12.7509V6.44H11.2509ZM12.0209 1.25C7.92666 1.25 4.61087 4.56579 4.61087 8.66H6.11087C6.11087 5.39421 8.75509 2.75 12.0209 2.75V1.25ZM4.61087 8.66V10.76H6.11087V8.66H4.61087ZM4.61087 10.76C4.61087 11.0118 4.55649 11.3669 4.45411 11.7381C4.35161 12.1098 4.21691 12.4401 4.08873 12.6525L5.37301 13.4275C5.59484 13.0599 5.77514 12.5902 5.90014 12.1369C6.02526 11.6831 6.11087 11.1882 6.11087 10.76H4.61087ZM4.08749 12.6546L2.81749 14.7746L4.10426 15.5454L5.37426 13.4254L4.08749 12.6546ZM2.81646 14.7763C2.32171 15.6072 2.22163 16.5354 2.52485 17.3562C2.82818 18.1773 3.50759 18.8161 4.4237 19.1215L4.89804 17.6985C4.37415 17.5239 4.06356 17.1927 3.9319 16.8363C3.80012 16.4796 3.82004 16.0228 4.10529 15.5437L2.81646 14.7763ZM4.42415 19.1217C9.35783 20.7628 14.6939 20.7628 19.6276 19.1217L19.1541 17.6983C14.5278 19.2372 9.52392 19.2372 4.8976 17.6983L4.42415 19.1217ZM19.628 19.1215C21.4356 18.519 22.2091 16.4038 21.2345 14.7749L19.9473 15.5451C20.4326 16.3562 20.0461 17.401 19.1537 17.6985L19.628 19.1215ZM21.2343 14.7746L19.9643 12.6546L18.6775 13.4254L19.9475 15.5454L21.2343 14.7746ZM19.963 12.6525C19.8354 12.441 19.7006 12.1089 19.5978 11.7349C19.4951 11.3614 19.4409 11.0064 19.4409 10.76H17.9409C17.9409 11.1836 18.0267 11.6786 18.1515 12.1326C18.2761 12.5861 18.4564 13.059 18.6787 13.4275L19.963 12.6525ZM19.4409 10.76V8.66H17.9409V10.76H19.4409ZM19.4409 8.65795C19.4297 4.58574 16.0955 1.25 12.0209 1.25V2.75C15.2663 2.75 17.932 5.41426 17.9409 8.66205L19.4409 8.65795ZM14.5809 18.82C14.5809 20.2358 13.4167 21.4 12.0009 21.4V22.9C14.2451 22.9 16.0809 21.0642 16.0809 18.82H14.5809ZM12.0009 21.4C11.3008 21.4 10.6485 21.107 10.1812 20.6397L9.12054 21.7003C9.85322 22.433 10.881 22.9 12.0009 22.9V21.4ZM10.1812 20.6397C9.71388 20.1723 9.42087 19.5201 9.42087 18.82H7.92087C7.92087 19.9399 8.38787 20.9677 9.12054 21.7003L10.1812 20.6397Z" fill="#1F1F1F"/>
</g>
</svg>
