<svg width="20" height="20" viewBox="0 0 20 20" fill="none" xmlns="http://www.w3.org/2000/svg">
<g id="Note 2">
<path id="icon" d="M12.5493 16.1583C15.1493 16.4083 16.5326 15.1916 17.2326 12.1833L18.0493 8.69993C18.866 5.21659 17.7993 3.49159 14.3076 2.67493L12.916 2.34993C10.1326 1.69159 8.47431 2.23326 7.49931 4.24993M12.5493 16.1583C12.1326 16.1249 11.6826 16.0499 11.1993 15.9333L9.79931 15.5999C6.32431 14.7749 5.24931 13.0583 6.06597 9.57493L6.88264 6.08326C7.04931 5.37493 7.24931 4.75826 7.49931 4.24993M12.5493 16.1583C12.0326 16.5083 11.3826 16.7999 10.591 17.0583L9.27431 17.4916C5.96597 18.5583 4.22431 17.6666 3.14931 14.3583L2.08264 11.0666C1.01597 7.75826 1.89931 6.00826 5.20764 4.94159L6.52431 4.50826C6.86597 4.39993 7.19097 4.30826 7.49931 4.24993M10.5326 7.10826L14.5743 8.13326M9.71597 10.3333L12.1326 10.9499" stroke="#1F1F1F" stroke-width="1.5" stroke-linecap="round" stroke-linejoin="round"/>
</g>
</svg>
