<svg width="11" height="11" viewBox="0 0 11 11" fill="none" xmlns="http://www.w3.org/2000/svg">
<path d="M10.3539 1.35358L1.3539 10.3536C1.26008 10.4474 1.13283 10.5001 1.00015 10.5001C0.867464 10.5001 0.740217 10.4474 0.646396 10.3536C0.552576 10.2598 0.499868 10.1325 0.499868 9.99983C0.499868 9.86715 0.552576 9.73991 0.646396 9.64608L9.6464 0.646084C9.74013 0.552263 9.8673 0.499523 9.99993 0.499464C10.1325 0.499406 10.2598 0.552034 10.3536 0.645771C10.4474 0.739509 10.5001 0.866677 10.5002 0.9993C10.5003 1.13192 10.4476 1.25914 10.3539 1.35296V1.35358ZM0.658896 3.84108C0.236954 3.41906 -5.85943e-05 2.8467 1.08657e-08 2.24993C5.8616e-05 1.65315 0.237183 1.08084 0.659209 0.658896C1.08123 0.236954 1.65359 -5.85943e-05 2.25037 1.08657e-08C2.84714 5.8616e-05 3.41945 0.237183 3.8414 0.659209C4.26334 1.08123 4.50035 1.65359 4.50029 2.25037C4.50023 2.84714 4.26311 3.41945 3.84108 3.8414C3.41906 4.26334 2.8467 4.50035 2.24993 4.50029C1.65315 4.50023 1.08084 4.26311 0.658896 3.84108ZM1.00015 2.25108C1.00031 2.45661 1.05115 2.65893 1.14816 2.84013C1.24518 3.02132 1.38537 3.17579 1.55634 3.28987C1.7273 3.40395 1.92375 3.47411 2.12831 3.49415C2.33286 3.51418 2.53919 3.48347 2.72904 3.40473C2.91889 3.32598 3.08639 3.20164 3.21672 3.04272C3.34704 2.88379 3.43617 2.69518 3.4762 2.49358C3.51624 2.29199 3.50595 2.08364 3.44624 1.88697C3.38653 1.6903 3.27925 1.51139 3.1339 1.36608C2.95901 1.19125 2.73619 1.07221 2.49363 1.02404C2.25107 0.975874 1.99968 1.00073 1.77125 1.09548C1.54282 1.19022 1.34763 1.35059 1.21037 1.55629C1.07311 1.76199 0.999952 2.00379 1.00015 2.25108ZM11.0001 8.75108C11 9.27163 10.8194 9.77602 10.4891 10.1783C10.1588 10.5806 9.69919 10.856 9.18863 10.9574C8.67807 11.0589 8.14812 10.9801 7.6891 10.7347C7.23007 10.4892 6.87036 10.0922 6.67125 9.61119C6.47214 9.13023 6.44595 8.59512 6.59715 8.09702C6.74835 7.59892 7.06758 7.16865 7.50045 6.87953C7.93332 6.59041 8.45304 6.46033 8.97107 6.51144C9.4891 6.56255 9.97338 6.79169 10.3414 7.15983C10.551 7.36832 10.7171 7.61632 10.8302 7.88946C10.9433 8.1626 11.001 8.45546 11.0001 8.75108ZM10.0001 8.75108C10.0002 8.46189 9.89999 8.18161 9.71657 7.95802C9.53315 7.73443 9.27788 7.58136 8.99425 7.52488C8.71062 7.46841 8.41619 7.51203 8.16111 7.6483C7.90604 7.78458 7.7061 8.00509 7.59538 8.27225C7.48466 8.53942 7.47001 8.8367 7.55391 9.11346C7.63781 9.39022 7.81508 9.62933 8.05551 9.79004C8.29594 9.95075 8.58466 10.0231 8.87247 9.99482C9.16028 9.96652 9.42937 9.8393 9.6339 9.63483C9.75034 9.51906 9.84267 9.38133 9.90553 9.22964C9.9684 9.07795 10.0006 8.91529 10.0001 8.75108Z" fill="#6B7280"/>
</svg>
