<svg width="20" height="20" viewBox="0 0 20 20" fill="none" xmlns="http://www.w3.org/2000/svg">
<g id="Profile">
<g id="icon">
<path d="M10.1342 9.05817C10.0509 9.04984 9.95091 9.04984 9.85924 9.05817C7.87591 8.9915 6.30091 7.3665 6.30091 5.3665C6.30091 3.32484 7.95091 1.6665 10.0009 1.6665C12.0426 1.6665 13.7009 3.32484 13.7009 5.3665C13.6926 7.3665 12.1176 8.9915 10.1342 9.05817Z" stroke="#1F1F1F" stroke-width="1.5" stroke-linecap="round" stroke-linejoin="round"/>
<path d="M5.96758 12.1332C3.95091 13.4832 3.95091 15.6832 5.96758 17.0248C8.25924 18.5582 12.0176 18.5582 14.3092 17.0248C16.3259 15.6748 16.3259 13.4748 14.3092 12.1332C12.0259 10.6082 8.26758 10.6082 5.96758 12.1332Z" stroke="#1F1F1F" stroke-width="1.5" stroke-linecap="round" stroke-linejoin="round"/>
</g>
</g>
</svg>
