<svg width="25" height="28" viewBox="0 0 25 28" fill="none" xmlns="http://www.w3.org/2000/svg">
<rect width="25" height="28" rx="4" fill="#F7F7F7"/>
<path d="M16.3347 4H8.66554C7.86651 4 7.21875 4.61691 7.21875 5.37789V7.44531C7.21875 8.20629 7.86651 8.8232 8.66554 8.8232H16.3347C17.1337 8.8232 17.7815 8.20629 17.7815 7.44531V5.37789C17.7815 4.61691 17.1338 4 16.3347 4Z" fill="#E6E6E6"/>
<path d="M14.1079 4H10.8923C10.0933 4 9.44556 4.61691 9.44556 5.37789V7.44531C9.44556 8.20629 10.0933 8.8232 10.8923 8.8232H14.1079C14.907 8.8232 15.5547 8.20629 15.5547 7.44531V5.37789C15.5548 4.61691 14.907 4 14.1079 4Z" fill="#D1D1D1"/>
<path d="M7.8335 8.4209H17.1668V21.768H7.8335V8.4209Z" fill="#F2F2F2"/>
<path d="M9.71675 20.322H8.10931L7.68677 15.9998L8.10931 10.458H8.16509C9.34966 10.458 10.31 11.3726 10.31 12.5007V19.7571C10.3099 20.0691 10.0443 20.322 9.71675 20.322Z" fill="#E6E6E6"/>
<path d="M8.10931 17.7529L7.68677 18.8634L8.10931 20.3218H9.71675C10.0443 20.3218 10.3099 20.0689 10.3099 19.7569V17.753H8.10931V17.7529Z" fill="#DBDBDB"/>
<path d="M16.8908 19.1658L17.3134 15.3905L16.8908 10.4585H16.8351C15.6505 10.4585 14.6902 11.3731 14.6902 12.5012V19.5292" fill="#E6E6E6"/>
<path d="M14.6902 17.7534V20.2419L16.8908 19.6273L17.3134 18.4083L16.8908 17.7534H14.6902Z" fill="#DBDBDB"/>
<path d="M10.31 16.6097H8.10931L7.68677 15.9999L8.10931 15.3901H10.31V16.6097Z" fill="#DBDBDB"/>
<path d="M16.8908 16.6097H14.6902V15.3901H16.8908L17.3134 15.9999L16.8908 16.6097Z" fill="#DBDBDB"/>
<path d="M7.83031 21.7679H8.10934V8.42087L7.56375 7.88614C6.97411 7.30825 5.94556 7.70579 5.94556 8.51157V19.9729C5.94556 20.9643 6.78941 21.7679 7.83031 21.7679Z" fill="#D1D1D1"/>
<path d="M17.1699 21.7679H16.8909V8.42087L17.4365 7.88614C18.0261 7.30825 19.0546 7.70579 19.0546 8.51157V19.9729C19.0546 20.9643 18.2108 21.7679 17.1699 21.7679Z" fill="#D1D1D1"/>
<path d="M19.4758 23.9999H5.52421C4.83031 23.9999 4.26782 23.4642 4.26782 22.8034V22.2039C4.26782 20.3122 6.06373 18.8807 8.01891 19.2139L9.61072 19.4851C11.5218 19.8107 13.4783 19.8107 15.3894 19.4851L16.9812 19.2139C18.9364 18.8807 20.7323 20.3122 20.7323 22.2039V22.8034C20.7323 23.4642 20.1697 23.9999 19.4758 23.9999Z" fill="#C7C7C7"/>
</svg>
