<svg width="25" height="28" viewBox="0 0 25 28" fill="none" xmlns="http://www.w3.org/2000/svg">
<rect width="25" height="28" rx="4" fill="#F7F7F7"/>
<path d="M9.875 7.75H10.8594V9.9375H9.875V7.75Z" fill="#9B9B9B"/>
<path d="M14.1406 7.75H15.125V9.9375H14.1406V7.75Z" fill="#9B9B9B"/>
<path d="M15.5357 8.375H9.46448C9.31415 8.375 9.16564 8.34355 9.02947 8.28287C8.8933 8.22219 8.77278 8.13377 8.67644 8.02385C8.5801 7.91393 8.51029 7.7852 8.47194 7.64675C8.4336 7.50831 8.42765 7.36353 8.45452 7.22266L8.73752 5.74047C8.78048 5.51518 8.90511 5.31139 9.08967 5.16465C9.27424 5.01791 9.50703 4.93752 9.74745 4.9375H15.2527C15.4931 4.93749 15.7259 5.01785 15.9105 5.16455C16.0951 5.31126 16.2197 5.515 16.2627 5.74027L16.5458 7.22246C16.5727 7.36336 16.5667 7.50816 16.5284 7.64664C16.4901 7.78511 16.4202 7.91387 16.3239 8.02382C16.2275 8.13376 16.107 8.2222 15.9708 8.28289C15.8346 8.34357 15.6861 8.37502 15.5357 8.375Z" fill="#D1D1D1"/>
<path d="M19.0625 20.875H5.9375L7.38535 10.6699C7.4387 10.294 7.63339 9.94923 7.93331 9.69962C8.23324 9.45001 8.61804 9.31247 9.01634 9.3125H9.21096L12.6426 10.4844L15.7666 9.3125H15.9837C16.382 9.31247 16.7668 9.45001 17.0667 9.69962C17.3666 9.94923 17.5613 10.294 17.6146 10.6699L19.0625 20.875Z" fill="#D1D1D1"/>
<path d="M9.21875 9.3125H15.7812V12.4375H9.21875V9.3125Z" fill="#F2F2F2"/>
<path d="M9.21875 12.4375H15.7812V15.5625H9.21875V12.4375Z" fill="#E6E6E6"/>
<path d="M9.21875 15.5625H15.7812V18.0648C15.7812 18.23 15.7124 18.3884 15.5898 18.5051C15.4671 18.6219 15.3009 18.6875 15.1275 18.6875H9.87254C9.69914 18.6875 9.53285 18.6219 9.41024 18.5051C9.28763 18.3884 9.21875 18.23 9.21875 18.0648V15.5625Z" fill="#DBDBDB"/>
<path d="M18.0781 23.0625H6.92188C6.31271 23.0625 5.72849 22.832 5.29774 22.4218C4.86699 22.0116 4.625 21.4552 4.625 20.875C4.625 20.2948 4.86699 19.7384 5.29774 19.3282C5.72849 18.918 6.31271 18.6875 6.92188 18.6875C7.29199 18.6875 7.65068 18.8096 7.9369 19.0331C8.22313 19.2566 8.41921 19.5676 8.49179 19.9132C8.51173 20.0082 8.5656 20.0937 8.64424 20.1551C8.72288 20.2164 8.82142 20.25 8.92311 20.25H16.0769C16.1786 20.25 16.2771 20.2164 16.3558 20.1551C16.4344 20.0937 16.4883 20.0082 16.5082 19.9132C16.5808 19.5676 16.7769 19.2566 17.0631 19.0331C17.3493 18.8096 17.708 18.6875 18.0781 18.6875C18.6873 18.6875 19.2715 18.918 19.7023 19.3282C20.133 19.7384 20.375 20.2948 20.375 20.875C20.375 21.4552 20.133 22.0116 19.7023 22.4218C19.2715 22.832 18.6873 23.0625 18.0781 23.0625Z" fill="#C7C7C7"/>
</svg>
