<svg width="26" height="26" viewBox="0 0 26 26" fill="none" xmlns="http://www.w3.org/2000/svg">
<path d="M15.0177 3.09502L17.0711 7.20168C17.3511 7.77335 18.0977 8.32168 18.7277 8.42668L22.4494 9.04502C24.8294 9.44168 25.3894 11.1684 23.6744 12.8717L20.7811 15.765C20.2911 16.255 20.0227 17.2 20.1744 17.8767L21.0027 21.4584C21.6561 24.2934 20.1511 25.39 17.6427 23.9084L14.1544 21.8434C13.5244 21.47 12.4861 21.47 11.8444 21.8434L8.35607 23.9084C5.85941 25.39 4.34274 24.2817 4.99607 21.4584L5.82441 17.8767C5.97607 17.2 5.70774 16.255 5.21774 15.765L2.32441 12.8717C0.621072 11.1684 1.16941 9.44168 3.54941 9.04502L7.27107 8.42668C7.88941 8.32168 8.63607 7.77335 8.91607 7.20168L10.9694 3.09502C12.0894 0.866684 13.9094 0.866684 15.0177 3.09502Z" stroke="#FFBC00" stroke-width="1.5" stroke-linecap="round" stroke-linejoin="round"/>
</svg>
