<svg width="40" height="44" viewBox="0 0 40 44" fill="none" xmlns="http://www.w3.org/2000/svg">
<rect width="40" height="44" rx="4" fill="#F8BA2C"/>
<path d="M26.5737 4H13.4265C12.0567 4 10.9463 5.11045 10.9463 6.4802V10.2016C10.9463 11.5713 12.0567 12.6818 13.4265 12.6818H26.5737C27.9434 12.6818 29.0539 11.5713 29.0539 10.2016V6.4802C29.0539 5.11045 27.9435 4 26.5737 4Z" fill="#292861"/>
<path d="M22.7563 4H17.2439C15.8741 4 14.7637 5.11045 14.7637 6.4802V10.2016C14.7637 11.5713 15.8741 12.6818 17.2439 12.6818H22.7563C24.1261 12.6818 25.2365 11.5713 25.2365 10.2016V6.4802C25.2366 5.11045 24.1261 4 22.7563 4Z" fill="#22214F"/>
<path d="M12 11.9575H28V35.9822H12V11.9575Z" fill="#313074"/>
<path d="M15.2288 33.3802H12.4731L11.7488 25.6002L12.4731 15.625H12.5688C14.5995 15.625 16.2457 17.2712 16.2457 19.3019V32.3633C16.2456 32.925 15.7903 33.3802 15.2288 33.3802Z" fill="#292861"/>
<path d="M12.4731 28.7563L11.7488 30.7551L12.4731 33.3804H15.2288C15.7903 33.3804 16.2456 32.9251 16.2456 32.3635V28.7564H12.4731V28.7563Z" fill="white"/>
<path d="M27.5269 31.2981L28.2513 24.5026L27.5269 15.625H27.4313C25.4006 15.625 23.7544 17.2712 23.7544 19.3019V31.9522" fill="#292861"/>
<path d="M23.7544 28.7563V33.2355L27.5269 32.1293L28.2513 29.9351L27.5269 28.7563H23.7544Z" fill="white"/>
<path d="M16.2457 26.6977H12.4731L11.7488 25.6001L12.4731 24.5024H16.2457V26.6977Z" fill="white"/>
<path d="M27.5269 26.6977H23.7544V24.5024H27.5269L28.2513 25.6001L27.5269 26.6977Z" fill="white"/>
<path d="M11.9949 35.9821H12.4733V11.9574L11.538 10.9949C10.5271 9.95466 8.76392 10.6702 8.76392 12.1206V32.7511C8.76392 34.5356 10.2105 35.9821 11.9949 35.9821Z" fill="#22214F"/>
<path d="M28.0053 35.9821H27.527V11.9574L28.4623 10.9949C29.4731 9.95466 31.2363 10.6702 31.2363 12.1206V32.7511C31.2363 34.5356 29.7897 35.9821 28.0053 35.9821Z" fill="#22214F"/>
<path d="M31.9586 40.0002H8.04151C6.85196 40.0002 5.8877 39.0359 5.8877 37.8464V36.7673C5.8877 33.3624 8.9664 30.7856 12.3181 31.3853L15.047 31.8736C18.323 32.4597 21.6771 32.4597 24.9532 31.8736L27.682 31.3853C31.0338 30.7856 34.1125 33.3624 34.1125 36.7673V37.8464C34.1125 39.0359 33.1481 40.0002 31.9586 40.0002Z" fill="#292861"/>
</svg>
