<svg width="44" height="42" viewBox="0 0 44 42" fill="none" xmlns="http://www.w3.org/2000/svg">
<rect width="44" height="42" rx="6" fill="#F8BA2C"/>
<path d="M13.6463 18.05V18.98H11.7963V25H10.6563V18.98H8.79625V18.05H13.6463ZM17.1908 25.09C16.6708 25.09 16.2008 24.9733 15.7808 24.74C15.3608 24.5 15.0308 24.1667 14.7908 23.74C14.5508 23.3067 14.4308 22.8067 14.4308 22.24C14.4308 21.68 14.5541 21.1833 14.8008 20.75C15.0474 20.3167 15.3841 19.9833 15.8108 19.75C16.2374 19.5167 16.7141 19.4 17.2408 19.4C17.7674 19.4 18.2441 19.5167 18.6708 19.75C19.0974 19.9833 19.4341 20.3167 19.6808 20.75C19.9274 21.1833 20.0508 21.68 20.0508 22.24C20.0508 22.8 19.9241 23.2967 19.6708 23.73C19.4174 24.1633 19.0708 24.5 18.6308 24.74C18.1974 24.9733 17.7174 25.09 17.1908 25.09ZM17.1908 24.1C17.4841 24.1 17.7574 24.03 18.0108 23.89C18.2708 23.75 18.4808 23.54 18.6408 23.26C18.8008 22.98 18.8808 22.64 18.8808 22.24C18.8808 21.84 18.8041 21.5033 18.6508 21.23C18.4974 20.95 18.2941 20.74 18.0408 20.6C17.7874 20.46 17.5141 20.39 17.2208 20.39C16.9274 20.39 16.6541 20.46 16.4008 20.6C16.1541 20.74 15.9574 20.95 15.8108 21.23C15.6641 21.5033 15.5908 21.84 15.5908 22.24C15.5908 22.8333 15.7408 23.2933 16.0408 23.62C16.3474 23.94 16.7308 24.1 17.1908 24.1ZM21.7577 18.76C21.5511 18.76 21.3777 18.69 21.2377 18.55C21.0977 18.41 21.0277 18.2367 21.0277 18.03C21.0277 17.8233 21.0977 17.65 21.2377 17.51C21.3777 17.37 21.5511 17.3 21.7577 17.3C21.9577 17.3 22.1277 17.37 22.2677 17.51C22.4077 17.65 22.4777 17.8233 22.4777 18.03C22.4777 18.2367 22.4077 18.41 22.2677 18.55C22.1277 18.69 21.9577 18.76 21.7577 18.76ZM22.3177 19.49V25H21.1777V19.49H22.3177ZM24.9545 17.6V25H23.8145V17.6H24.9545ZM31.5012 22.11C31.5012 22.3167 31.4878 22.5033 31.4612 22.67H27.2512C27.2845 23.11 27.4478 23.4633 27.7412 23.73C28.0345 23.9967 28.3945 24.13 28.8212 24.13C29.4345 24.13 29.8678 23.8733 30.1212 23.36H31.3512C31.1845 23.8667 30.8812 24.2833 30.4412 24.61C30.0078 24.93 29.4678 25.09 28.8212 25.09C28.2945 25.09 27.8212 24.9733 27.4012 24.74C26.9878 24.5 26.6612 24.1667 26.4212 23.74C26.1878 23.3067 26.0712 22.8067 26.0712 22.24C26.0712 21.6733 26.1845 21.1767 26.4112 20.75C26.6445 20.3167 26.9678 19.9833 27.3812 19.75C27.8012 19.5167 28.2812 19.4 28.8212 19.4C29.3412 19.4 29.8045 19.5133 30.2112 19.74C30.6178 19.9667 30.9345 20.2867 31.1612 20.7C31.3878 21.1067 31.5012 21.5767 31.5012 22.11ZM30.3112 21.75C30.3045 21.33 30.1545 20.9933 29.8612 20.74C29.5678 20.4867 29.2045 20.36 28.7712 20.36C28.3778 20.36 28.0412 20.4867 27.7612 20.74C27.4812 20.9867 27.3145 21.3233 27.2612 21.75H30.3112ZM33.953 20.42V23.47C33.953 23.6767 33.9997 23.8267 34.093 23.92C34.193 24.0067 34.3597 24.05 34.593 24.05H35.293V25H34.393C33.8797 25 33.4864 24.88 33.213 24.64C32.9397 24.4 32.803 24.01 32.803 23.47V20.42H32.153V19.49H32.803V18.12H33.953V19.49H35.293V20.42H33.953Z" fill="white"/>
</svg>
