<svg width="45" height="45" viewBox="0 0 45 45" fill="none" xmlns="http://www.w3.org/2000/svg">
<path d="M22.5 0C34.9268 0 45 10.0733 45 22.5C45 34.9268 34.9268 45 22.5 45C10.0733 45 0 34.9268 0 22.5C0 10.0733 10.0733 0 22.5 0ZM13.5 24.75L4.6395 24.7523C5.14078 28.7172 6.94672 32.4028 9.77291 35.2286C12.5991 38.0544 16.2849 39.8598 20.25 40.3605V31.5C18.4598 31.5 16.7429 30.7888 15.477 29.523C14.2112 28.2571 13.5 26.5402 13.5 24.75ZM40.3605 24.7523L31.5 24.75C31.5 26.5402 30.7888 28.2571 29.523 29.523C28.2571 30.7888 26.5402 31.5 24.75 31.5L24.7523 40.3605C28.7169 39.8593 32.4022 38.0537 35.228 35.228C38.0537 32.4022 39.8593 28.7169 40.3605 24.7523ZM22.5 4.5C18.1156 4.50007 13.882 6.10017 10.5936 9.00001C7.30515 11.8998 5.18803 15.9001 4.6395 20.25H13.5C13.5 19.6533 13.7371 19.081 14.159 18.659C14.581 18.2371 15.1533 18 15.75 18H29.25C29.8467 18 30.419 18.2371 30.841 18.659C31.2629 19.081 31.5 19.6533 31.5 20.25H40.3605C39.812 15.9001 37.6948 11.8998 34.4064 9.00001C31.118 6.10017 26.8844 4.50007 22.5 4.5Z" fill="#9B9B9B"/>
</svg>
