<svg width="24" height="24" viewBox="0 0 24 24" fill="none" xmlns="http://www.w3.org/2000/svg">
<path d="M12 2.25C6.615 2.25 2.25 6.615 2.25 12C2.25 17.385 6.615 21.75 12 21.75C17.385 21.75 21.75 17.385 21.75 12C21.75 6.615 17.385 2.25 12 2.25ZM12 6.877C12.1989 6.877 12.3897 6.95602 12.5303 7.09667C12.671 7.23732 12.75 7.42809 12.75 7.627V13.127C12.75 13.3259 12.671 13.5167 12.5303 13.6573C12.3897 13.798 12.1989 13.877 12 13.877C11.8011 13.877 11.6103 13.798 11.4697 13.6573C11.329 13.5167 11.25 13.3259 11.25 13.127V7.627C11.25 7.42809 11.329 7.23732 11.4697 7.09667C11.6103 6.95602 11.8011 6.877 12 6.877ZM12.75 15.873V16.373C12.75 16.5719 12.671 16.7627 12.5303 16.9033C12.3897 17.044 12.1989 17.123 12 17.123C11.8011 17.123 11.6103 17.044 11.4697 16.9033C11.329 16.7627 11.25 16.5719 11.25 16.373V15.873C11.25 15.6741 11.329 15.4833 11.4697 15.3427C11.6103 15.202 11.8011 15.123 12 15.123C12.1989 15.123 12.3897 15.202 12.5303 15.3427C12.671 15.4833 12.75 15.6741 12.75 15.873Z" fill="black"/>
</svg>
