<svg width="156" height="156" viewBox="0 0 156 156" fill="none" xmlns="http://www.w3.org/2000/svg">
<g id="illustratsi">
<g id="Group">
<path id="Vector" d="M108.305 114.351L108.255 114.453C108.185 114.596 108.108 114.735 108.023 114.87C107.691 115.403 107.251 115.874 106.72 116.243C106.458 116.427 106.175 116.587 105.869 116.716L76.0055 129.44C73.6043 130.463 70.8022 129.335 69.7792 126.934L43.5146 65.2876C43.3037 64.7939 43.1843 64.2833 43.1504 63.7728C43.1137 63.2522 43.1636 62.7339 43.2923 62.2378C43.3629 61.9652 43.4577 61.6992 43.5747 61.4438C44.0513 60.4091 44.896 59.5398 46.02 59.0613L75.8839 46.3371C78.2851 45.3138 81.0865 46.4416 82.1098 48.8429L108.375 110.489C108.921 111.772 108.855 113.172 108.305 114.35V114.351Z" fill="#FF9D9D"/>
<path id="Vector_2" d="M108.023 114.87C107.691 115.403 107.251 115.874 106.72 116.243C106.458 116.427 106.175 116.587 105.869 116.716L76.0056 129.44C73.6043 130.463 70.8022 129.335 69.7792 126.934L43.5146 65.2876C43.3037 64.7939 43.1843 64.2833 43.1504 63.7728C43.1137 63.2522 43.1636 62.7339 43.2923 62.2378C50.0651 76.9338 72.4764 118.477 108.023 114.869L108.023 114.87Z" fill="#FF6464"/>
<g id="Group_2" opacity="0.5">
<path id="Vector_3" d="M108.303 114.35L108.254 114.453C108.218 114.525 108.18 114.597 108.14 114.667C108.317 113.769 108.235 112.813 107.852 111.913L81.5866 50.2662C80.564 47.8649 77.7622 46.737 75.361 47.7604L45.4971 60.4845C44.5007 60.9081 43.7246 61.6409 43.2285 62.5215C43.3007 62.1495 43.4165 61.7868 43.5741 61.4432C44.0502 60.4085 44.8954 59.5392 46.0194 59.0607L75.8832 46.3365C78.2841 45.3135 81.0858 46.4406 82.1092 48.8423L108.374 110.489C108.921 111.772 108.854 113.171 108.303 114.35Z" fill="white"/>
</g>
<path id="Vector_4" d="M108.254 114.453L106.293 118.572L106.255 118.654C105.772 119.654 104.943 120.489 103.847 120.956L73.984 133.678C71.5827 134.702 68.7806 133.574 67.7596 131.173L41.4931 69.5261C40.9482 68.2469 41.0126 66.8534 41.5578 65.6764L41.6276 65.5302L42.4989 63.6983L43.5733 61.4434C43.2434 62.1645 43.0917 62.9659 43.1482 63.7728C43.1825 64.2833 43.3023 64.7939 43.5129 65.2876L69.7778 126.934C70.8004 129.335 73.6022 130.463 76.0034 129.439L105.868 116.715C106.173 116.586 106.456 116.427 106.718 116.242C107.111 115.969 107.452 115.643 107.738 115.274C107.938 115.018 108.109 114.741 108.254 114.453V114.453Z" fill="#FF6464"/>
<path id="Vector_5" d="M74.1562 130.387C73.4831 130.387 72.8084 130.257 72.1629 129.997C70.8428 129.466 69.8105 128.457 69.2567 127.156L42.9921 65.5102C42.7601 64.9673 42.6224 64.3956 42.5834 63.8109C42.5206 62.9249 42.6848 62.024 43.058 61.2077C43.6138 60.0022 44.586 59.0549 45.797 58.5393L75.6609 45.8152C78.3557 44.667 81.4828 45.9255 82.6313 48.6204L108.896 110.267C109.485 111.649 109.456 113.224 108.819 114.591C108.817 114.593 108.816 114.596 108.815 114.598L108.765 114.701C108.367 115.509 107.772 116.202 107.043 116.709C106.743 116.92 106.422 117.099 106.089 117.239L76.2275 129.962C75.5626 130.245 74.8606 130.387 74.1566 130.387L74.1562 130.387ZM77.7376 46.525C77.1924 46.525 76.6382 46.6322 76.1058 46.8592L46.242 59.5833C45.2908 59.9886 44.5264 60.7335 44.09 61.6812C43.7963 62.3235 43.6668 63.0337 43.7159 63.7329C43.7464 64.192 43.854 64.6393 44.0361 65.0648L70.3011 126.712C70.7363 127.734 71.5483 128.527 72.5873 128.945C73.6262 129.363 74.7611 129.353 75.7829 128.918L105.647 116.194C105.907 116.084 106.157 115.945 106.392 115.779C106.967 115.38 107.434 114.835 107.746 114.203L107.792 114.107C108.292 113.033 108.314 111.796 107.853 110.712L81.5877 49.0658C80.9114 47.4789 79.3631 46.5254 77.738 46.5254L77.7376 46.525Z" fill="#881414"/>
<path id="Vector_6" d="M72.1368 134.626C71.4636 134.626 70.7889 134.496 70.1435 134.237C68.8233 133.705 67.7914 132.696 67.2384 131.395L40.9723 69.749C40.3865 68.3735 40.4122 66.8025 41.0436 65.4387C41.0448 65.4364 41.0456 65.4344 41.0468 65.4321L41.1166 65.2858L43.0619 61.1994C43.1961 60.9178 43.5318 60.7973 43.8142 60.9291C44.0966 61.061 44.2198 61.396 44.0903 61.6795C43.7959 62.3234 43.6664 63.0336 43.7159 63.7328C43.7463 64.1919 43.8544 64.6392 44.0361 65.0647L70.301 126.712C70.7363 127.734 71.5483 128.527 72.5872 128.945C73.6262 129.363 74.7611 129.353 75.7829 128.918L105.647 116.194C105.906 116.084 106.157 115.945 106.393 115.779C106.967 115.38 107.434 114.835 107.746 114.203C107.884 113.923 108.222 113.807 108.502 113.943C108.783 114.079 108.901 114.416 108.767 114.698L106.808 118.814L106.771 118.893C106.77 118.896 106.768 118.898 106.767 118.901C106.208 120.061 105.251 120.977 104.072 121.48L74.2081 134.202C73.5431 134.485 72.8407 134.627 72.1372 134.627L72.1368 134.626ZM42.0725 65.918C41.5772 66.9905 41.5565 68.2245 42.0167 69.3044L68.2828 130.951C68.7173 131.973 69.5285 132.766 70.5674 133.184C71.606 133.602 72.7409 133.592 73.7631 133.157L103.627 120.435C104.551 120.041 105.303 119.322 105.743 118.412L105.779 118.335C105.779 118.333 105.781 118.331 105.781 118.329L106.359 117.116C106.27 117.16 106.18 117.201 106.09 117.239L76.2279 129.963C74.9268 130.517 73.4834 130.53 72.1637 129.999C70.8435 129.467 69.8112 128.458 69.2574 127.157L42.9929 65.5112C42.8669 65.2168 42.769 64.9138 42.6992 64.6045L42.0732 65.9192L42.0725 65.918Z" fill="#881414"/>
<path id="Vector_7" d="M103.541 105.844L74.3789 118.269L71.5245 119.486L69.7777 120.229L69.2231 118.926L65.3905 109.932L47.3047 67.4888L74.2576 56.006L79.968 53.5728L81.0701 53.104L82.0599 55.4245V55.4265L83.9752 59.9228L103.541 105.844Z" fill="#FFC5C5"/>
<path id="Vector_8" d="M103.54 105.844L88.4758 112.263L74.3785 118.269L71.5241 119.486L69.7773 120.229L69.2227 118.926L65.3898 109.932L51.7994 78.0375L47.3047 67.4888L74.2572 56.006L79.9676 53.5728L81.0697 53.104L82.0595 55.4245V55.4265L83.9748 59.9224L103.54 105.844Z" fill="#FFC5C5"/>
<path id="Vector_9" d="M88.4768 112.263L74.3791 118.269L71.525 119.485L69.7782 120.229L69.2236 118.926L65.3911 109.932L51.8008 78.0374C59.7911 90.8992 72.1482 106.083 88.4772 112.263H88.4768Z" fill="#FF9D9D"/>
<g id="Group_3" opacity="0.7">
<path id="Vector_10" d="M103.541 105.846L102.08 106.468L83.2377 62.2456L81.3228 57.7489V57.7469L80.3322 55.4268L79.2309 55.8956L73.5201 58.3284L48.0281 69.1891L47.3047 67.4895L74.2576 56.0067L79.9684 53.5735L81.0701 53.1047L82.0603 55.4248V55.4268L83.9756 59.9231L103.541 105.846Z" fill="white"/>
</g>
<g id="Group_4" opacity="0.5">
<path id="Vector_11" d="M79.968 53.5728L69.2232 118.926L65.3906 109.932L74.2577 56.006L79.968 53.5728Z" fill="white"/>
</g>
<g id="Group_5" opacity="0.5">
<path id="Vector_12" d="M83.9761 59.9226L74.3798 118.269L71.5254 119.485L82.0609 55.4263L83.9761 59.9226Z" fill="white"/>
</g>
<path id="Vector_13" d="M69.7768 120.797C69.7051 120.797 69.6329 120.783 69.5651 120.756C69.4254 120.699 69.3139 120.59 69.255 120.452L46.7836 67.7113C46.7247 67.5728 46.7231 67.4164 46.7793 67.2768C46.8355 67.1372 46.9447 67.0256 47.0831 66.9667L80.8462 52.5812C81.1344 52.4584 81.4679 52.5925 81.5907 52.8807L104.062 105.621C104.185 105.909 104.051 106.242 103.763 106.365L69.9995 120.751C69.9285 120.781 69.8529 120.796 69.7772 120.796L69.7768 120.797ZM48.0499 67.7881L70.0763 119.485L102.795 105.544L80.769 53.8475L48.0499 67.7881Z" fill="#881414"/>
<path id="Vector_14" d="M68.1348 54.2808C68.4132 54.9356 68.1087 55.6926 67.4546 55.9715L58.8056 59.6566C58.1508 59.9354 57.3938 59.6304 57.115 58.976C56.8365 58.3216 57.1407 57.5646 57.7951 57.2858L66.4445 53.6007C67.0986 53.3218 67.8555 53.6268 68.1352 54.2808H68.1348Z" fill="#FFF1F1"/>
<path id="Vector_15" d="M95.2895 115.191C95.7302 116.226 95.2486 117.423 94.2139 117.864L84.9046 121.83C83.8696 122.271 82.673 121.789 82.2319 120.754C81.7909 119.72 82.2725 118.523 83.3076 118.081L92.6169 114.115C93.6515 113.674 94.8484 114.156 95.2895 115.191V115.191Z" fill="#FF2C2C"/>
<g id="Group_6" opacity="0.5">
<path id="Vector_16" d="M95.0062 117.262C95.0164 116.972 94.9653 116.674 94.844 116.391C94.4041 115.355 93.206 114.874 92.1725 115.314L82.8636 119.28C82.541 119.418 82.2739 119.627 82.0723 119.884C82.0972 119.117 82.5594 118.402 83.3074 118.082L92.6167 114.116C93.6522 113.674 94.8483 114.156 95.2902 115.19C95.5947 115.905 95.4606 116.695 95.0066 117.262L95.0062 117.262Z" fill="white"/>
</g>
<path id="Vector_17" d="M58.3043 60.3271C57.5824 60.3271 56.8944 59.9036 56.5937 59.1985C56.1928 58.257 56.6323 57.1646 57.5738 56.7637L66.2232 53.0786C67.1639 52.6777 68.2563 53.1172 68.658 54.0583C68.658 54.0583 68.658 54.0587 68.658 54.059C69.0585 55.0005 68.619 56.0929 67.6779 56.4938L59.0289 60.1789C58.7925 60.2795 58.5464 60.3271 58.3043 60.3271ZM66.9494 54.0653C66.8554 54.0653 66.7598 54.0836 66.6682 54.123L58.0188 57.8081C57.653 57.9641 57.4825 58.3884 57.6381 58.7539C57.7941 59.1197 58.2185 59.2905 58.5843 59.1345L67.2333 55.4494C67.5987 55.2938 67.7696 54.8695 67.6139 54.5033C67.4969 54.2295 67.2294 54.0649 66.9494 54.0649V54.0653Z" fill="#881414"/>
<path id="Vector_18" d="M84.1097 122.561C83.0969 122.561 82.1316 121.966 81.71 120.977C81.437 120.338 81.43 119.629 81.6898 118.984C81.9495 118.338 82.4448 117.833 83.0848 117.56L92.3941 113.594C93.715 113.031 95.2477 113.647 95.8109 114.969C96.3737 116.29 95.7567 117.823 94.4358 118.386L85.1265 122.352C84.7946 122.494 84.449 122.561 84.1093 122.561H84.1097ZM93.4132 114.52C93.2213 114.52 93.0267 114.558 92.8395 114.638L83.5302 118.604C83.169 118.758 82.8894 119.043 82.7428 119.408C82.5961 119.772 82.6 120.171 82.7541 120.532C83.0719 121.278 83.937 121.626 84.6822 121.308L93.9915 117.342C94.7368 117.024 95.0851 116.159 94.7676 115.414C94.5297 114.856 93.9849 114.521 93.4136 114.521L93.4132 114.52Z" fill="#881414"/>
<g id="Group_7">
<path id="Vector_19" d="M101.521 115.195C101.3 115.195 101.09 115.066 100.998 114.85C100.875 114.562 101.01 114.228 101.298 114.106L102.717 113.501C102.938 113.407 103.109 113.232 103.198 113.01C103.288 112.788 103.285 112.544 103.192 112.324C103.098 112.103 102.923 111.932 102.701 111.843C102.479 111.753 102.235 111.756 102.014 111.85L99.3389 112.989C99.0507 113.112 98.7172 112.978 98.5944 112.69C98.4715 112.402 98.6057 112.068 98.8939 111.945L101.569 110.806C102.069 110.593 102.621 110.587 103.125 110.79C103.628 110.993 104.023 111.38 104.235 111.879C104.448 112.378 104.454 112.93 104.251 113.434C104.048 113.938 103.662 114.332 103.162 114.545L101.742 115.15C101.67 115.181 101.595 115.196 101.52 115.196L101.521 115.195Z" fill="#FFDFDF"/>
<path id="Vector_20" d="M100.636 113.647C100.565 113.647 100.493 113.633 100.424 113.605L98.9042 112.994C98.7646 112.938 98.653 112.828 98.5941 112.69C98.5353 112.551 98.5337 112.395 98.5899 112.255L99.2018 110.736C99.3188 110.445 99.6495 110.304 99.94 110.421C100.231 110.538 100.371 110.869 100.254 111.16L99.8546 112.153L100.848 112.552C101.139 112.669 101.279 113 101.162 113.291C101.073 113.512 100.86 113.646 100.636 113.646V113.647Z" fill="#FFDFDF"/>
</g>
<g id="Group_8">
<path id="Vector_21" d="M75.3904 124.943C75.1334 124.943 74.8764 124.894 74.6311 124.795C74.1272 124.592 73.7329 124.205 73.52 123.706C73.0809 122.675 73.5621 121.479 74.5929 121.039L76.0125 120.435C76.3007 120.312 76.6342 120.446 76.757 120.735C76.8799 121.023 76.7457 121.357 76.4571 121.479L75.0375 122.084C74.5824 122.278 74.3702 122.806 74.564 123.262C74.658 123.482 74.832 123.652 75.0547 123.742C75.2773 123.831 75.5211 123.829 75.7418 123.736L78.4168 122.596C78.705 122.473 79.0385 122.607 79.1614 122.895C79.2842 123.183 79.15 123.517 78.8618 123.64L76.1864 124.78C75.9306 124.889 75.6603 124.943 75.39 124.943L75.3904 124.943Z" fill="#FFDFDF"/>
<path id="Vector_22" d="M78.0264 125.205C77.9558 125.205 77.884 125.191 77.8146 125.163C77.5241 125.046 77.3833 124.716 77.5003 124.425L77.9004 123.432L76.9067 123.032C76.6158 122.915 76.475 122.585 76.592 122.294C76.709 122.004 77.0393 121.862 77.3302 121.979L78.8508 122.591C78.9905 122.647 79.102 122.757 79.1613 122.895C79.2202 123.034 79.2217 123.19 79.1656 123.33L78.5533 124.849C78.4644 125.07 78.2514 125.205 78.0268 125.205H78.0264Z" fill="#FFDFDF"/>
</g>
<path id="Vector_23" d="M79.9674 57.197L78.7631 58.6556L77.5561 60.1115L76.3474 61.5666L75.1365 63.0193L75.1552 62.9148L76.6072 66.7356L78.0514 70.5592L78.1083 70.7101L77.9628 70.7866L74.7808 72.4538L74.89 72.2222L75.5437 75.1047L76.1922 77.9883L76.2145 78.0862L76.1614 78.174L74.149 81.5131L74.1685 81.2795L74.7516 82.7233L75.3319 84.1682L75.3857 84.302L75.3058 84.4229L72.9143 88.0445L72.8792 87.6896L76.1446 90.9734L75.9925 90.8942L82.1159 91.9608L82.4279 92.0154L82.3293 92.3154L81.3812 95.1982L81.1663 94.8531L85.303 95.4576L89.4386 96.0675L89.7588 96.1147L89.6106 96.3994L87.808 99.8622L87.7054 99.5799L92.6319 101.708L92.7719 101.769L92.7228 101.91L91.7244 104.776L91.5984 104.601L95.3568 104.642L99.1149 104.693L99.1566 104.693L99.1562 104.734L99.1149 107.266L99.0739 104.734L99.1149 104.775L95.3568 104.825L91.5984 104.867L91.4143 104.869L91.4724 104.691L92.4147 101.806L92.5055 102.008L87.5459 99.9578L87.3431 99.8739L87.4429 99.6754L89.2022 96.19L89.3742 96.5219L85.2324 95.9529L81.0914 95.3788L80.779 95.3355L80.8765 95.0337L81.809 92.1457L82.0227 92.5002L75.8962 91.4503L75.8077 91.4355L75.7441 91.3716L72.4786 88.0877L72.3164 87.9243L72.4435 87.7329L74.8452 84.1179L74.8186 84.3726L74.2477 82.9238L73.6798 81.4741L73.6315 81.3513L73.699 81.2405L75.7273 77.9111L75.6965 78.0963L75.085 75.2045L74.4793 72.3115L74.4458 72.152L74.5885 72.0798L77.7943 70.459L77.7058 70.6863L76.3279 66.8382L74.9583 62.9874L74.9372 62.9285L74.9766 62.8828L76.2211 61.4586L77.4679 60.0366L78.7163 58.6158L79.9674 57.197Z" fill="#881414"/>
<path id="Vector_24" d="M50.7734 73.4996L52.7601 73.4625L54.7468 73.431L54.7975 73.4302L54.8127 73.4809L55.3259 75.1688L55.8356 76.8575L55.7479 76.7752L56.2444 76.8633C56.4097 76.8922 56.5751 76.9234 56.74 76.9534L57.2357 77.0447L57.731 77.1379L58.2259 77.2315L58.7209 77.3267L59.2154 77.4226L59.7095 77.5197L59.8725 77.5517L59.8905 77.7229L60.2664 81.3526L60.05 81.1241L63.8965 81.6915L64.0783 81.7185L64.1173 81.8998L64.8084 85.0986L64.5919 84.8837L71.9348 86.3891L72.2032 86.4441L72.1571 86.714L71.8022 88.7954L71.507 88.4674L75.9733 88.1936L76.0571 88.1886L76.1285 88.2303L78.7723 89.7798L78.4818 89.7961L81.9239 87.2596L82.0721 87.1504L82.2168 87.26L86.3617 90.4042L86.0899 90.4205L87.7681 88.8418L87.8792 88.7369L88.0044 88.8188L91.4075 91.0445L91.3256 91.0207L94.7506 91.0629L94.8458 91.064L94.859 91.1557L95.0209 92.2684L95.1808 93.3814L95.4986 95.6079L95.467 95.572L97.7384 96.2764L95.4421 95.6574L95.4156 95.6504L95.4105 95.622L95.024 93.4064L94.8317 92.2984L94.6414 91.19L94.7498 91.2828L91.3249 91.3249H91.282L91.243 91.3011L87.7965 89.1433L88.0329 89.1203L86.3804 90.7263L86.2533 90.8499L86.1082 90.7431L81.9227 87.6531H82.2152L78.7965 90.2209L78.658 90.325L78.5063 90.2372L75.8528 88.7045L76.0076 88.7412L71.5421 89.0306L71.1876 89.0536L71.2469 88.7026L71.5987 86.6204L71.821 86.9452L64.48 85.4305L64.3006 85.3934L64.2635 85.2156L63.5962 82.0117L63.8174 82.22L59.9739 81.6315L59.775 81.6011L59.7571 81.4029L59.4307 77.7685L59.6116 77.9721L59.1214 77.8555L58.6315 77.7373L58.1421 77.6188L57.6526 77.4987L57.1636 77.3778L56.6749 77.2553C56.5119 77.214 56.3489 77.1742 56.1862 77.1317L55.698 77.0057L55.6278 76.9878L55.6102 76.9238L55.1438 75.2226L54.6808 73.5203L54.7468 73.5698L52.7601 73.5382L50.7734 73.5012V73.4996Z" fill="#881414"/>
<path id="Vector_25" d="M63.5156 64.2322L64.4836 65.9037L65.4477 67.5776L65.4613 67.6018L65.4524 67.6299L65.0035 69.0066L64.5519 70.3825L64.5031 70.2577L66.4083 71.2619L68.313 72.2685L68.3926 72.3106L68.3934 72.4038L68.423 75.5547L68.4483 78.7059L68.3313 78.5179L71.6296 80.1001L71.7372 80.152L71.7591 80.2725L72.4716 84.2255L72.4747 84.2439L72.4751 84.2641L72.5929 88.6914L72.5944 88.7429L72.5761 88.7924L71.0052 93.0508L70.9252 92.7404L74.1104 95.4782L74.2718 95.617L74.1837 95.8109L72.8011 98.8443L72.6947 98.489L77.8945 101.766L78.2206 101.972L77.9175 102.208L74.4134 104.933L74.3565 104.501L77.8785 106.034L81.3971 107.575L81.7321 107.722L81.424 107.912L77.1953 110.527L77.2421 110.338L78.7295 113.028L78.7869 113.132L78.6784 113.174L76.6922 113.945L74.7047 114.713L74.7332 114.683L73.3791 118.695L74.6392 114.652L74.6458 114.63L74.6677 114.621L76.6344 113.801L78.602 112.984L78.5509 113.13L76.9971 110.477L76.9301 110.363L77.0443 110.288L81.2201 107.589L81.247 107.926L77.7007 106.451L74.1576 104.967L73.7629 104.802L74.1006 104.534L77.5845 101.783L77.6075 102.224L72.3951 98.966L72.1865 98.8357L72.2887 98.6111L73.6673 95.5757L73.7406 95.908L70.559 93.1659L70.4108 93.038L70.4791 92.8554L72.0679 88.6037L72.0508 88.7043L71.9544 84.2766L71.9583 84.3152L71.2918 80.3536L71.4213 80.526L68.1477 78.8934L68.0295 78.8346L68.0303 78.7059L68.0556 75.5547L68.0856 72.4038L68.166 72.5392L66.2846 71.4905L64.404 70.4402L64.326 70.3965L64.3553 70.3154L64.8416 68.9512L65.3307 67.5881L65.3354 67.64L64.4232 65.9373L63.5156 64.2322Z" fill="#881414"/>
<path id="Vector_26" d="M57.5215 91.4635C57.8939 91.2946 58.2679 91.1293 58.6412 90.9624L59.202 90.7139L59.7632 90.4663L60.3244 90.2186L60.8864 89.9729L62.0104 89.4831L62.1348 89.4289L62.1789 89.563L62.4819 90.4889L62.7826 91.4155L62.5868 91.3044L64.4565 90.8087L66.3273 90.3185L66.4595 90.2838L66.5504 90.393L67.9505 92.077L67.6139 92.0384L69.1447 90.8317L70.6781 89.6286L72.2143 88.4289L73.7525 87.232L73.8399 87.1642L73.951 87.1743L75.13 87.2812L76.3086 87.3904L77.4871 87.4999L78.6653 87.6115L78.4048 87.7402L79.5495 85.936L80.6984 84.1346L80.7865 83.9966L80.9453 84.0176L82.1902 84.1826L83.4346 84.3495L84.6791 84.5176L85.9232 84.6888L85.7434 84.761L87.2024 83.0274L87.9341 82.1624L88.6684 81.2997L88.7355 81.2209L88.8209 81.2693L90.0202 81.9518L91.2167 82.6394L91.1504 82.6483L91.5041 82.3289L91.8594 82.0111L92.2147 81.6932L92.5708 81.3762L92.2362 81.7159L91.9008 82.0548L91.5654 82.3937L91.2284 82.731L91.2003 82.7591L91.1621 82.7396L89.932 82.1137L88.7047 81.483L88.8568 81.453L88.1591 82.3457L87.4591 83.2365L86.0539 85.0141L85.9868 85.0987L85.8737 85.0862L84.6257 84.9486L83.3781 84.8078L82.1305 84.6658L80.8833 84.5219L81.1297 84.4049L80.0046 86.2215L78.8755 88.0354L78.7858 88.1793L78.615 88.1641L77.4361 88.0592L76.2571 87.9523L75.0785 87.8451L73.8999 87.7355L74.0984 87.6774L72.5552 88.8681L71.0096 90.056L69.4617 91.2404L67.9111 92.4214L67.7208 92.5664L67.5745 92.3827L66.2103 90.6695L66.4334 90.744L64.5501 91.1851L62.6656 91.6211L62.5115 91.6566L62.4698 91.5099L62.2023 90.5731L61.9375 89.6356L62.1059 89.7155L60.9621 90.1574L60.3899 90.3777L59.817 90.5962L59.2441 90.8146L58.6708 91.0322C58.2878 91.1757 57.9056 91.3208 57.5223 91.4627L57.5215 91.4635Z" fill="#881414"/>
<path id="Vector_27" d="M85.8966 67.0869L85.9036 68.691L85.9044 70.2947L85.904 71.0969L85.9009 71.8987L85.895 73.5024L85.8946 73.5972L85.8002 73.6268L83.9618 74.2029L82.1225 74.775L82.2462 74.6568L81.3094 77.4609L81.2985 77.4941L81.2747 77.5245L78.1757 81.5313L78.2288 81.3921L78.1812 82.3363L78.1321 83.2801L78.081 84.2243L78.0283 85.1681L78.0197 85.3225L77.8821 85.397L75.3486 86.7687L72.8128 88.1364L72.9591 87.9184L72.7228 90.0891L72.4833 92.2595L72.4712 92.3694L72.3877 92.4389L70.3917 94.0917L68.3926 95.741L68.476 95.5183L68.8976 98.3306L69.3122 101.144L69.3399 101.33L69.1574 101.355L67.2834 101.603L66.3459 101.727L65.4083 101.848L65.5183 101.721L65.4766 104.094L65.4516 105.281L65.4255 106.468L65.4251 106.487L65.4103 106.497L64.8323 106.882L64.2539 107.265L64.8112 106.852L65.3693 106.439L65.3545 106.468L65.328 105.281L65.303 104.094L65.2613 101.721L65.2593 101.612L65.3713 101.594L66.3041 101.441L67.2374 101.29L69.1043 100.991L68.9495 101.202L68.471 98.3985L67.9999 95.594L67.9772 95.4606L68.0833 95.3709L70.0594 93.6947L72.0391 92.0223L71.9431 92.2017L72.1693 90.0298L72.3987 87.8583L72.4143 87.7109L72.5449 87.6403L75.0795 86.271L77.6165 84.9052L77.4702 85.1342L77.5322 84.1908L77.5954 83.2477L77.6609 82.3047L77.728 81.3617L77.7335 81.2817L77.7807 81.2221L80.9287 77.2534L80.894 77.317L81.892 74.5344L81.9252 74.4415L82.0157 74.4158L83.8697 73.892L85.7246 73.3725L85.6298 73.497L85.691 71.8944L85.7218 71.093L85.755 70.2915L85.8225 68.6894L85.8966 67.0869Z" fill="#881414"/>
<path id="Vector_28" d="M69.6788 90.0075L68.391 86.2491L70.8109 86.6664L72.2134 84.2703L73.3775 86.2491L76.5217 85.7944L75.4219 87.0018L78.6386 90.0075L77.7494 90.5727L79.9673 93.2871L76.3489 92.6018L75.9897 95.3505L74.6848 92.8846L72.1116 95.3505L71.0406 93.2114L68.8851 94.1018L69.6788 91.4634L67.1445 90.0075H69.6788Z" fill="#881414"/>
</g>
<g id="Group_9" opacity="0.5">
<path id="Vector_29" d="M74.9352 148.409C89.5921 148.409 101.474 147.191 101.474 145.689C101.474 144.186 89.5921 142.968 74.9352 142.968C60.2783 142.968 48.3965 144.186 48.3965 145.689C48.3965 147.191 60.2783 148.409 74.9352 148.409Z" fill="#231F20"/>
</g>
<g id="Group_10">
<g id="Group_11">
<path id="Vector_30" d="M85.4809 28.3858V50.2558C85.4809 51.7932 87.8407 53.04 90.7501 53.04H92.9049C93.4162 53.04 93.8799 53.2003 94.0846 53.4499L95.0089 54.5727C95.3241 54.9557 96.2156 55.1004 96.8813 54.8757L102.002 53.1469C102.21 53.0778 102.451 53.04 102.697 53.04H138.881C141.791 53.04 144.151 51.7932 144.151 50.2558V28.3858C144.151 26.8484 141.791 25.6016 138.881 25.6016H90.7498C87.8404 25.6016 85.4805 26.8484 85.4805 28.3858H85.4809Z" fill="white"/>
<path id="Vector_31" d="M96.1924 55.0566C96.0524 55.0566 95.9112 55.0457 95.7739 55.0235C95.3726 54.9587 95.0466 54.8051 94.8796 54.6023L93.9557 53.4795C93.7736 53.2576 93.3614 53.1144 92.9055 53.1144H90.7507C87.7672 53.1144 85.3398 51.8321 85.3398 50.2553V28.3857C85.3398 26.8093 87.7668 25.5266 90.7507 25.5266H138.882C141.866 25.5266 144.293 26.8089 144.293 28.3857V50.2557C144.293 51.8321 141.866 53.1148 138.882 53.1148H102.698C102.481 53.1148 102.266 53.148 102.078 53.2104L96.9583 54.9388C96.7267 55.0168 96.4611 55.057 96.1924 55.057V55.0566ZM90.7507 25.676C87.9232 25.676 85.623 26.8916 85.623 28.3853V50.2553C85.623 51.7494 87.9232 52.9647 90.7507 52.9647H92.9055C93.4741 52.9647 93.9885 53.1433 94.2151 53.4198L95.1394 54.5426C95.2731 54.7052 95.5348 54.8285 95.8566 54.8807C96.178 54.9322 96.5239 54.9076 96.8058 54.8125L101.926 53.0836C102.161 53.0056 102.427 52.9651 102.698 52.9651H138.882C141.709 52.9651 144.01 51.7494 144.01 50.2557V28.3857C144.01 26.8916 141.709 25.6764 138.882 25.6764H90.7503L90.7507 25.676Z" fill="#010101"/>
</g>
<g id="Group_12">
<path id="Vector_32" d="M135.722 32.1043H147.51C149.588 32.1043 150.852 29.8166 149.747 28.0573L143.853 18.677C142.817 17.0289 140.415 17.0289 139.379 18.677L133.485 28.0573C132.38 29.8166 133.644 32.1043 135.722 32.1043Z" fill="white"/>
<path id="Vector_33" d="M135.721 32.1045H147.509C148.192 32.1045 148.788 31.8568 149.239 31.4629C149.064 31.4992 148.88 31.5191 148.688 31.5191H136.901C134.823 31.5191 133.558 29.2317 134.664 27.4717L140.558 18.0926C140.702 17.8632 140.872 17.6663 141.063 17.4998C140.4 17.639 139.782 18.0309 139.378 18.6779L133.483 28.0571C132.378 29.8167 133.643 32.1045 135.72 32.1045H135.721Z" fill="#E5E7F4"/>
<path id="Vector_34" d="M147.51 32.2573H135.722C134.69 32.2573 133.775 31.7179 133.276 30.8147C132.777 29.9111 132.807 28.8503 133.356 27.9767L139.25 18.5964C139.764 17.7774 140.649 17.2883 141.616 17.2883C142.584 17.2883 143.468 17.7774 143.983 18.5964L149.877 27.9767C150.426 28.8503 150.456 29.9111 149.957 30.8147C149.457 31.7179 148.543 32.2573 147.511 32.2573H147.51ZM141.616 17.5941C140.755 17.5941 139.967 18.0293 139.508 18.7586L133.614 28.1389C133.125 28.917 133.099 29.8619 133.543 30.6665C133.988 31.4711 134.802 31.9516 135.722 31.9516H147.509C148.429 31.9516 149.243 31.4715 149.687 30.6665C150.132 29.8619 150.106 28.9174 149.616 28.1389L143.722 18.7586C143.264 18.0293 142.477 17.5941 141.615 17.5941H141.616Z" fill="#252B2B"/>
<g id="Group_13">
<path id="Vector_35" d="M140.412 21.6849C140.412 21.7126 140.414 21.7383 140.415 21.766L140.689 25.8723C140.721 26.3606 141.127 26.7389 141.616 26.7389C142.104 26.7389 142.51 26.3606 142.542 25.8723L142.816 21.766C142.862 21.0726 142.312 20.4829 141.616 20.4829C140.919 20.4829 140.412 21.0266 140.412 21.6849Z" fill="#EF464D"/>
<path id="Vector_36" d="M141.615 29.8445C142.218 29.8445 142.708 29.3551 142.708 28.7514C142.708 28.1476 142.218 27.6582 141.615 27.6582C141.011 27.6582 140.521 28.1476 140.521 28.7514C140.521 29.3551 141.011 29.8445 141.615 29.8445Z" fill="#EF464D"/>
</g>
</g>
<g id="Group_14">
<path id="Vector_37" d="M89.6981 40.3912C89.6084 38.419 90.0877 36.8586 91.1368 35.7092C92.1855 34.5607 93.6909 33.9422 95.6522 33.8525C97.6631 33.7612 99.2367 34.2304 100.374 35.2607C101.51 36.2911 102.123 37.7782 102.212 39.7231C102.276 41.1353 102.091 42.3041 101.657 43.2292C101.222 44.1547 100.567 44.8895 99.6922 45.4327C98.8167 45.9764 97.7087 46.2782 96.3679 46.3391C95.0052 46.4015 93.868 46.2357 92.9554 45.8422C92.0428 45.4491 91.2877 44.7951 90.6903 43.8801C90.0928 42.966 89.7617 41.803 89.6977 40.3908L89.6981 40.3912ZM93.4324 40.2383C93.4877 41.4582 93.7541 42.3244 94.2319 42.8361C94.7092 43.349 95.3379 43.5865 96.1183 43.551C96.9205 43.5147 97.5293 43.2257 97.945 42.684C98.3608 42.1419 98.5378 41.1954 98.4766 39.8436C98.4251 38.7064 98.1576 37.8858 97.6752 37.3816C97.1923 36.8781 96.5582 36.6441 95.7727 36.68C95.0197 36.7139 94.4276 37.0083 93.9959 37.5617C93.5638 38.1155 93.3762 39.0075 93.432 40.2383H93.4324Z" fill="#263238"/>
<path id="Vector_38" d="M103.67 41.4406C103.609 40.1056 104.01 38.9847 104.872 38.0784C105.733 37.172 106.93 36.6837 108.464 36.6147C110.216 36.5352 111.563 36.9829 112.505 37.9587C113.262 38.7449 113.668 39.7367 113.722 40.934C113.783 42.2806 113.387 43.4034 112.534 44.304C111.68 45.2045 110.465 45.6904 108.888 45.7618C107.482 45.8257 106.328 45.5208 105.427 44.8457C104.321 44.0099 103.736 42.8746 103.67 41.4402L103.67 41.4406ZM107.032 41.2799C107.068 42.0599 107.252 42.6297 107.585 42.9893C107.918 43.3485 108.323 43.5169 108.801 43.4955C109.285 43.4733 109.673 43.2712 109.967 42.889C110.261 42.5068 110.389 41.909 110.352 41.0966C110.318 40.338 110.136 39.7803 109.806 39.4239C109.475 39.0674 109.08 38.8993 108.618 38.9204C108.129 38.9426 107.734 39.1493 107.432 39.5401C107.131 39.9305 106.998 40.5108 107.033 41.2803L107.032 41.2799Z" fill="#263238"/>
<path id="Vector_39" d="M115.705 48.5908L115.156 36.5086L118.296 36.3655L118.355 37.6591C118.765 37.0959 119.146 36.7098 119.5 36.5008C119.977 36.2208 120.513 36.0667 121.106 36.0398C122.276 35.9864 123.202 36.3931 123.882 37.2593C124.563 38.1259 124.934 39.2183 124.993 40.5373C125.06 41.9932 124.761 43.1203 124.098 43.9186C123.435 44.7165 122.571 45.1401 121.505 45.1888C120.989 45.2122 120.514 45.1455 120.08 44.9891C119.646 44.8327 119.254 44.5894 118.903 44.2583L119.093 48.4363L115.705 48.5904V48.5908ZM118.719 40.7565C118.75 41.4487 118.919 41.9561 119.226 42.2779C119.532 42.6 119.908 42.7502 120.353 42.7303C120.743 42.7123 121.062 42.5372 121.312 42.2038C121.56 41.8703 121.668 41.3192 121.633 40.5498C121.601 39.8407 121.44 39.3267 121.15 39.0069C120.86 38.6867 120.517 38.5362 120.122 38.5537C119.693 38.5732 119.344 38.7577 119.073 39.1052C118.803 39.4539 118.685 40.0038 118.719 40.7569V40.7565Z" fill="#263238"/>
<path id="Vector_40" d="M126.09 42.3459L129.405 41.8814C129.56 42.2706 129.766 42.5448 130.021 42.7047C130.276 42.8634 130.609 42.934 131.021 42.9153C131.472 42.8946 131.816 42.7831 132.055 42.5795C132.241 42.4282 132.329 42.2456 132.319 42.0315C132.308 41.7901 132.173 41.6092 131.914 41.4894C131.729 41.4044 131.243 41.3112 130.457 41.209C129.282 41.0593 128.465 40.9079 128.004 40.7558C127.543 40.603 127.148 40.3284 126.819 39.9306C126.49 39.5336 126.313 39.0706 126.289 38.5438C126.263 37.9673 126.408 37.4635 126.724 37.0309C127.04 36.5984 127.488 36.2658 128.066 36.0333C128.645 35.8009 129.429 35.662 130.417 35.6172C131.461 35.5696 132.235 35.6149 132.74 35.7514C133.244 35.8882 133.671 36.1168 134.018 36.4366C134.366 36.7568 134.662 37.1971 134.908 37.7591L131.741 38.2169C131.646 37.94 131.5 37.7404 131.301 37.6175C131.03 37.4533 130.707 37.3796 130.333 37.3968C129.954 37.4139 129.681 37.4935 129.514 37.6358C129.348 37.7778 129.268 37.9455 129.277 38.1374C129.287 38.3511 129.404 38.5083 129.629 38.6077C129.853 38.7079 130.336 38.7844 131.076 38.8386C132.197 38.9146 133.035 39.0523 133.589 39.2528C134.143 39.4528 134.574 39.7555 134.881 40.1591C135.189 40.5632 135.354 41.0152 135.377 41.5144C135.399 42.0194 135.269 42.5175 134.986 43.0089C134.703 43.5003 134.239 43.902 133.596 44.2147C132.952 44.5267 132.064 44.7089 130.932 44.7607C129.333 44.8333 128.185 44.6566 127.485 44.2315C126.786 43.8064 126.321 43.1777 126.091 42.3459H126.09Z" fill="#263238"/>
<path id="Vector_41" d="M138.51 33.5954L142.046 34.2112L141.573 36.926L139.94 42.2604L137.754 41.8793L138.037 36.3098L138.51 33.595V33.5954ZM137.065 42.6137L140.365 43.1886L139.856 46.1062L136.557 45.5313L137.065 42.6137Z" fill="#263238"/>
</g>
</g>
</g>
</svg>
