<svg width="160" height="160" viewBox="0 0 160 160" fill="none" xmlns="http://www.w3.org/2000/svg">
<g id="Illustration-no transaction">
<path id="Vector" d="M80.0002 147.416C115.742 147.416 144.716 118.442 144.716 82.6999C144.716 46.9579 115.742 17.9839 80.0002 17.9839C44.2582 17.9839 15.2842 46.9579 15.2842 82.6999C15.2842 118.442 44.2582 147.416 80.0002 147.416Z" fill="url(#paint0_linear_4443_27878)"/>
<g id="Group">
<g id="Clip path group">
<mask id="mask0_4443_27878" style="mask-type:luminance" maskUnits="userSpaceOnUse" x="104" y="7" width="11" height="23">
<g id="clippath">
<path id="Vector_2" d="M104.244 8.99212C104.174 8.56012 104.478 8.13812 104.902 8.11412L113.754 7.73212C114.224 7.71612 114.574 8.14812 114.5 8.60612L109.772 28.9081C109.6 29.6761 108.53 29.6421 108.368 28.9121L104.244 8.99012V8.99212Z" fill="white"/>
</g>
</mask>
<g mask="url(#mask0_4443_27878)">
<g id="Group_2">
<path id="Vector_3" d="M104.366 7.71802H104.234V29.68H104.366V7.71802Z" fill="#FF9999"/>
<path id="Vector_4" d="M104.499 7.71802H104.367V29.68H104.499V7.71802Z" fill="#FF9A9A"/>
<path id="Vector_5" d="M104.631 7.71802H104.499V29.68H104.631V7.71802Z" fill="#FF9B9B"/>
<path id="Vector_6" d="M104.761 7.71802H104.629V29.68H104.761V7.71802Z" fill="#FF9C9C"/>
<path id="Vector_7" d="M104.893 7.71802H104.761V29.68H104.893V7.71802Z" fill="#FF9D9C"/>
<path id="Vector_8" d="M105.025 7.71802H104.893V29.68H105.025V7.71802Z" fill="#FF9E9D"/>
<path id="Vector_9" d="M105.156 7.71802H105.024V29.68H105.156V7.71802Z" fill="#FF9F9E"/>
<path id="Vector_10" d="M105.289 7.71802H105.157V29.68H105.289V7.71802Z" fill="#FFA09F"/>
<path id="Vector_11" d="M105.421 7.71802H105.289V29.68H105.421V7.71802Z" fill="#FFA1A0"/>
<path id="Vector_12" d="M105.553 7.71802H105.421V29.68H105.553V7.71802Z" fill="#FFA2A1"/>
<path id="Vector_13" d="M105.685 7.71802H105.553V29.68H105.685V7.71802Z" fill="#FFA3A1"/>
<path id="Vector_14" d="M105.815 7.71802H105.683V29.68H105.815V7.71802Z" fill="#FFA4A2"/>
<path id="Vector_15" d="M105.946 7.71802H105.814V29.68H105.946V7.71802Z" fill="#FFA5A3"/>
<path id="Vector_16" d="M106.079 7.71802H105.947V29.68H106.079V7.71802Z" fill="#FFA6A4"/>
<path id="Vector_17" d="M106.211 7.71802H106.079V29.68H106.211V7.71802Z" fill="#FFA7A5"/>
<path id="Vector_18" d="M106.343 7.71802H106.211V29.68H106.343V7.71802Z" fill="#FFA8A6"/>
<path id="Vector_19" d="M106.475 7.71802H106.343V29.68H106.475V7.71802Z" fill="#FFA9A7"/>
<path id="Vector_20" d="M106.607 7.71802H106.475V29.68H106.607V7.71802Z" fill="#FFAAA7"/>
<path id="Vector_21" d="M106.738 7.71802H106.606V29.68H106.738V7.71802Z" fill="#FFABA8"/>
<path id="Vector_22" d="M106.868 7.71802H106.736V29.68H106.868V7.71802Z" fill="#FFACA9"/>
<path id="Vector_23" d="M107.001 7.71802H106.869V29.68H107.001V7.71802Z" fill="#FFADAA"/>
<path id="Vector_24" d="M107.133 7.71802H107.001V29.68H107.133V7.71802Z" fill="#FFAEAB"/>
<path id="Vector_25" d="M107.265 7.71802H107.133V29.68H107.265V7.71802Z" fill="#FFAFAC"/>
<path id="Vector_26" d="M107.397 7.71802H107.265V29.68H107.397V7.71802Z" fill="#FFB0AC"/>
<path id="Vector_27" d="M107.528 7.71802H107.396V29.68H107.528V7.71802Z" fill="#FFB1AD"/>
<path id="Vector_28" d="M107.661 7.71802H107.529V29.68H107.661V7.71802Z" fill="#FFB2AE"/>
<path id="Vector_29" d="M107.793 7.71802H107.661V29.68H107.793V7.71802Z" fill="#FFB3AF"/>
<path id="Vector_30" d="M107.923 7.71802H107.791V29.68H107.923V7.71802Z" fill="#FFB4B0"/>
<path id="Vector_31" d="M108.055 7.71802H107.923V29.68H108.055V7.71802Z" fill="#FFB5B1"/>
<path id="Vector_32" d="M108.187 7.71802H108.055V29.68H108.187V7.71802Z" fill="#FFB6B1"/>
<path id="Vector_33" d="M108.319 7.71802H108.187V29.68H108.319V7.71802Z" fill="#FFB7B2"/>
<path id="Vector_34" d="M108.45 7.71802H108.318V29.68H108.45V7.71802Z" fill="#FFB8B3"/>
<path id="Vector_35" d="M108.583 7.71802H108.451V29.68H108.583V7.71802Z" fill="#FFB9B4"/>
<path id="Vector_36" d="M108.715 7.71802H108.583V29.68H108.715V7.71802Z" fill="#FFBAB5"/>
<path id="Vector_37" d="M108.847 7.71802H108.715V29.68H108.847V7.71802Z" fill="#FFBBB6"/>
<path id="Vector_38" d="M108.977 7.71802H108.845V29.68H108.977V7.71802Z" fill="#FFBCB7"/>
<path id="Vector_39" d="M109.109 7.71802H108.977V29.68H109.109V7.71802Z" fill="#FFBDB7"/>
<path id="Vector_40" d="M109.24 7.71802H109.108V29.68H109.24V7.71802Z" fill="#FFBEB8"/>
<path id="Vector_41" d="M109.373 7.71802H109.241V29.68H109.373V7.71802Z" fill="#FFBFB9"/>
<path id="Vector_42" d="M109.505 7.71802H109.373V29.68H109.505V7.71802Z" fill="#FFC1BA"/>
<path id="Vector_43" d="M109.637 7.71802H109.505V29.68H109.637V7.71802Z" fill="#FFC2BB"/>
<path id="Vector_44" d="M109.769 7.71802H109.637V29.68H109.769V7.71802Z" fill="#FFC3BC"/>
<path id="Vector_45" d="M109.901 7.71802H109.769V29.68H109.901V7.71802Z" fill="#FFC4BC"/>
<path id="Vector_46" d="M110.03 7.71802H109.898V29.68H110.03V7.71802Z" fill="#FFC5BD"/>
<path id="Vector_47" d="M110.163 7.71802H110.031V29.68H110.163V7.71802Z" fill="#FFC6BE"/>
<path id="Vector_48" d="M110.295 7.71802H110.163V29.68H110.295V7.71802Z" fill="#FFC7BF"/>
<path id="Vector_49" d="M110.427 7.71802H110.295V29.68H110.427V7.71802Z" fill="#FFC8C0"/>
<path id="Vector_50" d="M110.559 7.71802H110.427V29.68H110.559V7.71802Z" fill="#FFC9C1"/>
<path id="Vector_51" d="M110.691 7.71802H110.559V29.68H110.691V7.71802Z" fill="#FFCAC2"/>
<path id="Vector_52" d="M110.822 7.71802H110.69V29.68H110.822V7.71802Z" fill="#FFCBC2"/>
<path id="Vector_53" d="M110.952 7.71802H110.82V29.68H110.952V7.71802Z" fill="#FFCCC3"/>
<path id="Vector_54" d="M111.085 7.71802H110.953V29.68H111.085V7.71802Z" fill="#FFCDC4"/>
<path id="Vector_55" d="M111.217 7.71802H111.085V29.68H111.217V7.71802Z" fill="#FFCEC5"/>
<path id="Vector_56" d="M111.349 7.71802H111.217V29.68H111.349V7.71802Z" fill="#FFCFC6"/>
<path id="Vector_57" d="M111.481 7.71802H111.349V29.68H111.481V7.71802Z" fill="#FFD0C7"/>
<path id="Vector_58" d="M111.612 7.71802H111.48V29.68H111.612V7.71802Z" fill="#FFD1C7"/>
<path id="Vector_59" d="M111.745 7.71802H111.613V29.68H111.745V7.71802Z" fill="#FFD2C8"/>
<path id="Vector_60" d="M111.877 7.71802H111.745V29.68H111.877V7.71802Z" fill="#FFD3C9"/>
<path id="Vector_61" d="M112.007 7.71802H111.875V29.68H112.007V7.71802Z" fill="#FFD4CA"/>
<path id="Vector_62" d="M112.139 7.71802H112.007V29.68H112.139V7.71802Z" fill="#FFD5CB"/>
<path id="Vector_63" d="M112.271 7.71802H112.139V29.68H112.271V7.71802Z" fill="#FFD6CC"/>
<path id="Vector_64" d="M112.403 7.71802H112.271V29.68H112.403V7.71802Z" fill="#FFD7CC"/>
<path id="Vector_65" d="M112.534 7.71802H112.402V29.68H112.534V7.71802Z" fill="#FFD8CD"/>
<path id="Vector_66" d="M112.667 7.71802H112.535V29.68H112.667V7.71802Z" fill="#FFD9CE"/>
<path id="Vector_67" d="M112.799 7.71802H112.667V29.68H112.799V7.71802Z" fill="#FFDACF"/>
<path id="Vector_68" d="M112.931 7.71802H112.799V29.68H112.931V7.71802Z" fill="#FFDBD0"/>
<path id="Vector_69" d="M113.061 7.71802H112.929V29.68H113.061V7.71802Z" fill="#FFDCD1"/>
<path id="Vector_70" d="M113.193 7.71802H113.061V29.68H113.193V7.71802Z" fill="#FFDDD2"/>
<path id="Vector_71" d="M113.324 7.71802H113.192V29.68H113.324V7.71802Z" fill="#FFDED2"/>
<path id="Vector_72" d="M113.457 7.71802H113.325V29.68H113.457V7.71802Z" fill="#FFDFD3"/>
<path id="Vector_73" d="M113.589 7.71802H113.457V29.68H113.589V7.71802Z" fill="#FFE0D4"/>
<path id="Vector_74" d="M113.721 7.71802H113.589V29.68H113.721V7.71802Z" fill="#FFE1D5"/>
<path id="Vector_75" d="M113.853 7.71802H113.721V29.68H113.853V7.71802Z" fill="#FFE2D6"/>
<path id="Vector_76" d="M113.985 7.71802H113.853V29.68H113.985V7.71802Z" fill="#FFE3D7"/>
<path id="Vector_77" d="M114.114 7.71802H113.982V29.68H114.114V7.71802Z" fill="#FFE4D7"/>
<path id="Vector_78" d="M114.247 7.71802H114.115V29.68H114.247V7.71802Z" fill="#FFE5D8"/>
<path id="Vector_79" d="M114.379 7.71802H114.247V29.68H114.379V7.71802Z" fill="#FFE6D9"/>
<path id="Vector_80" d="M114.511 7.71802H114.379V29.68H114.511V7.71802Z" fill="#FFE7DA"/>
</g>
</g>
</g>
<g id="Clip path group_2">
<mask id="mask1_4443_27878" style="mask-type:luminance" maskUnits="userSpaceOnUse" x="116" y="3" width="16" height="22">
<g id="clippath-1">
<path id="Vector_81" d="M121.879 3.8061C121.999 3.3561 122.455 3.1501 122.887 3.3601L130.929 7.0721C131.363 7.2841 131.461 7.8161 131.167 8.1901L117.667 24.0981C117.199 24.6801 116.249 24.1941 116.467 23.4321L121.879 3.8061Z" fill="white"/>
</g>
</mask>
<g mask="url(#mask1_4443_27878)">
<g id="Group_3">
<path id="Vector_82" d="M116.627 3.15015H116.435V24.6801H116.627V3.15015Z" fill="#FF9999"/>
<path id="Vector_83" d="M116.819 3.15015H116.627V24.6801H116.819V3.15015Z" fill="#FF9A9A"/>
<path id="Vector_84" d="M117.009 3.15015H116.817V24.6801H117.009V3.15015Z" fill="#FF9B9B"/>
<path id="Vector_85" d="M117.201 3.15015H117.009V24.6801H117.201V3.15015Z" fill="#FF9C9C"/>
<path id="Vector_86" d="M117.391 3.15015H117.199V24.6801H117.391V3.15015Z" fill="#FF9D9C"/>
<path id="Vector_87" d="M117.583 3.15015H117.391V24.6801H117.583V3.15015Z" fill="#FF9E9D"/>
<path id="Vector_88" d="M117.773 3.15015H117.581V24.6801H117.773V3.15015Z" fill="#FF9F9E"/>
<path id="Vector_89" d="M117.965 3.15015H117.773V24.6801H117.965V3.15015Z" fill="#FFA09F"/>
<path id="Vector_90" d="M118.155 3.15015H117.963V24.6801H118.155V3.15015Z" fill="#FFA1A0"/>
<path id="Vector_91" d="M118.347 3.15015H118.155V24.6801H118.347V3.15015Z" fill="#FFA2A1"/>
<path id="Vector_92" d="M118.537 3.15015H118.345V24.6801H118.537V3.15015Z" fill="#FFA3A1"/>
<path id="Vector_93" d="M118.729 3.15015H118.537V24.6801H118.729V3.15015Z" fill="#FFA4A2"/>
<path id="Vector_94" d="M118.919 3.15015H118.727V24.6801H118.919V3.15015Z" fill="#FFA5A3"/>
<path id="Vector_95" d="M119.111 3.15015H118.919V24.6801H119.111V3.15015Z" fill="#FFA6A4"/>
<path id="Vector_96" d="M119.303 3.15015H119.111V24.6801H119.303V3.15015Z" fill="#FFA7A5"/>
<path id="Vector_97" d="M119.493 3.15015H119.301V24.6801H119.493V3.15015Z" fill="#FFA8A6"/>
<path id="Vector_98" d="M119.685 3.15015H119.493V24.6801H119.685V3.15015Z" fill="#FFA9A7"/>
<path id="Vector_99" d="M119.875 3.15015H119.683V24.6801H119.875V3.15015Z" fill="#FFAAA7"/>
<path id="Vector_100" d="M120.067 3.15015H119.875V24.6801H120.067V3.15015Z" fill="#FFABA8"/>
<path id="Vector_101" d="M120.257 3.15015H120.065V24.6801H120.257V3.15015Z" fill="#FFACA9"/>
<path id="Vector_102" d="M120.449 3.15015H120.257V24.6801H120.449V3.15015Z" fill="#FFADAA"/>
<path id="Vector_103" d="M120.639 3.15015H120.447V24.6801H120.639V3.15015Z" fill="#FFAEAB"/>
<path id="Vector_104" d="M120.831 3.15015H120.639V24.6801H120.831V3.15015Z" fill="#FFAFAC"/>
<path id="Vector_105" d="M121.021 3.15015H120.829V24.6801H121.021V3.15015Z" fill="#FFB0AC"/>
<path id="Vector_106" d="M121.213 3.15015H121.021V24.6801H121.213V3.15015Z" fill="#FFB1AD"/>
<path id="Vector_107" d="M121.403 3.15015H121.211V24.6801H121.403V3.15015Z" fill="#FFB2AE"/>
<path id="Vector_108" d="M121.595 3.15015H121.403V24.6801H121.595V3.15015Z" fill="#FFB3AF"/>
<path id="Vector_109" d="M121.785 3.15015H121.593V24.6801H121.785V3.15015Z" fill="#FFB4B0"/>
<path id="Vector_110" d="M121.977 3.15015H121.785V24.6801H121.977V3.15015Z" fill="#FFB5B1"/>
<path id="Vector_111" d="M122.167 3.15015H121.975V24.6801H122.167V3.15015Z" fill="#FFB6B1"/>
<path id="Vector_112" d="M122.359 3.15015H122.167V24.6801H122.359V3.15015Z" fill="#FFB7B2"/>
<path id="Vector_113" d="M122.549 3.15015H122.357V24.6801H122.549V3.15015Z" fill="#FFB8B3"/>
<path id="Vector_114" d="M122.741 3.15015H122.549V24.6801H122.741V3.15015Z" fill="#FFB9B4"/>
<path id="Vector_115" d="M122.931 3.15015H122.739V24.6801H122.931V3.15015Z" fill="#FFBAB5"/>
<path id="Vector_116" d="M123.123 3.15015H122.931V24.6801H123.123V3.15015Z" fill="#FFBBB6"/>
<path id="Vector_117" d="M123.313 3.15015H123.121V24.6801H123.313V3.15015Z" fill="#FFBCB7"/>
<path id="Vector_118" d="M123.505 3.15015H123.313V24.6801H123.505V3.15015Z" fill="#FFBDB7"/>
<path id="Vector_119" d="M123.695 3.15015H123.503V24.6801H123.695V3.15015Z" fill="#FFBEB8"/>
<path id="Vector_120" d="M123.887 3.15015H123.695V24.6801H123.887V3.15015Z" fill="#FFBFB9"/>
<path id="Vector_121" d="M124.077 3.15015H123.885V24.6801H124.077V3.15015Z" fill="#FFC1BA"/>
<path id="Vector_122" d="M124.269 3.15015H124.077V24.6801H124.269V3.15015Z" fill="#FFC2BB"/>
<path id="Vector_123" d="M124.459 3.15015H124.267V24.6801H124.459V3.15015Z" fill="#FFC3BC"/>
<path id="Vector_124" d="M124.651 3.15015H124.459V24.6801H124.651V3.15015Z" fill="#FFC4BC"/>
<path id="Vector_125" d="M124.841 3.15015H124.649V24.6801H124.841V3.15015Z" fill="#FFC5BD"/>
<path id="Vector_126" d="M125.033 3.15015H124.841V24.6801H125.033V3.15015Z" fill="#FFC6BE"/>
<path id="Vector_127" d="M125.223 3.15015H125.031V24.6801H125.223V3.15015Z" fill="#FFC7BF"/>
<path id="Vector_128" d="M125.415 3.15015H125.223V24.6801H125.415V3.15015Z" fill="#FFC8C0"/>
<path id="Vector_129" d="M125.605 3.15015H125.413V24.6801H125.605V3.15015Z" fill="#FFC9C1"/>
<path id="Vector_130" d="M125.797 3.15015H125.605V24.6801H125.797V3.15015Z" fill="#FFCAC2"/>
<path id="Vector_131" d="M125.987 3.15015H125.795V24.6801H125.987V3.15015Z" fill="#FFCBC2"/>
<path id="Vector_132" d="M126.179 3.15015H125.987V24.6801H126.179V3.15015Z" fill="#FFCCC3"/>
<path id="Vector_133" d="M126.371 3.15015H126.179V24.6801H126.371V3.15015Z" fill="#FFCDC4"/>
<path id="Vector_134" d="M126.561 3.15015H126.369V24.6801H126.561V3.15015Z" fill="#FFCEC5"/>
<path id="Vector_135" d="M126.753 3.15015H126.561V24.6801H126.753V3.15015Z" fill="#FFCFC6"/>
<path id="Vector_136" d="M126.943 3.15015H126.751V24.6801H126.943V3.15015Z" fill="#FFD0C7"/>
<path id="Vector_137" d="M127.135 3.15015H126.943V24.6801H127.135V3.15015Z" fill="#FFD1C7"/>
<path id="Vector_138" d="M127.325 3.15015H127.133V24.6801H127.325V3.15015Z" fill="#FFD2C8"/>
<path id="Vector_139" d="M127.517 3.15015H127.325V24.6801H127.517V3.15015Z" fill="#FFD3C9"/>
<path id="Vector_140" d="M127.707 3.15015H127.515V24.6801H127.707V3.15015Z" fill="#FFD4CA"/>
<path id="Vector_141" d="M127.899 3.15015H127.707V24.6801H127.899V3.15015Z" fill="#FFD5CB"/>
<path id="Vector_142" d="M128.089 3.15015H127.897V24.6801H128.089V3.15015Z" fill="#FFD6CC"/>
<path id="Vector_143" d="M128.281 3.15015H128.089V24.6801H128.281V3.15015Z" fill="#FFD7CC"/>
<path id="Vector_144" d="M128.471 3.15015H128.279V24.6801H128.471V3.15015Z" fill="#FFD8CD"/>
<path id="Vector_145" d="M128.663 3.15015H128.471V24.6801H128.663V3.15015Z" fill="#FFD9CE"/>
<path id="Vector_146" d="M128.853 3.15015H128.661V24.6801H128.853V3.15015Z" fill="#FFDACF"/>
<path id="Vector_147" d="M129.046 3.15015H128.854V24.6801H129.046V3.15015Z" fill="#FFDBD0"/>
<path id="Vector_148" d="M129.235 3.15015H129.043V24.6801H129.235V3.15015Z" fill="#FFDCD1"/>
<path id="Vector_149" d="M129.427 3.15015H129.235V24.6801H129.427V3.15015Z" fill="#FFDDD2"/>
<path id="Vector_150" d="M129.617 3.15015H129.425V24.6801H129.617V3.15015Z" fill="#FFDED2"/>
<path id="Vector_151" d="M129.809 3.15015H129.617V24.6801H129.809V3.15015Z" fill="#FFDFD3"/>
<path id="Vector_152" d="M129.999 3.15015H129.807V24.6801H129.999V3.15015Z" fill="#FFE0D4"/>
<path id="Vector_153" d="M130.191 3.15015H129.999V24.6801H130.191V3.15015Z" fill="#FFE1D5"/>
<path id="Vector_154" d="M130.381 3.15015H130.189V24.6801H130.381V3.15015Z" fill="#FFE2D6"/>
<path id="Vector_155" d="M130.573 3.15015H130.381V24.6801H130.573V3.15015Z" fill="#FFE3D7"/>
<path id="Vector_156" d="M130.763 3.15015H130.571V24.6801H130.763V3.15015Z" fill="#FFE4D7"/>
<path id="Vector_157" d="M130.955 3.15015H130.763V24.6801H130.955V3.15015Z" fill="#FFE5D8"/>
<path id="Vector_158" d="M131.145 3.15015H130.953V24.6801H131.145V3.15015Z" fill="#FFE6D9"/>
<path id="Vector_159" d="M131.337 3.15015H131.145V24.6801H131.337V3.15015Z" fill="#FFE7DA"/>
</g>
</g>
</g>
<g id="Clip path group_3">
<mask id="mask2_4443_27878" style="mask-type:luminance" maskUnits="userSpaceOnUse" x="122" y="18" width="13" height="12">
<g id="clippath-2">
<path id="Vector_160" d="M130.058 18.6661C130.346 18.3381 130.862 18.3281 131.136 18.6541L134.558 22.5941C134.87 22.9741 134.734 23.5141 134.326 23.7281L123.262 29.0521C122.55 29.4061 121.896 28.5461 122.418 27.9281L130.06 18.6661H130.058Z" fill="white"/>
</g>
</mask>
<g mask="url(#mask2_4443_27878)">
<g id="Group_4">
<path id="Vector_161" d="M122.388 18.3281H122.228V29.4061H122.388V18.3281Z" fill="#FF9999"/>
<path id="Vector_162" d="M122.548 18.3281H122.388V29.4061H122.548V18.3281Z" fill="#FF9A9A"/>
<path id="Vector_163" d="M122.708 18.3281H122.548V29.4061H122.708V18.3281Z" fill="#FF9B9B"/>
<path id="Vector_164" d="M122.868 18.3281H122.708V29.4061H122.868V18.3281Z" fill="#FF9C9C"/>
<path id="Vector_165" d="M123.027 18.3281H122.867V29.4061H123.027V18.3281Z" fill="#FF9D9C"/>
<path id="Vector_166" d="M123.189 18.3281H123.029V29.4061H123.189V18.3281Z" fill="#FF9E9D"/>
<path id="Vector_167" d="M123.349 18.3281H123.189V29.4061H123.349V18.3281Z" fill="#FF9F9E"/>
<path id="Vector_168" d="M123.51 18.3281H123.35V29.4061H123.51V18.3281Z" fill="#FFA09F"/>
<path id="Vector_169" d="M123.67 18.3281H123.51V29.4061H123.67V18.3281Z" fill="#FFA1A0"/>
<path id="Vector_170" d="M123.83 18.3281H123.67V29.4061H123.83V18.3281Z" fill="#FFA2A1"/>
<path id="Vector_171" d="M123.989 18.3281H123.829V29.4061H123.989V18.3281Z" fill="#FFA3A1"/>
<path id="Vector_172" d="M124.149 18.3281H123.989V29.4061H124.149V18.3281Z" fill="#FFA4A2"/>
<path id="Vector_173" d="M124.311 18.3281H124.151V29.4061H124.311V18.3281Z" fill="#FFA5A3"/>
<path id="Vector_174" d="M124.472 18.3281H124.312V29.4061H124.472V18.3281Z" fill="#FFA6A4"/>
<path id="Vector_175" d="M124.632 18.3281H124.472V29.4061H124.632V18.3281Z" fill="#FFA7A5"/>
<path id="Vector_176" d="M124.792 18.3281H124.632V29.4061H124.792V18.3281Z" fill="#FFA8A6"/>
<path id="Vector_177" d="M124.952 18.3281H124.792V29.4061H124.952V18.3281Z" fill="#FFA9A7"/>
<path id="Vector_178" d="M125.111 18.3281H124.951V29.4061H125.111V18.3281Z" fill="#FFAAA7"/>
<path id="Vector_179" d="M125.271 18.3281H125.111V29.4061H125.271V18.3281Z" fill="#FFABA8"/>
<path id="Vector_180" d="M125.433 18.3281H125.273V29.4061H125.433V18.3281Z" fill="#FFACA9"/>
<path id="Vector_181" d="M125.594 18.3281H125.434V29.4061H125.594V18.3281Z" fill="#FFADAA"/>
<path id="Vector_182" d="M125.754 18.3281H125.594V29.4061H125.754V18.3281Z" fill="#FFAEAB"/>
<path id="Vector_183" d="M125.914 18.3281H125.754V29.4061H125.914V18.3281Z" fill="#FFAFAC"/>
<path id="Vector_184" d="M126.073 18.3281H125.913V29.4061H126.073V18.3281Z" fill="#FFB0AC"/>
<path id="Vector_185" d="M126.233 18.3281H126.073V29.4061H126.233V18.3281Z" fill="#FFB1AD"/>
<path id="Vector_186" d="M126.393 18.3281H126.233V29.4061H126.393V18.3281Z" fill="#FFB2AE"/>
<path id="Vector_187" d="M126.554 18.3281H126.394V29.4061H126.554V18.3281Z" fill="#FFB3AF"/>
<path id="Vector_188" d="M126.716 18.3281H126.556V29.4061H126.716V18.3281Z" fill="#FFB4B0"/>
<path id="Vector_189" d="M126.876 18.3281H126.716V29.4061H126.876V18.3281Z" fill="#FFB5B1"/>
<path id="Vector_190" d="M127.036 18.3281H126.876V29.4061H127.036V18.3281Z" fill="#FFB6B1"/>
<path id="Vector_191" d="M127.195 18.3281H127.035V29.4061H127.195V18.3281Z" fill="#FFB7B2"/>
<path id="Vector_192" d="M127.355 18.3281H127.195V29.4061H127.355V18.3281Z" fill="#FFB8B3"/>
<path id="Vector_193" d="M127.515 18.3281H127.355V29.4061H127.515V18.3281Z" fill="#FFB9B4"/>
<path id="Vector_194" d="M127.676 18.3281H127.516V29.4061H127.676V18.3281Z" fill="#FFBAB5"/>
<path id="Vector_195" d="M127.838 18.3281H127.678V29.4061H127.838V18.3281Z" fill="#FFBBB6"/>
<path id="Vector_196" d="M127.998 18.3281H127.838V29.4061H127.998V18.3281Z" fill="#FFBCB7"/>
<path id="Vector_197" d="M128.158 18.3281H127.998V29.4061H128.158V18.3281Z" fill="#FFBDB7"/>
<path id="Vector_198" d="M128.317 18.3281H128.157V29.4061H128.317V18.3281Z" fill="#FFBEB8"/>
<path id="Vector_199" d="M128.477 18.3281H128.317V29.4061H128.477V18.3281Z" fill="#FFBFB9"/>
<path id="Vector_200" d="M128.638 18.3281H128.478V29.4061H128.638V18.3281Z" fill="#FFC1BA"/>
<path id="Vector_201" d="M128.798 18.3281H128.638V29.4061H128.798V18.3281Z" fill="#FFC2BB"/>
<path id="Vector_202" d="M128.96 18.3281H128.8V29.4061H128.96V18.3281Z" fill="#FFC3BC"/>
<path id="Vector_203" d="M129.12 18.3281H128.96V29.4061H129.12V18.3281Z" fill="#FFC4BC"/>
<path id="Vector_204" d="M129.279 18.3281H129.119V29.4061H129.279V18.3281Z" fill="#FFC5BD"/>
<path id="Vector_205" d="M129.439 18.3281H129.279V29.4061H129.439V18.3281Z" fill="#FFC6BE"/>
<path id="Vector_206" d="M129.599 18.3281H129.439V29.4061H129.599V18.3281Z" fill="#FFC7BF"/>
<path id="Vector_207" d="M129.76 18.3281H129.6V29.4061H129.76V18.3281Z" fill="#FFC8C0"/>
<path id="Vector_208" d="M129.92 18.3281H129.76V29.4061H129.92V18.3281Z" fill="#FFC9C1"/>
<path id="Vector_209" d="M130.08 18.3281H129.92V29.4061H130.08V18.3281Z" fill="#FFCAC2"/>
<path id="Vector_210" d="M130.242 18.3281H130.082V29.4061H130.242V18.3281Z" fill="#FFCBC2"/>
<path id="Vector_211" d="M130.401 18.3281H130.241V29.4061H130.401V18.3281Z" fill="#FFCCC3"/>
<path id="Vector_212" d="M130.561 18.3281H130.401V29.4061H130.561V18.3281Z" fill="#FFCDC4"/>
<path id="Vector_213" d="M130.722 18.3281H130.562V29.4061H130.722V18.3281Z" fill="#FFCEC5"/>
<path id="Vector_214" d="M130.882 18.3281H130.722V29.4061H130.882V18.3281Z" fill="#FFCFC6"/>
<path id="Vector_215" d="M131.042 18.3281H130.882V29.4061H131.042V18.3281Z" fill="#FFD0C7"/>
<path id="Vector_216" d="M131.202 18.3281H131.042V29.4061H131.202V18.3281Z" fill="#FFD1C7"/>
<path id="Vector_217" d="M131.363 18.3281H131.203V29.4061H131.363V18.3281Z" fill="#FFD2C8"/>
<path id="Vector_218" d="M131.523 18.3281H131.363V29.4061H131.523V18.3281Z" fill="#FFD3C9"/>
<path id="Vector_219" d="M131.683 18.3281H131.523V29.4061H131.683V18.3281Z" fill="#FFD4CA"/>
<path id="Vector_220" d="M131.844 18.3281H131.684V29.4061H131.844V18.3281Z" fill="#FFD5CB"/>
<path id="Vector_221" d="M132.004 18.3281H131.844V29.4061H132.004V18.3281Z" fill="#FFD6CC"/>
<path id="Vector_222" d="M132.164 18.3281H132.004V29.4061H132.164V18.3281Z" fill="#FFD7CC"/>
<path id="Vector_223" d="M132.323 18.3281H132.163V29.4061H132.323V18.3281Z" fill="#FFD8CD"/>
<path id="Vector_224" d="M132.485 18.3281H132.325V29.4061H132.485V18.3281Z" fill="#FFD9CE"/>
<path id="Vector_225" d="M132.645 18.3281H132.485V29.4061H132.645V18.3281Z" fill="#FFDACF"/>
<path id="Vector_226" d="M132.806 18.3281H132.646V29.4061H132.806V18.3281Z" fill="#FFDBD0"/>
<path id="Vector_227" d="M132.966 18.3281H132.806V29.4061H132.966V18.3281Z" fill="#FFDCD1"/>
<path id="Vector_228" d="M133.126 18.3281H132.966V29.4061H133.126V18.3281Z" fill="#FFDDD2"/>
<path id="Vector_229" d="M133.286 18.3281H133.126V29.4061H133.286V18.3281Z" fill="#FFDED2"/>
<path id="Vector_230" d="M133.445 18.3281H133.285V29.4061H133.445V18.3281Z" fill="#FFDFD3"/>
<path id="Vector_231" d="M133.607 18.3281H133.447V29.4061H133.607V18.3281Z" fill="#FFE0D4"/>
<path id="Vector_232" d="M133.767 18.3281H133.607V29.4061H133.767V18.3281Z" fill="#FFE1D5"/>
<path id="Vector_233" d="M133.928 18.3281H133.768V29.4061H133.928V18.3281Z" fill="#FFE2D6"/>
<path id="Vector_234" d="M134.088 18.3281H133.928V29.4061H134.088V18.3281Z" fill="#FFE3D7"/>
<path id="Vector_235" d="M134.248 18.3281H134.088V29.4061H134.248V18.3281Z" fill="#FFE4D7"/>
<path id="Vector_236" d="M134.408 18.3281H134.248V29.4061H134.408V18.3281Z" fill="#FFE5D8"/>
<path id="Vector_237" d="M134.567 18.3281H134.407V29.4061H134.567V18.3281Z" fill="#FFE6D9"/>
<path id="Vector_238" d="M134.727 18.3281H134.567V29.4061H134.727V18.3281Z" fill="#FFE7DA"/>
</g>
</g>
</g>
</g>
<path id="Vector_239" d="M31.1059 78.7979L31.7379 84.0539L35.2119 83.6399L34.1259 74.8879C32.2179 75.1379 30.8599 76.8839 31.1059 78.7979Z" fill="#FF607B"/>
<g id="Clip path group_4">
<mask id="mask3_4443_27878" style="mask-type:luminance" maskUnits="userSpaceOnUse" x="35" y="34" width="90" height="45">
<g id="clippath-3">
<path id="Vector_240" d="M124.28 68.054L39.6402 78.554L36.0002 48.35C35.6842 45.722 37.5182 43.352 40.1382 43.032L112.206 34.08C116.536 33.572 120.464 36.65 121.012 41.004L124.282 68.056L124.28 68.054Z" fill="white"/>
</g>
</mask>
<g mask="url(#mask3_4443_27878)">
<g id="Group_5">
<path id="Vector_241" d="M124.281 35.738L111.001 33.572H124.281V35.738Z" fill="#FF9999"/>
<path id="Vector_242" d="M124.28 36.696L105.12 33.572H111L124.28 35.738V36.696Z" fill="#FF9999"/>
<path id="Vector_243" d="M124.28 37.656L99.2383 33.572H105.12L124.28 36.696V37.656Z" fill="#FF9A9A"/>
<path id="Vector_244" d="M124.28 38.616L93.3584 33.572H99.2384L124.28 37.656V38.616Z" fill="#FF9B9B"/>
<path id="Vector_245" d="M124.281 39.574L87.4785 33.572H93.3585L124.281 38.616V39.574Z" fill="#FF9C9C"/>
<path id="Vector_246" d="M124.281 40.534L81.5986 33.572H87.4786L124.281 39.574V40.534Z" fill="#FF9D9C"/>
<path id="Vector_247" d="M124.281 41.492L75.7168 33.572H81.5988L124.281 40.534V41.492Z" fill="#FF9E9D"/>
<path id="Vector_248" d="M124.281 42.452L69.8369 33.572H75.7169L124.281 41.492V42.452Z" fill="#FF9F9E"/>
<path id="Vector_249" d="M124.281 43.412L63.957 33.572H69.837L124.281 42.452V43.412Z" fill="#FFA09F"/>
<path id="Vector_250" d="M124.28 44.37L58.0742 33.572H63.9562L124.28 43.412V44.37Z" fill="#FFA1A0"/>
<path id="Vector_251" d="M124.28 45.33L52.1943 33.572H58.0743L124.28 44.37V45.33Z" fill="#FFA2A1"/>
<path id="Vector_252" d="M124.28 46.29L46.3145 33.572H52.1945L124.28 45.33V46.29Z" fill="#FFA3A1"/>
<path id="Vector_253" d="M124.281 47.248L40.4326 33.572H46.3146L124.281 46.29V47.248Z" fill="#FFA4A2"/>
<path id="Vector_254" d="M124.28 48.208L37.1904 34.002L37.2604 33.572H40.4324L124.28 47.248V48.208Z" fill="#FFA5A3"/>
<path id="Vector_255" d="M124.28 49.1659L37.0381 34.9359L37.1901 34.002L124.28 48.208V49.1659Z" fill="#FFA6A4"/>
<path id="Vector_256" d="M124.281 50.126L36.8867 35.87L37.0387 34.936L124.281 49.166V50.126Z" fill="#FFA7A5"/>
<path id="Vector_257" d="M124.28 51.0861L36.7324 36.8041L36.8864 35.8701L124.28 50.1261V51.0861Z" fill="#FFA8A6"/>
<path id="Vector_258" d="M124.28 52.044L36.5801 37.738L36.7321 36.804L124.28 51.086V52.044Z" fill="#FFA9A7"/>
<path id="Vector_259" d="M124.281 53.004L36.4287 38.674L36.5807 37.738L124.281 52.044V53.004Z" fill="#FFAAA7"/>
<path id="Vector_260" d="M124.28 53.9641L36.2764 39.6081L36.4284 38.6741L124.28 53.0041V53.9641Z" fill="#FFABA8"/>
<path id="Vector_261" d="M124.281 54.9219L36.125 40.5419L36.277 39.6079L124.281 53.9639V54.9219Z" fill="#FFACA9"/>
<path id="Vector_262" d="M124.281 55.882L35.9707 41.476L36.1247 40.542L124.281 54.922V55.882Z" fill="#FFADAA"/>
<path id="Vector_263" d="M124.28 56.8421L35.8184 42.4101L35.9704 41.4761L124.28 55.8821V56.8421Z" fill="#FFAEAB"/>
<path id="Vector_264" d="M124.281 57.7999L35.6846 43.3479V43.2379L35.8186 42.4099L124.281 56.8419V57.7999Z" fill="#FFAFAC"/>
<path id="Vector_265" d="M124.281 58.7601L35.6846 44.3081V43.3481L124.281 57.8001V58.7601Z" fill="#FFB0AC"/>
<path id="Vector_266" d="M124.281 59.7181L35.6846 45.2661V44.3081L124.281 58.7601V59.7181Z" fill="#FFB1AD"/>
<path id="Vector_267" d="M124.281 60.6781L35.6846 46.2261V45.2661L124.281 59.7181V60.6781Z" fill="#FFB2AE"/>
<path id="Vector_268" d="M124.281 61.6381L35.6846 47.1861V46.2261L124.281 60.6781V61.6381Z" fill="#FFB3AF"/>
<path id="Vector_269" d="M124.281 62.596L35.6846 48.144V47.186L124.281 61.638V62.596Z" fill="#FFB4B0"/>
<path id="Vector_270" d="M124.281 63.556L35.6846 49.104V48.144L124.281 62.596V63.556Z" fill="#FFB5B1"/>
<path id="Vector_271" d="M124.281 64.516L35.6846 50.064V49.104L124.281 63.556V64.516Z" fill="#FFB6B1"/>
<path id="Vector_272" d="M124.281 65.474L35.6846 51.022V50.064L124.281 64.516V65.474Z" fill="#FFB7B2"/>
<path id="Vector_273" d="M124.281 66.434L35.6846 51.982V51.022L124.281 65.474V66.434Z" fill="#FFB8B3"/>
<path id="Vector_274" d="M124.281 67.3919L35.6846 52.9399V51.9819L124.281 66.4339V67.3919Z" fill="#FFB9B4"/>
<path id="Vector_275" d="M124.281 68.3519L35.6846 53.8999V52.9399L124.281 67.3919V68.3519Z" fill="#FFBAB5"/>
<path id="Vector_276" d="M124.281 69.3119L35.6846 54.8599V53.8999L124.281 68.3519V69.3119Z" fill="#FFBBB6"/>
<path id="Vector_277" d="M124.281 70.2701L35.6846 55.8181V54.8601L124.281 69.3121V70.2701Z" fill="#FFBCB7"/>
<path id="Vector_278" d="M124.281 70.5401L124.171 71.2121L35.6846 56.7781V55.8181L124.281 70.2701V70.5401Z" fill="#FFBDB7"/>
<path id="Vector_279" d="M124.171 71.2121L124.019 72.1461L35.6846 57.7381V56.7781L124.171 71.2121Z" fill="#FFBEB8"/>
<path id="Vector_280" d="M124.019 72.146L123.867 73.08L35.6846 58.696V57.738L124.019 72.146Z" fill="#FFBFB9"/>
<path id="Vector_281" d="M123.867 73.08L123.713 74.016L35.6846 59.656V58.696L123.867 73.08Z" fill="#FFC1BA"/>
<path id="Vector_282" d="M123.713 74.016L123.561 74.95L35.6846 60.614V59.656L123.713 74.016Z" fill="#FFC2BB"/>
<path id="Vector_283" d="M123.561 74.95L123.409 75.884L35.6846 61.574V60.614L123.561 74.95Z" fill="#FFC3BC"/>
<path id="Vector_284" d="M123.409 75.884L123.257 76.818L35.6846 62.534V61.574L123.409 75.884Z" fill="#FFC4BC"/>
<path id="Vector_285" d="M123.257 76.8179L123.105 77.7519L35.6846 63.4919V62.5339L123.257 76.8179Z" fill="#FFC5BD"/>
<path id="Vector_286" d="M123.105 77.7519L122.973 78.5559H122.141L35.6846 64.4519V63.4919L123.105 77.7519Z" fill="#FFC6BE"/>
<path id="Vector_287" d="M116.259 78.5561L35.6846 65.4121V64.4521L122.141 78.5561H116.259Z" fill="#FFC7BF"/>
<path id="Vector_288" d="M110.379 78.5561L35.6846 66.3701V65.4121L116.259 78.5561H110.379Z" fill="#FFC8C0"/>
<path id="Vector_289" d="M104.499 78.5561L35.6846 67.3301V66.3701L110.379 78.5561H104.499Z" fill="#FFC9C1"/>
<path id="Vector_290" d="M98.6166 78.5561L35.6846 68.2901V67.3301L104.499 78.5561H98.6166Z" fill="#FFCAC2"/>
<path id="Vector_291" d="M92.7366 78.556L35.6846 69.248V68.29L98.6166 78.556H92.7366Z" fill="#FFCBC2"/>
<path id="Vector_292" d="M86.8566 78.556L35.6846 70.2081V69.248L92.7366 78.556H86.8566Z" fill="#FFCCC3"/>
<path id="Vector_293" d="M80.9766 78.556L35.6846 71.166V70.208L86.8566 78.556H80.9766Z" fill="#FFCDC4"/>
<path id="Vector_294" d="M75.0946 78.556L35.6846 72.126V71.166L80.9766 78.556H75.0946Z" fill="#FFCEC5"/>
<path id="Vector_295" d="M69.2146 78.556L35.6846 73.086V72.126L75.0946 78.556H69.2146Z" fill="#FFCFC6"/>
<path id="Vector_296" d="M63.3346 78.5559L35.6846 74.0439V73.0859L69.2146 78.5559H63.3346Z" fill="#FFD0C7"/>
<path id="Vector_297" d="M57.4526 78.5559L35.6846 75.0039V74.0439L63.3346 78.5559H57.4526Z" fill="#FFD1C7"/>
<path id="Vector_298" d="M51.5726 78.5559L35.6846 75.9639V75.0039L57.4526 78.5559H51.5726Z" fill="#FFD2C8"/>
<path id="Vector_299" d="M45.6926 78.5561L35.6846 76.9221V75.9641L51.5726 78.5561H45.6926Z" fill="#FFD3C9"/>
<path id="Vector_300" d="M39.8106 78.5561L35.6846 77.8821V76.9221L45.6926 78.5561H39.8106Z" fill="#FFD4CA"/>
<path id="Vector_301" d="M35.6846 77.8821L39.8106 78.5561H35.6846V77.8821Z" fill="#FFD5CB"/>
</g>
</g>
</g>
<path id="Vector_302" d="M35.9543 48.344L36.2863 51.162C35.9703 48.534 37.8043 46.164 40.4243 45.844L112.53 36.946C112.72 36.93 112.864 36.906 113.008 36.884C116.074 36.684 117.904 38.904 118.158 41.336L120.92 40.992C120.372 36.64 116.444 33.56 112.106 34.114L40.0923 43.028C40.123 43.0333 40.123 43.0333 40.0923 43.028C37.4743 43.348 35.6383 45.718 35.9543 48.346V48.344Z" fill="#FF607B"/>
<g id="Group_6">
<path id="Vector_303" d="M119.774 77.904C120.006 79.91 118.586 81.738 116.58 82.018L42.18 91.244C40.182 91.478 38.3621 90.056 38.0841 88.044L34.3901 57.596C34.1581 55.59 35.5781 53.762 37.5841 53.482L111.984 44.256C113.982 44.022 115.848 45.452 116.08 47.456L119.772 77.904H119.774Z" fill="#FFF6F5"/>
<g id="Clip path group_5">
<mask id="mask4_4443_27878" style="mask-type:luminance" maskUnits="userSpaceOnUse" x="34" y="44" width="86" height="48">
<g id="clippath-4">
<path id="Vector_304" d="M119.774 77.904C120.006 79.91 118.586 81.738 116.58 82.018L42.18 91.244C40.182 91.478 38.3621 90.056 38.0841 88.044L34.3901 57.596C34.1581 55.59 35.5781 53.762 37.5841 53.482L111.984 44.256C113.982 44.022 115.848 45.452 116.08 47.456L119.772 77.904H119.774Z" fill="white"/>
</g>
</mask>
<g mask="url(#mask4_4443_27878)">
<g id="Group_7">
<path id="Vector_305" d="M120.006 90.668H34.1602V91.272H120.006V90.668Z" fill="#FFF6F5"/>
<path id="Vector_306" d="M120.006 90.064H34.1602V90.668H120.006V90.064Z" fill="#FFF6F5"/>
<path id="Vector_307" d="M120.006 89.4619H34.1602V90.0659H120.006V89.4619Z" fill="#FFF6F5"/>
<path id="Vector_308" d="M120.006 88.8579H34.1602V89.4619H120.006V88.8579Z" fill="#FFF6F5"/>
<path id="Vector_309" d="M120.006 88.2559H34.1602V88.8599H120.006V88.2559Z" fill="#FFF6F5"/>
<path id="Vector_310" d="M120.006 87.6519H34.1602V88.2559H120.006V87.6519Z" fill="#FFF6F5"/>
<path id="Vector_311" d="M120.006 87.05H34.1602V87.6541H120.006V87.05Z" fill="#FFF6F5"/>
<path id="Vector_312" d="M120.006 86.446H34.1602V87.05H120.006V86.446Z" fill="#FFF6F5"/>
<path id="Vector_313" d="M120.006 85.842H34.1602V86.446H120.006V85.842Z" fill="#FFF6F5"/>
<path id="Vector_314" d="M120.006 85.24H34.1602V85.844H120.006V85.24Z" fill="#FFF6F5"/>
<path id="Vector_315" d="M120.006 84.636H34.1602V85.24H120.006V84.636Z" fill="#FFF6F5"/>
<path id="Vector_316" d="M120.006 84.0339H34.1602V84.6379H120.006V84.0339Z" fill="#FFF6F5"/>
<path id="Vector_317" d="M120.006 83.4299H34.1602V84.0339H120.006V83.4299Z" fill="#FFF6F5"/>
<path id="Vector_318" d="M120.006 82.8279H34.1602V83.4319H120.006V82.8279Z" fill="#FFF6F5"/>
<path id="Vector_319" d="M120.006 82.2239H34.1602V82.8279H120.006V82.2239Z" fill="#FFF6F5"/>
<path id="Vector_320" d="M120.006 81.6221H34.1602V82.2261H120.006V81.6221Z" fill="#FFF6F5"/>
<path id="Vector_321" d="M120.006 81.0181H34.1602V81.6221H120.006V81.0181Z" fill="#FFF6F5"/>
<path id="Vector_322" d="M120.006 80.416H34.1602V81.02H120.006V80.416Z" fill="#FFF6F5"/>
<path id="Vector_323" d="M120.006 79.812H34.1602V80.416H120.006V79.812Z" fill="#FFF6F5"/>
<path id="Vector_324" d="M120.006 79.21H34.1602V79.814H120.006V79.21Z" fill="#FFF6F5"/>
<path id="Vector_325" d="M120.006 78.606H34.1602V79.21H120.006V78.606Z" fill="#FFF6F5"/>
<path id="Vector_326" d="M120.006 78.0039H34.1602V78.6079H120.006V78.0039Z" fill="#FFF6F5"/>
<path id="Vector_327" d="M120.006 77.3999H34.1602V78.0039H120.006V77.3999Z" fill="#FFF6F5"/>
<path id="Vector_328" d="M120.006 76.7959H34.1602V77.3999H120.006V76.7959Z" fill="#FFF6F5"/>
<path id="Vector_329" d="M120.006 76.1941H34.1602V76.7981H120.006V76.1941Z" fill="#FFF6F5"/>
<path id="Vector_330" d="M120.006 75.5901H34.1602V76.1941H120.006V75.5901Z" fill="#FFF6F5"/>
<path id="Vector_331" d="M120.006 74.988H34.1602V75.592H120.006V74.988Z" fill="#FFF6F5"/>
<path id="Vector_332" d="M120.006 74.384H34.1602V74.988H120.006V74.384Z" fill="#FFF6F5"/>
<path id="Vector_333" d="M120.006 73.782H34.1602V74.386H120.006V73.782Z" fill="#FFF6F5"/>
<path id="Vector_334" d="M120.006 73.178H34.1602V73.782H120.006V73.178Z" fill="#FFF6F5"/>
<path id="Vector_335" d="M120.006 72.5759H34.1602V73.1799H120.006V72.5759Z" fill="#FFF6F5"/>
<path id="Vector_336" d="M120.006 71.9719H34.1602V72.5759H120.006V71.9719Z" fill="#FFF6F5"/>
<path id="Vector_337" d="M120.006 71.3699H34.1602V71.9739H120.006V71.3699Z" fill="#FFF6F5"/>
<path id="Vector_338" d="M120.006 70.7659H34.1602V71.3699H120.006V70.7659Z" fill="#FFF6F5"/>
<path id="Vector_339" d="M120.006 70.1641H34.1602V70.7681H120.006V70.1641Z" fill="#FFF6F5"/>
<path id="Vector_340" d="M120.006 69.5601H34.1602V70.1641H120.006V69.5601Z" fill="#FFF6F5"/>
<path id="Vector_341" d="M120.006 68.958H34.1602V69.562H120.006V68.958Z" fill="#FFF6F5"/>
<path id="Vector_342" d="M120.006 68.354H34.1602V68.958H120.006V68.354Z" fill="#FFF6F5"/>
<path id="Vector_343" d="M120.006 67.75H34.1602V68.354H120.006V67.75Z" fill="#FFF6F5"/>
<path id="Vector_344" d="M120.006 67.1479H34.1602V67.752H120.006V67.1479Z" fill="#FFF6F5"/>
<path id="Vector_345" d="M120.006 66.5439H34.1602V67.1479H120.006V66.5439Z" fill="#FFF6F5"/>
<path id="Vector_346" d="M120.006 65.9419H34.1602V66.5459H120.006V65.9419Z" fill="#FFF6F5"/>
<path id="Vector_347" d="M120.006 65.3379H34.1602V65.9419H120.006V65.3379Z" fill="#FFF6F5"/>
<path id="Vector_348" d="M120.006 64.7361H34.1602V65.3401H120.006V64.7361Z" fill="#FFF6F5"/>
<path id="Vector_349" d="M120.006 64.1321H34.1602V64.7361H120.006V64.1321Z" fill="#FFF6F5"/>
<path id="Vector_350" d="M120.006 63.53H34.1602V64.134H120.006V63.53Z" fill="#FFF6F5"/>
<path id="Vector_351" d="M120.006 62.926H34.1602V63.53H120.006V62.926Z" fill="#FFF6F5"/>
<path id="Vector_352" d="M120.006 62.324H34.1602V62.928H120.006V62.324Z" fill="#FFF6F5"/>
<path id="Vector_353" d="M120.006 61.72H34.1602V62.324H120.006V61.72Z" fill="#FFF6F5"/>
<path id="Vector_354" d="M120.006 61.1179H34.1602V61.7219H120.006V61.1179Z" fill="#FFF6F5"/>
<path id="Vector_355" d="M120.006 60.5139H34.1602V61.1179H120.006V60.5139Z" fill="#FFF6F5"/>
<path id="Vector_356" d="M120.006 59.9099H34.1602V60.5139H120.006V59.9099Z" fill="#FFF6F5"/>
<path id="Vector_357" d="M120.006 59.3079H34.1602V59.9119H120.006V59.3079Z" fill="#FFF6F5"/>
<path id="Vector_358" d="M120.006 58.7039H34.1602V59.3079H120.006V58.7039Z" fill="#FFF6F5"/>
<path id="Vector_359" d="M120.006 58.1021H34.1602V58.706H120.006V58.1021Z" fill="#FFF6F5"/>
<path id="Vector_360" d="M120.006 57.498H34.1602V58.1021H120.006V57.498Z" fill="#FFF6F5"/>
<path id="Vector_361" d="M120.006 56.896H34.1602V57.5H120.006V56.896Z" fill="#FFF6F5"/>
<path id="Vector_362" d="M120.006 56.292H34.1602V56.896H120.006V56.292Z" fill="#FFF6F5"/>
<path id="Vector_363" d="M120.006 55.6899H34.1602V56.2939H120.006V55.6899Z" fill="#FFF6F5"/>
<path id="Vector_364" d="M120.006 55.0859H34.1602V55.6899H120.006V55.0859Z" fill="#FFF6F5"/>
<path id="Vector_365" d="M120.006 54.4839H34.1602V55.0879H120.006V54.4839Z" fill="#FFF6F5"/>
<path id="Vector_366" d="M120.006 53.8799H34.1602V54.4839H120.006V53.8799Z" fill="#FFF6F5"/>
<path id="Vector_367" d="M120.006 53.2781H34.1602V53.8821H120.006V53.2781Z" fill="#FFF6F5"/>
<path id="Vector_368" d="M120.006 52.6741H34.1602V53.2781H120.006V52.6741Z" fill="#FFF6F5"/>
<path id="Vector_369" d="M120.006 52.072H34.1602V52.676H120.006V52.072Z" fill="#FFF6F5"/>
<path id="Vector_370" d="M120.006 51.468H34.1602V52.072H120.006V51.468Z" fill="#FFF6F5"/>
<path id="Vector_371" d="M120.006 50.864H34.1602V51.468H120.006V50.864Z" fill="#FFF6F5"/>
<path id="Vector_372" d="M120.006 50.262H34.1602V50.866H120.006V50.262Z" fill="#FFF6F5"/>
<path id="Vector_373" d="M120.006 49.658H34.1602V50.262H120.006V49.658Z" fill="#FFF6F5"/>
<path id="Vector_374" d="M120.006 49.0559H34.1602V49.6599H120.006V49.0559Z" fill="#FFF6F5"/>
<path id="Vector_375" d="M120.006 48.4519H34.1602V49.0559H120.006V48.4519Z" fill="#FFF6F5"/>
<path id="Vector_376" d="M120.006 47.8501H34.1602V48.4541H120.006V47.8501Z" fill="#FFF6F5"/>
<path id="Vector_377" d="M120.006 47.2461H34.1602V47.8501H120.006V47.2461Z" fill="#FFF6F5"/>
<path id="Vector_378" d="M120.006 46.644H34.1602V47.248H120.006V46.644Z" fill="#FFF6F5"/>
<path id="Vector_379" d="M120.006 46.04H34.1602V46.644H120.006V46.04Z" fill="#FFF6F5"/>
<path id="Vector_380" d="M120.006 45.438H34.1602V46.042H120.006V45.438Z" fill="#FFF6F5"/>
<path id="Vector_381" d="M120.006 44.834H34.1602V45.438H120.006V44.834Z" fill="#FFF6F5"/>
<path id="Vector_382" d="M120.006 44.2319H34.1602V44.8359H120.006V44.2319Z" fill="#FFF6F5"/>
<path id="Vector_383" d="M120.006 44.022H34.1602V44.232H120.006V44.022Z" fill="#FFF6F5"/>
</g>
</g>
</g>
</g>
<path id="Vector_384" d="M39.2618 117.05C39.5778 119.678 41.9358 121.518 44.5558 121.196L121.666 111.664C126.004 111.11 129.076 107.162 128.522 102.854L121.004 41.0481L118.242 41.3921C118.55 43.7841 117.33 46.3961 114.294 46.9761C114.15 47.0001 113.96 47.0161 113.816 47.0381L36.6698 56.5161C34.0958 56.8441 32.2158 59.2061 32.5318 61.8341L39.2618 117.046V117.05Z" fill="#FF607B"/>
<g id="Clip path group_6">
<mask id="mask5_4443_27878" style="mask-type:luminance" maskUnits="userSpaceOnUse" x="32" y="40" width="97" height="85">
<g id="clippath-5">
<path id="Vector_385" d="M122.004 114.438L44.8875 124.016C42.2675 124.336 39.9095 122.498 39.5935 119.87L32.8635 64.6581C32.5475 62.0301 34.3815 59.6601 37.0015 59.3401L114.11 49.8081C118.448 49.2521 121.52 45.306 120.966 40.998L128.86 105.63C129.408 109.982 126.288 113.922 122.004 114.44V114.438Z" fill="white"/>
</g>
</mask>
<g mask="url(#mask5_4443_27878)">
<g id="Group_8">
<path id="Vector_386" d="M32.5459 94.8462L83.6239 124.336H32.5459V94.8462Z" fill="#FF9999"/>
<path id="Vector_387" d="M32.5459 92.9561L86.8979 124.336H83.6239L32.5459 94.846V92.9561Z" fill="#FF9999"/>
<path id="Vector_388" d="M32.5459 91.0642L90.1719 124.336H86.8979L32.5459 92.9562V91.0642Z" fill="#FF9A9A"/>
<path id="Vector_389" d="M32.5459 89.1741L93.4459 124.336H90.1719L32.5459 91.0641V89.1741Z" fill="#FF9B9B"/>
<path id="Vector_390" d="M32.5459 87.2842L96.7199 124.336H93.4459L32.5459 89.1742V87.2842Z" fill="#FF9D9C"/>
<path id="Vector_391" d="M32.5459 85.394L99.9939 124.336H96.7199L32.5459 87.284V85.394Z" fill="#FF9E9D"/>
<path id="Vector_392" d="M32.5459 83.5042L103.27 124.336H99.9939L32.5459 85.3941V83.5042Z" fill="#FF9F9E"/>
<path id="Vector_393" d="M32.5459 81.614L106.544 124.336H103.27L32.5459 83.504V81.614Z" fill="#FFA09F"/>
<path id="Vector_394" d="M32.5459 79.7222L109.818 124.336H106.544L32.5459 81.6142V79.7222Z" fill="#FFA1A0"/>
<path id="Vector_395" d="M32.5459 77.832L113.092 124.336H109.818L32.5459 79.722V77.832Z" fill="#FFA2A0"/>
<path id="Vector_396" d="M32.5459 75.9421L116.366 124.336H113.092L32.5459 77.8321V75.9421Z" fill="#FFA3A1"/>
<path id="Vector_397" d="M32.5459 74.052L119.64 124.336H116.366L32.5459 75.942V74.052Z" fill="#FFA4A2"/>
<path id="Vector_398" d="M32.5459 72.1821L121.906 123.774L121.582 124.336H119.64L32.5459 74.0521V72.1821Z" fill="#FFA4A2"/>
<path id="Vector_399" d="M32.5459 70.3142L122.714 122.372L121.906 123.774L32.5459 72.1822V70.3142Z" fill="#FFA6A4"/>
<path id="Vector_400" d="M32.5459 68.4441L123.524 120.97L122.714 122.372L32.5459 70.3141V68.4441Z" fill="#FFA9A6"/>
<path id="Vector_401" d="M32.5459 66.574L124.334 119.568L123.524 120.97L32.5459 68.444V66.574Z" fill="#FFABA8"/>
<path id="Vector_402" d="M32.5459 64.7061L125.144 118.166L124.334 119.568L32.5459 66.5741V64.7061Z" fill="#FFADA9"/>
<path id="Vector_403" d="M32.5459 62.8362L125.952 116.764L125.144 118.166L32.5459 64.7062V62.8362Z" fill="#FFAFAB"/>
<path id="Vector_404" d="M32.5459 61.226L32.6599 61.032L126.762 115.362L125.952 116.764L32.5459 62.836V61.226Z" fill="#FFB1AD"/>
<path id="Vector_405" d="M33.4692 59.6303L32.6602 61.0315L126.762 115.361L127.571 113.96L33.4692 59.6303Z" fill="#FFB3AF"/>
<path id="Vector_406" d="M34.2778 58.2279L33.4688 59.6292L127.571 113.959L128.38 112.558L34.2778 58.2279Z" fill="#FFB5B0"/>
<path id="Vector_407" d="M35.0854 56.827L34.2764 58.2283L128.379 112.558L129.188 111.157L35.0854 56.827Z" fill="#FFB7B2"/>
<path id="Vector_408" d="M35.0879 56.8261L35.8959 55.4241L129.408 109.412V110.78L129.19 111.156L35.0879 56.8261Z" fill="#FFB9B3"/>
<path id="Vector_409" d="M35.8955 55.424L36.7055 54.022L129.408 107.544V109.412L35.8955 55.424Z" fill="#FFBBB5"/>
<path id="Vector_410" d="M36.7061 54.0221L37.5161 52.6201L129.408 105.674V107.544L36.7061 54.0221Z" fill="#FFBDB6"/>
<path id="Vector_411" d="M37.5156 52.62L38.3236 51.218L129.408 103.806V105.674L37.5156 52.62Z" fill="#FFBEB8"/>
<path id="Vector_412" d="M38.3242 51.2182L39.1342 49.8162L129.408 101.936V103.806L38.3242 51.2182Z" fill="#FFC0B9"/>
<path id="Vector_413" d="M39.1338 49.8161L39.9438 48.4141L129.408 100.066V101.936L39.1338 49.8161Z" fill="#FFC2BB"/>
<path id="Vector_414" d="M39.9443 48.4142L40.7543 47.0142L129.408 98.1982V100.066L39.9443 48.4142Z" fill="#FFC3BC"/>
<path id="Vector_415" d="M40.7539 47.0141L41.5619 45.6121L129.408 96.3281V98.1981L40.7539 47.0141Z" fill="#FFC5BE"/>
<path id="Vector_416" d="M41.5615 45.6122L42.3715 44.2102L129.408 94.4602V96.3282L41.5615 45.6122Z" fill="#FFC6BF"/>
<path id="Vector_417" d="M42.3721 44.2101L43.1821 42.8081L129.408 92.5901V94.4601L42.3721 44.2101Z" fill="#FFC8C0"/>
<path id="Vector_418" d="M43.1816 42.808L43.9896 41.406L129.408 90.72V92.59L43.1816 42.808Z" fill="#FFC9C1"/>
<path id="Vector_419" d="M43.9902 41.4061L44.2282 40.9961H46.5182L129.408 88.8521V90.7201L43.9902 41.4061Z" fill="#FFCBC3"/>
<path id="Vector_420" d="M49.7556 40.9961L129.408 86.9821V88.8521L46.5176 40.9961H49.7556Z" fill="#FFCCC4"/>
<path id="Vector_421" d="M52.9939 40.9961L129.408 85.1141V86.9821L49.7559 40.9961H52.9939Z" fill="#FFCEC5"/>
<path id="Vector_422" d="M56.2321 40.9961L129.408 83.2441V85.1141L52.9941 40.9961H56.2321Z" fill="#FFCFC6"/>
<path id="Vector_423" d="M59.4694 40.9961L129.407 81.3741V83.2441L56.2314 40.9961H59.4694Z" fill="#FFD0C7"/>
<path id="Vector_424" d="M62.7057 40.9961L129.408 79.5061V81.3741L59.4697 40.9961H62.7057Z" fill="#FFD2C8"/>
<path id="Vector_425" d="M65.9441 40.9961L129.408 77.6361V79.5061L62.7061 40.9961H65.9441Z" fill="#FFD3C9"/>
<path id="Vector_426" d="M69.1823 40.9961L129.408 75.7661V77.6361L65.9443 40.9961H69.1823Z" fill="#FFD4CA"/>
<path id="Vector_427" d="M72.4196 40.9961L129.408 73.8981V75.7661L69.1816 40.9961H72.4196Z" fill="#FFD5CB"/>
<path id="Vector_428" d="M75.6559 40.9961L129.408 72.0281V73.8981L72.4199 40.9961H75.6559Z" fill="#FFD6CC"/>
<path id="Vector_429" d="M78.8943 40.9961L129.408 70.1601V72.0281L75.6562 40.9961H78.8943Z" fill="#FFD7CD"/>
<path id="Vector_430" d="M82.1316 40.9961L129.408 68.2901V70.1601L78.8936 40.9961H82.1316Z" fill="#FFD8CE"/>
<path id="Vector_431" d="M85.3698 40.9961L129.408 66.4201V68.2901L82.1318 40.9961H85.3698Z" fill="#FFD9CE"/>
<path id="Vector_432" d="M88.6081 40.9961L129.408 64.5521V66.4201L85.3701 40.9961H88.6081Z" fill="#FFDACF"/>
<path id="Vector_433" d="M91.8434 40.9961L129.407 62.6821V64.5521L88.6074 40.9961H91.8434Z" fill="#FFDBD0"/>
<path id="Vector_434" d="M95.0818 40.9961L129.408 60.8141V62.6821L91.8438 40.9961H95.0818Z" fill="#FFDCD1"/>
<path id="Vector_435" d="M98.32 40.9961L129.408 58.9441V60.8141L95.082 40.9961H98.32Z" fill="#FFDDD1"/>
<path id="Vector_436" d="M101.558 40.9961L129.408 57.0741V58.9441L98.3203 40.9961H101.558Z" fill="#FFDDD2"/>
<path id="Vector_437" d="M104.794 40.9961L129.408 55.2061V57.0741L101.558 40.9961H104.794Z" fill="#FFDED3"/>
<path id="Vector_438" d="M108.032 40.9961L129.408 53.3361V55.2061L104.794 40.9961H108.032Z" fill="#FFDFD3"/>
<path id="Vector_439" d="M111.27 40.9961L129.408 51.4681V53.3361L108.032 40.9961H111.27Z" fill="#FFE0D4"/>
<path id="Vector_440" d="M114.508 40.9961L129.408 49.5981V51.4681L111.27 40.9961H114.508Z" fill="#FFE0D4"/>
<path id="Vector_441" d="M117.746 40.9961L129.408 47.7281V49.5981L114.508 40.9961H117.746Z" fill="#FFE1D5"/>
<path id="Vector_442" d="M120.982 40.9961L129.408 45.8601V47.7281L117.746 40.9961H120.982Z" fill="#FFE1D5"/>
<path id="Vector_443" d="M124.219 40.9961L129.407 43.9901V45.8601L120.981 40.9961H124.219Z" fill="#FFE2D6"/>
<path id="Vector_444" d="M127.458 40.9961L129.408 42.1221V43.9901L124.22 40.9961H127.458Z" fill="#FFE3D6"/>
<path id="Vector_445" d="M129.408 42.1221L127.458 40.9961H129.408V42.1221Z" fill="#FFE3D7"/>
</g>
</g>
</g>
<g id="Clip path group_7">
<mask id="mask6_4443_27878" style="mask-type:luminance" maskUnits="userSpaceOnUse" x="31" y="80" width="28" height="19">
<g id="clippath-6">
<path id="Vector_446" d="M51.7564 96.89L37.0424 98.696C35.1344 98.946 33.3984 97.584 33.1524 95.67L31.6104 82.862L49.8064 80.596C54.2344 80.056 58.3304 83.258 58.8544 87.746C59.3783 92.236 56.2384 96.312 51.7564 96.89Z" fill="white"/>
</g>
</mask>
<g mask="url(#mask6_4443_27878)">
<g id="Group_9">
<path id="Vector_447" d="M52.1123 98.9459L59.3783 91.6819V98.9459H52.1123Z" fill="#FFE7DA"/>
<path id="Vector_448" d="M51.8701 98.946L59.3781 91.438V91.682L52.1121 98.946H51.8701Z" fill="#FFE7DA"/>
<path id="Vector_449" d="M51.626 98.9458L59.378 91.1938V91.4379L51.87 98.9458H51.626Z" fill="#FFE7DA"/>
<path id="Vector_450" d="M51.3828 98.9459L59.3788 90.95V91.1939L51.6268 98.9459H51.3828Z" fill="#FFE6DA"/>
<path id="Vector_451" d="M51.1387 98.9458L59.3787 90.7058V90.9498L51.3827 98.9458H51.1387Z" fill="#FFE6D9"/>
<path id="Vector_452" d="M50.8945 98.9459L59.3785 90.4619V90.7059L51.1385 98.9459H50.8945Z" fill="#FFE6D9"/>
<path id="Vector_453" d="M50.6504 98.946L59.3784 90.218V90.462L50.8944 98.946H50.6504Z" fill="#FFE5D9"/>
<path id="Vector_454" d="M50.4062 98.9458L59.3783 89.9758V90.2178L50.6503 98.9458H50.4062Z" fill="#FFE5D8"/>
<path id="Vector_455" d="M50.1621 98.9459L59.3781 89.7319V89.9759L50.4061 98.9459H50.1621Z" fill="#FFE4D8"/>
<path id="Vector_456" d="M49.9199 98.9458L59.3779 89.4878V89.7318L50.1619 98.9458H49.9199Z" fill="#FFE4D8"/>
<path id="Vector_457" d="M49.6768 98.9459L59.3788 89.2439V89.4879L49.9208 98.9459H49.6768Z" fill="#FFE3D7"/>
<path id="Vector_458" d="M49.4326 98.946L59.3786 89V89.244L49.6766 98.946H49.4326Z" fill="#FFE3D7"/>
<path id="Vector_459" d="M49.1885 98.9458L59.3785 88.7559V88.9999L49.4325 98.9458H49.1885Z" fill="#FFE2D7"/>
<path id="Vector_460" d="M48.9443 98.946L59.3783 88.512V88.756L49.1883 98.946H48.9443Z" fill="#FFE2D6"/>
<path id="Vector_461" d="M48.7002 98.946L59.3782 88.27V88.512L48.9442 98.946H48.7002Z" fill="#FFE1D6"/>
<path id="Vector_462" d="M48.4561 98.9459L59.3781 88.0259V88.2699L48.7001 98.9459H48.4561Z" fill="#FFE0D5"/>
<path id="Vector_463" d="M48.2148 98.946L59.3788 87.782V88.026L48.4568 98.946H48.2148Z" fill="#FFE0D5"/>
<path id="Vector_464" d="M47.9707 98.9458L59.3787 87.5378V87.7818L48.2147 98.9458H47.9707Z" fill="#FFDFD4"/>
<path id="Vector_465" d="M47.7266 98.9459L59.3786 87.2939V87.538L47.9706 98.9459H47.7266Z" fill="#FFDED4"/>
<path id="Vector_466" d="M47.4824 98.9458L59.3784 87.0498V87.2938L47.7264 98.9458H47.4824Z" fill="#FFDED3"/>
<path id="Vector_467" d="M47.2383 98.9459L59.3783 86.8059V87.0499L47.4823 98.9459H47.2383Z" fill="#FFDDD3"/>
<path id="Vector_468" d="M46.9941 98.946L59.3781 86.564V86.806L47.2381 98.946H46.9941Z" fill="#FFDCD2"/>
<path id="Vector_469" d="M46.75 98.9458L59.378 86.3198V86.5638L46.994 98.9458H46.75Z" fill="#FFDCD2"/>
<path id="Vector_470" d="M46.5088 98.9459L59.3788 86.0759V86.3199L46.7508 98.9459H46.5088Z" fill="#FFDBD1"/>
<path id="Vector_471" d="M46.2646 98.9458L59.3786 85.8318V86.0758L46.5086 98.9458H46.2646Z" fill="#FFDAD1"/>
<path id="Vector_472" d="M46.0205 98.9459L59.3785 85.5879V85.8319L46.2645 98.9459H46.0205Z" fill="#FFD9D0"/>
<path id="Vector_473" d="M45.7764 98.946L59.3784 85.344V85.588L46.0204 98.946H45.7764Z" fill="#FFD9D0"/>
<path id="Vector_474" d="M45.5322 98.9458L59.3782 85.0999V85.3438L45.7762 98.9458H45.5322Z" fill="#FFD8CF"/>
<path id="Vector_475" d="M45.2881 98.9459L59.3781 84.8579V85.0999L45.5321 98.9459H45.2881Z" fill="#FFD7CF"/>
<path id="Vector_476" d="M45.0439 98.946L59.3779 84.614V84.858L45.2879 98.946H45.0439Z" fill="#FFD6CE"/>
<path id="Vector_477" d="M44.8027 98.9459L59.3787 84.3699V84.6139L45.0447 98.9459H44.8027Z" fill="#FFD5CE"/>
<path id="Vector_478" d="M44.5586 98.946L59.3786 84.126V84.37L44.8026 98.946H44.5586Z" fill="#FFD5CD"/>
<path id="Vector_479" d="M44.3145 98.9458L59.3785 83.8818V84.1258L44.5585 98.9458H44.3145Z" fill="#FFD4CC"/>
<path id="Vector_480" d="M44.0703 98.9459L59.3283 83.6899L59.3783 83.7399V83.8819L44.3143 98.9459H44.0703Z" fill="#FFD3CC"/>
<path id="Vector_481" d="M43.8262 98.9459L59.2062 83.5679L59.3282 83.6899L44.0702 98.9459H43.8262Z" fill="#FFD2CB"/>
<path id="Vector_482" d="M43.582 98.9458L59.084 83.4458L59.206 83.5678L43.826 98.9458H43.582Z" fill="#FFD1CB"/>
<path id="Vector_483" d="M43.3389 98.946L58.9629 83.324L59.0849 83.446L43.5829 98.946H43.3389Z" fill="#FFD0CA"/>
<path id="Vector_484" d="M43.0967 98.9459L58.8407 83.2019L58.9627 83.3239L43.3387 98.9459H43.0967Z" fill="#FFD0C9"/>
<path id="Vector_485" d="M42.8525 98.9458L58.7185 83.0798L58.8405 83.2018L43.0965 98.9458H42.8525Z" fill="#FFCFC9"/>
<path id="Vector_486" d="M42.6084 98.946L58.5964 82.958L58.7184 83.08L42.8524 98.946H42.6084Z" fill="#FFCEC8"/>
<path id="Vector_487" d="M42.3643 98.9459L58.4743 82.8359L58.5963 82.9579L42.6083 98.9459H42.3643Z" fill="#FFCDC8"/>
<path id="Vector_488" d="M42.1201 98.9459L58.3521 82.7139L58.4741 82.8359L42.3641 98.9459H42.1201Z" fill="#FFCCC7"/>
<path id="Vector_489" d="M41.876 98.9458L58.23 82.5918L58.352 82.7138L42.12 98.9458H41.876Z" fill="#FFCBC6"/>
<path id="Vector_490" d="M41.6328 98.946L58.1088 82.47L58.2308 82.592L41.8768 98.946H41.6328Z" fill="#FFCAC6"/>
<path id="Vector_491" d="M41.3906 98.9459L57.9866 82.3479L58.1086 82.4699L41.6326 98.9459H41.3906Z" fill="#FFC9C5"/>
<path id="Vector_492" d="M41.1465 98.946L57.8645 82.228L57.9865 82.348L41.3905 98.946H41.1465Z" fill="#FFC8C4"/>
<path id="Vector_493" d="M40.9023 98.946L57.7423 82.106L57.8643 82.228L41.1463 98.946H40.9023Z" fill="#FFC7C4"/>
<path id="Vector_494" d="M40.6582 98.9459L57.6222 81.9839L57.7422 82.1059L40.9022 98.9459H40.6582Z" fill="#FFC6C3"/>
<path id="Vector_495" d="M40.4141 98.9458L57.5001 81.8618L57.6221 81.9838L40.6581 98.9458H40.4141Z" fill="#FFC6C2"/>
<path id="Vector_496" d="M40.1699 98.946L57.3779 81.74L57.4999 81.862L40.4139 98.946H40.1699Z" fill="#FFC5C2"/>
<path id="Vector_497" d="M39.9268 98.9459L57.2568 81.6179L57.3788 81.7399L40.1708 98.9459H39.9268Z" fill="#FFC4C1"/>
<path id="Vector_498" d="M39.6826 98.9458L57.1346 81.4958L57.2566 81.6178L39.9266 98.9458H39.6826Z" fill="#FFC3C0"/>
<path id="Vector_499" d="M39.4404 98.946L57.0124 81.374L57.1344 81.496L39.6824 98.946H39.4404Z" fill="#FFC2C0"/>
<path id="Vector_500" d="M39.1963 98.9459L56.8903 81.252L57.0123 81.374L39.4403 98.9459H39.1963Z" fill="#FFC1BF"/>
<path id="Vector_501" d="M38.9521 98.9459L56.7681 81.1299L56.8901 81.2519L39.1961 98.9459H38.9521Z" fill="#FFC0BE"/>
<path id="Vector_502" d="M38.708 98.9458L56.646 81.0078L56.768 81.1298L38.952 98.9458H38.708Z" fill="#FFBFBE"/>
<path id="Vector_503" d="M38.4648 98.946L56.5248 80.886L56.6468 81.008L38.7088 98.946H38.4648Z" fill="#FFBEBD"/>
<path id="Vector_504" d="M38.2207 98.9459L56.4027 80.7639L56.5247 80.8859L38.4647 98.9459H38.2207Z" fill="#FFBDBC"/>
<path id="Vector_505" d="M37.9766 98.9458L56.2806 80.6418L56.4026 80.7638L38.2206 98.9458H37.9766Z" fill="#FFBCBC"/>
<path id="Vector_506" d="M37.7344 98.946L56.1584 80.522L56.2804 80.642L37.9764 98.946H37.7344Z" fill="#FFBBBB"/>
<path id="Vector_507" d="M37.4902 98.9459L56.0362 80.3999L56.1582 80.5219L37.7342 98.9459H37.4902Z" fill="#FFBABA"/>
<path id="Vector_508" d="M37.2461 98.9458L55.9161 80.2778L56.0361 80.3998L37.4901 98.9458H37.2461Z" fill="#FFB9B9"/>
<path id="Vector_509" d="M37.002 98.946L55.794 80.156L55.9159 80.278L37.246 98.946H37.002Z" fill="#FFB8B9"/>
<path id="Vector_510" d="M36.7588 98.9459L55.6508 80.0559H55.6948L55.7948 80.1559L37.0028 98.9459H36.7588Z" fill="#FFB7B8"/>
<path id="Vector_511" d="M36.5146 98.9459L55.4066 80.0559H55.6506L36.7586 98.9459H36.5146Z" fill="#FFB6B7"/>
<path id="Vector_512" d="M36.2705 98.9459L55.1625 80.0559H55.4065L36.5145 98.9459H36.2705Z" fill="#FFB5B6"/>
<path id="Vector_513" d="M36.0283 98.9459L54.9183 80.0559H55.1623L36.2703 98.9459H36.0283Z" fill="#FFB3B6"/>
<path id="Vector_514" d="M35.7842 98.9459L54.6742 80.0559H54.9182L36.0282 98.9459H35.7842Z" fill="#FFB2B5"/>
<path id="Vector_515" d="M35.54 98.9459L54.432 80.0559H54.674L35.784 98.9459H35.54Z" fill="#FFB1B4"/>
<path id="Vector_516" d="M35.2969 98.9459L54.1889 80.0559H54.4329L35.5409 98.9459H35.2969Z" fill="#FFB0B3"/>
<path id="Vector_517" d="M35.0527 98.9459L53.9447 80.0559H54.1887L35.2967 98.9459H35.0527Z" fill="#FFAFB3"/>
<path id="Vector_518" d="M34.8086 98.9459L53.7006 80.0559H53.9446L35.0526 98.9459H34.8086Z" fill="#FFAEB2"/>
<path id="Vector_519" d="M34.5645 98.9459L53.4564 80.0559H53.7005L34.8085 98.9459H34.5645Z" fill="#FFADB1"/>
<path id="Vector_520" d="M34.3223 98.9459L53.2123 80.0559H53.4563L34.5643 98.9459H34.3223Z" fill="#FFACB0"/>
<path id="Vector_521" d="M34.1927 98.9459L34.1367 98.8879L52.9687 80.0559H53.2127L34.3227 98.9459H34.1927Z" fill="#FFABB0"/>
<path id="Vector_522" d="M34.1366 98.8879L34.0146 98.7659L52.7246 80.0559H52.9686L34.1366 98.8879Z" fill="#FFAAAF"/>
<path id="Vector_523" d="M34.0146 98.7659L33.8926 98.6459L52.4826 80.0559H52.7246L34.0146 98.7659Z" fill="#FFA9AE"/>
<path id="Vector_524" d="M33.8925 98.6459L33.7705 98.5239L52.2385 80.0559H52.4825L33.8925 98.6459Z" fill="#FFA8AD"/>
<path id="Vector_525" d="M33.7704 98.5239L33.6484 98.4019L51.9944 80.0559H52.2384L33.7704 98.5239Z" fill="#FFA6AD"/>
<path id="Vector_526" d="M33.6484 98.4019L33.5264 98.2799L51.7504 80.0559H51.9944L33.6484 98.4019Z" fill="#FFA5AC"/>
<path id="Vector_527" d="M33.5263 98.2799L33.4043 98.1579L51.5063 80.0559H51.7503L33.5263 98.2799Z" fill="#FFA4AB"/>
<path id="Vector_528" d="M33.4042 98.1579L33.2822 98.0359L51.2622 80.0559H51.5062L33.4042 98.1579Z" fill="#FFA3AA"/>
<path id="Vector_529" d="M33.2822 98.0359L33.1602 97.9139L51.0182 80.0559H51.2622L33.2822 98.0359Z" fill="#FFA2A9"/>
<path id="Vector_530" d="M33.1601 97.9139L33.0381 97.7919L50.7761 80.0559H51.0181L33.1601 97.9139Z" fill="#FFA1A9"/>
<path id="Vector_531" d="M33.038 97.7919L32.916 97.6699L50.532 80.0559H50.776L33.038 97.7919Z" fill="#FFA0A8"/>
<path id="Vector_532" d="M32.9159 97.6699L32.7939 97.5479L50.2879 80.0559H50.5319L32.9159 97.6699Z" fill="#FF9FA7"/>
<path id="Vector_533" d="M32.7949 97.5479L32.6729 97.4259L50.0449 80.0559H50.2889L32.7949 97.5479Z" fill="#FF9DA6"/>
<path id="Vector_534" d="M32.6728 97.4259L32.5508 97.3039L49.8008 80.0559H50.0448L32.6728 97.4259Z" fill="#FF9CA5"/>
<path id="Vector_535" d="M32.5507 97.3039L32.4307 97.1819L49.5567 80.0559H49.8007L32.5507 97.3039Z" fill="#FF9BA5"/>
<path id="Vector_536" d="M32.4306 97.1819L32.3086 97.0599L49.3126 80.0559H49.5566L32.4306 97.1819Z" fill="#FF9AA4"/>
<path id="Vector_537" d="M32.3085 97.0599L32.1865 96.9399L49.0705 80.0559H49.3125L32.3085 97.0599Z" fill="#FF99A3"/>
<path id="Vector_538" d="M32.1865 96.9399L32.0645 96.8179L48.8265 80.0559H49.0705L32.1865 96.9399Z" fill="#FF98A2"/>
<path id="Vector_539" d="M32.0644 96.8179L31.9424 96.6959L48.5824 80.0559H48.8264L32.0644 96.8179Z" fill="#FF96A1"/>
<path id="Vector_540" d="M31.9423 96.6959L31.8203 96.5739L48.3383 80.0559H48.5823L31.9423 96.6959Z" fill="#FF95A0"/>
<path id="Vector_541" d="M31.8202 96.5739L31.6982 96.4519L48.0942 80.0559H48.3382L31.8202 96.5739Z" fill="#FF94A0"/>
<path id="Vector_542" d="M31.6984 96.4519L31.6084 96.3619V96.2979L47.8504 80.0559H48.0944L31.6984 96.4519Z" fill="#FF939F"/>
<path id="Vector_543" d="M31.6084 96.0539L47.6064 80.0559H47.8504L31.6084 96.2979V96.0539Z" fill="#FF929E"/>
<path id="Vector_544" d="M31.6084 95.8099L47.3644 80.0559H47.6064L31.6084 96.0539V95.8099Z" fill="#FF909D"/>
<path id="Vector_545" d="M31.6084 95.5659L47.1204 80.0559H47.3644L31.6084 95.8099V95.5659Z" fill="#FF8F9C"/>
<path id="Vector_546" d="M31.6084 95.3219L46.8764 80.0559H47.1204L31.6084 95.5659V95.3219Z" fill="#FF8E9B"/>
<path id="Vector_547" d="M31.6084 95.0799L46.6324 80.0559H46.8764L31.6084 95.3219V95.0799Z" fill="#FF8D9B"/>
<path id="Vector_548" d="M31.6084 94.8359L46.3884 80.0559H46.6324L31.6084 95.0799V94.8359Z" fill="#FF8C9A"/>
<path id="Vector_549" d="M31.6084 94.5919L46.1444 80.0559H46.3884L31.6084 94.8359V94.5919Z" fill="#FF8A99"/>
<path id="Vector_550" d="M31.6084 94.3479L45.9004 80.0559H46.1444L31.6084 94.5919V94.3479Z" fill="#FF8998"/>
<path id="Vector_551" d="M31.6084 94.1039L45.6584 80.0559H45.9004L31.6084 94.3479V94.1039Z" fill="#FF8897"/>
<path id="Vector_552" d="M31.6084 93.8599L45.4144 80.0559H45.6584L31.6084 94.1039V93.8599Z" fill="#FF8796"/>
<path id="Vector_553" d="M31.6084 93.6159L45.1704 80.0559H45.4144L31.6084 93.8599V93.6159Z" fill="#FF8595"/>
<path id="Vector_554" d="M31.6084 93.3739L44.9264 80.0559H45.1704L31.6084 93.6159V93.3739Z" fill="#FF8494"/>
<path id="Vector_555" d="M31.6084 93.1299L44.6824 80.0559H44.9264L31.6084 93.3739V93.1299Z" fill="#FF8394"/>
<path id="Vector_556" d="M31.6084 92.8859L44.4384 80.0559H44.6824L31.6084 93.1299V92.8859Z" fill="#FF8293"/>
<path id="Vector_557" d="M31.6084 92.6419L44.1944 80.0559H44.4384L31.6084 92.8859V92.6419Z" fill="#FF8092"/>
<path id="Vector_558" d="M31.6084 92.3979L43.9524 80.0559H44.1944L31.6084 92.6419V92.3979Z" fill="#FF7F91"/>
<path id="Vector_559" d="M31.6084 92.1539L43.7084 80.0559H43.9524L31.6084 92.3979V92.1539Z" fill="#FF7E90"/>
<path id="Vector_560" d="M31.6084 91.9099L43.4644 80.0559H43.7084L31.6084 92.1539V91.9099Z" fill="#FF7D8F"/>
<path id="Vector_561" d="M31.6084 91.6679L43.2204 80.0559H43.4644L31.6084 91.9099V91.6679Z" fill="#FF7B8E"/>
<path id="Vector_562" d="M31.6084 91.4239L42.9764 80.0559H43.2204L31.6084 91.6679V91.4239Z" fill="#FF7A8D"/>
<path id="Vector_563" d="M31.6084 91.1799L42.7324 80.0559H42.9764L31.6084 91.4239V91.1799Z" fill="#FF798C"/>
<path id="Vector_564" d="M31.6084 90.9359L42.4884 80.0559H42.7324L31.6084 91.1799V90.9359Z" fill="#FF788C"/>
<path id="Vector_565" d="M31.6084 90.6919L42.2444 80.0559H42.4884L31.6084 90.9359V90.6919Z" fill="#FF768B"/>
<path id="Vector_566" d="M31.6084 90.4479L42.0024 80.0559H42.2444L31.6084 90.6919V90.4479Z" fill="#FF758A"/>
<path id="Vector_567" d="M31.6084 90.2039L41.7584 80.0559H42.0024L31.6084 90.4479V90.2039Z" fill="#FF7489"/>
<path id="Vector_568" d="M31.6084 89.9619L41.5144 80.0559H41.7584L31.6084 90.2039V89.9619Z" fill="#FF7288"/>
<path id="Vector_569" d="M31.6084 89.7179L41.2704 80.0559H41.5144L31.6084 89.9619V89.7179Z" fill="#FF7187"/>
<path id="Vector_570" d="M31.6084 89.4739L41.0264 80.0559H41.2704L31.6084 89.7179V89.4739Z" fill="#FF7086"/>
<path id="Vector_571" d="M31.6084 89.2299L40.7824 80.0559H41.0264L31.6084 89.4739V89.2299Z" fill="#FF6F85"/>
<path id="Vector_572" d="M31.6084 88.9859L40.5384 80.0559H40.7824L31.6084 89.2299V88.9859Z" fill="#FF6D84"/>
<path id="Vector_573" d="M31.6084 88.7419L40.2964 80.0559H40.5384L31.6084 88.9859V88.7419Z" fill="#FF6C83"/>
<path id="Vector_574" d="M31.6084 88.4979L40.0524 80.0559H40.2964L31.6084 88.7419V88.4979Z" fill="#FF6B82"/>
<path id="Vector_575" d="M31.6084 88.2559L39.8084 80.0559H40.0524L31.6084 88.4979V88.2559Z" fill="#FF6982"/>
<path id="Vector_576" d="M31.6084 88.0119L39.5644 80.0559H39.8084L31.6084 88.2559V88.0119Z" fill="#FF6881"/>
<path id="Vector_577" d="M31.6084 87.7679L39.3204 80.0559H39.5644L31.6084 88.0119V87.7679Z" fill="#FF6780"/>
<path id="Vector_578" d="M31.6084 87.5239L39.0764 80.0559H39.3204L31.6084 87.7679V87.5239Z" fill="#FF657F"/>
<path id="Vector_579" d="M31.6084 87.2799L38.8324 80.0559H39.0764L31.6084 87.5239V87.2799Z" fill="#FF647E"/>
<path id="Vector_580" d="M31.6084 87.0359L38.5904 80.0559H38.8324L31.6084 87.2799V87.0359Z" fill="#FF637D"/>
<path id="Vector_581" d="M31.6084 86.7919L38.3464 80.0559H38.5904L31.6084 87.0359V86.7919Z" fill="#FF617C"/>
<path id="Vector_582" d="M31.6084 86.5479L38.1024 80.0559H38.3464L31.6084 86.7919V86.5479Z" fill="#FF607B"/>
<path id="Vector_583" d="M38.1024 80.0559L31.6084 86.5479V80.0559H38.1024Z" fill="#FF607B"/>
</g>
</g>
</g>
<path id="Vector_584" fill-rule="evenodd" clip-rule="evenodd" d="M55.5336 88.4461C55.5476 91.1521 53.3736 93.3561 50.6776 93.3721C47.9816 93.3861 45.7836 91.2041 45.7696 88.4981C45.7556 85.7921 47.9296 83.5881 50.6256 83.5721C53.3216 83.5581 55.5176 85.7401 55.5336 88.4461Z" fill="white"/>
<path id="Vector_585" d="M136.654 95.7239C136.476 95.0279 137.12 94.3979 137.812 94.5939L142.488 95.9079C143.18 96.1019 143.402 96.9739 142.888 97.4759L139.412 100.868C138.896 101.37 138.032 101.128 137.854 100.43L136.654 95.7239Z" fill="#FFBEBD"/>
<path id="Vector_586" d="M18.8176 40.9581C19.0936 39.8141 20.7216 39.8141 20.9976 40.9581L21.9276 44.8101C22.0256 45.2181 22.3456 45.5381 22.7536 45.6361L26.6056 46.5661C27.7496 46.8421 27.7496 48.4701 26.6056 48.7461L22.7536 49.6761C22.3456 49.7741 22.0256 50.0941 21.9276 50.5021L20.9976 54.3541C20.7216 55.4981 19.0936 55.4981 18.8176 54.3541L17.8876 50.5021C17.7896 50.0941 17.4696 49.7741 17.0616 49.6761L13.2096 48.7461C12.0656 48.4701 12.0656 46.8421 13.2096 46.5661L17.0616 45.6361C17.4696 45.5381 17.7896 45.2181 17.8876 44.8101L18.8176 40.9581Z" fill="#FFBEBD"/>
<path id="Vector_587" d="M50.6017 133.146C50.8777 132.002 52.5057 132.002 52.7817 133.146L53.7117 136.998C53.8097 137.406 54.1297 137.726 54.5377 137.824L58.3897 138.754C59.5337 139.03 59.5337 140.658 58.3897 140.934L54.5377 141.864C54.1297 141.962 53.8097 142.282 53.7117 142.69L52.7817 146.542C52.5057 147.686 50.8777 147.686 50.6017 146.542L49.6717 142.69C49.5737 142.282 49.2537 141.962 48.8457 141.864L44.9937 140.934C43.8497 140.658 43.8497 139.03 44.9937 138.754L48.8457 137.824C49.2537 137.726 49.5737 137.406 49.6717 136.998L50.6017 133.146Z" fill="#FFBEBD"/>
<g id="Group_10">
<g id="Clip path group_8">
<mask id="mask7_4443_27878" style="mask-type:luminance" maskUnits="userSpaceOnUse" x="101" y="121" width="20" height="11">
<g id="clippath-7">
<path id="Vector_588" d="M120.6 123.084C120.63 123.03 120.646 122.972 120.652 122.912C120.658 122.852 120.65 122.792 120.628 122.734C120.608 122.678 120.576 122.624 120.534 122.58C120.492 122.536 120.442 122.502 120.386 122.478C118.754 121.828 112.978 119.896 109.822 123.79C107.71 126.35 104.726 128.038 101.442 128.528C101.36 128.54 101.282 128.574 101.22 128.63C101.158 128.686 101.114 128.76 101.094 128.84C101.074 128.922 101.08 129.006 101.11 129.084C101.14 129.162 101.192 129.23 101.26 129.276C104.05 131.254 113.266 136.296 120.596 123.082L120.6 123.084Z" fill="white"/>
</g>
</mask>
<g mask="url(#mask7_4443_27878)">
<g id="Group_11">
<path id="Vector_589" d="M109.893 136.3L120.659 131.666V131.9L110.437 136.3H109.893Z" fill="#FFA4A2"/>
<path id="Vector_590" d="M109.351 136.3L120.659 131.432V131.666L109.893 136.3H109.351Z" fill="#FFA5A3"/>
<path id="Vector_591" d="M108.806 136.3L120.658 131.198V131.432L109.35 136.3H108.806Z" fill="#FFA6A4"/>
<path id="Vector_592" d="M108.262 136.3L120.658 130.964V131.198L108.806 136.3H108.262Z" fill="#FFA7A5"/>
<path id="Vector_593" d="M107.718 136.3L120.658 130.73V130.964L108.262 136.3H107.718Z" fill="#FFA8A6"/>
<path id="Vector_594" d="M107.174 136.3L120.658 130.496V130.73L107.718 136.3H107.174Z" fill="#FFA9A7"/>
<path id="Vector_595" d="M106.632 136.3L120.658 130.262V130.496L107.174 136.3H106.632Z" fill="#FFAAA7"/>
<path id="Vector_596" d="M106.088 136.3L120.658 130.028V130.262L106.632 136.3H106.088Z" fill="#FFABA8"/>
<path id="Vector_597" d="M105.544 136.3L120.658 129.794V130.028L106.088 136.3H105.544Z" fill="#FFACA9"/>
<path id="Vector_598" d="M105 136.3L120.658 129.56V129.794L105.544 136.3H105Z" fill="#FFADAA"/>
<path id="Vector_599" d="M104.456 136.3L120.658 129.326V129.56L105 136.3H104.456Z" fill="#FFAEAB"/>
<path id="Vector_600" d="M103.914 136.3L120.658 129.094V129.326L104.456 136.3H103.914Z" fill="#FFAFAC"/>
<path id="Vector_601" d="M103.778 136.3L103.714 136.15L120.658 128.86V129.094L103.914 136.3H103.778Z" fill="#FFB0AC"/>
<path id="Vector_602" d="M103.714 136.15L103.63 135.954L120.658 128.626V128.86L103.714 136.15Z" fill="#FFB1AD"/>
<path id="Vector_603" d="M103.63 135.954L103.544 135.756L120.658 128.392V128.626L103.63 135.954Z" fill="#FFB2AE"/>
<path id="Vector_604" d="M103.544 135.756L103.46 135.558L120.658 128.158V128.392L103.544 135.756Z" fill="#FFB3AF"/>
<path id="Vector_605" d="M103.46 135.558L103.374 135.362L120.658 127.924V128.158L103.46 135.558Z" fill="#FFB4B0"/>
<path id="Vector_606" d="M103.374 135.362L103.29 135.164L120.658 127.69V127.924L103.374 135.362Z" fill="#FFB5B1"/>
<path id="Vector_607" d="M103.29 135.164L103.206 134.966L120.658 127.456V127.69L103.29 135.164Z" fill="#FFB6B1"/>
<path id="Vector_608" d="M103.206 134.966L103.12 134.77L120.658 127.222V127.456L103.206 134.966Z" fill="#FFB7B2"/>
<path id="Vector_609" d="M103.12 134.77L103.036 134.572L120.658 126.988V127.222L103.12 134.77Z" fill="#FFB8B3"/>
<path id="Vector_610" d="M103.036 134.572L102.95 134.374L120.658 126.754V126.988L103.036 134.572Z" fill="#FFB9B4"/>
<path id="Vector_611" d="M102.95 134.374L102.866 134.176L120.658 126.52V126.754L102.95 134.374Z" fill="#FFBAB5"/>
<path id="Vector_612" d="M102.866 134.176L102.78 133.98L120.658 126.286V126.52L102.866 134.176Z" fill="#FFBBB6"/>
<path id="Vector_613" d="M102.78 133.98L102.696 133.782L120.658 126.052V126.286L102.78 133.98Z" fill="#FFBCB7"/>
<path id="Vector_614" d="M102.696 133.782L102.61 133.584L120.658 125.818V126.052L102.696 133.782Z" fill="#FFBDB7"/>
<path id="Vector_615" d="M102.61 133.584L102.526 133.388L120.658 125.584V125.818L102.61 133.584Z" fill="#FFBEB8"/>
<path id="Vector_616" d="M102.526 133.388L102.44 133.19L120.658 125.35V125.584L102.526 133.388Z" fill="#FFBFB9"/>
<path id="Vector_617" d="M102.44 133.19L102.356 132.992L120.658 125.116V125.35L102.44 133.19Z" fill="#FFC1BA"/>
<path id="Vector_618" d="M102.357 132.992L102.271 132.796L120.659 124.882V125.116L102.357 132.992Z" fill="#FFC2BB"/>
<path id="Vector_619" d="M102.271 132.796L102.187 132.598L120.659 124.648V124.882L102.271 132.796Z" fill="#FFC3BC"/>
<path id="Vector_620" d="M102.187 132.598L102.101 132.4L120.659 124.414V124.648L102.187 132.598Z" fill="#FFC4BC"/>
<path id="Vector_621" d="M102.101 132.4L102.017 132.204L120.659 124.18V124.414L102.101 132.4Z" fill="#FFC5BD"/>
<path id="Vector_622" d="M102.016 132.204L101.93 132.006L120.658 123.946V124.18L102.016 132.204Z" fill="#FFC6BE"/>
<path id="Vector_623" d="M101.93 132.006L101.846 131.808L120.658 123.712V123.946L101.93 132.006Z" fill="#FFC7BF"/>
<path id="Vector_624" d="M101.846 131.808L101.76 131.61L120.658 123.478V123.712L101.846 131.808Z" fill="#FFC8C0"/>
<path id="Vector_625" d="M101.76 131.61L101.676 131.414L120.658 123.244V123.478L101.76 131.61Z" fill="#FFC9C1"/>
<path id="Vector_626" d="M101.676 131.414L101.592 131.216L120.658 123.01V123.244L101.676 131.414Z" fill="#FFCAC2"/>
<path id="Vector_627" d="M101.592 131.216L101.506 131.018L120.658 122.776V123.01L101.592 131.216Z" fill="#FFCBC2"/>
<path id="Vector_628" d="M101.506 131.018L101.422 130.822L120.658 122.542V122.776L101.506 131.018Z" fill="#FFCCC3"/>
<path id="Vector_629" d="M101.422 130.822L101.336 130.624L120.658 122.308V122.542L101.422 130.822Z" fill="#FFCDC4"/>
<path id="Vector_630" d="M101.336 130.624L101.252 130.426L120.658 122.074V122.308L101.336 130.624Z" fill="#FFCEC5"/>
<path id="Vector_631" d="M101.252 130.426L101.166 130.23L120.658 121.842V122.074L101.252 130.426Z" fill="#FFCFC6"/>
<path id="Vector_632" d="M101.166 130.23L101.082 130.032L120.596 121.634L120.658 121.778V121.842L101.166 130.23Z" fill="#FFD0C7"/>
<path id="Vector_633" d="M101.082 130.032L101.078 130.026V129.8L120.512 121.436L120.596 121.634L101.082 130.032Z" fill="#FFD1C7"/>
<path id="Vector_634" d="M101.078 129.566L120.426 121.238L120.512 121.436L101.078 129.8V129.566Z" fill="#FFD2C8"/>
<path id="Vector_635" d="M101.078 129.332L120.342 121.042L120.426 121.238L101.078 129.566V129.332Z" fill="#FFD3C9"/>
<path id="Vector_636" d="M101.078 129.098L120.256 120.844L120.342 121.042L101.078 129.332V129.098Z" fill="#FFD4CA"/>
<path id="Vector_637" d="M101.078 128.864L120.172 120.646L120.256 120.844L101.078 129.098V128.864Z" fill="#FFD5CB"/>
<path id="Vector_638" d="M101.078 128.63L120.086 120.45L120.172 120.646L101.078 128.864V128.63Z" fill="#FFD6CC"/>
<path id="Vector_639" d="M101.078 128.396L120.002 120.252L120.086 120.45L101.078 128.63V128.396Z" fill="#FFD7CC"/>
<path id="Vector_640" d="M101.078 128.162L119.916 120.054L120.002 120.252L101.078 128.396V128.162Z" fill="#FFD8CD"/>
<path id="Vector_641" d="M101.078 127.928L119.74 119.896H119.848L119.916 120.054L101.078 128.162V127.928Z" fill="#FFD9CE"/>
<path id="Vector_642" d="M101.078 127.694L119.196 119.896H119.74L101.078 127.928V127.694Z" fill="#FFDACF"/>
<path id="Vector_643" d="M101.078 127.46L118.652 119.896H119.196L101.078 127.694V127.46Z" fill="#FFDBD0"/>
<path id="Vector_644" d="M101.078 127.226L118.108 119.896H118.652L101.078 127.46V127.226Z" fill="#FFDCD1"/>
<path id="Vector_645" d="M101.078 126.992L117.566 119.896H118.108L101.078 127.226V126.992Z" fill="#FFDDD2"/>
<path id="Vector_646" d="M101.078 126.758L117.022 119.896H117.566L101.078 126.992V126.758Z" fill="#FFDED2"/>
<path id="Vector_647" d="M101.078 126.524L116.478 119.896H117.022L101.078 126.758V126.524Z" fill="#FFDFD3"/>
<path id="Vector_648" d="M101.078 126.29L115.934 119.896H116.478L101.078 126.524V126.29Z" fill="#FFE0D4"/>
<path id="Vector_649" d="M101.078 126.056L115.39 119.896H115.934L101.078 126.29V126.056Z" fill="#FFE1D5"/>
<path id="Vector_650" d="M101.078 125.822L114.848 119.896H115.39L101.078 126.056V125.822Z" fill="#FFE2D6"/>
<path id="Vector_651" d="M101.078 125.588L114.304 119.896H114.848L101.078 125.822V125.588Z" fill="#FFE3D7"/>
<path id="Vector_652" d="M101.078 125.354L113.76 119.896H114.304L101.078 125.588V125.354Z" fill="#FFE4D7"/>
<path id="Vector_653" d="M101.078 125.12L113.216 119.896H113.76L101.078 125.354V125.12Z" fill="#FFE5D8"/>
<path id="Vector_654" d="M101.078 124.886L112.672 119.896H113.216L101.078 125.12V124.886Z" fill="#FFE6D9"/>
<path id="Vector_655" d="M101.078 124.652L112.13 119.896H112.672L101.078 124.886V124.652Z" fill="#FFE7DA"/>
<path id="Vector_656" d="M112.13 119.896L101.078 124.652V119.896H112.13Z" fill="#FFE7DA"/>
</g>
</g>
</g>
<g id="Clip path group_9">
<mask id="mask8_4443_27878" style="mask-type:luminance" maskUnits="userSpaceOnUse" x="129" y="117" width="15" height="8">
<g id="clippath-8">
<path id="Vector_657" d="M130.008 118.828C129.988 118.794 129.976 118.754 129.974 118.712C129.97 118.672 129.974 118.632 129.99 118.592C130.004 118.554 130.024 118.52 130.054 118.49C130.082 118.462 130.116 118.438 130.154 118.424C131.25 117.986 135.128 116.688 137.246 119.302C138.666 121.022 140.672 122.156 142.878 122.484C142.936 122.49 142.992 122.512 143.036 122.552C143.08 122.59 143.112 122.642 143.124 122.7C143.138 122.758 143.132 122.818 143.11 122.872C143.086 122.926 143.048 122.972 142.998 123.002C141.128 124.34 134.934 127.724 130.012 118.828H130.008Z" fill="white"/>
</g>
</mask>
<g mask="url(#mask8_4443_27878)">
<g id="Group_12">
<path id="Vector_658" d="M135.905 127.724L143.135 124.608V124.766L136.271 127.724H135.905Z" fill="#FFA4A2"/>
<path id="Vector_659" d="M135.54 127.724L143.136 124.45V124.608L135.906 127.724H135.54Z" fill="#FFA5A3"/>
<path id="Vector_660" d="M135.174 127.724L143.136 124.292V124.45L135.54 127.724H135.174Z" fill="#FFA6A4"/>
<path id="Vector_661" d="M134.81 127.724L143.136 124.136V124.292L135.174 127.724H134.81Z" fill="#FFA7A5"/>
<path id="Vector_662" d="M134.443 127.724L143.135 123.978V124.136L134.809 127.724H134.443Z" fill="#FFA8A6"/>
<path id="Vector_663" d="M134.078 127.724L143.136 123.82V123.978L134.444 127.724H134.078Z" fill="#FFA9A7"/>
<path id="Vector_664" d="M133.712 127.724L143.136 123.662V123.82L134.078 127.724H133.712Z" fill="#FFAAA7"/>
<path id="Vector_665" d="M133.4 127.724L133.392 127.704L143.136 123.506V123.662L133.712 127.724H133.4Z" fill="#FFABA8"/>
<path id="Vector_666" d="M133.392 127.704L133.336 127.57L143.136 123.348V123.506L133.392 127.704Z" fill="#FFACA9"/>
<path id="Vector_667" d="M133.335 127.57L133.277 127.438L143.135 123.19V123.348L133.335 127.57Z" fill="#FFADAA"/>
<path id="Vector_668" d="M133.278 127.438L133.22 127.306L143.136 123.032V123.19L133.278 127.438Z" fill="#FFAEAB"/>
<path id="Vector_669" d="M133.22 127.306L133.164 127.172L143.136 122.876V123.032L133.22 127.306Z" fill="#FFAFAC"/>
<path id="Vector_670" d="M133.163 127.172L133.105 127.04L143.135 122.718V122.876L133.163 127.172Z" fill="#FFB0AC"/>
<path id="Vector_671" d="M133.106 127.04L133.048 126.906L143.136 122.56V122.718L133.106 127.04Z" fill="#FFB1AD"/>
<path id="Vector_672" d="M133.048 126.906L132.992 126.774L143.136 122.402V122.56L133.048 126.906Z" fill="#FFB2AE"/>
<path id="Vector_673" d="M132.992 126.774L132.934 126.642L143.136 122.246V122.402L132.992 126.774Z" fill="#FFB3AF"/>
<path id="Vector_674" d="M132.934 126.642L132.878 126.508L143.136 122.088V122.246L132.934 126.642Z" fill="#FFB4B0"/>
<path id="Vector_675" d="M132.877 126.508L132.819 126.376L143.135 121.93V122.088L132.877 126.508Z" fill="#FFB5B1"/>
<path id="Vector_676" d="M132.82 126.376L132.762 126.242L143.136 121.772V121.93L132.82 126.376Z" fill="#FFB6B1"/>
<path id="Vector_677" d="M132.762 126.242L132.706 126.11L143.108 121.628L143.136 121.694V121.772L132.762 126.242Z" fill="#FFB7B2"/>
<path id="Vector_678" d="M143.048 121.499L132.646 125.981L132.703 126.113L143.105 121.631L143.048 121.499Z" fill="#FFB8B3"/>
<path id="Vector_679" d="M142.992 121.366L132.591 125.848L132.648 125.98L143.049 121.498L142.992 121.366Z" fill="#FFB9B4"/>
<path id="Vector_680" d="M142.934 121.234L132.532 125.715L132.589 125.848L142.991 121.366L142.934 121.234Z" fill="#FFBAB5"/>
<path id="Vector_681" d="M142.876 121.101L132.475 125.583L132.532 125.715L142.933 121.233L142.876 121.101Z" fill="#FFBBB6"/>
<path id="Vector_682" d="M142.82 120.966L132.419 125.448L132.476 125.58L142.877 121.099L142.82 120.966Z" fill="#FFBCB7"/>
<path id="Vector_683" d="M142.763 120.834L132.361 125.316L132.418 125.448L142.82 120.966L142.763 120.834Z" fill="#FFBDB7"/>
<path id="Vector_684" d="M142.705 120.703L132.304 125.185L132.361 125.317L142.762 120.835L142.705 120.703Z" fill="#FFBEB8"/>
<path id="Vector_685" d="M142.647 120.569L132.245 125.051L132.302 125.183L142.704 120.701L142.647 120.569Z" fill="#FFBFB9"/>
<path id="Vector_686" d="M142.589 120.437L132.188 124.918L132.244 125.051L142.646 120.569L142.589 120.437Z" fill="#FFC1BA"/>
<path id="Vector_687" d="M142.532 120.302L132.131 124.784L132.188 124.916L142.589 120.434L142.532 120.302Z" fill="#FFC2BB"/>
<path id="Vector_688" d="M142.475 120.172L132.073 124.653L132.13 124.786L142.532 120.304L142.475 120.172Z" fill="#FFC3BC"/>
<path id="Vector_689" d="M142.417 120.038L132.016 124.519L132.073 124.652L142.474 120.17L142.417 120.038Z" fill="#FFC4BC"/>
<path id="Vector_690" d="M142.362 119.904L131.96 124.386L132.017 124.518L142.418 120.037L142.362 119.904Z" fill="#FFC5BD"/>
<path id="Vector_691" d="M142.304 119.772L131.902 124.254L131.959 124.386L142.361 119.904L142.304 119.772Z" fill="#FFC6BE"/>
<path id="Vector_692" d="M142.247 119.639L131.846 124.121L131.903 124.253L142.304 119.772L142.247 119.639Z" fill="#FFC7BF"/>
<path id="Vector_693" d="M142.19 119.507L131.788 123.989L131.845 124.121L142.247 119.639L142.19 119.507Z" fill="#FFC8C0"/>
<path id="Vector_694" d="M142.131 119.373L131.729 123.854L131.786 123.987L142.188 119.505L142.131 119.373Z" fill="#FFC9C1"/>
<path id="Vector_695" d="M142.075 119.242L131.674 123.724L131.731 123.856L142.132 119.374L142.075 119.242Z" fill="#FFCAC2"/>
<path id="Vector_696" d="M142.018 119.108L131.616 123.589L131.673 123.722L142.075 119.24L142.018 119.108Z" fill="#FFCBC2"/>
<path id="Vector_697" d="M141.962 118.975L131.561 123.456L131.618 123.589L142.019 119.107L141.962 118.975Z" fill="#FFCCC3"/>
<path id="Vector_698" d="M141.904 118.842L131.503 123.324L131.56 123.456L141.961 118.974L141.904 118.842Z" fill="#FFCDC4"/>
<path id="Vector_699" d="M141.846 118.71L131.444 123.192L131.501 123.324L141.903 118.842L141.846 118.71Z" fill="#FFCEC5"/>
<path id="Vector_700" d="M141.79 118.577L131.389 123.059L131.446 123.191L141.847 118.709L141.79 118.577Z" fill="#FFCFC6"/>
<path id="Vector_701" d="M141.732 118.443L131.33 122.925L131.387 123.057L141.789 118.575L141.732 118.443Z" fill="#FFD0C7"/>
<path id="Vector_702" d="M141.675 118.311L131.273 122.792L131.33 122.925L141.732 118.443L141.675 118.311Z" fill="#FFD1C7"/>
<path id="Vector_703" d="M141.619 118.18L131.218 122.661L131.275 122.794L141.676 118.312L141.619 118.18Z" fill="#FFD2C8"/>
<path id="Vector_704" d="M141.559 118.046L131.157 122.527L131.214 122.66L141.616 118.178L141.559 118.046Z" fill="#FFD3C9"/>
<path id="Vector_705" d="M141.503 117.913L131.102 122.394L131.159 122.527L141.56 118.045L141.503 117.913Z" fill="#FFD4CA"/>
<path id="Vector_706" d="M141.445 117.778L131.043 122.26L131.1 122.393L141.501 117.911L141.445 117.778Z" fill="#FFD5CB"/>
<path id="Vector_707" d="M141.387 117.648L130.985 122.13L131.042 122.262L141.444 117.78L141.387 117.648Z" fill="#FFD6CC"/>
<path id="Vector_708" d="M141.33 117.513L130.929 121.995L130.986 122.127L141.387 117.645L141.33 117.513Z" fill="#FFD7CC"/>
<path id="Vector_709" d="M141.274 117.381L130.872 121.863L130.929 121.995L141.331 117.513L141.274 117.381Z" fill="#FFD8CD"/>
<path id="Vector_710" d="M141.216 117.249L130.814 121.73L130.871 121.863L141.273 117.381L141.216 117.249Z" fill="#FFD9CE"/>
<path id="Vector_711" d="M141.159 117.116L130.758 121.597L130.815 121.73L141.216 117.248L141.159 117.116Z" fill="#FFDACF"/>
<path id="Vector_712" d="M141.102 116.984L130.7 121.465L130.757 121.598L141.159 117.116L141.102 116.984Z" fill="#FFDBD0"/>
<path id="Vector_713" d="M141.045 116.849L130.644 121.33L130.701 121.463L141.102 116.981L141.045 116.849Z" fill="#FFDCD1"/>
<path id="Vector_714" d="M140.987 116.716L130.586 121.198L130.643 121.33L141.044 116.848L140.987 116.716Z" fill="#FFDDD2"/>
<path id="Vector_715" d="M130.587 121.194L130.529 121.062L140.679 116.69H140.979L140.989 116.712L130.587 121.194Z" fill="#FFDED2"/>
<path id="Vector_716" d="M130.53 121.062L130.474 120.93L140.314 116.69H140.68L130.53 121.062Z" fill="#FFDFD3"/>
<path id="Vector_717" d="M130.474 120.93L130.416 120.796L139.948 116.69H140.314L130.474 120.93Z" fill="#FFE0D4"/>
<path id="Vector_718" d="M130.415 120.796L130.357 120.664L139.581 116.69H139.947L130.415 120.796Z" fill="#FFE1D5"/>
<path id="Vector_719" d="M130.358 120.664L130.302 120.53L139.218 116.69H139.582L130.358 120.664Z" fill="#FFE2D6"/>
<path id="Vector_720" d="M130.302 120.53L130.244 120.398L138.852 116.69H139.218L130.302 120.53Z" fill="#FFE3D7"/>
<path id="Vector_721" d="M130.244 120.398L130.186 120.266L138.486 116.69H138.852L130.244 120.398Z" fill="#FFE4D7"/>
<path id="Vector_722" d="M130.186 120.266L130.13 120.132L138.12 116.69H138.486L130.186 120.266Z" fill="#FFE5D8"/>
<path id="Vector_723" d="M130.129 120.132L130.071 120L137.753 116.69H138.119L130.129 120.132Z" fill="#FFE6D9"/>
<path id="Vector_724" d="M130.072 120L130.016 119.866L137.39 116.69H137.754L130.072 120Z" fill="#FFE7DA"/>
<path id="Vector_725" d="M130.016 119.866L129.97 119.76V116.69H137.39L130.016 119.866Z" fill="#FFE7DA"/>
</g>
</g>
</g>
</g>
<g id="Group_13">
<g id="Clip path group_10">
<mask id="mask9_4443_27878" style="mask-type:luminance" maskUnits="userSpaceOnUse" x="12" y="98" width="17" height="10">
<g id="clippath-9">
<path id="Vector_726" d="M28.6059 100.002C28.6299 99.96 28.6439 99.912 28.6479 99.864C28.6519 99.816 28.6459 99.766 28.6299 99.722C28.6139 99.676 28.5879 99.634 28.5539 99.6C28.5199 99.564 28.4799 99.536 28.4359 99.518C27.1299 99.002 22.4859 97.452 19.9479 100.552C18.2559 102.606 15.8639 103.962 13.2319 104.36C13.1659 104.37 13.1039 104.398 13.0539 104.442C13.0039 104.488 12.9699 104.546 12.9539 104.61C12.9379 104.674 12.9419 104.744 12.9659 104.806C12.9899 104.868 13.0319 104.922 13.0859 104.96C15.3119 106.572 22.7159 110.622 28.6039 100.006L28.6059 100.002Z" fill="white"/>
</g>
</mask>
<g mask="url(#mask9_4443_27878)">
<g id="Group_14">
<path id="Vector_727" d="M19.999 110.618L28.651 106.894V107.08L20.435 110.618H19.999Z" fill="#FFA4A2"/>
<path id="Vector_728" d="M19.5635 110.618L28.6515 106.706V106.894L19.9995 110.618H19.5635Z" fill="#FFA5A3"/>
<path id="Vector_729" d="M19.1279 110.618L28.6519 106.518V106.706L19.5639 110.618H19.1279Z" fill="#FFA6A4"/>
<path id="Vector_730" d="M18.6914 110.618L28.6514 106.33V106.518L19.1274 110.618H18.6914Z" fill="#FFA7A5"/>
<path id="Vector_731" d="M18.2559 110.618L28.6519 106.142V106.33L18.6919 110.618H18.2559Z" fill="#FFA8A6"/>
<path id="Vector_732" d="M17.8193 110.618L28.6513 105.954V106.142L18.2553 110.618H17.8193Z" fill="#FFA9A7"/>
<path id="Vector_733" d="M17.3838 110.618L28.6518 105.766V105.954L17.8198 110.618H17.3838Z" fill="#FFAAA7"/>
<path id="Vector_734" d="M16.9473 110.618L28.6513 105.578V105.766L17.3833 110.618H16.9473Z" fill="#FFABA8"/>
<path id="Vector_735" d="M16.5098 110.618L28.6518 105.39V105.578L16.9478 110.618H16.5098Z" fill="#FFACA9"/>
<path id="Vector_736" d="M16.0732 110.618L28.6512 105.202V105.39L16.5092 110.618H16.0732Z" fill="#FFADAA"/>
<path id="Vector_737" d="M15.6377 110.618L28.6517 105.014V105.202L16.0737 110.618H15.6377Z" fill="#FFAEAB"/>
<path id="Vector_738" d="M15.2012 110.618L28.6512 104.828V105.014L15.6372 110.618H15.2012Z" fill="#FFAFAC"/>
<path id="Vector_739" d="M15.0313 110.618L14.9893 110.52L28.6513 104.64V104.828L15.2013 110.618H15.0313Z" fill="#FFB0AC"/>
<path id="Vector_740" d="M14.9899 110.52L14.9219 110.362L28.6519 104.452V104.64L14.9899 110.52Z" fill="#FFB1AD"/>
<path id="Vector_741" d="M14.9215 110.362L14.8535 110.204L28.6515 104.264V104.452L14.9215 110.362Z" fill="#FFB2AE"/>
<path id="Vector_742" d="M14.8532 110.204L14.7852 110.046L28.6512 104.076V104.264L14.8532 110.204Z" fill="#FFB3AF"/>
<path id="Vector_743" d="M14.7858 110.046L14.7178 109.888L28.6518 103.888V104.076L14.7858 110.046Z" fill="#FFB4B0"/>
<path id="Vector_744" d="M14.7174 109.888L14.6494 109.728L28.6514 103.7V103.888L14.7174 109.888Z" fill="#FFB5B1"/>
<path id="Vector_745" d="M14.6491 109.728L14.5811 109.57L28.6511 103.512V103.7L14.6491 109.728Z" fill="#FFB6B1"/>
<path id="Vector_746" d="M14.5817 109.57L14.5137 109.412L28.6517 103.324V103.512L14.5817 109.57Z" fill="#FFB7B2"/>
<path id="Vector_747" d="M14.5133 109.412L14.4453 109.254L28.6513 103.136V103.324L14.5133 109.412Z" fill="#FFB8B3"/>
<path id="Vector_748" d="M14.445 109.254L14.375 109.094L28.651 102.95V103.136L14.445 109.254Z" fill="#FFB9B4"/>
<path id="Vector_749" d="M14.3756 109.094L14.3076 108.936L28.6516 102.762V102.95L14.3756 109.094Z" fill="#FFBAB5"/>
<path id="Vector_750" d="M14.3073 108.936L14.2393 108.778L28.6513 102.574V102.762L14.3073 108.936Z" fill="#FFBBB6"/>
<path id="Vector_751" d="M14.2399 108.778L14.1719 108.62L28.6519 102.386V102.574L14.2399 108.778Z" fill="#FFBCB7"/>
<path id="Vector_752" d="M14.1715 108.62L14.1035 108.462L28.6515 102.198V102.386L14.1715 108.62Z" fill="#FFBDB7"/>
<path id="Vector_753" d="M14.1032 108.462L14.0352 108.302L28.6512 102.01V102.198L14.1032 108.462Z" fill="#FFBEB8"/>
<path id="Vector_754" d="M14.0358 108.302L13.9678 108.144L28.6518 101.822V102.01L14.0358 108.302Z" fill="#FFBFB9"/>
<path id="Vector_755" d="M13.9674 108.144L13.8994 107.986L28.6514 101.634V101.822L13.9674 108.144Z" fill="#FFC1BA"/>
<path id="Vector_756" d="M13.8991 107.986L13.8311 107.828L28.6511 101.446V101.634L13.8991 107.986Z" fill="#FFC2BB"/>
<path id="Vector_757" d="M13.8317 107.828L13.7617 107.668L28.6517 101.258V101.446L13.8317 107.828Z" fill="#FFC3BC"/>
<path id="Vector_758" d="M13.7614 107.668L13.6934 107.51L28.6514 101.07V101.258L13.7614 107.668Z" fill="#FFC4BC"/>
<path id="Vector_759" d="M13.693 107.51L13.625 107.352L28.651 100.884V101.07L13.693 107.51Z" fill="#FFC5BD"/>
<path id="Vector_760" d="M13.6256 107.352L13.5576 107.194L28.6516 100.696V100.884L13.6256 107.352Z" fill="#FFC6BE"/>
<path id="Vector_761" d="M13.5573 107.194L13.4893 107.036L28.6513 100.508V100.696L13.5573 107.194Z" fill="#FFC7BF"/>
<path id="Vector_762" d="M13.4899 107.036L13.4219 106.876L28.6519 100.32V100.508L13.4899 107.036Z" fill="#FFC8C0"/>
<path id="Vector_763" d="M13.4215 106.876L13.3535 106.718L28.6515 100.132V100.32L13.4215 106.876Z" fill="#FFC9C1"/>
<path id="Vector_764" d="M13.3532 106.718L13.2852 106.56L28.6512 99.9438V100.132L13.3532 106.718Z" fill="#FFCAC2"/>
<path id="Vector_765" d="M13.2858 106.56L13.2178 106.402L28.6518 99.7559V99.9438L13.2858 106.56Z" fill="#FFCBC2"/>
<path id="Vector_766" d="M13.2175 106.402L13.1475 106.242L28.6515 99.5679V99.7559L13.2175 106.402Z" fill="#FFCCC3"/>
<path id="Vector_767" d="M13.1471 106.242L13.0791 106.084L28.6511 99.3799V99.5679L13.1471 106.242Z" fill="#FFCDC4"/>
<path id="Vector_768" d="M13.0797 106.084L13.0117 105.926L28.6517 99.1919V99.3799L13.0797 106.084Z" fill="#FFCEC5"/>
<path id="Vector_769" d="M13.0114 105.926L12.9434 105.768L28.6514 99.0059V99.1919L13.0114 105.926Z" fill="#FFCFC6"/>
<path id="Vector_770" d="M12.9435 105.768L12.9395 105.756V105.582L28.6515 98.8179V99.0059L12.9435 105.768Z" fill="#FFD0C7"/>
<path id="Vector_771" d="M12.9395 105.394L28.6055 98.6479L28.6515 98.754V98.818L12.9395 105.582V105.394Z" fill="#FFD1C7"/>
<path id="Vector_772" d="M12.9395 105.206L28.5375 98.49L28.6055 98.648L12.9395 105.394V105.206Z" fill="#FFD2C8"/>
<path id="Vector_773" d="M12.9395 105.018L28.4695 98.332L28.5375 98.49L12.9395 105.206V105.018Z" fill="#FFD3C9"/>
<path id="Vector_774" d="M12.9395 104.83L28.4015 98.1738L28.4695 98.3318L12.9395 105.018V104.83Z" fill="#FFD4CA"/>
<path id="Vector_775" d="M12.9395 104.642L28.3335 98.0139L28.4015 98.1739L12.9395 104.83V104.642Z" fill="#FFD5CB"/>
<path id="Vector_776" d="M12.9395 104.456L28.2655 97.856L28.3335 98.014L12.9395 104.642V104.456Z" fill="#FFD6CC"/>
<path id="Vector_777" d="M12.9395 104.268L28.1975 97.698L28.2655 97.856L12.9395 104.456V104.268Z" fill="#FFD7CC"/>
<path id="Vector_778" d="M12.9395 104.08L28.1295 97.54L28.1975 97.698L12.9395 104.268V104.08Z" fill="#FFD8CD"/>
<path id="Vector_779" d="M12.9395 103.892L27.9015 97.45H28.0895L28.1295 97.54L12.9395 104.08V103.892Z" fill="#FFD9CE"/>
<path id="Vector_780" d="M12.9395 103.704L27.4655 97.45H27.9015L12.9395 103.892V103.704Z" fill="#FFDACF"/>
<path id="Vector_781" d="M12.9395 103.516L27.0295 97.45H27.4655L12.9395 103.704V103.516Z" fill="#FFDBD0"/>
<path id="Vector_782" d="M12.9395 103.328L26.5935 97.45H27.0295L12.9395 103.516V103.328Z" fill="#FFDCD1"/>
<path id="Vector_783" d="M12.9395 103.14L26.1575 97.45H26.5935L12.9395 103.328V103.14Z" fill="#FFDDD2"/>
<path id="Vector_784" d="M12.9395 102.952L25.7195 97.45H26.1575L12.9395 103.14V102.952Z" fill="#FFDED2"/>
<path id="Vector_785" d="M12.9395 102.764L25.2835 97.45H25.7195L12.9395 102.952V102.764Z" fill="#FFDFD3"/>
<path id="Vector_786" d="M12.9395 102.578L24.8475 97.45H25.2835L12.9395 102.764V102.578Z" fill="#FFE0D4"/>
<path id="Vector_787" d="M12.9395 102.39L24.4115 97.45H24.8475L12.9395 102.578V102.39Z" fill="#FFE1D5"/>
<path id="Vector_788" d="M12.9395 102.202L23.9755 97.45H24.4115L12.9395 102.39V102.202Z" fill="#FFE2D6"/>
<path id="Vector_789" d="M12.9395 102.014L23.5395 97.45H23.9755L12.9395 102.202V102.014Z" fill="#FFE3D7"/>
<path id="Vector_790" d="M12.9395 101.826L23.1035 97.45H23.5395L12.9395 102.014V101.826Z" fill="#FFE4D7"/>
<path id="Vector_791" d="M12.9395 101.638L22.6675 97.45H23.1035L12.9395 101.826V101.638Z" fill="#FFE5D8"/>
<path id="Vector_792" d="M12.9395 101.45L22.2315 97.45H22.6675L12.9395 101.638V101.45Z" fill="#FFE6D9"/>
<path id="Vector_793" d="M12.9395 101.262L21.7935 97.45H22.2315L12.9395 101.45V101.262Z" fill="#FFE7DA"/>
<path id="Vector_794" d="M21.7935 97.45L12.9395 101.262V97.45H21.7935Z" fill="#FFE7DA"/>
</g>
</g>
</g>
<g id="Clip path group_11">
<mask id="mask10_4443_27878" style="mask-type:luminance" maskUnits="userSpaceOnUse" x="-1" y="81" width="23" height="12">
<g id="clippath-10">
<path id="Vector_795" d="M0.0118161 83.0341C-0.0201839 82.9741 -0.0401837 82.9101 -0.0441837 82.8421C-0.0501837 82.7761 -0.0401827 82.7081 -0.0181827 82.6441C0.00381728 82.5801 0.0398166 82.5221 0.0858166 82.4741C0.131817 82.4261 0.187817 82.3861 0.249817 82.3601C2.05782 81.6421 8.45782 79.5041 11.9558 83.8121C14.2978 86.6521 17.6118 88.5241 21.2538 89.0601C21.3458 89.0741 21.4298 89.1141 21.4978 89.1761C21.5658 89.2381 21.6138 89.3201 21.6338 89.4101C21.6558 89.5001 21.6478 89.5941 21.6158 89.6801C21.5838 89.7661 21.5258 89.8401 21.4498 89.8921C18.3458 92.0821 8.13181 97.6721 0.0118161 83.0321V83.0341Z" fill="white"/>
</g>
</mask>
<g mask="url(#mask10_4443_27878)">
<g id="Group_15">
<path id="Vector_796" d="M9.70996 97.6741L21.656 92.5381V92.7961L10.312 97.6741H9.70996Z" fill="#FFA4A2"/>
<path id="Vector_797" d="M9.1084 97.6741L21.6564 92.2781V92.5381L9.7104 97.6741H9.1084Z" fill="#FFA5A3"/>
<path id="Vector_798" d="M8.50586 97.674L21.6559 92.02V92.278L9.10786 97.674H8.50586Z" fill="#FFA6A4"/>
<path id="Vector_799" d="M7.90234 97.674L21.6563 91.76V92.02L8.50634 97.674H7.90234Z" fill="#FFA7A5"/>
<path id="Vector_800" d="M7.2998 97.6742L21.6558 91.5022V91.7602L7.9018 97.6742H7.2998Z" fill="#FFA8A6"/>
<path id="Vector_801" d="M6.69824 97.6742L21.6562 91.2422V91.5022L7.30024 97.6742H6.69824Z" fill="#FFA9A7"/>
<path id="Vector_802" d="M6.09375 97.6742L21.6557 90.9822V91.2422L6.69775 97.6742H6.09375Z" fill="#FFAAA7"/>
<path id="Vector_803" d="M5.86464 97.6741L5.80664 97.5381L21.6566 90.7241V90.9821L6.09464 97.6741H5.86464Z" fill="#FFABA8"/>
<path id="Vector_804" d="M5.80591 97.5381L5.71191 97.3201L21.6559 90.4641V90.7241L5.80591 97.5381Z" fill="#FFACA9"/>
<path id="Vector_805" d="M5.71216 97.32L5.61816 97.1021L21.6562 90.2061V90.4641L5.71216 97.32Z" fill="#FFADAA"/>
<path id="Vector_806" d="M5.61841 97.1021L5.52441 96.882L21.6564 89.946V90.2061L5.61841 97.1021Z" fill="#FFAEAB"/>
<path id="Vector_807" d="M5.52466 96.882L5.43066 96.664L21.6567 89.688V89.946L5.52466 96.882Z" fill="#FFAFAC"/>
<path id="Vector_808" d="M5.42994 96.6642L5.33594 96.4462L21.6559 89.4282V89.6882L5.42994 96.6642Z" fill="#FFB0AC"/>
<path id="Vector_809" d="M5.33619 96.4462L5.24219 96.2262L21.6562 89.1702V89.4282L5.33619 96.4462Z" fill="#FFB1AD"/>
<path id="Vector_810" d="M5.24244 96.2262L5.14844 96.0082L21.6564 88.9102V89.1702L5.24244 96.2262Z" fill="#FFB2AE"/>
<path id="Vector_811" d="M5.14771 96.0081L5.05371 95.7901L21.6557 88.6501V88.9101L5.14771 96.0081Z" fill="#FFB3AF"/>
<path id="Vector_812" d="M5.05396 95.7901L4.95996 95.57L21.65 88.394L21.656 88.408V88.65L5.05396 95.7901Z" fill="#FFB4B0"/>
<path id="Vector_813" d="M21.5584 88.1724L4.87012 95.3491L4.96414 95.5678L21.6524 88.391L21.5584 88.1724Z" fill="#FFB5B1"/>
<path id="Vector_814" d="M21.4636 87.9551L4.77539 95.1318L4.86942 95.3505L21.5577 88.1737L21.4636 87.9551Z" fill="#FFB6B1"/>
<path id="Vector_815" d="M21.3699 87.7341L4.68164 94.9109L4.77567 95.1295L21.4639 87.9528L21.3699 87.7341Z" fill="#FFB7B2"/>
<path id="Vector_816" d="M21.2761 87.5171L4.58789 94.6938L4.68192 94.9125L21.3702 87.7357L21.2761 87.5171Z" fill="#FFB8B3"/>
<path id="Vector_817" d="M21.1834 87.2979L4.49512 94.4746L4.58914 94.6932L21.2774 87.5165L21.1834 87.2979Z" fill="#FFB9B4"/>
<path id="Vector_818" d="M21.0877 87.0789L4.39941 94.2556L4.49344 94.4743L21.1817 87.2975L21.0877 87.0789Z" fill="#FFBAB5"/>
<path id="Vector_819" d="M20.9939 86.8599L4.30566 94.0366L4.39969 94.2553L21.0879 87.0785L20.9939 86.8599Z" fill="#FFBBB6"/>
<path id="Vector_820" d="M20.9011 86.6426L4.21289 93.8193L4.30692 94.038L20.9952 86.8612L20.9011 86.6426Z" fill="#FFBCB7"/>
<path id="Vector_821" d="M20.8054 86.4216L4.11719 93.5984L4.21121 93.817L20.8995 86.6403L20.8054 86.4216Z" fill="#FFBDB7"/>
<path id="Vector_822" d="M20.7117 86.2046L4.02344 93.3813L4.11746 93.6L20.8057 86.4232L20.7117 86.2046Z" fill="#FFBEB8"/>
<path id="Vector_823" d="M20.6189 85.9876L3.93066 93.1643L4.02469 93.3829L20.7129 86.2062L20.6189 85.9876Z" fill="#FFBFB9"/>
<path id="Vector_824" d="M20.5232 85.7664L3.83496 92.9431L3.92899 93.1618L20.6172 85.985L20.5232 85.7664Z" fill="#FFC1BA"/>
<path id="Vector_825" d="M20.4295 85.5493L3.74121 92.7261L3.83524 92.9447L20.5235 85.768L20.4295 85.5493Z" fill="#FFC2BB"/>
<path id="Vector_826" d="M20.3367 85.3301L3.64844 92.5068L3.74246 92.7255L20.4307 85.5487L20.3367 85.3301Z" fill="#FFC3BC"/>
<path id="Vector_827" d="M20.241 85.1113L3.55273 92.2881L3.64676 92.5067L20.335 85.33L20.241 85.1113Z" fill="#FFC4BC"/>
<path id="Vector_828" d="M20.1492 84.8921L3.46094 92.0688L3.55496 92.2875L20.2432 85.1107L20.1492 84.8921Z" fill="#FFC5BD"/>
<path id="Vector_829" d="M20.0545 84.6751L3.36621 91.8518L3.46023 92.0704L20.1485 84.8937L20.0545 84.6751Z" fill="#FFC6BE"/>
<path id="Vector_830" d="M19.9588 84.4541L3.27051 91.6309L3.36453 91.8495L20.0528 84.6728L19.9588 84.4541Z" fill="#FFC7BF"/>
<path id="Vector_831" d="M19.867 84.2368L3.17871 91.4136L3.27274 91.6322L19.961 84.4555L19.867 84.2368Z" fill="#FFC8C0"/>
<path id="Vector_832" d="M19.7722 84.0178L3.08398 91.1946L3.17801 91.4132L19.8663 84.2365L19.7722 84.0178Z" fill="#FFC9C1"/>
<path id="Vector_833" d="M19.6765 83.7988L2.98828 90.9756L3.08231 91.1942L19.7706 84.0175L19.6765 83.7988Z" fill="#FFCAC2"/>
<path id="Vector_834" d="M19.5847 83.5796L2.89648 90.7563L2.99051 90.975L19.6788 83.7982L19.5847 83.5796Z" fill="#FFCBC2"/>
<path id="Vector_835" d="M19.49 83.3626L2.80176 90.5393L2.89578 90.7579L19.584 83.5812L19.49 83.3626Z" fill="#FFCCC3"/>
<path id="Vector_836" d="M19.3963 83.1436L2.70801 90.3203L2.80203 90.539L19.4903 83.3622L19.3963 83.1436Z" fill="#FFCDC4"/>
<path id="Vector_837" d="M19.3025 82.9243L2.61426 90.1011L2.70828 90.3197L19.3965 83.143L19.3025 82.9243Z" fill="#FFCEC5"/>
<path id="Vector_838" d="M19.2078 82.7073L2.51953 89.884L2.61356 90.1027L19.3018 82.9259L19.2078 82.7073Z" fill="#FFCFC6"/>
<path id="Vector_839" d="M19.114 82.4863L2.42578 89.6631L2.51981 89.8817L19.2081 82.705L19.114 82.4863Z" fill="#FFD0C7"/>
<path id="Vector_840" d="M19.0203 82.2693L2.33203 89.446L2.42606 89.6647L19.1143 82.4879L19.0203 82.2693Z" fill="#FFD1C7"/>
<path id="Vector_841" d="M18.9246 82.0484L2.23633 89.2251L2.33035 89.4437L19.0186 82.267L18.9246 82.0484Z" fill="#FFD2C8"/>
<path id="Vector_842" d="M18.8318 81.8311L2.14355 89.0078L2.23758 89.2265L18.9258 82.0497L18.8318 81.8311Z" fill="#FFD3C9"/>
<path id="Vector_843" d="M18.7381 81.6121L2.0498 88.7888L2.14383 89.0075L18.8321 81.8307L18.7381 81.6121Z" fill="#FFD4CA"/>
<path id="Vector_844" d="M18.6424 81.3931L1.9541 88.5698L2.04813 88.7885L18.7364 81.6117L18.6424 81.3931Z" fill="#FFD5CB"/>
<path id="Vector_845" d="M18.5496 81.1738L1.86133 88.3506L1.95535 88.5692L18.6436 81.3925L18.5496 81.1738Z" fill="#FFD6CC"/>
<path id="Vector_846" d="M18.4558 80.9568L1.76758 88.1335L1.8616 88.3522L18.5499 81.1754L18.4558 80.9568Z" fill="#FFD7CC"/>
<path id="Vector_847" d="M18.3621 80.7359L1.67383 87.9126L1.76785 88.1312L18.4561 80.9545L18.3621 80.7359Z" fill="#FFD8CD"/>
<path id="Vector_848" d="M18.2674 80.5186L1.5791 87.6953L1.67313 87.914L18.3614 80.7372L18.2674 80.5186Z" fill="#FFD9CE"/>
<path id="Vector_849" d="M18.1736 80.2996L1.48535 87.4763L1.57938 87.695L18.2676 80.5182L18.1736 80.2996Z" fill="#FFDACF"/>
<path id="Vector_850" d="M18.0799 80.0806L1.3916 87.2573L1.48563 87.476L18.1739 80.2992L18.0799 80.0806Z" fill="#FFDBD0"/>
<path id="Vector_851" d="M17.9851 79.8633L1.29688 87.04L1.3909 87.2587L18.0792 80.0819L17.9851 79.8633Z" fill="#FFDCD1"/>
<path id="Vector_852" d="M17.8914 79.6443L1.20312 86.821L1.29715 87.0397L17.9854 79.8629L17.8914 79.6443Z" fill="#FFDDD2"/>
<path id="Vector_853" d="M1.20045 86.8241L1.10645 86.6041L17.6164 79.5061H17.8284L17.8884 79.6461L1.20045 86.8241Z" fill="#FFDED2"/>
<path id="Vector_854" d="M1.10572 86.6041L1.01172 86.3861L17.0117 79.5061H17.6157L1.10572 86.6041Z" fill="#FFDFD3"/>
<path id="Vector_855" d="M1.01201 86.3861L0.916016 86.1681L16.41 79.5061H17.012L1.01201 86.3861Z" fill="#FFE0D4"/>
<path id="Vector_856" d="M0.916266 86.1681L0.822266 85.9481L15.8083 79.5061H16.4103L0.916266 86.1681Z" fill="#FFE1D5"/>
<path id="Vector_857" d="M0.822516 85.9481L0.728516 85.7301L15.2045 79.5061H15.8085L0.822516 85.9481Z" fill="#FFE2D6"/>
<path id="Vector_858" d="M0.727789 85.7301L0.633789 85.5121L14.6018 79.5061H15.2038L0.727789 85.7301Z" fill="#FFE3D7"/>
<path id="Vector_859" d="M0.634039 85.5121L0.540039 85.2921L14 79.5061H14.602L0.634039 85.5121Z" fill="#FFE4D7"/>
<path id="Vector_860" d="M0.540288 85.2921L0.446289 85.0741L13.3983 79.5061H14.0003L0.540288 85.2921Z" fill="#FFE5D8"/>
<path id="Vector_861" d="M0.446539 85.0741L0.352539 84.8561L12.7945 79.5061H13.3985L0.446539 85.0741Z" fill="#FFE6D9"/>
<path id="Vector_862" d="M0.351813 84.8561L0.257812 84.6361L12.1918 79.5061H12.7938L0.351813 84.8561Z" fill="#FFE7DA"/>
<path id="Vector_863" d="M0.258195 84.6361L-0.0498047 83.9181V79.5061H12.1922L0.258195 84.6361Z" fill="#FFE7DA"/>
</g>
</g>
</g>
</g>
</g>
<defs>
<linearGradient id="paint0_linear_4443_27878" x1="79.5002" y1="-3.08812" x2="80.8262" y2="224.182" gradientUnits="userSpaceOnUse">
<stop stop-color="#FFE1E1" stop-opacity="0"/>
<stop offset="1" stop-color="#FFE1E0"/>
</linearGradient>
</defs>
</svg>
