<svg width="160" height="160" viewBox="0 0 160 160" fill="none" xmlns="http://www.w3.org/2000/svg">
<g id="Illustration-no task">
<path id="Vector" d="M79.9992 147.416C115.741 147.416 144.715 118.442 144.715 82.6999C144.715 46.9579 115.741 17.9839 79.9992 17.9839C44.2572 17.9839 15.2832 46.9579 15.2832 82.6999C15.2832 118.442 44.2572 147.416 79.9992 147.416Z" fill="url(#paint0_linear_4365_42817)"/>
<g id="Clip path group">
<mask id="mask0_4365_42817" style="mask-type:luminance" maskUnits="userSpaceOnUse" x="39" y="25" width="87" height="108">
<g id="clippath">
<path id="Vector_2" d="M112.818 25.3919L41.8042 32.7679C40.1822 32.9359 39.0062 34.3859 39.1742 36.0079L48.8862 129.514C49.0542 131.136 50.5062 132.312 52.1262 132.144L123.14 124.768C124.762 124.6 125.94 123.15 125.77 121.528L116.058 28.0239C115.888 26.4019 114.438 25.2259 112.816 25.3939L112.818 25.3919Z" fill="white"/>
</g>
</mask>
<g mask="url(#mask0_4365_42817)">
<g id="Group">
<path id="Vector_3" d="M39.0059 84.3638L86.9519 132.312H39.0059V84.3638Z" fill="#FF9999"/>
<path id="Vector_4" d="M39.0059 82.6418L88.6739 132.312H86.9519L39.0059 84.3638V82.6418Z" fill="#FF9999"/>
<path id="Vector_5" d="M39.0059 80.9199L90.3959 132.312H88.6739L39.0059 82.6419V80.9199Z" fill="#FF9A9A"/>
<path id="Vector_6" d="M39.0059 79.1978L92.1179 132.312H90.3959L39.0059 80.9198V79.1978Z" fill="#FF9B9B"/>
<path id="Vector_7" d="M39.0059 77.4758L93.8399 132.312H92.1179L39.0059 79.1978V77.4758Z" fill="#FF9C9C"/>
<path id="Vector_8" d="M39.0059 75.7539L95.5639 132.312H93.8399L39.0059 77.4759V75.7539Z" fill="#FF9D9C"/>
<path id="Vector_9" d="M39.0059 74.032L97.2859 132.312H95.5639L39.0059 75.754V74.032Z" fill="#FF9E9D"/>
<path id="Vector_10" d="M39.0059 72.3079L99.0079 132.312H97.2859L39.0059 74.0319V72.3079Z" fill="#FF9F9E"/>
<path id="Vector_11" d="M39.0059 70.5859L100.73 132.312H99.0079L39.0059 72.3079V70.5859Z" fill="#FFA09F"/>
<path id="Vector_12" d="M39.0059 68.8638L102.452 132.312H100.73L39.0059 70.5858V68.8638Z" fill="#FFA1A0"/>
<path id="Vector_13" d="M39.0059 67.1418L104.174 132.312H102.452L39.0059 68.8638V67.1418Z" fill="#FFA2A1"/>
<path id="Vector_14" d="M39.0059 65.4199L105.896 132.312H104.174L39.0059 67.1419V65.4199Z" fill="#FFA3A1"/>
<path id="Vector_15" d="M39.0059 63.6978L107.618 132.312H105.896L39.0059 65.4198V63.6978Z" fill="#FFA4A2"/>
<path id="Vector_16" d="M39.0059 61.9758L109.34 132.312H107.618L39.0059 63.6978V61.9758Z" fill="#FFA5A3"/>
<path id="Vector_17" d="M39.0059 60.2539L111.062 132.312H109.34L39.0059 61.9759V60.2539Z" fill="#FFA6A4"/>
<path id="Vector_18" d="M39.0059 58.532L112.784 132.312H111.062L39.0059 60.254V58.532Z" fill="#FFA7A5"/>
<path id="Vector_19" d="M39.0059 56.8098L114.506 132.312H112.784L39.0059 58.5318V56.8098Z" fill="#FFA8A6"/>
<path id="Vector_20" d="M39.0059 55.0879L116.228 132.312H114.506L39.0059 56.8099V55.0879Z" fill="#FFA9A7"/>
<path id="Vector_21" d="M39.0059 53.366L117.782 132.142L117.614 132.312H116.228L39.0059 55.088V53.366Z" fill="#FFAAA7"/>
<path id="Vector_22" d="M39.0059 51.6438L118.644 131.282L117.782 132.142L39.0059 53.3658V51.6438Z" fill="#FFABA8"/>
<path id="Vector_23" d="M39.0059 49.9219L119.504 130.42L118.644 131.282L39.0059 51.6439V49.9219Z" fill="#FFACA9"/>
<path id="Vector_24" d="M39.0059 48.1978L120.366 129.56L119.504 130.42L39.0059 49.9218V48.1978Z" fill="#FFADAA"/>
<path id="Vector_25" d="M39.0059 46.4758L121.226 128.698L120.366 129.56L39.0059 48.1978V46.4758Z" fill="#FFAEAB"/>
<path id="Vector_26" d="M39.0059 44.7539L122.088 127.838L121.226 128.698L39.0059 46.4759V44.7539Z" fill="#FFAFAC"/>
<path id="Vector_27" d="M39.0059 43.032L122.948 126.976L122.088 127.838L39.0059 44.754V43.032Z" fill="#FFB0AC"/>
<path id="Vector_28" d="M39.0059 41.3098L123.81 126.116L122.948 126.976L39.0059 43.0318V41.3098Z" fill="#FFB1AD"/>
<path id="Vector_29" d="M39.0059 39.5879L124.672 125.254L123.81 126.116L39.0059 41.3099V39.5879Z" fill="#FFB2AE"/>
<path id="Vector_30" d="M39.0059 37.866L125.532 124.392L124.672 125.254L39.0059 39.588V37.866Z" fill="#FFB3AF"/>
<path id="Vector_31" d="M39.0059 36.1438L125.938 123.078V123.986L125.532 124.392L39.0059 37.8658V36.1438Z" fill="#FFB4B0"/>
<path id="Vector_32" d="M39.0059 34.4219L125.938 121.356V123.078L39.0059 36.1439V34.4219Z" fill="#FFB5B1"/>
<path id="Vector_33" d="M39.0059 33.5478L39.4299 33.1238L125.938 119.632V121.356L39.0059 34.4218V33.5478Z" fill="#FFB6B1"/>
<path id="Vector_34" d="M39.4297 33.124L40.2897 32.262L125.938 117.91V119.632L39.4297 33.124Z" fill="#FFB7B2"/>
<path id="Vector_35" d="M40.2891 32.2619L41.1511 31.4019L125.937 116.188V117.91L40.2891 32.2619Z" fill="#FFB8B3"/>
<path id="Vector_36" d="M41.1523 31.4018L42.0123 30.5398L125.938 114.466V116.188L41.1523 31.4018Z" fill="#FFB9B4"/>
<path id="Vector_37" d="M42.0117 30.5399L42.8737 29.6799L125.938 112.744V114.466L42.0117 30.5399Z" fill="#FFBAB5"/>
<path id="Vector_38" d="M42.873 29.6799L43.735 28.8179L125.937 111.022V112.744L42.873 29.6799Z" fill="#FFBBB6"/>
<path id="Vector_39" d="M43.7363 28.8178L44.5963 27.9578L125.938 109.3V111.022L43.7363 28.8178Z" fill="#FFBCB7"/>
<path id="Vector_40" d="M44.5957 27.9579L45.4577 27.0959L125.938 107.578V109.3L44.5957 27.9579Z" fill="#FFBDB7"/>
<path id="Vector_41" d="M45.457 27.0958L46.317 26.2358L125.937 105.856V107.578L45.457 27.0958Z" fill="#FFBEB8"/>
<path id="Vector_42" d="M46.3184 26.2358L47.1804 25.3738L125.938 104.134V105.856L46.3184 26.2358Z" fill="#FFBFB9"/>
<path id="Vector_43" d="M47.1797 25.3739L47.3297 25.2239H48.7497L125.938 102.412V104.134L47.1797 25.3739Z" fill="#FFC1BA"/>
<path id="Vector_44" d="M50.472 25.2239L125.938 100.69V102.412L48.75 25.2239H50.472Z" fill="#FFC2BB"/>
<path id="Vector_45" d="M52.1947 25.2239L125.939 98.9679V100.69L50.4727 25.2239H52.1947Z" fill="#FFC3BC"/>
<path id="Vector_46" d="M53.9174 25.2239L125.937 97.2459V98.9679L52.1934 25.2239H53.9174Z" fill="#FFC4BC"/>
<path id="Vector_47" d="M55.64 25.2239L125.938 95.5219V97.2459L53.918 25.2239H55.64Z" fill="#FFC5BD"/>
<path id="Vector_48" d="M57.3626 25.2239L125.939 93.7999V95.5219L55.6406 25.2239H57.3626Z" fill="#FFC6BE"/>
<path id="Vector_49" d="M59.0833 25.2239L125.937 92.0779V93.7999L57.3613 25.2239H59.0833Z" fill="#FFC7BF"/>
<path id="Vector_50" d="M60.806 25.2239L125.938 90.3559V92.0779L59.084 25.2239H60.806Z" fill="#FFC8C0"/>
<path id="Vector_51" d="M62.5286 25.2239L125.939 88.6339V90.3559L60.8066 25.2239H62.5286Z" fill="#FFC9C1"/>
<path id="Vector_52" d="M64.2493 25.2239L125.937 86.9119V88.6339L62.5273 25.2239H64.2493Z" fill="#FFCAC2"/>
<path id="Vector_53" d="M65.972 25.2239L125.938 85.1899V86.9119L64.25 25.2239H65.972Z" fill="#FFCBC2"/>
<path id="Vector_54" d="M67.6947 25.2239L125.939 83.4679V85.1899L65.9727 25.2239H67.6947Z" fill="#FFCCC3"/>
<path id="Vector_55" d="M69.4154 25.2239L125.937 81.7459V83.4679L67.6934 25.2239H69.4154Z" fill="#FFCDC4"/>
<path id="Vector_56" d="M71.138 25.2239L125.938 80.0239V81.7459L69.416 25.2239H71.138Z" fill="#FFCEC5"/>
<path id="Vector_57" d="M72.8607 25.2239L125.939 78.3019V80.0239L71.1387 25.2239H72.8607Z" fill="#FFCFC6"/>
<path id="Vector_58" d="M74.5814 25.2239L125.937 76.5799V78.3019L72.8594 25.2239H74.5814Z" fill="#FFD0C7"/>
<path id="Vector_59" d="M76.306 25.2239L125.938 74.8579V76.5799L74.582 25.2239H76.306Z" fill="#FFD1C7"/>
<path id="Vector_60" d="M78.0286 25.2239L125.939 73.1339V74.8579L76.3066 25.2239H78.0286Z" fill="#FFD2C8"/>
<path id="Vector_61" d="M79.7493 25.2239L125.937 71.4119V73.1339L78.0273 25.2239H79.7493Z" fill="#FFD3C9"/>
<path id="Vector_62" d="M81.472 25.2239L125.938 69.6899V71.4119L79.75 25.2239H81.472Z" fill="#FFD4CA"/>
<path id="Vector_63" d="M83.1947 25.2239L125.939 67.9679V69.6899L81.4727 25.2239H83.1947Z" fill="#FFD5CB"/>
<path id="Vector_64" d="M84.9154 25.2239L125.937 66.2459V67.9679L83.1934 25.2239H84.9154Z" fill="#FFD6CC"/>
<path id="Vector_65" d="M86.638 25.2239L125.938 64.5239V66.2459L84.916 25.2239H86.638Z" fill="#FFD7CC"/>
<path id="Vector_66" d="M88.3607 25.2239L125.939 62.8019V64.5239L86.6387 25.2239H88.3607Z" fill="#FFD8CD"/>
<path id="Vector_67" d="M90.0814 25.2239L125.937 61.0799V62.8019L88.3594 25.2239H90.0814Z" fill="#FFD9CE"/>
<path id="Vector_68" d="M91.804 25.2239L125.938 59.3579V61.0799L90.082 25.2239H91.804Z" fill="#FFDACF"/>
<path id="Vector_69" d="M93.5267 25.2239L125.939 57.6359V59.3579L91.8047 25.2239H93.5267Z" fill="#FFDBD0"/>
<path id="Vector_70" d="M95.2474 25.2239L125.937 55.9139V57.6359L93.5254 25.2239H95.2474Z" fill="#FFDCD1"/>
<path id="Vector_71" d="M96.97 25.2239L125.938 54.1919V55.9139L95.248 25.2239H96.97Z" fill="#FFDDD2"/>
<path id="Vector_72" d="M98.6947 25.2239L125.939 52.4699V54.1919L96.9707 25.2239H98.6947Z" fill="#FFDED2"/>
<path id="Vector_73" d="M100.415 25.2239L125.937 50.7479V52.4699L98.6934 25.2239H100.415Z" fill="#FFDFD3"/>
<path id="Vector_74" d="M102.138 25.2239L125.938 49.0239V50.7479L100.416 25.2239H102.138Z" fill="#FFE0D4"/>
<path id="Vector_75" d="M103.861 25.2239L125.939 47.3019V49.0239L102.139 25.2239H103.861Z" fill="#FFE1D5"/>
<path id="Vector_76" d="M105.581 25.2239L125.937 45.5799V47.3019L103.859 25.2239H105.581Z" fill="#FFE2D6"/>
<path id="Vector_77" d="M107.304 25.2239L125.938 43.8579V45.5799L105.582 25.2239H107.304Z" fill="#FFE3D7"/>
<path id="Vector_78" d="M109.027 25.2239L125.939 42.1359V43.8579L107.305 25.2239H109.027Z" fill="#FFE4D7"/>
<path id="Vector_79" d="M110.747 25.2239L125.937 40.4139V42.1359L109.025 25.2239H110.747Z" fill="#FFE5D8"/>
<path id="Vector_80" d="M112.47 25.2239L125.938 38.6919V40.4139L110.748 25.2239H112.47Z" fill="#FFE6D9"/>
<path id="Vector_81" d="M114.193 25.2239L125.939 36.9699V38.6919L112.471 25.2239H114.193Z" fill="#FFE7DA"/>
<path id="Vector_82" d="M125.937 36.9699L114.191 25.2239H125.937V36.9699Z" fill="#FFE7DA"/>
</g>
</g>
</g>
<g id="Clip path group_2">
<mask id="mask1_4365_42817" style="mask-type:luminance" maskUnits="userSpaceOnUse" x="43" y="29" width="79" height="98">
<g id="clippath-1">
<path id="Vector_83" d="M109.761 29.708L45.6714 36.364C44.0494 36.532 42.8734 37.984 43.0414 39.604L51.8254 124.166C51.9934 125.788 53.4434 126.966 55.0654 126.796L119.155 120.138C120.777 119.97 121.955 118.52 121.785 116.898L113.001 32.334C112.833 30.712 111.383 29.536 109.761 29.704V29.708Z" fill="white"/>
</g>
</mask>
<g mask="url(#mask1_4365_42817)">
<g id="Group_2">
<path id="Vector_84" d="M42.8711 109.178L53.1431 126.968H42.8711V109.178Z" fill="#FF9999"/>
<path id="Vector_85" d="M42.8711 106.628L54.6131 126.968H53.1431L42.8711 109.178V106.628Z" fill="#FF9999"/>
<path id="Vector_86" d="M42.8711 104.08L56.0851 126.968H54.6131L42.8711 106.628V104.08Z" fill="#FF9C9C"/>
<path id="Vector_87" d="M42.8711 101.53L57.5571 126.968H56.0851L42.8711 104.08V101.53Z" fill="#FF9F9E"/>
<path id="Vector_88" d="M42.8711 98.9819L59.0291 126.968H57.5571L42.8711 101.53V98.9819Z" fill="#FFA2A1"/>
<path id="Vector_89" d="M42.8711 96.4321L60.5011 126.968H59.0291L42.8711 98.9821V96.4321Z" fill="#FFA5A3"/>
<path id="Vector_90" d="M42.8711 93.884L61.9731 126.968H60.5011L42.8711 96.432V93.884Z" fill="#FFA8A6"/>
<path id="Vector_91" d="M42.8711 91.334L63.4431 126.968H61.9731L42.8711 93.884V91.334Z" fill="#FFABA8"/>
<path id="Vector_92" d="M42.8711 88.7861L64.9151 126.968H63.4431L42.8711 91.3341V88.7861Z" fill="#FFAEAA"/>
<path id="Vector_93" d="M42.8711 86.2361L66.3871 126.968H64.9151L42.8711 88.7861V86.2361Z" fill="#FFB0AC"/>
<path id="Vector_94" d="M42.8711 83.688L67.8591 126.968H66.3871L42.8711 86.236V83.688Z" fill="#FFB3AF"/>
<path id="Vector_95" d="M42.8711 81.1379L69.3311 126.968H67.8591L42.8711 83.6879V81.1379Z" fill="#FFB5B1"/>
<path id="Vector_96" d="M42.8711 78.5901L70.8031 126.968H69.3311L42.8711 81.1381V78.5901Z" fill="#FFB8B3"/>
<path id="Vector_97" d="M42.8711 76.04L72.2731 126.968H70.8031L42.8711 78.59V76.04Z" fill="#FFBAB4"/>
<path id="Vector_98" d="M42.8711 73.4919L73.7451 126.968H72.2731L42.8711 76.0399V73.4919Z" fill="#FFBCB6"/>
<path id="Vector_99" d="M42.8711 70.9421L75.2171 126.968H73.7451L42.8711 73.4921V70.9421Z" fill="#FFBEB8"/>
<path id="Vector_100" d="M42.8711 68.394L76.6891 126.968H75.2171L42.8711 70.942V68.394Z" fill="#FFC0BA"/>
<path id="Vector_101" d="M42.8711 65.844L78.1611 126.968H76.6891L42.8711 68.394V65.844Z" fill="#FFC2BB"/>
<path id="Vector_102" d="M42.8711 63.2961L79.6331 126.968H78.1611L42.8711 65.8441V63.2961Z" fill="#FFC4BD"/>
<path id="Vector_103" d="M42.8711 60.7461L81.1031 126.968H79.6331L42.8711 63.2961V60.7461Z" fill="#FFC6BF"/>
<path id="Vector_104" d="M42.8711 58.198L82.5751 126.968H81.1031L42.8711 60.746V58.198Z" fill="#FFC8C0"/>
<path id="Vector_105" d="M42.8711 55.6479L84.0471 126.968H82.5751L42.8711 58.1979V55.6479Z" fill="#FFCAC1"/>
<path id="Vector_106" d="M42.8711 53.1001L85.5191 126.968H84.0471L42.8711 55.6481V53.1001Z" fill="#FFCBC3"/>
<path id="Vector_107" d="M42.8711 50.55L86.9911 126.968H85.5191L42.8711 53.1V50.55Z" fill="#FFCDC4"/>
<path id="Vector_108" d="M42.8711 48.002L88.4631 126.968H86.9911L42.8711 50.55V48.002Z" fill="#FFCEC5"/>
<path id="Vector_109" d="M42.8711 45.4521L89.9331 126.968H88.4631L42.8711 48.0021V45.4521Z" fill="#FFD0C7"/>
<path id="Vector_110" d="M42.8711 42.9041L91.4051 126.968H89.9331L42.8711 45.4521V42.9041Z" fill="#FFD1C8"/>
<path id="Vector_111" d="M42.8711 40.354L92.8771 126.968H91.4051L42.8711 42.904V40.354Z" fill="#FFD2C9"/>
<path id="Vector_112" d="M42.8711 37.8062L94.3491 126.968H92.8771L42.8711 40.3542V37.8062Z" fill="#FFD4CA"/>
<path id="Vector_113" d="M42.8711 36.7519L43.5191 36.3779L95.8211 126.968H94.3491L42.8711 37.8059V36.7519Z" fill="#FFD5CB"/>
<path id="Vector_114" d="M43.5195 36.378L44.6235 35.74L97.2935 126.968H95.8215L43.5195 36.378Z" fill="#FFD6CC"/>
<path id="Vector_115" d="M44.623 35.74L45.7271 35.104L98.763 126.968H97.293L44.623 35.74Z" fill="#FFD7CD"/>
<path id="Vector_116" d="M45.7266 35.1041L46.8286 34.4661L100.235 126.968H98.7626L45.7266 35.1041Z" fill="#FFD8CE"/>
<path id="Vector_117" d="M46.8281 34.4661L47.9321 33.8281L101.706 126.968H100.234L46.8281 34.4661Z" fill="#FFD9CF"/>
<path id="Vector_118" d="M47.9336 33.8281L49.0376 33.1921L103.18 126.968H101.708L47.9336 33.8281Z" fill="#FFDACF"/>
<path id="Vector_119" d="M49.0371 33.192L50.1411 32.554L104.651 126.968H103.179L49.0371 33.192Z" fill="#FFDBD0"/>
<path id="Vector_120" d="M50.1406 32.554L51.2446 31.918L106.123 126.968H104.651L50.1406 32.554Z" fill="#FFDCD1"/>
<path id="Vector_121" d="M51.2441 31.918L52.3481 31.28L107.592 126.968H106.122L51.2441 31.918Z" fill="#FFDDD2"/>
<path id="Vector_122" d="M52.3496 31.2801L53.4536 30.6421L109.066 126.968H107.594L52.3496 31.2801Z" fill="#FFDED2"/>
<path id="Vector_123" d="M53.4531 30.6421L54.5571 30.0061L110.269 126.502L109.461 126.968H109.065L53.4531 30.6421Z" fill="#FFDED3"/>
<path id="Vector_124" d="M54.5566 30.006L55.3626 29.54H55.7586L111.371 125.864L110.269 126.502L54.5566 30.006Z" fill="#FFDFD3"/>
<path id="Vector_125" d="M57.2318 29.54L112.476 125.226L111.372 125.864L55.7598 29.54H57.2318Z" fill="#FFE0D4"/>
<path id="Vector_126" d="M58.7025 29.54L113.578 124.59L112.474 125.226L57.2305 29.54H58.7025Z" fill="#FFE0D4"/>
<path id="Vector_127" d="M60.1731 29.54L114.683 123.952L113.579 124.59L58.7031 29.54H60.1731Z" fill="#FFE1D5"/>
<path id="Vector_128" d="M61.6458 29.54L115.788 123.316L114.684 123.952L60.1738 29.54H61.6458Z" fill="#FFE1D5"/>
<path id="Vector_129" d="M63.1165 29.54L116.891 122.678L115.787 123.316L61.6445 29.54H63.1165Z" fill="#FFE2D6"/>
<path id="Vector_130" d="M64.5892 29.54L117.995 122.04L116.891 122.678L63.1172 29.54H64.5892Z" fill="#FFE2D6"/>
<path id="Vector_131" d="M66.0618 29.54L119.1 121.404L117.996 122.04L64.5898 29.54H66.0618Z" fill="#FFE3D7"/>
<path id="Vector_132" d="M67.5325 29.54L120.201 120.766L119.099 121.404L66.0605 29.54H67.5325Z" fill="#FFE3D7"/>
<path id="Vector_133" d="M69.0032 29.54L121.305 120.128L120.201 120.766L67.5332 29.54H69.0032Z" fill="#FFE4D7"/>
<path id="Vector_134" d="M70.4759 29.54L121.954 118.702V119.754L121.306 120.128L69.0039 29.54H70.4759Z" fill="#FFE4D8"/>
<path id="Vector_135" d="M71.9466 29.54L121.953 116.152V118.702L70.4746 29.54H71.9466Z" fill="#FFE4D8"/>
<path id="Vector_136" d="M73.4193 29.54L121.953 113.604V116.152L71.9473 29.54H73.4193Z" fill="#FFE5D8"/>
<path id="Vector_137" d="M74.8919 29.54L121.954 111.054V113.604L73.4199 29.54H74.8919Z" fill="#FFE5D8"/>
<path id="Vector_138" d="M76.3626 29.54L121.953 108.506V111.054L74.8906 29.54H76.3626Z" fill="#FFE5D9"/>
<path id="Vector_139" d="M77.8333 29.54L121.953 105.956V108.506L76.3633 29.54H77.8333Z" fill="#FFE5D9"/>
<path id="Vector_140" d="M79.306 29.54L121.954 103.408V105.956L77.834 29.54H79.306Z" fill="#FFE6D9"/>
<path id="Vector_141" d="M80.7767 29.54L121.953 100.858V103.408L79.3047 29.54H80.7767Z" fill="#FFE6D9"/>
<path id="Vector_142" d="M82.2493 29.54L121.953 98.31V100.858L80.7773 29.54H82.2493Z" fill="#FFE6D9"/>
<path id="Vector_143" d="M83.722 29.54L121.954 95.76V98.31L82.25 29.54H83.722Z" fill="#FFE6D9"/>
<path id="Vector_144" d="M85.1927 29.54L121.953 93.212V95.76L83.7207 29.54H85.1927Z" fill="#FFE6D9"/>
<path id="Vector_145" d="M86.6634 29.54L121.953 90.662V93.212L85.1934 29.54H86.6634Z" fill="#FFE6DA"/>
<path id="Vector_146" d="M88.1361 29.54L121.954 88.114V90.662L86.6641 29.54H88.1361Z" fill="#FFE7DA"/>
<path id="Vector_147" d="M89.6068 29.54L121.953 85.564V88.114L88.1348 29.54H89.6068Z" fill="#FFE7DA"/>
<path id="Vector_148" d="M91.0794 29.54L121.953 83.016V85.564L89.6074 29.54H91.0794Z" fill="#FFE7DA"/>
<path id="Vector_149" d="M92.5501 29.54L121.952 80.466V83.016L91.0781 29.54H92.5501Z" fill="#FFE7DA"/>
<path id="Vector_150" d="M94.0228 29.54L121.953 77.918V80.466L92.5508 29.54H94.0228Z" fill="#FFE7DA"/>
<path id="Vector_151" d="M95.4934 29.54L121.953 75.368V77.918L94.0234 29.54H95.4934Z" fill="#FFE7DA"/>
<path id="Vector_152" d="M96.9642 29.54L121.952 72.82V75.368L95.4922 29.54H96.9642Z" fill="#FFE7DA"/>
<path id="Vector_153" d="M98.4368 29.54L121.953 70.27V72.82L96.9648 29.54H98.4368Z" fill="#FFE7DA"/>
<path id="Vector_154" d="M99.9095 29.54L121.954 67.722V70.27L98.4375 29.54H99.9095Z" fill="#FFE7DA"/>
<path id="Vector_155" d="M101.38 29.54L121.952 65.172V67.722L99.9082 29.54H101.38Z" fill="#FFE7DA"/>
<path id="Vector_156" d="M102.853 29.54L121.953 62.624V65.172L101.381 29.54H102.853Z" fill="#FFE7DA"/>
<path id="Vector_157" d="M104.324 29.54L121.954 60.074V62.624L102.854 29.54H104.324Z" fill="#FFE7DA"/>
<path id="Vector_158" d="M105.794 29.54L121.952 57.526V60.074L104.322 29.54H105.794Z" fill="#FFE7DA"/>
<path id="Vector_159" d="M107.267 29.54L121.953 54.976V57.526L105.795 29.54H107.267Z" fill="#FFE7DA"/>
<path id="Vector_160" d="M108.74 29.54L121.954 52.428V54.976L107.268 29.54H108.74Z" fill="#FFE7DA"/>
<path id="Vector_161" d="M110.21 29.54L121.952 49.878V52.428L108.738 29.54H110.21Z" fill="#FFE7DA"/>
<path id="Vector_162" d="M111.683 29.54L121.953 47.33V49.878L110.211 29.54H111.683Z" fill="#FFE7DA"/>
<path id="Vector_163" d="M121.954 47.33L111.684 29.54H121.954V47.33Z" fill="#FFE7DA"/>
</g>
</g>
</g>
<path id="Vector_164" d="M54.7577 127.438C52.9517 127.438 51.3957 126.068 51.2057 124.232L42.4217 39.67C42.2177 37.71 43.6477 35.95 45.6077 35.746L109.698 29.088C110.646 28.99 111.578 29.266 112.32 29.868C113.062 30.47 113.524 31.324 113.622 32.274L122.406 116.836C122.61 118.796 121.18 120.556 119.22 120.76L55.1297 127.418C55.0057 127.43 54.8817 127.438 54.7577 127.438ZM109.826 30.328L45.7357 36.986C44.4597 37.118 43.5277 38.266 43.6597 39.542L52.4437 124.104C52.5757 125.38 53.7257 126.314 54.9997 126.18L119.09 119.522C120.368 119.39 121.298 118.242 121.166 116.966L112.382 32.404C112.318 31.786 112.016 31.228 111.534 30.836C111.052 30.444 110.446 30.264 109.826 30.328Z" fill="#FF607B"/>
<g id="Clip path group_3">
<mask id="mask2_4365_42817" style="mask-type:luminance" maskUnits="userSpaceOnUse" x="56" y="17" width="43" height="23">
<g id="clippath-2">
<path id="Vector_165" d="M98.7038 33.8501L97.7078 24.2621C97.6578 23.8641 97.4538 23.5021 97.1398 23.2521C96.8258 23.0021 96.4258 22.8881 96.0278 22.9301L84.1738 24.1761C84.0778 23.2201 83.7938 22.2921 83.3378 21.4441C82.8818 20.5961 82.2658 19.8481 81.5198 19.2401C80.7758 18.6321 79.9178 18.1761 78.9978 17.9001C78.0778 17.6241 77.1118 17.5301 76.1538 17.6261C75.1978 17.7221 74.2698 18.0061 73.4218 18.4621C72.5758 18.9181 71.8258 19.5341 71.2178 20.2801C69.9898 21.7841 69.4098 23.7141 69.6038 25.6461L57.7118 26.8921C57.5118 26.9121 57.3178 26.9721 57.1398 27.0681C56.9618 27.1641 56.8058 27.2921 56.6778 27.4501C56.5498 27.6061 56.4558 27.7861 56.3978 27.9781C56.3398 28.1701 56.3218 28.3741 56.3418 28.5741L57.3378 38.1621C57.3578 38.3621 57.4178 38.5561 57.5138 38.7341C57.6098 38.9121 57.7378 39.0681 57.8958 39.1961C58.0518 39.3241 58.2318 39.4181 58.4238 39.4761C58.6158 39.5341 58.8198 39.5521 59.0198 39.5321L97.3458 35.5481C97.5478 35.5281 97.7418 35.4681 97.9198 35.3721C98.0978 35.2761 98.2538 35.1441 98.3798 34.9881C98.5059 34.8301 98.5998 34.6481 98.6558 34.4541C98.7118 34.2601 98.7278 34.0561 98.7038 33.8561V33.8501Z" fill="white"/>
</g>
</mask>
<g mask="url(#mask2_4365_42817)">
<g id="Group_3">
<path id="Vector_166" d="M83.3711 39.5501L98.7191 24.2021L98.7291 24.2121V39.5501H83.3711Z" fill="#FF9999"/>
<path id="Vector_167" d="M82.873 39.5501L98.4691 23.9521L98.7191 24.2021L83.371 39.5501H82.873Z" fill="#FF9999"/>
<path id="Vector_168" d="M82.375 39.5501L98.221 23.7041L98.469 23.9521L82.873 39.5501H82.375Z" fill="#FF9A9A"/>
<path id="Vector_169" d="M81.8789 39.5501L97.9729 23.4541L98.2209 23.7041L82.3749 39.5501H81.8789Z" fill="#FF9B9B"/>
<path id="Vector_170" d="M81.3809 39.5501L97.7229 23.2061L97.9729 23.4541L81.8789 39.5501H81.3809Z" fill="#FF9C9C"/>
<path id="Vector_171" d="M80.8828 39.55L97.4748 22.958L97.7228 23.206L81.3808 39.55H80.8828Z" fill="#FF9D9C"/>
<path id="Vector_172" d="M80.3848 39.55L97.2268 22.708L97.4748 22.958L80.8828 39.55H80.3848Z" fill="#FF9E9D"/>
<path id="Vector_173" d="M79.8887 39.55L96.9767 22.46L97.2267 22.708L80.3847 39.55H79.8887Z" fill="#FF9F9E"/>
<path id="Vector_174" d="M79.3906 39.5499L96.7286 22.2119L96.9766 22.4599L79.8886 39.5499H79.3906Z" fill="#FFA09F"/>
<path id="Vector_175" d="M78.8926 39.5499L96.4806 21.9619L96.7286 22.2119L79.3906 39.5499H78.8926Z" fill="#FFA1A0"/>
<path id="Vector_176" d="M78.3945 39.5501L96.2305 21.7141L96.4805 21.9621L78.8925 39.5501H78.3945Z" fill="#FFA2A1"/>
<path id="Vector_177" d="M77.8984 39.5501L95.9824 21.4661L96.2304 21.7141L78.3944 39.5501H77.8984Z" fill="#FFA3A1"/>
<path id="Vector_178" d="M77.4004 39.5501L95.7324 21.2161L95.9824 21.4661L77.8984 39.5501H77.4004Z" fill="#FFA4A2"/>
<path id="Vector_179" d="M76.9023 39.55L95.4843 20.968L95.7323 21.216L77.4003 39.55H76.9023Z" fill="#FFA5A3"/>
<path id="Vector_180" d="M76.4062 39.55L95.2362 20.718L95.4842 20.968L76.9023 39.55H76.4062Z" fill="#FFA6A4"/>
<path id="Vector_181" d="M75.9082 39.55L94.9862 20.47L95.2362 20.718L76.4062 39.55H75.9082Z" fill="#FFA7A5"/>
<path id="Vector_182" d="M75.4102 39.5499L94.7382 20.2219L94.9862 20.4699L75.9082 39.5499H75.4102Z" fill="#FFA8A6"/>
<path id="Vector_183" d="M74.9121 39.5499L94.4901 19.9719L94.7381 20.2219L75.4101 39.5499H74.9121Z" fill="#FFA9A7"/>
<path id="Vector_184" d="M74.416 39.5501L94.24 19.7241L94.49 19.9721L74.912 39.5501H74.416Z" fill="#FFAAA7"/>
<path id="Vector_185" d="M73.918 39.5501L93.992 19.4761L94.24 19.7241L74.416 39.5501H73.918Z" fill="#FFABA8"/>
<path id="Vector_186" d="M73.4199 39.5501L93.7419 19.2261L93.9919 19.4761L73.9179 39.5501H73.4199Z" fill="#FFACA9"/>
<path id="Vector_187" d="M72.9219 39.55L93.4939 18.978L93.7419 19.226L73.4199 39.55H72.9219Z" fill="#FFADAA"/>
<path id="Vector_188" d="M72.4258 39.55L93.2458 18.728L93.4938 18.978L72.9218 39.55H72.4258Z" fill="#FFAEAB"/>
<path id="Vector_189" d="M71.9277 39.55L92.9957 18.48L93.2457 18.728L72.4257 39.55H71.9277Z" fill="#FFAFAC"/>
<path id="Vector_190" d="M71.4297 39.5499L92.7477 18.2319L92.9957 18.4799L71.9277 39.5499H71.4297Z" fill="#FFB0AC"/>
<path id="Vector_191" d="M70.9316 39.5499L92.4996 17.9819L92.7476 18.2319L71.4296 39.5499H70.9316Z" fill="#FFB1AD"/>
<path id="Vector_192" d="M70.4355 39.5501L92.2495 17.7341L92.4995 17.9821L70.9315 39.5501H70.4355Z" fill="#FFB2AE"/>
<path id="Vector_193" d="M69.9375 39.55L91.9555 17.53H92.0455L92.2495 17.734L70.4355 39.55H69.9375Z" fill="#FFB3AF"/>
<path id="Vector_194" d="M69.4395 39.55L91.4594 17.53H91.9555L69.9375 39.55H69.4395Z" fill="#FFB4B0"/>
<path id="Vector_195" d="M68.9414 39.55L90.9614 17.53H91.4594L69.4394 39.55H68.9414Z" fill="#FFB5B1"/>
<path id="Vector_196" d="M68.4453 39.55L90.4633 17.53H90.9613L68.9413 39.55H68.4453Z" fill="#FFB6B1"/>
<path id="Vector_197" d="M67.9473 39.55L89.9673 17.53H90.4633L68.4453 39.55H67.9473Z" fill="#FFB7B2"/>
<path id="Vector_198" d="M67.4512 39.55L89.4712 17.53H89.9692L67.9492 39.55H67.4512Z" fill="#FFB8B3"/>
<path id="Vector_199" d="M66.9551 39.55L88.9731 17.53H89.4711L67.4511 39.55H66.9551Z" fill="#FFB9B4"/>
<path id="Vector_200" d="M66.457 39.55L88.475 17.53H88.973L66.955 39.55H66.457Z" fill="#FFBAB5"/>
<path id="Vector_201" d="M65.959 39.55L87.979 17.53H88.475L66.457 39.55H65.959Z" fill="#FFBBB6"/>
<path id="Vector_202" d="M65.4609 39.55L87.4809 17.53H87.9789L65.9589 39.55H65.4609Z" fill="#FFBCB7"/>
<path id="Vector_203" d="M64.9648 39.55L86.9828 17.53H87.4808L65.4608 39.55H64.9648Z" fill="#FFBDB7"/>
<path id="Vector_204" d="M64.4668 39.55L86.4848 17.53H86.9828L64.9648 39.55H64.4668Z" fill="#FFBEB8"/>
<path id="Vector_205" d="M63.9688 39.55L85.9888 17.53H86.4847L64.4667 39.55H63.9688Z" fill="#FFBFB9"/>
<path id="Vector_206" d="M63.4707 39.55L85.4907 17.53H85.9887L63.9687 39.55H63.4707Z" fill="#FFC1BA"/>
<path id="Vector_207" d="M62.9746 39.55L84.9926 17.53H85.4906L63.4706 39.55H62.9746Z" fill="#FFC2BB"/>
<path id="Vector_208" d="M62.4766 39.55L84.4946 17.53H84.9926L62.9746 39.55H62.4766Z" fill="#FFC3BC"/>
<path id="Vector_209" d="M61.9785 39.55L83.9985 17.53H84.4945L62.4765 39.55H61.9785Z" fill="#FFC4BC"/>
<path id="Vector_210" d="M61.4805 39.55L83.5005 17.53H83.9985L61.9785 39.55H61.4805Z" fill="#FFC5BD"/>
<path id="Vector_211" d="M60.9844 39.55L83.0024 17.53H83.5004L61.4804 39.55H60.9844Z" fill="#FFC6BE"/>
<path id="Vector_212" d="M60.4863 39.55L82.5043 17.53H83.0023L60.9843 39.55H60.4863Z" fill="#FFC7BF"/>
<path id="Vector_213" d="M59.9883 39.55L82.0083 17.53H82.5043L60.4863 39.55H59.9883Z" fill="#FFC8C0"/>
<path id="Vector_214" d="M59.4902 39.55L81.5102 17.53H82.0082L59.9882 39.55H59.4902Z" fill="#FFC9C1"/>
<path id="Vector_215" d="M58.9941 39.55L81.0121 17.53H81.5101L59.4901 39.55H58.9941Z" fill="#FFCAC2"/>
<path id="Vector_216" d="M58.4961 39.55L80.5161 17.53H81.0121L58.9941 39.55H58.4961Z" fill="#FFCBC2"/>
<path id="Vector_217" d="M57.998 39.55L80.018 17.53H80.516L58.4961 39.55H57.998Z" fill="#FFCCC3"/>
<path id="Vector_218" d="M57.6581 39.55L57.5801 39.47L79.5201 17.53H80.0181L57.9981 39.55H57.6581Z" fill="#FFCDC4"/>
<path id="Vector_219" d="M57.58 39.47L57.332 39.222L79.022 17.53H79.52L57.58 39.47Z" fill="#FFCEC5"/>
<path id="Vector_220" d="M57.332 39.222L57.082 38.972L78.526 17.53H79.022L57.332 39.222Z" fill="#FFCFC6"/>
<path id="Vector_221" d="M57.082 38.972L56.834 38.724L78.028 17.53H78.526L57.082 38.972Z" fill="#FFD0C7"/>
<path id="Vector_222" d="M56.834 38.724L56.584 38.476L77.53 17.53H78.028L56.834 38.724Z" fill="#FFD1C7"/>
<path id="Vector_223" d="M56.5839 38.476L56.3359 38.226L77.0319 17.53H77.5299L56.5839 38.476Z" fill="#FFD2C8"/>
<path id="Vector_224" d="M56.3362 38.226L56.3242 38.214V37.742L76.5362 17.53H77.0322L56.3362 38.226Z" fill="#FFD3C9"/>
<path id="Vector_225" d="M56.3242 37.244L76.0382 17.53H76.5362L56.3242 37.742V37.244Z" fill="#FFD4CA"/>
<path id="Vector_226" d="M56.3242 36.746L75.5402 17.53H76.0382L56.3242 37.244V36.746Z" fill="#FFD5CB"/>
<path id="Vector_227" d="M56.3242 36.25L75.0422 17.53H75.5402L56.3242 36.746V36.25Z" fill="#FFD6CC"/>
<path id="Vector_228" d="M56.3242 35.752L74.5462 17.53H75.0422L56.3242 36.25V35.752Z" fill="#FFD7CC"/>
<path id="Vector_229" d="M56.3242 35.254L74.0482 17.53H74.5462L56.3242 35.752V35.254Z" fill="#FFD8CD"/>
<path id="Vector_230" d="M56.3242 34.758L73.5502 17.53H74.0482L56.3242 35.254V34.758Z" fill="#FFD9CE"/>
<path id="Vector_231" d="M56.3242 34.26L73.0522 17.53H73.5502L56.3242 34.758V34.26Z" fill="#FFDACF"/>
<path id="Vector_232" d="M56.3242 33.762L72.5562 17.53H73.0522L56.3242 34.26V33.762Z" fill="#FFDBD0"/>
<path id="Vector_233" d="M56.3242 33.264L72.0582 17.53H72.5562L56.3242 33.762V33.264Z" fill="#FFDCD1"/>
<path id="Vector_234" d="M56.3242 32.768L71.5602 17.53H72.0582L56.3242 33.264V32.768Z" fill="#FFDDD2"/>
<path id="Vector_235" d="M56.3242 32.27L71.0642 17.53H71.5602L56.3242 32.768V32.27Z" fill="#FFDED2"/>
<path id="Vector_236" d="M56.3242 31.772L70.5662 17.53H71.0642L56.3242 32.27V31.772Z" fill="#FFDFD3"/>
<path id="Vector_237" d="M56.3242 31.274L70.0682 17.53H70.5662L56.3242 31.772V31.274Z" fill="#FFE0D4"/>
<path id="Vector_238" d="M56.3242 30.778L69.5702 17.53H70.0682L56.3242 31.274V30.778Z" fill="#FFE1D5"/>
<path id="Vector_239" d="M56.3242 30.28L69.0742 17.53H69.5702L56.3242 30.778V30.28Z" fill="#FFE2D6"/>
<path id="Vector_240" d="M56.3242 29.782L68.5762 17.53H69.0742L56.3242 30.28V29.782Z" fill="#FFE3D7"/>
<path id="Vector_241" d="M56.3242 29.284L68.0782 17.53H68.5762L56.3242 29.782V29.284Z" fill="#FFE4D7"/>
<path id="Vector_242" d="M56.3242 28.788L67.5802 17.53H68.0782L56.3242 29.284V28.788Z" fill="#FFE5D8"/>
<path id="Vector_243" d="M56.3242 28.29L67.0842 17.53H67.5802L56.3242 28.788V28.29Z" fill="#FFE6D9"/>
<path id="Vector_244" d="M56.3242 27.792L66.5862 17.53H67.0842L56.3242 28.29V27.792Z" fill="#FFE7DA"/>
<path id="Vector_245" d="M66.5862 17.53L56.3242 27.792V17.53H66.5862Z" fill="#FFE7DA"/>
</g>
</g>
</g>
<path id="Vector_246" d="M63.999 89.8999C62.807 87.9819 60.301 83.3479 60.657 77.2579C61.131 69.1179 66.535 61.4359 74.543 58.3579C75.491 57.9939 84.5651 54.6819 93.3151 59.9659C100.683 64.4139 104.831 73.1499 103.473 81.8239C102.337 89.0739 97.479 95.4919 90.423 98.4099C83.273 101.366 75.039 100.244 68.887 95.4739C65.715 96.2459 62.545 97.0159 59.373 97.7879C60.915 95.1599 62.459 92.5299 64.001 89.9019L63.999 89.8999Z" fill="#FFF6F5"/>
<path id="Vector_247" d="M82.2222 100.394C77.3822 100.394 72.7982 98.846 68.9542 95.916L58.5742 98.36L63.4422 89.78C61.3882 86.374 60.3042 82.472 60.3042 78.48C60.3042 66.396 70.1362 56.564 82.2202 56.564C94.3042 56.564 104.136 66.396 104.136 78.48C104.136 90.564 94.3042 100.396 82.2202 100.396L82.2222 100.394ZM67.1422 93.63L69.2382 95.252C72.9882 98.158 77.4762 99.694 82.2222 99.694C93.9202 99.694 103.438 90.176 103.438 78.478C103.438 66.78 93.9202 57.262 82.2222 57.262C70.5242 57.262 61.0062 66.78 61.0062 78.478C61.0062 82.41 62.0922 86.252 64.1482 89.588L64.2562 89.764L59.9742 97.31L68.4262 95.32L67.1422 93.63Z" fill="#FF607B"/>
<path id="Vector_248" d="M92.6007 72.816L88.8667 69.082L82.3687 75.582L75.8707 69.082L72.1367 72.816L78.6347 79.314L72.1367 85.812L75.8707 89.546L82.3687 83.048L88.8667 89.546L92.6007 85.812L86.1027 79.314L92.6007 72.816Z" fill="#FF725E"/>
<g id="Group_4">
<g id="Clip path group_4">
<mask id="mask3_4365_42817" style="mask-type:luminance" maskUnits="userSpaceOnUse" x="82" y="81" width="72" height="43">
<g id="clippath-3">
<path id="Vector_249" d="M123.224 81.9041C132.718 86.3461 142.92 89.0781 153.364 89.9801C151.954 93.2601 141.928 109.678 112.166 123.208C111.362 123.332 92.7761 114.686 82.5781 108.756C82.9241 109.252 114.258 97.7221 123.226 81.9041H123.224Z" fill="white"/>
</g>
</mask>
<g mask="url(#mask3_4365_42817)">
<g id="Group_5">
<path id="Vector_250" d="M141.18 123.33L148.39 86.4102L153.362 87.3822V123.33H141.18Z" fill="#FF9999"/>
<path id="Vector_251" d="M140.594 123.33L147.824 86.3L148.39 86.41L141.18 123.33H140.594Z" fill="#FF9999"/>
<path id="Vector_252" d="M140.006 123.33L147.26 86.1899L147.824 86.2999L140.594 123.33H140.006Z" fill="#FF9C9C"/>
<path id="Vector_253" d="M139.42 123.33L146.694 86.0781L147.26 86.1901L140.006 123.33H139.42Z" fill="#FF9F9F"/>
<path id="Vector_254" d="M138.832 123.33L146.128 85.968L146.694 86.078L139.42 123.33H138.832Z" fill="#FEA2A2"/>
<path id="Vector_255" d="M138.246 123.33L145.564 85.8582L146.128 85.9682L138.832 123.33H138.246Z" fill="#FEA5A4"/>
<path id="Vector_256" d="M137.658 123.33L144.998 85.748L145.564 85.858L138.246 123.33H137.658Z" fill="#FEA8A7"/>
<path id="Vector_257" d="M137.072 123.33L144.432 85.6379L144.998 85.7479L137.658 123.33H137.072Z" fill="#FEABAA"/>
<path id="Vector_258" d="M136.484 123.33L143.866 85.5261L144.432 85.6381L137.072 123.33H136.484Z" fill="#FDAEAC"/>
<path id="Vector_259" d="M135.898 123.33L143.302 85.416L143.866 85.526L136.484 123.33H135.898Z" fill="#FDB0AF"/>
<path id="Vector_260" d="M135.311 123.33L142.737 85.3062L143.303 85.4161L135.899 123.33H135.311Z" fill="#FDB3B1"/>
<path id="Vector_261" d="M134.725 123.33L142.171 85.196L142.737 85.3061L135.311 123.33H134.725Z" fill="#FDB5B3"/>
<path id="Vector_262" d="M134.137 123.33L141.605 85.0859L142.171 85.1959L134.725 123.33H134.137Z" fill="#FDB8B6"/>
<path id="Vector_263" d="M133.551 123.33L141.041 84.9741L141.605 85.0861L134.137 123.33H133.551Z" fill="#FDBAB8"/>
<path id="Vector_264" d="M132.963 123.33L140.475 84.864L141.041 84.974L133.551 123.33H132.963Z" fill="#FCBCBA"/>
<path id="Vector_265" d="M132.377 123.33L139.909 84.7542L140.475 84.8641L132.963 123.33H132.377Z" fill="#FCBFBC"/>
<path id="Vector_266" d="M131.789 123.33L139.343 84.644L139.909 84.7541L132.377 123.33H131.789Z" fill="#FCC1BE"/>
<path id="Vector_267" d="M131.203 123.33L138.779 84.5339L139.343 84.6439L131.789 123.33H131.203Z" fill="#FCC3C0"/>
<path id="Vector_268" d="M130.615 123.33L138.213 84.4221L138.779 84.5341L131.203 123.33H130.615Z" fill="#FCC5C2"/>
<path id="Vector_269" d="M130.027 123.33L137.645 84.312L138.211 84.422L130.613 123.33H130.027Z" fill="#FCC7C3"/>
<path id="Vector_270" d="M129.439 123.33L137.079 84.2021L137.645 84.3121L130.027 123.33H129.439Z" fill="#FCC8C5"/>
<path id="Vector_271" d="M128.854 123.33L136.516 84.092L137.08 84.202L129.44 123.33H128.854Z" fill="#FBCAC7"/>
<path id="Vector_272" d="M128.266 123.33L135.95 83.98L136.516 84.092L128.854 123.33H128.266Z" fill="#FBCCC8"/>
<path id="Vector_273" d="M127.68 123.33L135.384 83.8701L135.95 83.9801L128.266 123.33H127.68Z" fill="#FBCECA"/>
<path id="Vector_274" d="M127.092 123.33L134.82 83.76L135.384 83.87L127.68 123.33H127.092Z" fill="#FBCFCB"/>
<path id="Vector_275" d="M126.506 123.33L134.254 83.6501L134.82 83.7601L127.092 123.33H126.506Z" fill="#FBD1CD"/>
<path id="Vector_276" d="M125.918 123.33L133.688 83.54L134.254 83.65L126.506 123.33H125.918Z" fill="#FBD2CE"/>
<path id="Vector_277" d="M125.332 123.33L133.122 83.428L133.688 83.54L125.918 123.33H125.332Z" fill="#FBD4CF"/>
<path id="Vector_278" d="M124.744 123.33L132.558 83.3181L133.122 83.4281L125.332 123.33H124.744Z" fill="#FBD5D1"/>
<path id="Vector_279" d="M124.156 123.33L131.992 83.208L132.558 83.318L124.744 123.33H124.156Z" fill="#FBD6D2"/>
<path id="Vector_280" d="M123.57 123.33L131.426 83.0981L131.992 83.2081L124.156 123.33H123.57Z" fill="#FAD7D3"/>
<path id="Vector_281" d="M122.982 123.33L130.86 82.988L131.426 83.098L123.57 123.33H122.982Z" fill="#FAD9D4"/>
<path id="Vector_282" d="M122.396 123.33L130.296 82.876L130.86 82.988L122.982 123.33H122.396Z" fill="#FADAD5"/>
<path id="Vector_283" d="M121.809 123.33L129.731 82.7661L130.297 82.8761L122.397 123.33H121.809Z" fill="#FADBD6"/>
<path id="Vector_284" d="M121.223 123.33L129.165 82.656L129.731 82.766L121.809 123.33H121.223Z" fill="#FADCD7"/>
<path id="Vector_285" d="M120.635 123.33L128.599 82.5461L129.165 82.6562L121.223 123.33H120.635Z" fill="#FADDD8"/>
<path id="Vector_286" d="M120.049 123.33L128.035 82.436L128.599 82.546L120.635 123.33H120.049Z" fill="#FADED9"/>
<path id="Vector_287" d="M119.461 123.33L127.469 82.324L128.035 82.436L120.049 123.33H119.461Z" fill="#FADFDA"/>
<path id="Vector_288" d="M118.875 123.33L126.903 82.2141L127.469 82.3241L119.461 123.33H118.875Z" fill="#FAE0DA"/>
<path id="Vector_289" d="M118.287 123.33L126.339 82.104L126.903 82.214L118.875 123.33H118.287Z" fill="#FAE0DB"/>
<path id="Vector_290" d="M117.701 123.33L125.773 81.9941L126.339 82.1041L118.287 123.33H117.701Z" fill="#FAE1DC"/>
<path id="Vector_291" d="M117.113 123.33L125.203 81.9041H125.311L125.773 81.9941L117.701 123.33H117.113Z" fill="#FAE2DD"/>
<path id="Vector_292" d="M116.525 123.33L124.615 81.9041H125.201L117.111 123.33H116.525Z" fill="#FAE3DD"/>
<path id="Vector_293" d="M115.938 123.33L124.028 81.9041H124.616L116.526 123.33H115.938Z" fill="#FAE3DE"/>
<path id="Vector_294" d="M115.352 123.33L123.442 81.9041H124.028L115.938 123.33H115.352Z" fill="#FAE4DE"/>
<path id="Vector_295" d="M114.764 123.33L122.854 81.9041H123.442L115.352 123.33H114.764Z" fill="#F9E5DF"/>
<path id="Vector_296" d="M114.178 123.33L122.266 81.9041H122.854L114.764 123.33H114.178Z" fill="#F9E5DF"/>
<path id="Vector_297" d="M113.59 123.33L121.68 81.9041H122.266L114.178 123.33H113.59Z" fill="#F9E6E0"/>
<path id="Vector_298" d="M113.004 123.33L121.092 81.9041H121.68L113.59 123.33H113.004Z" fill="#F9E6E0"/>
<path id="Vector_299" d="M112.416 123.33L120.506 81.9041H121.092L113.004 123.33H112.416Z" fill="#F9E7E1"/>
<path id="Vector_300" d="M111.83 123.33L119.918 81.9041H120.506L112.416 123.33H111.83Z" fill="#F9E7E1"/>
<path id="Vector_301" d="M111.242 123.33L119.332 81.9041H119.918L111.83 123.33H111.242Z" fill="#F9E7E2"/>
<path id="Vector_302" d="M110.656 123.33L118.744 81.9041H119.332L111.242 123.33H110.656Z" fill="#F9E8E2"/>
<path id="Vector_303" d="M110.068 123.33L118.158 81.9041H118.744L110.656 123.33H110.068Z" fill="#F9E8E2"/>
<path id="Vector_304" d="M109.482 123.33L117.57 81.9041H118.158L110.068 123.33H109.482Z" fill="#F9E8E3"/>
<path id="Vector_305" d="M109.274 123.33L108.908 123.26L116.984 81.9041H117.57L109.482 123.33H109.274Z" fill="#F9E9E3"/>
<path id="Vector_306" d="M108.908 123.26L108.342 123.15L116.396 81.9041H116.984L108.908 123.26Z" fill="#F9E9E3"/>
<path id="Vector_307" d="M108.341 123.15L107.777 123.038L115.809 81.9041H116.395L108.341 123.15Z" fill="#F9E9E3"/>
<path id="Vector_308" d="M107.779 123.038L107.213 122.928L115.223 81.9041H115.811L107.779 123.038Z" fill="#F9E9E4"/>
<path id="Vector_309" d="M107.212 122.928L106.646 122.818L114.636 81.9041H115.222L107.212 122.928Z" fill="#F9EAE4"/>
<path id="Vector_310" d="M106.646 122.818L106.08 122.708L114.048 81.9041H114.636L106.646 122.818Z" fill="#F9EAE4"/>
<path id="Vector_311" d="M106.08 122.708L105.516 122.598L113.462 81.9041H114.048L106.08 122.708Z" fill="#F9EAE4"/>
<path id="Vector_312" d="M105.517 122.598L104.951 122.486L112.875 81.9041H113.463L105.517 122.598Z" fill="#F9EAE4"/>
<path id="Vector_313" d="M104.951 122.486L104.385 122.376L112.289 81.9041H112.875L104.951 122.486Z" fill="#F9EAE4"/>
<path id="Vector_314" d="M104.384 122.376L103.818 122.266L111.7 81.9041H112.288L104.384 122.376Z" fill="#F9EAE4"/>
<path id="Vector_315" d="M103.818 122.266L103.254 122.156L111.114 81.9041H111.7L103.818 122.266Z" fill="#F9EAE5"/>
<path id="Vector_316" d="M103.254 122.156L102.688 122.046L110.526 81.9041H111.114L103.254 122.156Z" fill="#F9EBE5"/>
<path id="Vector_317" d="M102.689 122.046L102.123 121.934L109.941 81.9041H110.527L102.689 122.046Z" fill="#F9EBE5"/>
<path id="Vector_318" d="M102.123 121.934L101.557 121.824L109.353 81.9041H109.941L102.123 121.934Z" fill="#F9EBE5"/>
<path id="Vector_319" d="M101.556 121.824L100.992 121.714L108.766 81.9041H109.352L101.556 121.824Z" fill="#F9EBE5"/>
<path id="Vector_320" d="M100.992 121.714L100.426 121.604L108.178 81.9041H108.766L100.992 121.714Z" fill="#F9EBE5"/>
<path id="Vector_321" d="M100.425 121.604L99.8594 121.492L107.591 81.9041H108.177L100.425 121.604Z" fill="#F9EBE5"/>
<path id="Vector_322" d="M99.8609 121.492L99.2969 121.382L107.005 81.9041H107.593L99.8609 121.492Z" fill="#F9EBE5"/>
<path id="Vector_323" d="M99.2965 121.382L98.7305 121.272L106.418 81.9041H107.004L99.2965 121.382Z" fill="#F9EBE5"/>
<path id="Vector_324" d="M98.7301 121.272L98.1641 121.162L105.83 81.9041H106.418L98.7301 121.272Z" fill="#F9EBE5"/>
<path id="Vector_325" d="M98.1637 121.162L97.5977 121.052L105.244 81.9041H105.83L98.1637 121.162Z" fill="#F9EBE5"/>
<path id="Vector_326" d="M97.5992 121.052L97.0352 120.94L104.657 81.9041H105.245L97.5992 121.052Z" fill="#F9EBE5"/>
<path id="Vector_327" d="M97.0347 120.94L96.4688 120.83L104.069 81.9041H104.657L97.0347 120.94Z" fill="#F9EBE5"/>
<path id="Vector_328" d="M96.4683 120.83L95.9023 120.72L103.482 81.9041H104.068L96.4683 120.83Z" fill="#F9EBE5"/>
<path id="Vector_329" d="M95.9019 120.72L95.3359 120.61L102.894 81.9041H103.482L95.9019 120.72Z" fill="#F9EBE5"/>
<path id="Vector_330" d="M95.3355 120.61L94.7715 120.5L102.307 81.9041H102.893L95.3355 120.61Z" fill="#F9EBE5"/>
<path id="Vector_331" d="M94.773 120.5L94.207 120.388L101.721 81.9041H102.309L94.773 120.5Z" fill="#F9EBE5"/>
<path id="Vector_332" d="M94.2066 120.388L93.6406 120.278L101.135 81.9041H101.721L94.2066 120.388Z" fill="#F9EBE5"/>
<path id="Vector_333" d="M93.6402 120.278L82.5762 118.118V81.9041H101.134L93.6402 120.278Z" fill="#F9EBE5"/>
</g>
</g>
</g>
<path id="Vector_334" d="M122.489 90.0659C122.925 89.7639 123.479 89.6799 123.985 89.8439L140.597 95.2179C141.191 95.4099 141.403 96.1439 141.003 96.6239C140.681 97.0099 140.153 97.1579 139.677 96.9959L122.641 91.1619C122.161 90.9979 122.071 90.3559 122.489 90.0659Z" fill="#FF607B"/>
<path id="Vector_335" d="M117.839 94.4901C118.261 94.0941 118.865 93.9621 119.413 94.1461L130.913 98.0161C131.421 98.1861 131.599 98.8121 131.259 99.2261C130.981 99.5641 130.523 99.6941 130.109 99.5521L118.045 95.4441C117.637 95.3061 117.525 94.7821 117.839 94.4881V94.4901Z" fill="#FF607B"/>
<path id="Vector_336" d="M113.057 98.1621C113.497 97.8101 114.087 97.7121 114.617 97.9041L127.863 102.718C128.383 102.908 128.539 103.566 128.159 103.968C127.869 104.276 127.423 104.382 127.025 104.236L113.221 99.1701C112.791 99.0121 112.699 98.4461 113.057 98.1601V98.1621Z" fill="#FF607B"/>
<path id="Vector_337" d="M102.304 105.51C102.712 105.06 103.354 104.906 103.92 105.122L111.49 108.01C111.956 108.188 112.122 108.76 111.826 109.16C111.55 109.536 111.056 109.678 110.622 109.51L102.508 106.368C102.158 106.232 102.052 105.788 102.304 105.51Z" fill="#FF607B"/>
<path id="Vector_338" d="M107.246 101.586C107.694 101.304 108.246 101.246 108.744 101.428L126.186 107.806C126.744 108.01 126.878 108.736 126.432 109.126C126.136 109.384 125.724 109.46 125.354 109.326L107.36 102.698C106.876 102.52 106.806 101.86 107.244 101.586H107.246Z" fill="#FF607B"/>
</g>
<g id="Group_6">
<g id="Clip path group_5">
<mask id="mask4_4365_42817" style="mask-type:luminance" maskUnits="userSpaceOnUse" x="0" y="44" width="60" height="35">
<g id="clippath-4">
<path id="Vector_339" d="M25.772 44.1201C17.942 47.7821 9.52802 50.0381 0.916016 50.7801C2.08002 53.4861 10.348 67.0261 34.892 78.1841C35.556 78.2861 50.882 71.1561 59.294 66.2661C59.008 66.6741 33.168 57.1661 25.772 44.1201Z" fill="white"/>
</g>
</mask>
<g mask="url(#mask4_4365_42817)">
<g id="Group_7">
<path id="Vector_340" d="M0.916016 48.5661L5.00401 47.7681L10.962 78.2861H0.916016V48.5661Z" fill="#FF9999"/>
<path id="Vector_341" d="M5.00391 47.7682L5.46991 47.6782L11.4459 78.2862H10.9619L5.00391 47.7682Z" fill="#FF9999"/>
<path id="Vector_342" d="M5.4707 47.6782L5.9367 47.5862L11.9307 78.2862H11.4467L5.4707 47.6782Z" fill="#FF9C9C"/>
<path id="Vector_343" d="M5.93555 47.5861L6.40155 47.4941L12.4155 78.2861H11.9295L5.93555 47.5861Z" fill="#FF9F9F"/>
<path id="Vector_344" d="M6.40234 47.4941L6.86834 47.4041L12.9003 78.2861H12.4163L6.40234 47.4941Z" fill="#FEA2A2"/>
<path id="Vector_345" d="M6.86719 47.404L7.33519 47.312L13.3832 78.286H12.8992L6.86719 47.404Z" fill="#FEA5A4"/>
<path id="Vector_346" d="M7.33594 47.3122L7.80194 47.2222L13.8679 78.2862H13.3839L7.33594 47.3122Z" fill="#FEA8A7"/>
<path id="Vector_347" d="M7.80273 47.2221L8.26873 47.1301L14.3527 78.2861H13.8687L7.80273 47.2221Z" fill="#FEABAA"/>
<path id="Vector_348" d="M8.26758 47.13L8.73358 47.04L14.8356 78.286H14.3516L8.26758 47.13Z" fill="#FDAEAC"/>
<path id="Vector_349" d="M8.73438 47.04L9.20038 46.948L15.3204 78.286H14.8364L8.73438 47.04Z" fill="#FDB0AF"/>
<path id="Vector_350" d="M9.19922 46.9482L9.66522 46.8582L15.8032 78.2861H15.3192L9.19922 46.9482Z" fill="#FDB3B1"/>
<path id="Vector_351" d="M9.66602 46.8581L10.134 46.7661L16.288 78.2861H15.804L9.66602 46.8581Z" fill="#FDB5B3"/>
<path id="Vector_352" d="M10.1348 46.766L10.6008 46.676L16.7728 78.286H16.2888L10.1348 46.766Z" fill="#FDB8B6"/>
<path id="Vector_353" d="M10.5996 46.6762L11.0656 46.5842L17.2556 78.2862H16.7716L10.5996 46.6762Z" fill="#FDBAB8"/>
<path id="Vector_354" d="M11.0664 46.5841L11.5324 46.4941L17.7404 78.2861H17.2564L11.0664 46.5841Z" fill="#FCBCBA"/>
<path id="Vector_355" d="M11.5312 46.4941L11.9973 46.4021L18.2232 78.2861H17.7392L11.5312 46.4941Z" fill="#FCBFBC"/>
<path id="Vector_356" d="M11.998 46.402L12.464 46.312L18.708 78.286H18.224L11.998 46.402Z" fill="#FCC1BE"/>
<path id="Vector_357" d="M12.4648 46.3122L12.9328 46.2202L19.1928 78.2862H18.7088L12.4648 46.3122Z" fill="#FCC3C0"/>
<path id="Vector_358" d="M12.9316 46.2202L13.3976 46.1282L19.6776 78.2862H19.1916L12.9316 46.2202Z" fill="#FCC5C2"/>
<path id="Vector_359" d="M13.3984 46.1281L13.8644 46.0381L20.1624 78.2861H19.6784L13.3984 46.1281Z" fill="#FCC7C3"/>
<path id="Vector_360" d="M13.8633 46.038L14.3293 45.946L20.6453 78.286H20.1613L13.8633 46.038Z" fill="#FCC8C5"/>
<path id="Vector_361" d="M14.3301 45.9462L14.7961 45.8562L21.1301 78.2862H20.6461L14.3301 45.9462Z" fill="#FBCAC7"/>
<path id="Vector_362" d="M14.7969 45.8562L15.2629 45.7642L21.6149 78.2862H21.1309L14.7969 45.8562Z" fill="#FBCCC8"/>
<path id="Vector_363" d="M15.2617 45.7641L15.7297 45.6741L22.0977 78.2861H21.6137L15.2617 45.7641Z" fill="#FBCECA"/>
<path id="Vector_364" d="M15.7305 45.674L16.1965 45.582L22.5825 78.286H22.0985L15.7305 45.674Z" fill="#FBCFCB"/>
<path id="Vector_365" d="M16.1953 45.5822L16.6613 45.4922L23.0653 78.2862H22.5813L16.1953 45.5822Z" fill="#FBD1CD"/>
<path id="Vector_366" d="M16.6621 45.4921L17.1281 45.4001L23.5501 78.2861H23.0661L16.6621 45.4921Z" fill="#FBD2CE"/>
<path id="Vector_367" d="M17.1289 45.4001L17.5949 45.3101L24.0349 78.2861H23.5509L17.1289 45.4001Z" fill="#FBD4CF"/>
<path id="Vector_368" d="M17.5938 45.31L18.0617 45.218L24.5177 78.286H24.0337L17.5938 45.31Z" fill="#FBD5D1"/>
<path id="Vector_369" d="M18.0625 45.2182L18.5285 45.1282L25.0025 78.2862H24.5185L18.0625 45.2182Z" fill="#FBD6D2"/>
<path id="Vector_370" d="M18.5273 45.1281L18.9933 45.0361L25.4853 78.2861H25.0013L18.5273 45.1281Z" fill="#FAD7D3"/>
<path id="Vector_371" d="M18.9941 45.036L19.4601 44.946L25.9701 78.286H25.4861L18.9941 45.036Z" fill="#FAD9D4"/>
<path id="Vector_372" d="M19.4609 44.946L19.9269 44.854L26.4549 78.286H25.9709L19.4609 44.946Z" fill="#FADAD5"/>
<path id="Vector_373" d="M19.9258 44.8542L20.3918 44.7622L26.9378 78.2862H26.4538L19.9258 44.8542Z" fill="#FADBD6"/>
<path id="Vector_374" d="M20.3926 44.7621L20.8606 44.6721L27.4246 78.2861H26.9386L20.3926 44.7621Z" fill="#FADCD7"/>
<path id="Vector_375" d="M20.8594 44.6721L21.3254 44.5801L27.9074 78.2861H27.4234L20.8594 44.6721Z" fill="#FADDD8"/>
<path id="Vector_376" d="M21.3262 44.5802L21.7922 44.4902L28.3922 78.2862H27.9082L21.3262 44.5802Z" fill="#FADED9"/>
<path id="Vector_377" d="M21.793 44.4902L22.259 44.3982L28.877 78.2862H28.393L21.793 44.4902Z" fill="#FADFDA"/>
<path id="Vector_378" d="M22.2578 44.3981L22.7238 44.3081L29.3598 78.2861H28.8758L22.2578 44.3981Z" fill="#FAE0DA"/>
<path id="Vector_379" d="M22.7246 44.3081L23.1906 44.2161L29.8446 78.2861H29.3606L22.7246 44.3081Z" fill="#FAE0DB"/>
<path id="Vector_380" d="M23.1895 44.2162L23.6575 44.1262L30.3275 78.2862H29.8435L23.1895 44.2162Z" fill="#FAE1DC"/>
<path id="Vector_381" d="M23.6582 44.1261L23.6842 44.1201H24.1402L30.8122 78.2861H30.3282L23.6582 44.1261Z" fill="#FAE2DD"/>
<path id="Vector_382" d="M24.6246 44.1201L31.2966 78.2861H30.8126L24.1406 44.1201H24.6246Z" fill="#FAE3DD"/>
<path id="Vector_383" d="M25.107 44.1201L31.779 78.2861H31.2951L24.623 44.1201H25.107Z" fill="#FAE3DE"/>
<path id="Vector_384" d="M25.5914 44.1201L32.2634 78.2861H31.7794L25.1074 44.1201H25.5914Z" fill="#FAE4DE"/>
<path id="Vector_385" d="M26.0758 44.1201L32.7478 78.2861H32.2638L25.5918 44.1201H26.0758Z" fill="#F9E5DF"/>
<path id="Vector_386" d="M26.5602 44.1201L33.2322 78.2861H32.7482L26.0762 44.1201H26.5602Z" fill="#F9E5DF"/>
<path id="Vector_387" d="M27.0465 44.1201L33.7165 78.2861H33.2325L26.5605 44.1201H27.0465Z" fill="#F9E6E0"/>
<path id="Vector_388" d="M27.5309 44.1201L34.2009 78.2861H33.7169L27.0469 44.1201H27.5309Z" fill="#F9E6E0"/>
<path id="Vector_389" d="M28.0133 44.1201L34.6833 78.2861H34.1993L27.5293 44.1201H28.0133Z" fill="#F9E7E1"/>
<path id="Vector_390" d="M28.4977 44.1201L35.1697 78.2861H34.6837L28.0137 44.1201H28.4977Z" fill="#F9E7E1"/>
<path id="Vector_391" d="M28.982 44.1201L35.654 78.2861H35.17L28.498 44.1201H28.982Z" fill="#F9E7E2"/>
<path id="Vector_392" d="M29.4664 44.1201L36.1384 78.2861H35.6544L28.9824 44.1201H29.4664Z" fill="#F9E8E2"/>
<path id="Vector_393" d="M29.9508 44.1201L36.6228 78.2861H36.1388L29.4668 44.1201H29.9508Z" fill="#F9E8E2"/>
<path id="Vector_394" d="M30.4332 44.1201L37.1052 78.2861H36.6212L29.9492 44.1201H30.4332Z" fill="#F9E8E3"/>
<path id="Vector_395" d="M30.9176 44.1201L37.5896 78.2861H37.1056L30.4336 44.1201H30.9176Z" fill="#F9E9E3"/>
<path id="Vector_396" d="M31.402 44.1201L38.058 78.2041L37.644 78.2861H37.59L30.918 44.1201H31.402Z" fill="#F9E9E3"/>
<path id="Vector_397" d="M31.8863 44.1201L38.5243 78.1141L38.0583 78.2041L31.4023 44.1201H31.8863Z" fill="#F9E9E3"/>
<path id="Vector_398" d="M32.3707 44.1201L38.9907 78.0221L38.5247 78.1141L31.8867 44.1201H32.3707Z" fill="#F9E9E4"/>
<path id="Vector_399" d="M32.8531 44.1201L39.4571 77.9321L38.9891 78.0221L32.3691 44.1201H32.8531Z" fill="#F9EAE4"/>
<path id="Vector_400" d="M33.3375 44.1201L39.9235 77.8401L39.4575 77.9321L32.8535 44.1201H33.3375Z" fill="#F9EAE4"/>
<path id="Vector_401" d="M33.8219 44.1201L40.3899 77.7501L39.9239 77.8401L33.3379 44.1201H33.8219Z" fill="#F9EAE4"/>
<path id="Vector_402" d="M34.3063 44.1201L40.8563 77.6581L40.3903 77.7501L33.8223 44.1201H34.3063Z" fill="#F9EAE4"/>
<path id="Vector_403" d="M34.7926 44.1201L41.3226 77.5661L40.8566 77.6581L34.3066 44.1201H34.7926Z" fill="#F9EAE4"/>
<path id="Vector_404" d="M35.277 44.1201L41.789 77.4761L41.323 77.5661L34.793 44.1201H35.277Z" fill="#F9EAE4"/>
<path id="Vector_405" d="M35.7594 44.1201L42.2554 77.3841L41.7874 77.4761L35.2754 44.1201H35.7594Z" fill="#F9EAE5"/>
<path id="Vector_406" d="M36.2438 44.1201L42.7218 77.2941L42.2558 77.3841L35.7598 44.1201H36.2438Z" fill="#F9EBE5"/>
<path id="Vector_407" d="M36.7281 44.1201L43.1881 77.2021L42.7221 77.2941L36.2441 44.1201H36.7281Z" fill="#F9EBE5"/>
<path id="Vector_408" d="M37.2125 44.1201L43.6545 77.1121L43.1885 77.2021L36.7285 44.1201H37.2125Z" fill="#F9EBE5"/>
<path id="Vector_409" d="M37.6969 44.1201L44.1209 77.0201L43.6549 77.1121L37.2129 44.1201H37.6969Z" fill="#F9EBE5"/>
<path id="Vector_410" d="M38.1793 44.1201L44.5853 76.9301L44.1193 77.0201L37.6953 44.1201H38.1793Z" fill="#F9EBE5"/>
<path id="Vector_411" d="M38.6637 44.1201L45.0537 76.8381L44.5857 76.9301L38.1797 44.1201H38.6637Z" fill="#F9EBE5"/>
<path id="Vector_412" d="M39.1481 44.1201L45.5201 76.7481L45.0541 76.8381L38.6641 44.1201H39.1481Z" fill="#F9EBE5"/>
<path id="Vector_413" d="M39.6324 44.1201L45.9864 76.6561L45.5204 76.7481L39.1484 44.1201H39.6324Z" fill="#F9EBE5"/>
<path id="Vector_414" d="M40.1168 44.1201L46.4528 76.5661L45.9868 76.6561L39.6328 44.1201H40.1168Z" fill="#F9EBE5"/>
<path id="Vector_415" d="M40.5992 44.1201L46.9172 76.4741L46.4512 76.5661L40.1152 44.1201H40.5992Z" fill="#F9EBE5"/>
<path id="Vector_416" d="M41.0836 44.1201L47.3836 76.3841L46.9176 76.4741L40.5996 44.1201H41.0836Z" fill="#F9EBE5"/>
<path id="Vector_417" d="M41.568 44.1201L47.852 76.2921L47.384 76.3841L41.084 44.1201H41.568Z" fill="#F9EBE5"/>
<path id="Vector_418" d="M42.0524 44.1201L48.3184 76.2001L47.8524 76.2921L41.5684 44.1201H42.0524Z" fill="#F9EBE5"/>
<path id="Vector_419" d="M42.5387 44.1201L48.7847 76.1101L48.3187 76.2001L42.0527 44.1201H42.5387Z" fill="#F9EBE5"/>
<path id="Vector_420" d="M43.0211 44.1201L49.2491 76.0181L48.7831 76.1101L42.5371 44.1201H43.0211Z" fill="#F9EBE5"/>
<path id="Vector_421" d="M43.5055 44.1201L49.7155 75.9281L49.2495 76.0181L43.0215 44.1201H43.5055Z" fill="#F9EBE5"/>
<path id="Vector_422" d="M43.9899 44.1201L50.1839 75.8361L49.7159 75.9281L43.5059 44.1201H43.9899Z" fill="#F9EBE5"/>
<path id="Vector_423" d="M59.2942 74.0581L50.1842 75.8361L43.9902 44.1201H59.2942V74.0581Z" fill="#F9EBE5"/>
</g>
</g>
</g>
<path id="Vector_424" d="M26.3782 50.8522C26.0182 50.6022 25.5622 50.5342 25.1442 50.6702L11.4442 55.1022C10.9542 55.2622 10.7782 55.8662 11.1082 56.2622C11.3742 56.5822 11.8102 56.7022 12.2022 56.5682L26.2502 51.7562C26.6462 51.6202 26.7202 51.0922 26.3762 50.8522H26.3782Z" fill="#FF607B"/>
<path id="Vector_425" d="M26.1392 56.3102C25.7912 55.9842 25.2932 55.8762 24.8412 56.0282L15.3572 59.2202C14.9392 59.3602 14.7912 59.8762 15.0712 60.2182C15.3012 60.4962 15.6772 60.6042 16.0192 60.4882L25.9672 57.1002C26.3032 56.9862 26.3972 56.5542 26.1372 56.3122L26.1392 56.3102Z" fill="#FF607B"/>
<path id="Vector_426" d="M31.2292 59.0141C30.8672 58.7241 30.3792 58.6441 29.9432 58.8021L19.0192 62.7721C18.5912 62.9281 18.4612 63.4721 18.7752 63.8041C19.0152 64.0581 19.3832 64.1441 19.7092 64.0241L31.0932 59.8461C31.4472 59.7161 31.5232 59.2501 31.2292 59.0141Z" fill="#FF607B"/>
<path id="Vector_427" d="M35.0495 67.208C34.7135 66.836 34.1835 66.71 33.7175 66.888L27.4735 69.27C27.0915 69.416 26.9515 69.888 27.1955 70.218C27.4235 70.528 27.8315 70.646 28.1895 70.506L34.8815 67.914C35.1695 67.802 35.2575 67.436 35.0495 67.206V67.208Z" fill="#FF607B"/>
<path id="Vector_428" d="M38.8284 60.8041C38.4584 60.5721 38.0024 60.5241 37.5924 60.6741L23.2084 65.9341C22.7484 66.1021 22.6364 66.7021 23.0064 67.0241C23.2504 67.2381 23.5904 67.3001 23.8944 67.1881L38.7344 61.7221C39.1344 61.5741 39.1904 61.0321 38.8304 60.8041H38.8284Z" fill="#FF607B"/>
</g>
<path id="Vector_429" d="M26.2434 23.998C26.5114 22.89 28.0874 22.89 28.3554 23.998L29.2554 27.728C29.3514 28.124 29.6594 28.434 30.0554 28.528L33.7854 29.428C34.8934 29.696 34.8934 31.272 33.7854 31.54L30.0554 32.44C29.6594 32.536 29.3494 32.844 29.2554 33.24L28.3554 36.97C28.0874 38.078 26.5114 38.078 26.2434 36.97L25.3434 33.24C25.2474 32.844 24.9394 32.534 24.5434 32.44L20.8134 31.54C19.7054 31.272 19.7054 29.696 20.8134 29.428L24.5434 28.528C24.9394 28.432 25.2494 28.124 25.3434 27.728L26.2434 23.998Z" fill="#FFBEBD"/>
<path id="Vector_430" d="M134.99 118.496C135.258 117.388 136.834 117.388 137.102 118.496L138.002 122.226C138.098 122.622 138.406 122.932 138.802 123.026L142.532 123.926C143.64 124.194 143.64 125.77 142.532 126.038L138.802 126.938C138.406 127.034 138.096 127.342 138.002 127.738L137.102 131.468C136.834 132.576 135.258 132.576 134.99 131.468L134.09 127.738C133.994 127.342 133.686 127.032 133.29 126.938L129.56 126.038C128.452 125.77 128.452 124.194 129.56 123.926L133.29 123.026C133.686 122.93 133.996 122.622 134.09 122.226L134.99 118.496Z" fill="#FFBEBD"/>
<path id="Vector_431" d="M136.789 64.9781C136.617 64.3041 137.241 63.6941 137.911 63.8841L142.439 65.1561C143.109 65.3441 143.325 66.1881 142.827 66.6761L139.461 69.9601C138.963 70.4461 138.125 70.2101 137.953 69.5361L136.791 64.9781H136.789Z" fill="#FFBEBD"/>
<g id="Group_8">
<g id="Clip path group_6">
<mask id="mask5_4365_42817" style="mask-type:luminance" maskUnits="userSpaceOnUse" x="35" y="136" width="17" height="9">
<g id="clippath-5">
<path id="Vector_432" d="M51.562 137.354C51.586 137.312 51.6 137.264 51.604 137.216C51.608 137.168 51.602 137.118 51.586 137.074C51.57 137.028 51.544 136.986 51.51 136.952C51.476 136.916 51.436 136.888 51.392 136.87C50.086 136.354 45.442 134.804 42.904 137.904C41.212 139.958 38.82 141.314 36.188 141.712C36.122 141.722 36.06 141.75 36.01 141.794C35.96 141.84 35.926 141.898 35.91 141.962C35.894 142.026 35.898 142.096 35.922 142.158C35.946 142.22 35.988 142.274 36.042 142.312C38.268 143.924 45.672 147.974 51.56 137.358L51.562 137.354Z" fill="white"/>
</g>
</mask>
<g mask="url(#mask5_4365_42817)">
<g id="Group_9">
<path id="Vector_433" d="M42.957 147.97L51.609 144.246V144.434L43.395 147.97H42.957Z" fill="#FFA4A2"/>
<path id="Vector_434" d="M42.5195 147.97L51.6075 144.058V144.246L42.9555 147.97H42.5195Z" fill="#FFA5A3"/>
<path id="Vector_435" d="M42.084 147.97L51.608 143.87V144.058L42.52 147.97H42.084Z" fill="#FFA6A4"/>
<path id="Vector_436" d="M41.6484 147.97L51.6084 143.682V143.87L42.0844 147.97H41.6484Z" fill="#FFA7A5"/>
<path id="Vector_437" d="M41.2129 147.97L51.6089 143.494V143.682L41.6489 147.97H41.2129Z" fill="#FFA8A6"/>
<path id="Vector_438" d="M40.7773 147.97L51.6093 143.306V143.494L41.2133 147.97H40.7773Z" fill="#FFA9A7"/>
<path id="Vector_439" d="M40.3398 147.97L51.6078 143.12V143.306L40.7758 147.97H40.3398Z" fill="#FFAAA7"/>
<path id="Vector_440" d="M39.9043 147.97L51.6083 142.932V143.12L40.3403 147.97H39.9043Z" fill="#FFABA8"/>
<path id="Vector_441" d="M39.4688 147.97L51.6088 142.744V142.932L39.9047 147.97H39.4688Z" fill="#FFACA9"/>
<path id="Vector_442" d="M39.0312 147.97L51.6093 142.556V142.744L39.4693 147.97H39.0312Z" fill="#FFADAA"/>
<path id="Vector_443" d="M38.5938 147.97L51.6078 142.368V142.556L39.0297 147.97H38.5938Z" fill="#FFAEAB"/>
<path id="Vector_444" d="M38.1582 147.97L51.6082 142.18V142.368L38.5942 147.97H38.1582Z" fill="#FFAFAC"/>
<path id="Vector_445" d="M37.9892 147.97L37.9492 147.874L51.6092 141.992V142.18L38.1592 147.97H37.9892Z" fill="#FFB0AC"/>
<path id="Vector_446" d="M37.9489 147.874L37.8789 147.716L51.6089 141.804V141.992L37.9489 147.874Z" fill="#FFB1AD"/>
<path id="Vector_447" d="M37.8786 147.716L37.8105 147.556L51.6085 141.616V141.804L37.8786 147.716Z" fill="#FFB2AE"/>
<path id="Vector_448" d="M37.8102 147.556L37.7422 147.398L51.6082 141.428V141.616L37.8102 147.556Z" fill="#FFB3AF"/>
<path id="Vector_449" d="M37.7418 147.398L37.6738 147.24L51.6078 141.24V141.428L37.7418 147.398Z" fill="#FFB4B0"/>
<path id="Vector_450" d="M37.6754 147.24L37.6074 147.082L51.6094 141.054V141.24L37.6754 147.24Z" fill="#FFB5B1"/>
<path id="Vector_451" d="M37.6071 147.082L37.5391 146.924L51.6091 140.866V141.054L37.6071 147.082Z" fill="#FFB6B1"/>
<path id="Vector_452" d="M37.5387 146.924L37.4707 146.764L51.6087 140.678V140.866L37.5387 146.924Z" fill="#FFB7B2"/>
<path id="Vector_453" d="M37.4703 146.764L37.4023 146.606L51.6083 140.49V140.678L37.4703 146.764Z" fill="#FFB8B3"/>
<path id="Vector_454" d="M37.402 146.606L37.334 146.448L51.608 140.302V140.49L37.402 146.606Z" fill="#FFB9B4"/>
<path id="Vector_455" d="M37.3337 146.448L37.2637 146.29L51.6077 140.114V140.302L37.3337 146.448Z" fill="#FFBAB5"/>
<path id="Vector_456" d="M37.2653 146.29L37.1973 146.13L51.6093 139.926V140.114L37.2653 146.29Z" fill="#FFBBB6"/>
<path id="Vector_457" d="M37.1969 146.13L37.1289 145.972L51.6089 139.738V139.926L37.1969 146.13Z" fill="#FFBCB7"/>
<path id="Vector_458" d="M37.1286 145.972L37.0605 145.814L51.6086 139.55V139.738L37.1286 145.972Z" fill="#FFBDB7"/>
<path id="Vector_459" d="M37.0602 145.814L36.9922 145.656L51.6082 139.362V139.55L37.0602 145.814Z" fill="#FFBEB8"/>
<path id="Vector_460" d="M36.9918 145.656L36.9238 145.498L51.6078 139.174V139.362L36.9918 145.656Z" fill="#FFBFB9"/>
<path id="Vector_461" d="M36.9254 145.498L36.8574 145.338L51.6094 138.988V139.174L36.9254 145.498Z" fill="#FFC1BA"/>
<path id="Vector_462" d="M36.8571 145.338L36.7891 145.18L51.6091 138.8V138.988L36.8571 145.338Z" fill="#FFC2BB"/>
<path id="Vector_463" d="M36.7887 145.18L36.7207 145.022L51.6087 138.612V138.8L36.7887 145.18Z" fill="#FFC3BC"/>
<path id="Vector_464" d="M36.7203 145.022L36.6523 144.864L51.6083 138.424V138.612L36.7203 145.022Z" fill="#FFC4BC"/>
<path id="Vector_465" d="M36.652 144.864L36.582 144.704L51.608 138.236V138.424L36.652 144.864Z" fill="#FFC5BD"/>
<path id="Vector_466" d="M36.5817 144.704L36.5137 144.546L51.6077 138.048V138.236L36.5817 144.704Z" fill="#FFC6BE"/>
<path id="Vector_467" d="M36.5153 144.546L36.4473 144.388L51.6093 137.86V138.048L36.5153 144.546Z" fill="#FFC7BF"/>
<path id="Vector_468" d="M36.4469 144.388L36.3789 144.23L51.6089 137.672V137.86L36.4469 144.388Z" fill="#FFC8C0"/>
<path id="Vector_469" d="M36.3786 144.23L36.3105 144.072L51.6086 137.484V137.672L36.3786 144.23Z" fill="#FFC9C1"/>
<path id="Vector_470" d="M36.3102 144.072L36.2422 143.912L51.6082 137.296V137.484L36.3102 144.072Z" fill="#FFCAC2"/>
<path id="Vector_471" d="M36.2418 143.912L36.1738 143.754L51.6078 137.11V137.296L36.2418 143.912Z" fill="#FFCBC2"/>
<path id="Vector_472" d="M36.1754 143.754L36.1074 143.596L51.6094 136.922V137.11L36.1754 143.754Z" fill="#FFCCC3"/>
<path id="Vector_473" d="M36.1071 143.596L36.0391 143.438L51.6091 136.734V136.922L36.1071 143.596Z" fill="#FFCDC4"/>
<path id="Vector_474" d="M36.0388 143.438L35.9688 143.278L51.6088 136.546V136.734L36.0388 143.438Z" fill="#FFCEC5"/>
<path id="Vector_475" d="M35.9684 143.278L35.9004 143.12L51.6084 136.358V136.546L35.9684 143.278Z" fill="#FFCFC6"/>
<path id="Vector_476" d="M35.9005 143.12L35.8965 143.108V142.934L51.6085 136.17V136.358L35.9005 143.12Z" fill="#FFD0C7"/>
<path id="Vector_477" d="M35.8965 142.746L51.5645 136.002L51.6085 136.106V136.17L35.8965 142.934V142.746Z" fill="#FFD1C7"/>
<path id="Vector_478" d="M35.8965 142.56L51.4945 135.844L51.5645 136.002L35.8965 142.746V142.56Z" fill="#FFD2C8"/>
<path id="Vector_479" d="M35.8965 142.372L51.4265 135.684L51.4945 135.844L35.8965 142.56V142.372Z" fill="#FFD3C9"/>
<path id="Vector_480" d="M35.8965 142.184L51.3585 135.526L51.4265 135.684L35.8965 142.372V142.184Z" fill="#FFD4CA"/>
<path id="Vector_481" d="M35.8965 141.996L51.2905 135.368L51.3585 135.526L35.8965 142.184V141.996Z" fill="#FFD5CB"/>
<path id="Vector_482" d="M35.8965 141.808L51.2225 135.21L51.2905 135.368L35.8965 141.996V141.808Z" fill="#FFD6CC"/>
<path id="Vector_483" d="M35.8965 141.62L51.1545 135.05L51.2225 135.21L35.8965 141.808V141.62Z" fill="#FFD7CC"/>
<path id="Vector_484" d="M35.8965 141.432L51.0865 134.892L51.1545 135.05L35.8965 141.62V141.432Z" fill="#FFD8CD"/>
<path id="Vector_485" d="M35.8965 141.244L50.8585 134.802H51.0465L51.0865 134.892L35.8965 141.432V141.244Z" fill="#FFD9CE"/>
<path id="Vector_486" d="M35.8965 141.056L50.4225 134.802H50.8585L35.8965 141.244V141.056Z" fill="#FFDACF"/>
<path id="Vector_487" d="M35.8965 140.868L49.9865 134.802H50.4225L35.8965 141.056V140.868Z" fill="#FFDBD0"/>
<path id="Vector_488" d="M35.8965 140.682L49.5505 134.802H49.9865L35.8965 140.868V140.682Z" fill="#FFDCD1"/>
<path id="Vector_489" d="M35.8965 140.494L49.1145 134.802H49.5505L35.8965 140.682V140.494Z" fill="#FFDDD2"/>
<path id="Vector_490" d="M35.8965 140.306L48.6785 134.802H49.1145L35.8965 140.494V140.306Z" fill="#FFDED2"/>
<path id="Vector_491" d="M35.8965 140.118L48.2425 134.802H48.6785L35.8965 140.306V140.118Z" fill="#FFDFD3"/>
<path id="Vector_492" d="M35.8965 139.93L47.8045 134.802H48.2425L35.8965 140.118V139.93Z" fill="#FFE0D4"/>
<path id="Vector_493" d="M35.8965 139.742L47.3685 134.802H47.8045L35.8965 139.93V139.742Z" fill="#FFE1D5"/>
<path id="Vector_494" d="M35.8965 139.554L46.9325 134.802H47.3685L35.8965 139.742V139.554Z" fill="#FFE2D6"/>
<path id="Vector_495" d="M35.8965 139.366L46.4965 134.802H46.9325L35.8965 139.554V139.366Z" fill="#FFE3D7"/>
<path id="Vector_496" d="M35.8965 139.178L46.0605 134.802H46.4965L35.8965 139.366V139.178Z" fill="#FFE4D7"/>
<path id="Vector_497" d="M35.8965 138.99L45.6245 134.802H46.0605L35.8965 139.178V138.99Z" fill="#FFE5D8"/>
<path id="Vector_498" d="M35.8965 138.802L45.1885 134.802H45.6245L35.8965 138.99V138.802Z" fill="#FFE6D9"/>
<path id="Vector_499" d="M35.8965 138.616L44.7525 134.802H45.1885L35.8965 138.802V138.616Z" fill="#FFE7DA"/>
<path id="Vector_500" d="M44.7525 134.802L35.8965 138.616V134.802H44.7525Z" fill="#FFE7DA"/>
</g>
</g>
</g>
<g id="Clip path group_7">
<mask id="mask6_4365_42817" style="mask-type:luminance" maskUnits="userSpaceOnUse" x="22" y="118" width="23" height="13">
<g id="clippath-6">
<path id="Vector_501" d="M22.9679 120.386C22.9359 120.326 22.9159 120.262 22.9119 120.194C22.9059 120.128 22.9159 120.06 22.9379 119.996C22.9599 119.932 22.9959 119.874 23.0419 119.826C23.0879 119.778 23.1439 119.738 23.2059 119.712C25.0139 118.994 31.4139 116.856 34.9119 121.164C37.2539 124.004 40.5679 125.876 44.2099 126.412C44.3019 126.426 44.3859 126.466 44.4539 126.528C44.5219 126.59 44.5699 126.672 44.5899 126.762C44.6119 126.852 44.6039 126.946 44.5719 127.032C44.5399 127.118 44.4819 127.192 44.4059 127.244C41.3019 129.434 31.0879 135.024 22.9679 120.384V120.386Z" fill="white"/>
</g>
</mask>
<g mask="url(#mask6_4365_42817)">
<g id="Group_10">
<path id="Vector_502" d="M32.666 135.026L44.612 129.89V130.15L33.27 135.026H32.666Z" fill="#FFA4A2"/>
<path id="Vector_503" d="M32.0645 135.026L44.6125 129.632V129.89L32.6664 135.026H32.0645Z" fill="#FFA5A3"/>
<path id="Vector_504" d="M31.4629 135.026L44.6129 129.372V129.632L32.0649 135.026H31.4629Z" fill="#FFA6A4"/>
<path id="Vector_505" d="M30.8574 135.026L44.6114 129.114V129.372L31.4614 135.026H30.8574Z" fill="#FFA7A5"/>
<path id="Vector_506" d="M30.2559 135.026L44.6119 128.854V129.114L30.8579 135.026H30.2559Z" fill="#FFA8A6"/>
<path id="Vector_507" d="M29.6543 135.026L44.6123 128.594V128.854L30.2563 135.026H29.6543Z" fill="#FFA9A7"/>
<path id="Vector_508" d="M29.0527 135.026L44.6127 128.336V128.594L29.6547 135.026H29.0527Z" fill="#FFAAA7"/>
<path id="Vector_509" d="M28.8217 135.026L28.7637 134.892L44.6117 128.076V128.336L29.0517 135.026H28.8217Z" fill="#FFABA8"/>
<path id="Vector_510" d="M28.7639 134.892L28.6699 134.672L44.6119 127.818V128.076L28.7639 134.892Z" fill="#FFACA9"/>
<path id="Vector_511" d="M28.6702 134.672L28.5742 134.454L44.6122 127.558V127.818L28.6702 134.672Z" fill="#FFADAA"/>
<path id="Vector_512" d="M28.5745 134.454L28.4805 134.236L44.6125 127.3V127.558L28.5745 134.454Z" fill="#FFAEAB"/>
<path id="Vector_513" d="M28.4807 134.236L28.3867 134.016L44.6127 127.04V127.3L28.4807 134.236Z" fill="#FFAFAC"/>
<path id="Vector_514" d="M28.387 134.016L28.293 133.798L44.613 126.782V127.04L28.387 134.016Z" fill="#FFB0AC"/>
<path id="Vector_515" d="M28.2932 133.798L28.1992 133.58L44.6132 126.522V126.782L28.2932 133.798Z" fill="#FFB1AD"/>
<path id="Vector_516" d="M28.1975 133.58L28.1035 133.36L44.6115 126.262V126.522L28.1975 133.58Z" fill="#FFB2AE"/>
<path id="Vector_517" d="M28.1038 133.36L28.0098 133.142L44.6118 126.004V126.262L28.1038 133.36Z" fill="#FFB3AF"/>
<path id="Vector_518" d="M28.01 133.142L27.916 132.924L44.606 125.748L44.612 125.76V126.004L28.01 133.142Z" fill="#FFB4B0"/>
<path id="Vector_519" d="M44.5144 125.522L27.8262 132.699L27.9202 132.918L44.6085 125.741L44.5144 125.522Z" fill="#FFB5B1"/>
<path id="Vector_520" d="M44.4207 125.305L27.7324 132.482L27.8264 132.701L44.5147 125.524L44.4207 125.305Z" fill="#FFB6B1"/>
<path id="Vector_521" d="M44.3289 125.086L27.6406 132.263L27.7347 132.482L44.4229 125.305L44.3289 125.086Z" fill="#FFB7B2"/>
<path id="Vector_522" d="M44.2332 124.867L27.5449 132.044L27.6389 132.263L44.3272 125.086L44.2332 124.867Z" fill="#FFB8B3"/>
<path id="Vector_523" d="M44.1375 124.65L27.4492 131.827L27.5432 132.046L44.2315 124.869L44.1375 124.65Z" fill="#FFB9B4"/>
<path id="Vector_524" d="M44.0457 124.431L27.3574 131.608L27.4514 131.826L44.1397 124.65L44.0457 124.431Z" fill="#FFBAB5"/>
<path id="Vector_525" d="M43.95 124.212L27.2617 131.389L27.3557 131.607L44.044 124.431L43.95 124.212Z" fill="#FFBBB6"/>
<path id="Vector_526" d="M43.8562 123.993L27.168 131.17L27.262 131.388L43.9503 124.212L43.8562 123.993Z" fill="#FFBCB7"/>
<path id="Vector_527" d="M43.7644 123.776L27.0762 130.953L27.1702 131.171L43.8585 123.995L43.7644 123.776Z" fill="#FFBDB7"/>
<path id="Vector_528" d="M43.6687 123.555L26.9805 130.731L27.0745 130.95L43.7628 123.773L43.6687 123.555Z" fill="#FFBEB8"/>
<path id="Vector_529" d="M43.5769 123.338L26.8887 130.514L26.9827 130.733L43.671 123.556L43.5769 123.338Z" fill="#FFBFB9"/>
<path id="Vector_530" d="M43.4812 123.119L26.793 130.295L26.887 130.514L43.5753 123.337L43.4812 123.119Z" fill="#FFC1BA"/>
<path id="Vector_531" d="M43.3855 122.9L26.6973 130.076L26.7913 130.295L43.4795 123.118L43.3855 122.9Z" fill="#FFC2BB"/>
<path id="Vector_532" d="M43.2937 122.68L26.6055 129.857L26.6995 130.076L43.3878 122.899L43.2937 122.68Z" fill="#FFC3BC"/>
<path id="Vector_533" d="M43.2 122.463L26.5117 129.64L26.6057 129.859L43.294 122.682L43.2 122.463Z" fill="#FFC4BC"/>
<path id="Vector_534" d="M43.1043 122.242L26.416 129.419L26.51 129.638L43.1983 122.461L43.1043 122.242Z" fill="#FFC5BD"/>
<path id="Vector_535" d="M43.0125 122.025L26.3242 129.202L26.4182 129.421L43.1065 122.244L43.0125 122.025Z" fill="#FFC6BE"/>
<path id="Vector_536" d="M42.9168 121.806L26.2285 128.983L26.3225 129.202L43.0108 122.025L42.9168 121.806Z" fill="#FFC7BF"/>
<path id="Vector_537" d="M42.823 121.587L26.1348 128.764L26.2288 128.983L42.917 121.806L42.823 121.587Z" fill="#FFC8C0"/>
<path id="Vector_538" d="M42.7293 121.37L26.041 128.547L26.135 128.766L42.8233 121.589L42.7293 121.37Z" fill="#FFC9C1"/>
<path id="Vector_539" d="M42.6355 121.151L25.9473 128.328L26.0413 128.546L42.7295 121.37L42.6355 121.151Z" fill="#FFCAC2"/>
<path id="Vector_540" d="M42.5418 120.932L25.8535 128.109L25.9475 128.327L42.6358 121.151L42.5418 120.932Z" fill="#FFCBC2"/>
<path id="Vector_541" d="M42.448 120.713L25.7598 127.889L25.8538 128.108L42.5421 120.931L42.448 120.713Z" fill="#FFCCC3"/>
<path id="Vector_542" d="M42.3523 120.496L25.6641 127.672L25.7581 127.891L42.4463 120.714L42.3523 120.496Z" fill="#FFCDC4"/>
<path id="Vector_543" d="M42.2586 120.275L25.5703 127.451L25.6643 127.67L42.3526 120.493L42.2586 120.275Z" fill="#FFCEC5"/>
<path id="Vector_544" d="M42.1648 120.058L25.4766 127.234L25.5706 127.453L42.2588 120.276L42.1648 120.058Z" fill="#FFCFC6"/>
<path id="Vector_545" d="M42.0711 119.838L25.3828 127.015L25.4768 127.234L42.1651 120.057L42.0711 119.838Z" fill="#FFD0C7"/>
<path id="Vector_546" d="M41.9773 119.619L25.2891 126.796L25.3831 127.015L42.0713 119.838L41.9773 119.619Z" fill="#FFD1C7"/>
<path id="Vector_547" d="M41.8836 119.4L25.1953 126.577L25.2893 126.796L41.9776 119.619L41.8836 119.4Z" fill="#FFD2C8"/>
<path id="Vector_548" d="M41.7898 119.183L25.1016 126.36L25.1956 126.579L41.8838 119.402L41.7898 119.183Z" fill="#FFD3C9"/>
<path id="Vector_549" d="M41.6941 118.962L25.0059 126.139L25.0999 126.358L41.7881 119.181L41.6941 118.962Z" fill="#FFD4CA"/>
<path id="Vector_550" d="M41.6004 118.745L24.9121 125.922L25.0061 126.141L41.6944 118.964L41.6004 118.745Z" fill="#FFD5CB"/>
<path id="Vector_551" d="M41.5086 118.526L24.8203 125.703L24.9143 125.921L41.6026 118.745L41.5086 118.526Z" fill="#FFD6CC"/>
<path id="Vector_552" d="M41.4129 118.307L24.7246 125.484L24.8186 125.702L41.5069 118.526L41.4129 118.307Z" fill="#FFD7CC"/>
<path id="Vector_553" d="M41.3191 118.09L24.6309 125.267L24.7249 125.485L41.4131 118.308L41.3191 118.09Z" fill="#FFD8CD"/>
<path id="Vector_554" d="M41.2254 117.869L24.5371 125.046L24.6311 125.264L41.3194 118.088L41.2254 117.869Z" fill="#FFD9CE"/>
<path id="Vector_555" d="M41.1297 117.652L24.4414 124.829L24.5354 125.047L41.2237 117.871L41.1297 117.652Z" fill="#FFDACF"/>
<path id="Vector_556" d="M41.0379 117.433L24.3496 124.609L24.4436 124.828L41.1319 117.651L41.0379 117.433Z" fill="#FFDBD0"/>
<path id="Vector_557" d="M40.9422 117.214L24.2539 124.39L24.3479 124.609L41.0362 117.432L40.9422 117.214Z" fill="#FFDCD1"/>
<path id="Vector_558" d="M40.8484 116.995L24.1602 124.171L24.2542 124.39L40.9424 117.213L40.8484 116.995Z" fill="#FFDDD2"/>
<path id="Vector_559" d="M24.1565 124.176L24.0625 123.958L40.5725 116.858H40.7845L40.8445 117L24.1565 124.176Z" fill="#FFDED2"/>
<path id="Vector_560" d="M24.0628 123.958L23.9688 123.738L39.9688 116.858H40.5727L24.0628 123.958Z" fill="#FFDFD3"/>
<path id="Vector_561" d="M23.969 123.738L23.875 123.52L39.367 116.858H39.969L23.969 123.738Z" fill="#FFE0D4"/>
<path id="Vector_562" d="M23.8733 123.52L23.7793 123.302L38.7633 116.858H39.3653L23.8733 123.52Z" fill="#FFE1D5"/>
<path id="Vector_563" d="M23.7795 123.302L23.6855 123.082L38.1615 116.858H38.7635L23.7795 123.302Z" fill="#FFE2D6"/>
<path id="Vector_564" d="M23.6858 123.082L23.5918 122.864L37.5578 116.858H38.1618L23.6858 123.082Z" fill="#FFE3D7"/>
<path id="Vector_565" d="M23.592 122.864L23.498 122.646L36.956 116.858H37.558L23.592 122.864Z" fill="#FFE4D7"/>
<path id="Vector_566" d="M23.4983 122.646L23.4043 122.426L36.3543 116.858H36.9563L23.4983 122.646Z" fill="#FFE5D8"/>
<path id="Vector_567" d="M23.4045 122.426L23.3105 122.208L35.7505 116.858H36.3545L23.4045 122.426Z" fill="#FFE6D9"/>
<path id="Vector_568" d="M23.3108 122.208L23.2168 121.99L35.1488 116.858H35.7508L23.3108 122.208Z" fill="#FFE7DA"/>
<path id="Vector_569" d="M23.2163 121.99L22.9062 121.272V116.858H35.1482L23.2163 121.99Z" fill="#FFE7DA"/>
</g>
</g>
</g>
</g>
</g>
<defs>
<linearGradient id="paint0_linear_4365_42817" x1="79.4992" y1="-3.08812" x2="80.8252" y2="224.182" gradientUnits="userSpaceOnUse">
<stop stop-color="#FFE1E1" stop-opacity="0"/>
<stop offset="1" stop-color="#FFE1E0"/>
</linearGradient>
</defs>
</svg>
