<svg width="160" height="160" viewBox="0 0 160 160" fill="none" xmlns="http://www.w3.org/2000/svg">
<g id="image">
<path id="Vector" d="M80.0002 147.416C115.742 147.416 144.716 118.442 144.716 82.6999C144.716 46.9579 115.742 17.9839 80.0002 17.9839C44.2582 17.9839 15.2842 46.9579 15.2842 82.6999C15.2842 118.442 44.2582 147.416 80.0002 147.416Z" fill="url(#paint0_linear_4363_36272)"/>
<g id="Group">
<g id="Group_2">
<path id="Vector_2" d="M113.023 45.1441C115.929 47.4861 120.311 47.4041 123.173 45.0361C127.173 48.2581 131.283 51.4121 135.501 54.4981C135.949 53.8601 136.391 53.2161 136.833 52.5741C130.743 49.3881 124.821 46.0481 119.067 42.5681C117.513 44.2521 115.269 45.1541 113.023 45.1421V45.1441Z" fill="#FF607B"/>
<path id="Vector_3" d="M85.8135 32.986C88.5295 30.556 91.1815 28.1 93.7775 25.606C92.6835 24.804 91.6055 23.99 90.5375 23.176C88.0435 26.42 85.4675 29.638 82.8115 32.822C83.6335 32.688 85.0635 32.616 85.8155 32.986H85.8135Z" fill="#FF607B"/>
<path id="Vector_4" d="M71.0215 46.1861C72.9275 47.9101 73.7115 50.3781 73.2355 52.7121C73.5355 52.5321 73.8275 52.3301 74.1055 52.1081C77.3115 49.5721 77.6255 45.1801 75.0815 42.1701C76.9155 40.6701 78.7315 39.1561 80.5135 37.6221C80.2375 37.8221 79.9415 37.9901 79.6055 38.0401C79.2615 38.0921 78.8675 37.9721 78.6435 37.7161C76.1735 40.5681 73.6275 43.3881 71.0215 46.1861Z" fill="#FF607B"/>
<path id="Vector_5" d="M21.8652 89.442C23.3152 90.832 24.7812 92.22 26.2652 93.598C26.4192 93.744 26.5832 93.89 26.7392 94.038C39.4872 105.842 53.3632 117.038 68.3152 127.442C82.3972 115.72 95.2932 103.308 106.989 90.382C103.485 88.03 103.049 83.654 105.867 80.45C106.105 80.18 106.353 79.928 106.617 79.696C101.883 82.288 101.187 87.596 104.789 90.79C91.4672 102.03 77.0132 112.6 61.4932 122.326C48.8252 110.696 37.2032 98.514 26.6592 85.91C25.0752 87.096 23.4812 88.274 21.8652 89.442Z" fill="#FF607B"/>
</g>
<g id="Group_3">
<path id="Vector_6" d="M63.1815 51.4499C66.0075 54.3259 70.9035 54.6599 74.1035 52.1079C77.3095 49.5719 77.6235 45.1799 75.0795 42.1699C82.8555 35.8119 81.1235 36.6259 83.4315 36.4299C84.4095 36.3539 85.3515 35.9239 86.0435 35.2319C86.3675 34.9139 86.6435 34.4979 86.6195 34.0519C86.6015 33.6179 86.2895 33.2359 85.9075 33.0339C85.8755 33.0159 85.8435 32.9979 85.8115 32.9879C88.5275 30.5579 91.1795 28.1019 93.7755 25.6079C95.0395 24.4139 96.2775 23.2019 97.5075 21.9819C102.086 26.5759 106.856 31.0659 111.818 35.4519C109.626 38.3839 109.928 42.4899 112.834 44.9879C115.378 47.3339 120.064 47.6059 123.17 45.0359C127.17 48.2579 131.28 51.4119 135.498 54.4979C136.8 55.4499 138.112 56.3979 139.434 57.3339C132.364 65.1619 124.824 72.7879 116.822 80.1679C113.894 78.1259 109.772 77.9879 106.616 79.6939C101.882 82.2859 101.186 87.5939 104.788 90.7879C91.4655 102.028 77.0115 112.598 61.4915 122.324C48.8235 110.694 37.2015 98.5119 26.6575 85.9079C24.5795 83.4339 22.5475 80.9419 20.5615 78.4299C36.2375 70.0359 50.3835 60.9439 63.1815 51.4459V51.4499Z" fill="url(#paint1_linear_4363_36272)"/>
<g id="Group_4">
<path id="Vector_7" d="M110.753 73.538C115.665 69.058 120.399 64.49 124.953 59.834C114.377 51.684 104.493 43.076 95.3395 34.092C90.8075 38.37 86.1035 42.55 81.2295 46.632C90.3495 55.984 100.197 64.986 110.755 73.54L110.753 73.538Z" fill="#FFF6F5"/>
<path id="Vector_8" d="M60.3275 113.464C73.6075 105.036 86.0715 95.9819 97.6935 86.4179C86.6535 77.1039 76.3975 67.3259 66.9555 57.1899C55.4455 65.8159 43.1175 73.8979 30.0195 81.3199C39.2895 92.3939 49.4035 103.14 60.3275 113.464Z" fill="#FFF6F5"/>
<g id="Clip path group">
<mask id="mask0_4363_36272" style="mask-type:luminance" maskUnits="userSpaceOnUse" x="81" y="57" width="17" height="17">
<g id="clippath-1">
<g id="Clip path group_2">
<mask id="mask1_4363_36272" style="mask-type:luminance" maskUnits="userSpaceOnUse" x="81" y="34" width="44" height="40">
<g id="clippath">
<path id="Vector_9" d="M110.753 73.538C115.665 69.058 120.399 64.49 124.953 59.834C114.377 51.684 104.493 43.076 95.3395 34.092C90.8075 38.37 86.1035 42.55 81.2295 46.632C90.3495 55.984 100.197 64.986 110.755 73.54L110.753 73.538Z" fill="white"/>
</g>
</mask>
<g mask="url(#mask1_4363_36272)">
<path id="Vector_10" d="M60.3275 113.464C73.6075 105.036 86.0715 95.9819 97.6935 86.4179C86.6535 77.1039 76.3975 67.3259 66.9555 57.1899C55.4455 65.8159 43.1175 73.8979 30.0195 81.3199C39.2895 92.3939 49.4035 103.14 60.3275 113.464Z" fill="white"/>
</g>
</g>
</g>
</mask>
<g mask="url(#mask0_4363_36272)">
<g id="Group_5">
<path id="Vector_11" d="M81.523 57.1899H79.999V113.464H81.523V57.1899Z" fill="#FFF6F5"/>
<path id="Vector_12" d="M83.0474 57.1899H81.5234V113.464H83.0474V57.1899Z" fill="#FFF6F5"/>
<path id="Vector_13" d="M84.5719 57.1899H83.0479V113.464H84.5719V57.1899Z" fill="#FFF6F5"/>
<path id="Vector_14" d="M86.0953 57.1899H84.5713V113.464H86.0953V57.1899Z" fill="#FFF6F5"/>
<path id="Vector_15" d="M87.6197 57.1899H86.0957V113.464H87.6197V57.1899Z" fill="#FFF6F5"/>
<path id="Vector_16" d="M89.1431 57.1899H87.6191V113.464H89.1431V57.1899Z" fill="#FFF6F5"/>
<path id="Vector_17" d="M90.6676 57.1899H89.1436V113.464H90.6676V57.1899Z" fill="#FFF6F5"/>
<path id="Vector_18" d="M92.192 57.1899H90.668V113.464H92.192V57.1899Z" fill="#FFF6F5"/>
<path id="Vector_19" d="M93.7154 57.1899H92.1914V113.464H93.7154V57.1899Z" fill="#FFF6F5"/>
<path id="Vector_20" d="M95.2398 57.1899H93.7158V113.464H95.2398V57.1899Z" fill="#FFF6F5"/>
<path id="Vector_21" d="M96.7633 57.1899H95.2393V113.464H96.7633V57.1899Z" fill="#FFF6F5"/>
<path id="Vector_22" d="M97.6937 57.1899H96.7637V113.464H97.6937V57.1899Z" fill="#FFF6F5"/>
<path id="Vector_23" d="M81.5235 34.0898H81.2275V73.5378H81.5235V34.0898Z" fill="#FFF6F5"/>
<path id="Vector_24" d="M83.0474 34.0898H81.5234V73.5378H83.0474V34.0898Z" fill="#FFF6F5"/>
<path id="Vector_25" d="M84.5719 34.0898H83.0479V73.5378H84.5719V34.0898Z" fill="#FFF6F5"/>
<path id="Vector_26" d="M86.0953 34.0898H84.5713V73.5378H86.0953V34.0898Z" fill="#FFF6F5"/>
<path id="Vector_27" d="M87.6197 34.0898H86.0957V73.5378H87.6197V34.0898Z" fill="#FFF6F5"/>
<path id="Vector_28" d="M89.1431 34.0898H87.6191V73.5378H89.1431V34.0898Z" fill="#FFF6F5"/>
<path id="Vector_29" d="M90.6676 34.0898H89.1436V73.5378H90.6676V34.0898Z" fill="#FFF6F5"/>
<path id="Vector_30" d="M92.192 34.0898H90.668V73.5378H92.192V34.0898Z" fill="#FFF6F5"/>
<path id="Vector_31" d="M93.7154 34.0898H92.1914V73.5378H93.7154V34.0898Z" fill="#FFF6F5"/>
<path id="Vector_32" d="M95.2398 34.0898H93.7158V73.5378H95.2398V34.0898Z" fill="#FFF6F5"/>
<path id="Vector_33" d="M96.7633 34.0898H95.2393V73.5378H96.7633V34.0898Z" fill="#FFF6F5"/>
<path id="Vector_34" d="M98.2877 34.0898H96.7637V73.5378H98.2877V34.0898Z" fill="#FFF6F5"/>
<path id="Vector_35" d="M81.523 21.9819H79.999V122.328H81.523V21.9819Z" fill="#FFF6F5"/>
<path id="Vector_36" d="M83.0474 21.9819H81.5234V122.328H83.0474V21.9819Z" fill="#FFF6F5"/>
<path id="Vector_37" d="M84.5719 21.9819H83.0479V122.328H84.5719V21.9819Z" fill="#FFF6F5"/>
<path id="Vector_38" d="M86.0953 21.9819H84.5713V122.328H86.0953V21.9819Z" fill="#FFF6F5"/>
<path id="Vector_39" d="M87.6197 21.9819H86.0957V122.328H87.6197V21.9819Z" fill="#FFF6F5"/>
<path id="Vector_40" d="M89.1431 21.9819H87.6191V122.328H89.1431V21.9819Z" fill="#FFF6F5"/>
<path id="Vector_41" d="M90.6676 21.9819H89.1436V122.328H90.6676V21.9819Z" fill="#FFF6F5"/>
<path id="Vector_42" d="M92.192 21.9819H90.668V122.328H92.192V21.9819Z" fill="#FFF6F5"/>
<path id="Vector_43" d="M93.7154 21.9819H92.1914V122.328H93.7154V21.9819Z" fill="#FFF6F5"/>
<path id="Vector_44" d="M95.2398 21.9819H93.7158V122.328H95.2398V21.9819Z" fill="#FFF6F5"/>
<path id="Vector_45" d="M96.7633 21.9819H95.2393V122.328H96.7633V21.9819Z" fill="#FFF6F5"/>
<path id="Vector_46" d="M98.2877 21.9819H96.7637V122.328H98.2877V21.9819Z" fill="#FFF6F5"/>
</g>
</g>
</g>
</g>
</g>
</g>
<path id="Vector_47" d="M104.826 81.0379H104.822C104.238 80.5559 103.658 80.0739 103.078 79.5919C102.95 79.4839 102.932 79.2919 103.04 79.1639C103.146 79.0359 103.334 79.0179 103.464 79.1219L103.47 79.1259C104.048 79.6079 104.628 80.0879 105.21 80.5659C105.34 80.6719 105.358 80.8639 105.252 80.9939C105.146 81.1219 104.958 81.1419 104.828 81.0379H104.826Z" fill="#FF607B"/>
<path id="Vector_48" d="M99.818 76.844C99.752 76.792 98.5159 75.728 98.0619 75.336C97.7579 75.074 98.1559 74.612 98.4599 74.876C99.0399 75.376 99.622 75.876 100.206 76.376C100.508 76.634 100.128 77.09 99.8199 76.846L99.818 76.844Z" fill="#FF607B"/>
<path id="Vector_49" d="M92.8882 70.7741C92.8882 70.7741 92.8782 70.7661 92.8742 70.7621C92.3022 70.2481 91.7322 69.7321 91.1642 69.2141C91.0402 69.1001 91.0322 68.9081 91.1442 68.7841C91.2562 68.6601 91.4482 68.6521 91.5742 68.7641C92.1402 69.2801 92.7082 69.7961 93.2802 70.3081C93.4062 70.4201 93.4162 70.6121 93.3022 70.7381C93.1942 70.8581 93.0122 70.8721 92.8862 70.7721L92.8882 70.7741Z" fill="#FF607B"/>
<path id="Vector_50" d="M79.4964 58.07C78.9524 57.526 78.4124 56.98 77.8724 56.434C77.7544 56.314 77.7564 56.122 77.8764 56.004C77.9964 55.886 78.1884 55.884 78.3064 56.008C78.8444 56.554 79.3844 57.098 79.9264 57.642C80.0444 57.76 80.0444 57.954 79.9264 58.072C79.8104 58.188 79.6184 58.192 79.4964 58.072V58.07Z" fill="#FF607B"/>
<path id="Vector_51" d="M96.3322 73.8321C96.3322 73.8321 96.3242 73.8261 96.3222 73.8221C95.7442 73.3141 95.1682 72.8061 94.5942 72.2961C94.4682 72.1841 94.4582 71.9921 94.5682 71.8661C94.6802 71.7401 94.8762 71.7261 94.9982 71.8401C95.5702 72.3481 96.1462 72.8561 96.7242 73.3621C96.8502 73.4721 96.8642 73.6641 96.7522 73.7921C96.6442 73.9141 96.4602 73.9301 96.3342 73.8301L96.3322 73.8321Z" fill="#FF607B"/>
<path id="Vector_52" d="M89.4663 67.656C88.9003 67.134 88.3383 66.61 87.7783 66.086C87.6563 65.972 87.6503 65.78 87.7643 65.656C87.8783 65.534 88.0643 65.528 88.1943 65.642C88.7543 66.166 89.3163 66.688 89.8803 67.208C90.1763 67.482 89.7583 67.93 89.4683 67.654L89.4663 67.656Z" fill="#FF607B"/>
<path id="Vector_53" d="M86.1004 64.504C85.5424 63.974 84.9864 63.444 84.4324 62.912C84.3124 62.796 84.3084 62.602 84.4244 62.482C84.5404 62.36 84.7304 62.358 84.8544 62.474C85.4064 63.006 85.9624 63.536 86.5184 64.064C86.6404 64.18 86.6444 64.372 86.5304 64.494C86.4204 64.61 86.2344 64.626 86.1004 64.506V64.504Z" fill="#FF607B"/>
<path id="Vector_54" d="M82.7763 61.3101C82.2243 60.7721 81.6763 60.2361 81.1303 59.6961C81.0103 59.5781 81.0103 59.3861 81.1283 59.2661C81.2463 59.1461 81.4363 59.1441 81.5583 59.2641C82.1023 59.8021 82.6503 60.3401 83.2003 60.8761C83.3203 60.9921 83.3243 61.1861 83.2063 61.3061C83.0863 61.4301 82.8883 61.4241 82.7763 61.3121V61.3101Z" fill="#FF607B"/>
<path id="Vector_55" d="M75.3921 53.886C75.3821 53.878 75.3721 53.87 75.3621 53.86C74.8581 53.338 74.3561 52.814 73.8561 52.288C73.7401 52.166 73.7461 51.974 73.8661 51.858C73.9861 51.742 74.1781 51.748 74.2961 51.868C74.7941 52.392 75.2961 52.914 75.8001 53.436C75.9161 53.558 75.9141 53.75 75.7921 53.866C75.6801 53.974 75.5101 53.98 75.3921 53.886Z" fill="#FF607B"/>
<path id="Vector_56" d="M79.5115 82.906C81.0535 84.712 80.6435 87.288 78.4055 88.604C74.9795 90.618 70.2395 88.162 70.8835 84.61C71.5195 81.084 76.9355 79.896 79.5115 82.906ZM71.4815 84.718C70.9295 87.772 75.1695 89.8 78.0975 88.08C80.0215 86.95 80.3355 84.808 79.0495 83.302C76.8595 80.732 72.0335 81.658 71.4815 84.72V84.718Z" fill="#FF607B"/>
<path id="Vector_57" d="M59.0045 99.156C58.9045 99.076 58.8625 98.936 58.9105 98.81C62.2625 90.058 65.4685 81.142 68.4405 72.306C68.4945 72.146 68.6665 72.062 68.8245 72.114C68.9825 72.168 69.0685 72.34 69.0165 72.498C66.0425 81.342 62.8325 90.268 59.4785 99.026C59.4045 99.218 59.1665 99.284 59.0045 99.154V99.156Z" fill="#FF607B"/>
<path id="Vector_58" d="M56.2962 86.1001C55.5562 89.2161 51.0402 90.2421 48.3222 88.0741C48.0062 87.8221 47.7222 87.5301 47.4842 87.2021C46.0362 85.2061 46.8262 82.7081 49.0582 81.6161C52.6782 79.8461 57.1042 82.6841 56.2942 86.1001H56.2962ZM49.3282 82.1621C47.4242 83.0941 46.7582 85.1641 47.9782 86.8461C49.9502 89.5641 54.9742 89.0321 55.7042 85.9601C56.4042 83.0141 52.4222 80.6501 49.3282 82.1621Z" fill="#FF607B"/>
<g id="Group_6">
<path id="Vector_59" d="M129.92 80.022C125.08 80.022 120.496 81.57 116.652 84.5L106.272 82.056L111.14 90.636C109.086 94.042 108.002 97.944 108.002 101.936C108.002 114.02 117.834 123.852 129.918 123.852C142.002 123.852 151.834 114.02 151.834 101.936C151.834 89.852 142.002 80.02 129.918 80.02L129.92 80.022ZM114.84 86.786L116.936 85.164C120.686 82.258 125.174 80.722 129.92 80.722C141.618 80.722 151.136 90.24 151.136 101.938C151.136 113.636 141.618 123.154 129.92 123.154C118.222 123.154 108.704 113.636 108.704 101.938C108.704 98.006 109.79 94.164 111.846 90.828L111.954 90.652L107.672 83.106L116.124 85.096L114.84 86.786Z" fill="#FF607B"/>
<path id="Vector_60" d="M140.233 108.436L136.499 112.17L130.001 105.672L123.503 112.17L119.769 108.436L126.267 101.938L119.769 95.4401L123.503 91.7061L130.001 98.2041L136.499 91.7061L140.233 95.4401L133.735 101.938L140.233 108.436Z" fill="#FF725E"/>
</g>
<g id="Group_7">
<g id="Clip path group_3">
<mask id="mask2_4363_36272" style="mask-type:luminance" maskUnits="userSpaceOnUse" x="71" y="122" width="20" height="11">
<g id="clippath-2">
<path id="Vector_61" d="M90.7716 124.114C90.8016 124.06 90.8176 124.002 90.8236 123.942C90.8296 123.882 90.8216 123.822 90.7996 123.764C90.7796 123.708 90.7476 123.654 90.7056 123.61C90.6636 123.566 90.6136 123.532 90.5576 123.508C88.9256 122.858 83.1496 120.926 79.9936 124.82C77.8816 127.38 74.8976 129.068 71.6136 129.558C71.5316 129.57 71.4536 129.604 71.3916 129.66C71.3296 129.716 71.2856 129.79 71.2656 129.87C71.2456 129.952 71.2516 130.036 71.2816 130.114C71.3116 130.192 71.3636 130.26 71.4316 130.306C74.2216 132.284 83.4376 137.326 90.7676 124.112L90.7716 124.114Z" fill="white"/>
</g>
</mask>
<g mask="url(#mask2_4363_36272)">
<g id="Group_8">
<path id="Vector_62" d="M80.0645 137.328L90.8305 132.694V132.928L80.6085 137.328H80.0645Z" fill="#FFA4A2"/>
<path id="Vector_63" d="M79.5195 137.328L90.8295 132.46V132.694L80.0635 137.328H79.5195Z" fill="#FFA5A3"/>
<path id="Vector_64" d="M78.9775 137.328L90.8295 132.226V132.46L79.5195 137.328H78.9775Z" fill="#FFA6A4"/>
<path id="Vector_65" d="M78.4336 137.328L90.8296 131.994V132.226L78.9776 137.328H78.4336Z" fill="#FFA7A5"/>
<path id="Vector_66" d="M77.8896 137.328L90.8297 131.76V131.994L78.4336 137.328H77.8896Z" fill="#FFA8A6"/>
<path id="Vector_67" d="M77.3457 137.328L90.8297 131.526V131.76L77.8897 137.328H77.3457Z" fill="#FFA9A7"/>
<path id="Vector_68" d="M76.8018 137.328L90.8298 131.292V131.526L77.3458 137.328H76.8018Z" fill="#FFAAA7"/>
<path id="Vector_69" d="M76.2598 137.328L90.8298 131.058V131.292L76.8018 137.328H76.2598Z" fill="#FFABA8"/>
<path id="Vector_70" d="M75.7158 137.328L90.8298 130.824V131.058L76.2598 137.328H75.7158Z" fill="#FFACA9"/>
<path id="Vector_71" d="M75.1719 137.328L90.8299 130.59V130.824L75.7159 137.328H75.1719Z" fill="#FFADAA"/>
<path id="Vector_72" d="M74.6279 137.328L90.8299 130.356V130.59L75.1719 137.328H74.6279Z" fill="#FFAEAB"/>
<path id="Vector_73" d="M74.084 137.328L90.83 130.122V130.356L74.628 137.328H74.084Z" fill="#FFAFAC"/>
<path id="Vector_74" d="M73.9497 137.328L73.8857 137.18L90.8297 129.888V130.122L74.0837 137.328H73.9497Z" fill="#FFB0AC"/>
<path id="Vector_75" d="M73.8858 137.18L73.8018 136.982L90.8298 129.654V129.888L73.8858 137.18Z" fill="#FFB1AD"/>
<path id="Vector_76" d="M73.8018 136.982L73.7158 136.784L90.8298 129.42V129.654L73.8018 136.982Z" fill="#FFB2AE"/>
<path id="Vector_77" d="M73.7158 136.784L73.6318 136.588L90.8298 129.186V129.42L73.7158 136.784Z" fill="#FFB3AF"/>
<path id="Vector_78" d="M73.6319 136.588L73.5459 136.39L90.8299 128.952V129.186L73.6319 136.588Z" fill="#FFB4B0"/>
<path id="Vector_79" d="M73.5459 136.39L73.4619 136.192L90.8299 128.718V128.952L73.5459 136.39Z" fill="#FFB5B1"/>
<path id="Vector_80" d="M73.462 136.192L73.376 135.994L90.83 128.484V128.718L73.462 136.192Z" fill="#FFB6B1"/>
<path id="Vector_81" d="M73.376 135.994L73.292 135.798L90.83 128.25V128.484L73.376 135.994Z" fill="#FFB7B2"/>
<path id="Vector_82" d="M73.2921 135.798L73.2061 135.6L90.8301 128.016V128.25L73.2921 135.798Z" fill="#FFB8B3"/>
<path id="Vector_83" d="M73.2061 135.6L73.1221 135.402L90.8301 127.782V128.016L73.2061 135.6Z" fill="#FFB9B4"/>
<path id="Vector_84" d="M73.1221 135.402L73.0361 135.206L90.8301 127.548V127.782L73.1221 135.402Z" fill="#FFBAB5"/>
<path id="Vector_85" d="M73.0361 135.206L72.9521 135.008L90.8302 127.314V127.548L73.0361 135.206Z" fill="#FFBBB6"/>
<path id="Vector_86" d="M72.9522 135.008L72.8662 134.81L90.8302 127.08V127.314L72.9522 135.008Z" fill="#FFBCB7"/>
<path id="Vector_87" d="M72.8662 134.81L72.7822 134.614L90.8302 126.846V127.08L72.8662 134.81Z" fill="#FFBDB7"/>
<path id="Vector_88" d="M72.7823 134.614L72.6963 134.416L90.8303 126.612V126.846L72.7823 134.614Z" fill="#FFBEB8"/>
<path id="Vector_89" d="M72.6963 134.416L72.6123 134.218L90.8303 126.378V126.612L72.6963 134.416Z" fill="#FFBFB9"/>
<path id="Vector_90" d="M72.6123 134.218L72.5283 134.022L90.8303 126.144V126.378L72.6123 134.218Z" fill="#FFC1BA"/>
<path id="Vector_91" d="M72.5284 134.022L72.4424 133.824L90.8304 125.91V126.144L72.5284 134.022Z" fill="#FFC2BB"/>
<path id="Vector_92" d="M72.4424 133.824L72.3584 133.626L90.8304 125.676V125.91L72.4424 133.824Z" fill="#FFC3BC"/>
<path id="Vector_93" d="M72.3585 133.626L72.2725 133.43L90.8305 125.442V125.676L72.3585 133.626Z" fill="#FFC4BC"/>
<path id="Vector_94" d="M72.2725 133.43L72.1885 133.232L90.8305 125.208V125.442L72.2725 133.43Z" fill="#FFC5BD"/>
<path id="Vector_95" d="M72.1876 133.232L72.1016 133.034L90.8296 124.976V125.208L72.1876 133.232Z" fill="#FFC6BE"/>
<path id="Vector_96" d="M72.1016 133.034L72.0176 132.836L90.8296 124.742V124.976L72.1016 133.034Z" fill="#FFC7BF"/>
<path id="Vector_97" d="M72.0176 132.836L71.9316 132.64L90.8296 124.508V124.742L72.0176 132.836Z" fill="#FFC8C0"/>
<path id="Vector_98" d="M71.9317 132.64L71.8477 132.442L90.8297 124.274V124.508L71.9317 132.64Z" fill="#FFC9C1"/>
<path id="Vector_99" d="M71.8477 132.442L71.7617 132.244L90.8297 124.04V124.274L71.8477 132.442Z" fill="#FFCAC2"/>
<path id="Vector_100" d="M71.7617 132.244L71.6777 132.048L90.8297 123.806V124.04L71.7617 132.244Z" fill="#FFCBC2"/>
<path id="Vector_101" d="M71.6778 132.048L71.5918 131.85L90.8298 123.572V123.806L71.6778 132.048Z" fill="#FFCCC3"/>
<path id="Vector_102" d="M71.5918 131.85L71.5078 131.652L90.8298 123.338V123.572L71.5918 131.85Z" fill="#FFCDC4"/>
<path id="Vector_103" d="M71.5079 131.652L71.4219 131.456L90.8299 123.104V123.338L71.5079 131.652Z" fill="#FFCEC5"/>
<path id="Vector_104" d="M71.4219 131.456L71.3379 131.258L90.8299 122.87V123.104L71.4219 131.456Z" fill="#FFCFC6"/>
<path id="Vector_105" d="M71.338 131.258L71.252 131.06L90.768 122.662L90.83 122.806V122.87L71.338 131.258Z" fill="#FFD0C7"/>
<path id="Vector_106" d="M71.252 131.06L71.25 131.054V130.828L90.682 122.464L90.768 122.662L71.252 131.06Z" fill="#FFD1C7"/>
<path id="Vector_107" d="M71.25 130.594L90.598 122.268L90.682 122.464L71.25 130.828V130.594Z" fill="#FFD2C8"/>
<path id="Vector_108" d="M71.25 130.36L90.512 122.07L90.598 122.268L71.25 130.594V130.36Z" fill="#FFD3C9"/>
<path id="Vector_109" d="M71.25 130.126L90.428 121.872L90.512 122.07L71.25 130.36V130.126Z" fill="#FFD4CA"/>
<path id="Vector_110" d="M71.25 129.892L90.342 121.676L90.428 121.872L71.25 130.126V129.892Z" fill="#FFD5CB"/>
<path id="Vector_111" d="M71.25 129.658L90.258 121.478L90.342 121.676L71.25 129.892V129.658Z" fill="#FFD6CC"/>
<path id="Vector_112" d="M71.25 129.424L90.174 121.28L90.258 121.478L71.25 129.658V129.424Z" fill="#FFD7CC"/>
<path id="Vector_113" d="M71.25 129.19L90.088 121.084L90.174 121.28L71.25 129.424V129.19Z" fill="#FFD8CD"/>
<path id="Vector_114" d="M71.25 128.956L89.912 120.926H90.02L90.088 121.084L71.25 129.19V128.956Z" fill="#FFD9CE"/>
<path id="Vector_115" d="M71.25 128.722L89.368 120.926H89.912L71.25 128.956V128.722Z" fill="#FFDACF"/>
<path id="Vector_116" d="M71.25 128.488L88.824 120.926H89.368L71.25 128.722V128.488Z" fill="#FFDBD0"/>
<path id="Vector_117" d="M71.25 128.254L88.28 120.926H88.824L71.25 128.488V128.254Z" fill="#FFDCD1"/>
<path id="Vector_118" d="M71.25 128.02L87.736 120.926H88.28L71.25 128.254V128.02Z" fill="#FFDDD2"/>
<path id="Vector_119" d="M71.25 127.786L87.194 120.926H87.736L71.25 128.02V127.786Z" fill="#FFDED2"/>
<path id="Vector_120" d="M71.25 127.552L86.65 120.926H87.194L71.25 127.786V127.552Z" fill="#FFDFD3"/>
<path id="Vector_121" d="M71.25 127.318L86.106 120.926H86.65L71.25 127.552V127.318Z" fill="#FFE0D4"/>
<path id="Vector_122" d="M71.25 127.084L85.562 120.926H86.106L71.25 127.318V127.084Z" fill="#FFE1D5"/>
<path id="Vector_123" d="M71.25 126.85L85.018 120.926H85.562L71.25 127.084V126.85Z" fill="#FFE2D6"/>
<path id="Vector_124" d="M71.25 126.616L84.476 120.926H85.018L71.25 126.85V126.616Z" fill="#FFE3D7"/>
<path id="Vector_125" d="M71.25 126.382L83.932 120.926H84.476L71.25 126.616V126.382Z" fill="#FFE4D7"/>
<path id="Vector_126" d="M71.25 126.148L83.388 120.926H83.932L71.25 126.382V126.148Z" fill="#FFE5D8"/>
<path id="Vector_127" d="M71.25 125.916L82.844 120.926H83.388L71.25 126.148V125.916Z" fill="#FFE6D9"/>
<path id="Vector_128" d="M71.25 125.682L82.3 120.926H82.844L71.25 125.916V125.682Z" fill="#FFE7DA"/>
<path id="Vector_129" d="M82.3 120.926L71.25 125.682V120.926H82.3Z" fill="#FFE7DA"/>
</g>
</g>
</g>
<g id="Clip path group_4">
<mask id="mask3_4363_36272" style="mask-type:luminance" maskUnits="userSpaceOnUse" x="100" y="118" width="14" height="8">
<g id="clippath-3">
<path id="Vector_130" d="M100.18 119.856C100.16 119.822 100.148 119.782 100.146 119.74C100.142 119.7 100.146 119.66 100.162 119.62C100.176 119.582 100.196 119.548 100.226 119.518C100.254 119.49 100.288 119.466 100.326 119.452C101.422 119.014 105.3 117.716 107.418 120.33C108.838 122.05 110.844 123.184 113.05 123.512C113.108 123.518 113.164 123.54 113.208 123.58C113.252 123.618 113.284 123.67 113.296 123.728C113.31 123.786 113.304 123.846 113.282 123.9C113.258 123.954 113.22 124 113.17 124.03C111.3 125.368 105.106 128.752 100.184 119.856H100.18Z" fill="white"/>
</g>
</mask>
<g mask="url(#mask3_4363_36272)">
<g id="Group_9">
<path id="Vector_131" d="M106.078 128.752L113.308 125.636V125.794L106.442 128.752H106.078Z" fill="#FFA4A2"/>
<path id="Vector_132" d="M105.712 128.752L113.308 125.478V125.636L106.078 128.752H105.712Z" fill="#FFA5A3"/>
<path id="Vector_133" d="M105.346 128.752L113.308 125.322V125.478L105.712 128.752H105.346Z" fill="#FFA6A4"/>
<path id="Vector_134" d="M104.979 128.752L113.307 125.164V125.322L105.345 128.752H104.979Z" fill="#FFA7A5"/>
<path id="Vector_135" d="M104.615 128.752L113.307 125.006V125.164L104.979 128.752H104.615Z" fill="#FFA8A6"/>
<path id="Vector_136" d="M104.25 128.752L113.308 124.848V125.006L104.616 128.752H104.25Z" fill="#FFA9A7"/>
<path id="Vector_137" d="M103.884 128.752L113.308 124.692V124.848L104.25 128.752H103.884Z" fill="#FFAAA7"/>
<path id="Vector_138" d="M103.571 128.752L103.563 128.732L113.307 124.534V124.692L103.883 128.752H103.571Z" fill="#FFABA8"/>
<path id="Vector_139" d="M103.564 128.732L103.506 128.6L113.308 124.376V124.534L103.564 128.732Z" fill="#FFACA9"/>
<path id="Vector_140" d="M103.505 128.6L103.449 128.466L113.307 124.218V124.376L103.505 128.6Z" fill="#FFADAA"/>
<path id="Vector_141" d="M103.45 128.466L103.392 128.334L113.308 124.062V124.218L103.45 128.466Z" fill="#FFAEAB"/>
<path id="Vector_142" d="M103.392 128.334L103.334 128.202L113.308 123.904V124.062L103.392 128.334Z" fill="#FFAFAC"/>
<path id="Vector_143" d="M103.333 128.202L103.277 128.068L113.307 123.746V123.904L103.333 128.202Z" fill="#FFB0AC"/>
<path id="Vector_144" d="M103.278 128.068L103.22 127.936L113.308 123.588V123.746L103.278 128.068Z" fill="#FFB1AD"/>
<path id="Vector_145" d="M103.22 127.936L103.164 127.802L113.308 123.432V123.588L103.22 127.936Z" fill="#FFB2AE"/>
<path id="Vector_146" d="M103.163 127.802L103.105 127.67L113.307 123.274V123.432L103.163 127.802Z" fill="#FFB3AF"/>
<path id="Vector_147" d="M103.106 127.67L103.048 127.536L113.308 123.116V123.274L103.106 127.67Z" fill="#FFB4B0"/>
<path id="Vector_148" d="M103.047 127.536L102.991 127.404L113.307 122.958V123.116L103.047 127.536Z" fill="#FFB5B1"/>
<path id="Vector_149" d="M102.992 127.404L102.934 127.272L113.308 122.802V122.958L102.992 127.404Z" fill="#FFB6B1"/>
<path id="Vector_150" d="M102.934 127.272L102.876 127.138L113.278 122.656L113.308 122.722V122.802L102.934 127.272Z" fill="#FFB7B2"/>
<path id="Vector_151" d="M113.219 122.526L102.817 127.008L102.874 127.14L113.276 122.658L113.219 122.526Z" fill="#FFB8B3"/>
<path id="Vector_152" d="M113.161 122.396L102.76 126.877L102.817 127.01L113.218 122.528L113.161 122.396Z" fill="#FFB9B4"/>
<path id="Vector_153" d="M113.106 122.261L102.704 126.742L102.761 126.875L113.163 122.393L113.106 122.261Z" fill="#FFBAB5"/>
<path id="Vector_154" d="M113.048 122.128L102.646 126.61L102.703 126.742L113.105 122.261L113.048 122.128Z" fill="#FFBBB6"/>
<path id="Vector_155" d="M112.992 121.995L102.591 126.477L102.648 126.609L113.049 122.128L112.992 121.995Z" fill="#FFBCB7"/>
<path id="Vector_156" d="M112.934 121.863L102.532 126.345L102.589 126.477L112.991 121.995L112.934 121.863Z" fill="#FFBDB7"/>
<path id="Vector_157" d="M112.876 121.731L102.475 126.213L102.532 126.345L112.933 121.863L112.876 121.731Z" fill="#FFBEB8"/>
<path id="Vector_158" d="M112.82 121.596L102.418 126.078L102.475 126.21L112.876 121.728L112.82 121.596Z" fill="#FFBFB9"/>
<path id="Vector_159" d="M112.761 121.464L102.359 125.946L102.416 126.078L112.818 121.596L112.761 121.464Z" fill="#FFC1BA"/>
<path id="Vector_160" d="M112.703 121.333L102.302 125.815L102.359 125.947L112.76 121.466L112.703 121.333Z" fill="#FFC2BB"/>
<path id="Vector_161" d="M112.647 121.199L102.245 125.68L102.302 125.813L112.704 121.331L112.647 121.199Z" fill="#FFC3BC"/>
<path id="Vector_162" d="M112.589 121.066L102.188 125.548L102.244 125.68L112.646 121.199L112.589 121.066Z" fill="#FFC4BC"/>
<path id="Vector_163" d="M112.532 120.931L102.131 125.413L102.188 125.545L112.589 121.064L112.532 120.931Z" fill="#FFC5BD"/>
<path id="Vector_164" d="M112.475 120.801L102.073 125.283L102.13 125.415L112.532 120.933L112.475 120.801Z" fill="#FFC6BE"/>
<path id="Vector_165" d="M112.417 120.667L102.016 125.149L102.073 125.281L112.474 120.799L112.417 120.667Z" fill="#FFC7BF"/>
<path id="Vector_166" d="M112.362 120.534L101.96 125.016L102.017 125.148L112.418 120.666L112.362 120.534Z" fill="#FFC8C0"/>
<path id="Vector_167" d="M112.304 120.402L101.902 124.884L101.959 125.016L112.361 120.534L112.304 120.402Z" fill="#FFC9C1"/>
<path id="Vector_168" d="M112.245 120.27L101.844 124.751L101.901 124.884L112.302 120.402L112.245 120.27Z" fill="#FFCAC2"/>
<path id="Vector_169" d="M112.19 120.137L101.788 124.618L101.845 124.751L112.247 120.269L112.19 120.137Z" fill="#FFCBC2"/>
<path id="Vector_170" d="M112.131 120.002L101.729 124.484L101.786 124.616L112.188 120.135L112.131 120.002Z" fill="#FFCCC3"/>
<path id="Vector_171" d="M112.075 119.869L101.674 124.351L101.731 124.483L112.132 120.002L112.075 119.869Z" fill="#FFCDC4"/>
<path id="Vector_172" d="M112.018 119.739L101.616 124.221L101.673 124.353L112.075 119.871L112.018 119.739Z" fill="#FFCEC5"/>
<path id="Vector_173" d="M111.96 119.605L101.559 124.087L101.616 124.219L112.017 119.737L111.96 119.605Z" fill="#FFCFC6"/>
<path id="Vector_174" d="M111.904 119.472L101.503 123.954L101.56 124.086L111.961 119.604L111.904 119.472Z" fill="#FFD0C7"/>
<path id="Vector_175" d="M111.846 119.338L101.444 123.82L101.501 123.952L111.903 119.47L111.846 119.338Z" fill="#FFD1C7"/>
<path id="Vector_176" d="M111.79 119.207L101.389 123.688L101.446 123.821L111.847 119.339L111.79 119.207Z" fill="#FFD2C8"/>
<path id="Vector_177" d="M111.73 119.073L101.328 123.554L101.385 123.687L111.787 119.205L111.73 119.073Z" fill="#FFD3C9"/>
<path id="Vector_178" d="M111.672 118.94L101.271 123.422L101.327 123.554L111.729 119.073L111.672 118.94Z" fill="#FFD4CA"/>
<path id="Vector_179" d="M111.616 118.807L101.215 123.289L101.272 123.421L111.673 118.94L111.616 118.807Z" fill="#FFD5CB"/>
<path id="Vector_180" d="M111.559 118.675L101.157 123.157L101.214 123.289L111.616 118.807L111.559 118.675Z" fill="#FFD6CC"/>
<path id="Vector_181" d="M111.501 118.543L101.1 123.025L101.157 123.157L111.558 118.675L111.501 118.543Z" fill="#FFD7CC"/>
<path id="Vector_182" d="M111.445 118.408L101.043 122.89L101.1 123.022L111.501 118.54L111.445 118.408Z" fill="#FFD8CD"/>
<path id="Vector_183" d="M111.387 118.276L100.985 122.757L101.042 122.89L111.444 118.408L111.387 118.276Z" fill="#FFD9CE"/>
<path id="Vector_184" d="M111.331 118.145L100.93 122.626L100.987 122.759L111.388 118.277L111.331 118.145Z" fill="#FFDACF"/>
<path id="Vector_185" d="M111.273 118.01L100.871 122.492L100.928 122.624L111.33 118.143L111.273 118.01Z" fill="#FFDBD0"/>
<path id="Vector_186" d="M111.216 117.878L100.814 122.36L100.871 122.492L111.273 118.011L111.216 117.878Z" fill="#FFDCD1"/>
<path id="Vector_187" d="M111.159 117.743L100.758 122.225L100.815 122.357L111.216 117.876L111.159 117.743Z" fill="#FFDDD2"/>
<path id="Vector_188" d="M100.759 122.224L100.701 122.09L110.849 117.718H111.149L111.159 117.742L100.759 122.224Z" fill="#FFDED2"/>
<path id="Vector_189" d="M100.702 122.09L100.644 121.958L110.486 117.718H110.85L100.702 122.09Z" fill="#FFDFD3"/>
<path id="Vector_190" d="M100.644 121.958L100.588 121.824L110.12 117.718H110.486L100.644 121.958Z" fill="#FFE0D4"/>
<path id="Vector_191" d="M100.587 121.824L100.529 121.692L109.753 117.718H110.119L100.587 121.824Z" fill="#FFE1D5"/>
<path id="Vector_192" d="M100.53 121.692L100.472 121.56L109.388 117.718H109.754L100.53 121.692Z" fill="#FFE2D6"/>
<path id="Vector_193" d="M100.472 121.56L100.416 121.426L109.022 117.718H109.388L100.472 121.56Z" fill="#FFE3D7"/>
<path id="Vector_194" d="M100.415 121.426L100.357 121.294L108.657 117.718H109.021L100.415 121.426Z" fill="#FFE4D7"/>
<path id="Vector_195" d="M100.358 121.294L100.302 121.16L108.292 117.718H108.658L100.358 121.294Z" fill="#FFE5D8"/>
<path id="Vector_196" d="M100.301 121.16L100.243 121.028L107.925 117.718H108.291L100.301 121.16Z" fill="#FFE6D9"/>
<path id="Vector_197" d="M100.244 121.028L100.186 120.896L107.56 117.718H107.926L100.244 121.028Z" fill="#FFE7DA"/>
<path id="Vector_198" d="M100.186 120.896L100.14 120.788V117.718H107.56L100.186 120.896Z" fill="#FFE7DA"/>
</g>
</g>
</g>
</g>
<path id="Vector_199" d="M34.796 43.95C35.072 42.806 36.698 42.806 36.974 43.95L37.904 47.8C38.002 48.208 38.322 48.528 38.73 48.626L42.58 49.556C43.724 49.832 43.724 51.458 42.58 51.734L38.73 52.664C38.322 52.762 38.002 53.082 37.904 53.49L36.974 57.34C36.698 58.484 35.07 58.484 34.796 57.34L33.866 53.49C33.768 53.082 33.448 52.762 33.04 52.664L29.19 51.734C28.046 51.458 28.046 49.83 29.19 49.556L33.04 48.626C33.448 48.528 33.768 48.208 33.866 47.8L34.796 43.95Z" fill="#FFBEBD"/>
</g>
<defs>
<linearGradient id="paint0_linear_4363_36272" x1="79.5002" y1="-3.08812" x2="80.8262" y2="224.182" gradientUnits="userSpaceOnUse">
<stop stop-color="#FFE1E1" stop-opacity="0"/>
<stop offset="1" stop-color="#FFE1E0"/>
</linearGradient>
<linearGradient id="paint1_linear_4363_36272" x1="20.5635" y1="72.1539" x2="139.436" y2="72.1539" gradientUnits="userSpaceOnUse">
<stop stop-color="#FFE7DA"/>
<stop offset="0.99" stop-color="#FF9999"/>
</linearGradient>
</defs>
</svg>
