<svg width="19" height="19" viewBox="0 0 19 19" fill="none" xmlns="http://www.w3.org/2000/svg">
<path d="M17.25 10V17.5C17.25 17.8978 17.092 18.2794 16.8107 18.5607C16.5294 18.842 16.1478 19 15.75 19H1.5C1.10218 19 0.720644 18.842 0.43934 18.5607C0.158035 18.2794 0 17.8978 0 17.5V3.25C0 2.85218 0.158035 2.47064 0.43934 2.18934C0.720644 1.90804 1.10218 1.75 1.5 1.75H9C9.19891 1.75 9.38968 1.82902 9.53033 1.96967C9.67098 2.11032 9.75 2.30109 9.75 2.5C9.75 2.69891 9.67098 2.88968 9.53033 3.03033C9.38968 3.17098 9.19891 3.25 9 3.25H1.5V17.5H15.75V10C15.75 9.80109 15.829 9.61032 15.9697 9.46967C16.1103 9.32902 16.3011 9.25 16.5 9.25C16.6989 9.25 16.8897 9.32902 17.0303 9.46967C17.171 9.61032 17.25 9.80109 17.25 10ZM18.75 3.625C18.75 4.29251 18.5521 4.94503 18.1812 5.50005C17.8104 6.05507 17.2833 6.48765 16.6666 6.74309C16.0499 6.99854 15.3713 7.06538 14.7166 6.93515C14.0619 6.80493 13.4605 6.48349 12.9885 6.01149C12.5165 5.53948 12.1951 4.93812 12.0648 4.28343C11.9346 3.62874 12.0015 2.95014 12.2569 2.33344C12.5124 1.71674 12.9449 1.18964 13.4999 0.81879C14.055 0.44794 14.7075 0.25 15.375 0.25C16.2701 0.25 17.1285 0.605579 17.7615 1.23851C18.3944 1.87145 18.75 2.72989 18.75 3.625ZM17.25 3.625C17.25 3.25416 17.14 2.89165 16.934 2.58331C16.728 2.27496 16.4351 2.03464 16.0925 1.89273C15.7499 1.75081 15.3729 1.71368 15.0092 1.78603C14.6455 1.85837 14.3114 2.03695 14.0492 2.29917C13.787 2.5614 13.6084 2.89549 13.536 3.25921C13.4637 3.62292 13.5008 3.99992 13.6427 4.34253C13.7846 4.68514 14.025 4.97798 14.3333 5.18401C14.6416 5.39003 15.0042 5.5 15.375 5.5C15.8723 5.5 16.3492 5.30246 16.7008 4.95083C17.0525 4.59919 17.25 4.12228 17.25 3.625Z" fill="#111827"/>
</svg>
