<svg width="21" height="20" viewBox="0 0 21 20" fill="none" xmlns="http://www.w3.org/2000/svg">
<path d="M20.1499 19.1251C20.0841 19.2391 19.9894 19.3338 19.8753 19.3997C19.7613 19.4655 19.6319 19.5001 19.5002 19.5001H1.50021C1.36862 19.5 1.23938 19.4652 1.12548 19.3993C1.01157 19.3335 0.917001 19.2388 0.851265 19.1248C0.78553 19.0108 0.750943 18.8815 0.750977 18.7499C0.75101 18.6183 0.785664 18.4891 0.851458 18.3751C2.27927 15.9067 4.47958 14.1367 7.04739 13.2976C5.77724 12.5415 4.79041 11.3893 4.23845 10.018C3.68648 8.64678 3.59991 7.13224 3.99203 5.70701C4.38414 4.28178 5.23326 3.02467 6.40898 2.12873C7.5847 1.23279 9.02202 0.747559 10.5002 0.747559C11.9784 0.747559 13.4157 1.23279 14.5914 2.12873C15.7672 3.02467 16.6163 4.28178 17.0084 5.70701C17.4005 7.13224 17.3139 8.64678 16.762 10.018C16.21 11.3893 15.2232 12.5415 13.953 13.2976C16.5208 14.1367 18.7211 15.9067 20.149 18.3751C20.2149 18.489 20.2497 18.6183 20.2499 18.75C20.2501 18.8816 20.2156 19.011 20.1499 19.1251Z" fill="#292861"/>
</svg>
