<svg width="14" height="14" viewBox="0 0 14 14" fill="none" xmlns="http://www.w3.org/2000/svg">
<path d="M4.08325 10.5C4.08325 10.5 2.33325 5.83329 2.33325 3.49996C2.33325 1.16663 3.49992 1.16663 3.49992 1.16663H4.08325C4.08325 1.16663 4.66658 1.16663 4.66658 1.74996C4.66658 2.33329 4.08325 2.33329 4.08325 3.49996C4.08325 4.66663 5.83325 5.83329 5.83325 7.58329C5.83325 9.33329 4.08325 10.5 4.08325 10.5ZM6.99992 9.91663C6.41658 9.91663 4.66658 11.375 4.66658 11.375C4.49159 11.4916 4.54992 11.6666 4.66658 11.8416C4.66658 11.8416 5.24992 12.8916 6.41658 12.8916H9.91658C10.5583 12.8916 11.0833 12.3666 11.0833 11.725V11.1416C11.0833 10.5 10.5583 9.97496 9.91658 9.97496H6.99992V9.91663Z" fill="#0C44FF"/>
</svg>
