<svg width="36" height="36" viewBox="0 0 36 36" fill="none" xmlns="http://www.w3.org/2000/svg">
<path d="M0 18C0 8.05888 8.05888 0 18 0C27.9411 0 36 8.05888 36 18C36 27.9411 27.9411 36 18 36C8.05888 36 0 27.9411 0 18Z" fill="#292861"/>
<path d="M25.5334 25.0334L26.0888 25.5373L26.0892 25.537L25.5334 25.0334ZM24.1667 26.0167L23.8823 25.3227L23.8783 25.3244L24.1667 26.0167ZM16.9584 24.075L16.516 24.6807L16.517 24.6813L16.9584 24.075ZM14.2251 21.7417L13.6922 22.2695L13.6973 22.2746L14.2251 21.7417ZM11.9001 19.0167L11.2912 19.4546L11.2938 19.4581L11.9001 19.0167ZM10.2667 16.175L9.57552 16.4661L9.57644 16.4682L10.2667 16.175ZM9.96675 11.8417L10.6631 12.1202L10.6647 12.1163L9.96675 11.8417ZM10.9251 10.45L11.4397 10.9956L11.4455 10.9901L11.4512 10.9845L10.9251 10.45ZM13.3334 9.81669L13.0088 10.4929L13.0191 10.4977L13.3334 9.81669ZM13.8917 10.2834L13.2751 10.7103L13.2801 10.7173L13.8917 10.2834ZM15.8251 13.0084L15.2134 13.4423L15.2164 13.4466L15.8251 13.0084ZM16.1584 13.5917L15.4642 13.8757L15.4691 13.8871L16.1584 13.5917ZM16.1001 14.6917L15.4594 14.3017L15.4531 14.3121L15.4472 14.3226L16.1001 14.6917ZM15.6334 15.2834L15.1031 14.753L15.098 14.7582L15.0929 14.7634L15.6334 15.2834ZM15.0001 15.9417L15.5304 16.472L15.5355 16.4669L15.5406 16.4617L15.0001 15.9417ZM14.8917 16.4667L14.1641 16.6486L14.1745 16.69L14.1895 16.73L14.8917 16.4667ZM14.9584 16.6334L14.2469 16.8705L14.268 16.9339L14.3 16.9925L14.9584 16.6334ZM15.7334 17.7L15.1608 18.1845L15.1663 18.1908L15.7334 17.7ZM16.9417 19.0167L16.4064 19.5419L16.4113 19.547L16.4164 19.552L16.9417 19.0167ZM18.2667 20.2417L17.7813 20.8134L17.7823 20.8142L18.2667 20.2417ZM19.3417 21.0084L18.9908 21.6712L19.0261 21.6899L19.0632 21.7047L19.3417 21.0084ZM19.4917 21.075L19.1963 21.7644L19.2122 21.7712L19.2284 21.7773L19.4917 21.075ZM20.0417 20.9667L19.5149 20.4328L19.5114 20.4364L20.0417 20.9667ZM20.6751 20.3417L21.2019 20.8755L21.2054 20.872L20.6751 20.3417ZM21.2751 19.875L21.622 20.54L21.6439 20.5285L21.665 20.5157L21.2751 19.875ZM22.9584 20.1334L23.3926 19.5218L23.3864 19.5174L23.3801 19.5132L22.9584 20.1334ZM25.7167 22.0917L25.2825 22.7033L25.2898 22.7083L25.7167 22.0917ZM26.1751 22.625L26.8714 22.3465L26.8667 22.3346L26.8616 22.323L26.1751 22.625ZM22.6667 15.5C22.6667 15.9142 23.0025 16.25 23.4167 16.25C23.831 16.25 24.1667 15.9142 24.1667 15.5H23.4167H22.6667ZM22.4417 13.6084L21.8919 14.1184L21.8935 14.1201L22.4417 13.6084ZM20.5001 11.8334C20.0859 11.8334 19.7501 12.1691 19.7501 12.5834C19.7501 12.9976 20.0859 13.3334 20.5001 13.3334V12.5834V11.8334ZM25.5834 15.5C25.5834 15.9142 25.9192 16.25 26.3334 16.25C26.7476 16.25 27.0834 15.9142 27.0834 15.5H26.3334H25.5834ZM20.5001 8.91669C20.0859 8.91669 19.7501 9.25247 19.7501 9.66669C19.7501 10.0809 20.0859 10.4167 20.5001 10.4167V9.66669V8.91669ZM26.3084 23.275H25.5584C25.5584 23.4625 25.517 23.6617 25.4219 23.8631L26.1001 24.1834L26.7783 24.5036C26.9665 24.1051 27.0584 23.6875 27.0584 23.275H26.3084ZM26.1001 24.1834L25.4219 23.8631C25.31 24.1001 25.167 24.3209 24.9777 24.5297L25.5334 25.0334L26.0892 25.537C26.3832 25.2125 26.6068 24.8666 26.7783 24.5036L26.1001 24.1834ZM25.5334 25.0334L24.978 24.5294C24.6357 24.9066 24.2756 25.1615 23.8823 25.3227L24.1667 26.0167L24.4512 26.7107C25.0746 26.4552 25.6144 26.0601 26.0888 25.5373L25.5334 25.0334ZM24.1667 26.0167L23.8783 25.3244C23.4731 25.4932 23.0299 25.5834 22.5417 25.5834V26.3334V27.0834C23.2203 27.0834 23.8604 26.9569 24.4552 26.709L24.1667 26.0167ZM22.5417 26.3334V25.5834C21.8104 25.5834 21.0021 25.4113 20.1191 25.035L19.8251 25.725L19.5311 26.415C20.5647 26.8554 21.5731 27.0834 22.5417 27.0834V26.3334ZM19.8251 25.725L20.1191 25.035C19.2182 24.6512 18.309 24.1306 17.3999 23.4687L16.9584 24.075L16.517 24.6813C17.5079 25.4028 18.5153 25.9822 19.5311 26.415L19.8251 25.725ZM16.9584 24.075L17.4008 23.4694C16.4734 22.792 15.5935 22.0414 14.7528 21.2088L14.2251 21.7417L13.6973 22.2746C14.59 23.1587 15.5268 23.9581 16.516 24.6807L16.9584 24.075ZM14.2251 21.7417L14.758 21.2139C13.9252 20.3731 13.175 19.4935 12.5064 18.5752L11.9001 19.0167L11.2938 19.4581C12.0085 20.4399 12.8082 21.3769 13.6922 22.2694L14.2251 21.7417ZM11.9001 19.0167L12.5089 18.5787C11.852 17.6654 11.3316 16.7637 10.9571 15.8818L10.2667 16.175L9.57644 16.4682C10.0019 17.4697 10.5815 18.4679 11.2912 19.4546L11.9001 19.0167ZM10.2667 16.175L10.958 15.884C10.5896 15.009 10.4167 14.1997 10.4167 13.45H9.66675H8.91675C8.91675 14.4337 9.14394 15.4411 9.57552 16.4661L10.2667 16.175ZM9.66675 13.45H10.4167C10.4167 12.9722 10.5009 12.5258 10.6631 12.1202L9.96675 11.8417L9.27039 11.5631C9.03261 12.1576 8.91675 12.7945 8.91675 13.45H9.66675ZM9.96675 11.8417L10.6647 12.1163C10.8218 11.7169 11.0733 11.3412 11.4397 10.9956L10.9251 10.45L10.4104 9.90448C9.89351 10.3921 9.51169 10.9498 9.26882 11.5671L9.96675 11.8417ZM10.9251 10.45L11.4512 10.9845C11.8713 10.5709 12.2736 10.4167 12.6584 10.4167V9.66669V8.91669C11.8099 8.91669 11.0455 9.2791 10.3989 9.91553L10.9251 10.45ZM12.6584 9.66669V10.4167C12.7867 10.4167 12.9082 10.4445 13.0089 10.4928L13.3334 9.81669L13.658 9.14054C13.3419 8.98885 12.9968 8.91669 12.6584 8.91669V9.66669ZM13.3334 9.81669L13.0191 10.4977C13.1244 10.5462 13.2076 10.6127 13.2751 10.7103L13.8917 10.2834L14.5084 9.85645C14.2759 9.52067 13.9758 9.28714 13.6477 9.13572L13.3334 9.81669ZM13.8917 10.2834L13.2801 10.7173L15.2134 13.4423L15.8251 13.0084L16.4368 12.5744L14.5034 9.84937L13.8917 10.2834ZM15.8251 13.0084L15.2164 13.4466C15.3393 13.6172 15.4159 13.7574 15.4643 13.8757L16.1584 13.5917L16.8526 13.3077C16.751 13.0593 16.6109 12.8162 16.4337 12.5701L15.8251 13.0084ZM16.1584 13.5917L15.4691 13.8871C15.5148 13.9939 15.5251 14.0674 15.5251 14.1H16.2751H17.0251C17.0251 13.8159 16.952 13.5395 16.8478 13.2962L16.1584 13.5917ZM16.2751 14.1H15.5251C15.5251 14.1491 15.5119 14.2155 15.4594 14.3017L16.1001 14.6917L16.7407 15.0816C16.9216 14.7845 17.0251 14.451 17.0251 14.1H16.2751ZM16.1001 14.6917L15.4472 14.3226C15.3807 14.4402 15.2691 14.587 15.1031 14.753L15.6334 15.2834L16.1637 15.8137C16.3977 15.5797 16.6028 15.3265 16.753 15.0607L16.1001 14.6917ZM15.6334 15.2834L15.0929 14.7634L14.4596 15.4217L15.0001 15.9417L15.5406 16.4617L16.1739 15.8033L15.6334 15.2834ZM15.0001 15.9417L14.4698 15.4114C14.2258 15.6553 14.1167 15.9598 14.1167 16.275H14.8667H15.6167C15.6167 16.2877 15.6145 16.3231 15.5963 16.369C15.5776 16.4163 15.5512 16.4512 15.5304 16.472L15.0001 15.9417ZM14.8667 16.275H14.1167C14.1167 16.4127 14.1352 16.5327 14.1641 16.6486L14.8917 16.4667L15.6194 16.2848C15.6164 16.2731 15.6162 16.2699 15.6164 16.2717C15.6165 16.2725 15.6166 16.2736 15.6167 16.2746C15.6168 16.2757 15.6167 16.2759 15.6167 16.275H14.8667ZM14.8917 16.4667L14.1895 16.73C14.2086 16.7809 14.2277 16.8255 14.2375 16.8485C14.2498 16.8776 14.2491 16.8772 14.2469 16.8705L14.9584 16.6334L15.6699 16.3962C15.651 16.3395 15.6296 16.2891 15.6189 16.264C15.6058 16.2329 15.5999 16.2192 15.594 16.2033L14.8917 16.4667ZM14.9584 16.6334L14.3 16.9925C14.4854 17.3325 14.7809 17.7355 15.1609 18.1845L15.7334 17.7L16.306 17.2156C15.9526 16.7979 15.7314 16.4842 15.6168 16.2742L14.9584 16.6334ZM15.7334 17.7L15.1663 18.1908C15.5489 18.633 15.9596 19.0866 16.4064 19.5419L16.9417 19.0167L17.4771 18.4914C17.0572 18.0634 16.6679 17.6338 16.3005 17.2092L15.7334 17.7ZM16.9417 19.0167L16.4164 19.552C16.8724 19.9995 17.3202 20.4219 17.7813 20.8134L18.2667 20.2417L18.7522 19.67C18.33 19.3115 17.9111 18.9172 17.4671 18.4814L16.9417 19.0167ZM18.2667 20.2417L17.7823 20.8142C18.2378 21.1997 18.642 21.4865 18.9908 21.6712L19.3417 21.0084L19.6927 20.3455C19.4748 20.2302 19.1623 20.017 18.7512 19.6691L18.2667 20.2417ZM19.3417 21.0084L19.0632 21.7047C19.0621 21.7043 19.0641 21.705 19.0707 21.708C19.0774 21.7109 19.0856 21.7147 19.098 21.7204C19.1203 21.7306 19.1568 21.7474 19.1963 21.7644L19.4917 21.075L19.7872 20.3857C19.7684 20.3776 19.7507 20.3695 19.723 20.3568C19.7004 20.3464 19.661 20.3283 19.6203 20.312L19.3417 21.0084ZM19.4917 21.075L19.2284 21.7773C19.4047 21.8434 19.567 21.8584 19.7001 21.8584V21.1084V20.3584C19.69 20.3584 19.6934 20.3578 19.7051 20.3595C19.7181 20.3615 19.7358 20.3655 19.7551 20.3728L19.4917 21.075ZM19.7001 21.1084V21.8584C20.0513 21.8584 20.3475 21.7216 20.5721 21.497L20.0417 20.9667L19.5114 20.4364C19.5231 20.4247 19.5511 20.4009 19.5958 20.3819C19.6412 20.3625 19.6798 20.3584 19.7001 20.3584V21.1084ZM20.0417 20.9667L20.5686 21.5005L21.2019 20.8755L20.6751 20.3417L20.1483 19.8079L19.5149 20.4329L20.0417 20.9667ZM20.6751 20.3417L21.2054 20.872C21.3834 20.694 21.5223 20.592 21.622 20.54L21.2751 19.875L20.9282 19.2101C20.6445 19.3581 20.3834 19.5727 20.1448 19.8114L20.6751 20.3417ZM21.2751 19.875L21.665 20.5157C21.7539 20.4616 21.8122 20.45 21.8667 20.45V19.7V18.95C21.5046 18.95 21.1796 19.0551 20.8851 19.2344L21.2751 19.875ZM21.8667 19.7V20.45C21.9152 20.45 21.9855 20.4593 22.0911 20.5025L22.3751 19.8084L22.6591 19.1142C22.398 19.0074 22.135 18.95 21.8667 18.95V19.7ZM22.3751 19.8084L22.0911 20.5025C22.2115 20.5518 22.3562 20.6308 22.5367 20.7535L22.9584 20.1334L23.3801 19.5132C23.144 19.3526 22.9054 19.215 22.6591 19.1142L22.3751 19.8084ZM22.9584 20.1334L22.5242 20.7449L25.2826 22.7032L25.7167 22.0917L26.1509 21.4801L23.3926 19.5218L22.9584 20.1334ZM25.7167 22.0917L25.2898 22.7083C25.41 22.7915 25.4607 22.8637 25.4886 22.9271L26.1751 22.625L26.8616 22.323C26.7061 21.9697 26.4568 21.6918 26.1437 21.475L25.7167 22.0917ZM26.1751 22.625L25.4787 22.9036C25.5347 23.0434 25.5584 23.1566 25.5584 23.275H26.3084H27.0584C27.0584 22.9268 26.9822 22.6233 26.8714 22.3465L26.1751 22.625ZM23.4167 15.5H24.1667C24.1667 15.0802 24.0113 14.6399 23.815 14.2581C23.6109 13.8612 23.3264 13.457 22.99 13.0966L22.4417 13.6084L21.8935 14.1201C22.1405 14.3847 22.3434 14.6763 22.481 14.944C22.6264 15.2268 22.6667 15.4198 22.6667 15.5H23.4167ZM22.4417 13.6084L22.9916 13.0983C22.3957 12.4558 21.5022 11.8334 20.5001 11.8334V12.5834V13.3334C20.898 13.3334 21.4211 13.6109 21.8919 14.1184L22.4417 13.6084ZM26.3334 15.5H27.0834C27.0834 11.8608 24.1393 8.91669 20.5001 8.91669V9.66669V10.4167C23.3109 10.4167 25.5834 12.6892 25.5834 15.5H26.3334Z" fill="white"/>
</svg>
