<svg width="21" height="15" viewBox="0 0 21 15" fill="none" xmlns="http://www.w3.org/2000/svg">
<path d="M19.7991 5.295C20.1379 5.22606 20.4425 5.04219 20.6613 4.77449C20.8802 4.50679 20.9998 4.1717 21 3.82594V1.5C21 1.10218 20.842 0.720644 20.5607 0.43934C20.2794 0.158035 19.8978 0 19.5 0H1.5C1.10218 0 0.720647 0.158035 0.439343 0.43934C0.158038 0.720644 2.8582e-06 1.10218 2.8582e-06 1.5V3.82594C0.000192441 4.1717 0.11983 4.50679 0.338671 4.77449C0.557511 5.04219 0.862116 5.22606 1.20094 5.295C1.70757 5.40006 2.16251 5.67653 2.48912 6.07782C2.81573 6.47912 2.99406 6.98072 2.99406 7.49813C2.99406 8.01553 2.81573 8.51713 2.48912 8.91843C2.16251 9.31972 1.70757 9.59619 1.20094 9.70125C0.861485 9.77031 0.556396 9.95474 0.337483 10.2232C0.11857 10.4917 -0.000673108 10.8277 2.8582e-06 11.1741V13.5C2.8582e-06 13.8978 0.158038 14.2794 0.439343 14.5607C0.720647 14.842 1.10218 15 1.5 15H19.5C19.8978 15 20.2794 14.842 20.5607 14.5607C20.842 14.2794 21 13.8978 21 13.5V11.1741C20.9998 10.8283 20.8802 10.4932 20.6613 10.2255C20.4425 9.95781 20.1379 9.77394 19.7991 9.705C19.2924 9.59994 18.8375 9.32347 18.5109 8.92218C18.1843 8.52088 18.0059 8.01928 18.0059 7.50188C18.0059 6.98447 18.1843 6.48287 18.5109 6.08157C18.8375 5.68028 19.2924 5.40381 19.7991 5.29875V5.295ZM1.5 11.175C2.34722 11.0024 3.10876 10.5424 3.65573 9.87275C4.20269 9.20313 4.50146 8.36508 4.50146 7.50047C4.50146 6.63586 4.20269 5.7978 3.65573 5.12819C3.10876 4.45857 2.34722 3.99852 1.5 3.82594V1.5H6.75V13.5H1.5V11.175Z" fill="#292861"/>
</svg>
